<svg xmlns="http://www.w3.org/2000/svg" width="116.121" height="144.289" viewBox="0 0 116.121 144.289">
  <g id="Grupo_158780" data-name="Grupo 158780" transform="translate(0.001)">
    <g id="Grupo_158317" data-name="Grupo 158317" transform="translate(-0.001)">
      <path id="Trazado_230945" data-name="Trazado 230945" d="M1.71,144.289A2.708,2.708,0,0,1,0,141.518Q.037,72.144,0,2.77A2.7,2.7,0,0,1,1.71,0H62.889c.914.227,1.836.431,2.742.683a18.379,18.379,0,0,1,7.286,3.988q18.934,16.6,37.9,33.176a14.212,14.212,0,0,1,5.288,11.111q-.022,46.28.014,92.56a2.715,2.715,0,0,1-1.712,2.772Zm3.208-4.309H111.192c.029-.443.074-.81.074-1.177q0-44.874-.008-89.749c-.005-6.592-5.134-11-12.691-11.007q-10.947-.016-21.893,0c-3.536,0-4.043-.453-4.043-3.614,0-6.34.017-12.68-.006-19.021C72.6,8.627,67.557,4.232,59.805,4.229q-26.561-.01-53.123,0H4.919ZM77.585,15.156V33.733H98.8L77.585,15.156" transform="translate(0.001)" fill="#dad3f3"/>
      <path id="Trazado_230948" data-name="Trazado 230948" d="M48.93,211.613h54.419V150.4H48.93v6.473c0,2.343.011,4.686,0,7.029-.011,1.678-.752,2.63-1.983,2.613-1.185-.016-1.887-.93-1.89-2.536q-.014-7.638,0-15.275c.005-1.751.683-2.451,2.362-2.451q28.728-.009,57.457,0c1.759,0,2.421.684,2.422,2.528q.01,32.172,0,64.343c0,1.936-.646,2.609-2.478,2.61q-28.6.006-57.2,0c-1.939,0-2.569-.641-2.569-2.649q-.009-19.938,0-39.877c0-1.689.721-2.635,1.943-2.616s1.931.964,1.932,2.667q.01,18.317,0,36.632v1.72" transform="translate(-20.684 -86.435)" fill="#dad3f3"/>
      <path id="Trazado_230949" data-name="Trazado 230949" d="M87.764,280.407q-8.946,0-17.891,0c-1.825,0-2.327-.624-2.332-2.9-.006-2.627-.019-5.254,0-7.88.052-6.418,3.6-10.873,8.678-10.886q11.517-.026,23.034,0c5.025.013,8.579,4.453,8.646,10.783.029,2.673.011,5.347,0,8.021-.006,2.2-.521,2.86-2.253,2.861q-8.945.007-17.891,0m16.767-4.286c0-2.546.064-4.938-.016-7.322-.106-3.161-2.194-5.79-4.729-5.81q-12.065-.093-24.13,0c-2.262.015-4.4,2.217-4.625,4.984-.219,2.67-.047,5.391-.047,8.1h3.277c0-2.359-.024-4.6.01-6.847.018-1.213.6-1.927,1.536-2.01.948-.084,1.549.595,1.733,1.756a11.094,11.094,0,0,1,.061,1.679c.007,1.809,0,3.618,0,5.435H97.846c0-2.022-.005-3.941,0-5.861a7.6,7.6,0,0,1,.088-1.393c.214-1.1.818-1.7,1.707-1.616.933.091,1.517.8,1.534,2.015.033,2.28.01,4.563.01,6.893Z" transform="translate(-32.412 -158.383)" fill="#dad3f3"/>
      <path id="Trazado_230950" data-name="Trazado 230950" d="M66.394,44.06c0,4.6.01,9.131-.009,13.661a13.339,13.339,0,0,1-.2,2.535,6.338,6.338,0,0,1-6.654,4.984,6.232,6.232,0,0,1-5.86-5.877c-.11-4.583-.044-9.17-.053-13.755,0-.506,0-1.012,0-1.639-2.66.109-5.229.029-6.844-2.176a9.284,9.284,0,0,1-1.6-4.1,4.965,4.965,0,0,1,2.542-5.179c1.708-.918,3.743-1.228,5.862-1.876-.084-2.187.007-4.851,2.393-6.456a8.491,8.491,0,0,1,4.16-1.414,6.112,6.112,0,0,1,3.634,1.247,7.341,7.341,0,0,1,2.243,3.147,17.443,17.443,0,0,1,.552,4.006c2.577-.131,5.217.04,6.825,2.4a8.121,8.121,0,0,1,1.439,4.163c.071,3.935-2.54,5.822-8.428,6.329m-8.52,6.352h.016c0,2.837-.025,5.674.012,8.511a1.928,1.928,0,0,0,1.944,2.037,1.985,1.985,0,0,0,2.208-1.766,6.836,6.836,0,0,0,.077-1.411q.007-7.448,0-14.895c0-2.626.551-3.184,3.121-3.187.9,0,1.8.007,2.7,0,1.657-.017,2.648-.8,2.675-2.092.027-1.343-.992-2.151-2.741-2.164-.9-.007-1.8,0-2.7,0-2.473,0-3.048-.591-3.055-3.115,0-.993.028-1.987-.011-2.979-.061-1.528-.938-2.457-2.215-2.412-1.228.043-1.994.936-2.027,2.418-.025,1.135.009,2.27-.012,3.4-.036,1.92-.777,2.66-2.674,2.68-1.182.013-2.365-.023-3.547.011a2.123,2.123,0,1,0-.055,4.238c1.181.041,2.364,0,3.546.014,1.981.017,2.713.744,2.728,2.766.019,2.648,0,5.3,0,7.944" transform="translate(-27.184 -12.546)" fill="#dad3f3"/>
      <path id="Trazado_230951" data-name="Trazado 230951" d="M125.14,183.467a14.772,14.772,0,1,1-14.816-14.708,14.772,14.772,0,0,1,14.816,14.708m-4.221.059a10.551,10.551,0,1,0-10.527,10.558,10.54,10.54,0,0,0,10.527-10.558" transform="translate(-55.151 -96.614)" fill="#dad3f3"/>
    </g>
  </g>
</svg>
