<svg id="Grupo_158782" data-name="Grupo 158782" xmlns="http://www.w3.org/2000/svg" xmlns:xlink="http://www.w3.org/1999/xlink" width="140.608" height="133.334" viewBox="0 0 140.608 133.334">
  <defs>
    <clipPath id="clip-path">
      <rect id="Rectángulo_47624" data-name="Rectángulo 47624" width="140.608" height="133.334" fill="#dad3f3"/>
    </clipPath>
  </defs>
  <g id="Grupo_158318" data-name="Grupo 158318" clip-path="url(#clip-path)">
    <path id="Trazado_230952" data-name="Trazado 230952" d="M0,9.649A12.127,12.127,0,0,1,3.818,2.708,11.622,11.622,0,0,1,11.683.033q33.365.011,66.73,0,13.868,0,27.736,0a6.822,6.822,0,0,1,1.5.091,1.906,1.906,0,0,1,1.592,1.97,1.894,1.894,0,0,1-1.6,1.96,8.7,8.7,0,0,1-1.775.091q-46.89.006-93.779,0c-5.376,0-7.964,2.606-7.964,8.017q0,54.718,0,109.436c0,3.846,1.715,6.425,4.962,7.312a11.071,11.071,0,0,0,2.848.287c6.316.024,12.632.01,18.948.014,2.094,0,3.12.682,3.132,2.056.012,1.388-.991,2.067-3.1,2.062-6.865-.016-13.733.1-20.592-.112-5.169-.158-8.969-3.656-10.082-8.71A4.59,4.59,0,0,0,0,123.9V9.649" transform="translate(0 -0.024)" fill="#dad3f3"/>
    <path id="Trazado_230953" data-name="Trazado 230953" d="M241.454,123.873a12.756,12.756,0,0,1-3.5,6.517,12.051,12.051,0,0,1-8.588,2.943q-43.106-.039-86.212-.015c-.595,0-1.191.018-1.784-.01-1.439-.068-2.3-.81-2.338-1.979-.037-1.217.853-2.029,2.352-2.121.456-.028.915-.01,1.372-.01q43.243,0,86.487-.014a12.381,12.381,0,0,0,3.25-.336,6.577,6.577,0,0,0,4.805-5.878c.048-.545.04-1.1.04-1.646q0-54.639,0-109.279c0-5.287-2.631-7.911-7.93-7.912q-5.9,0-11.806,0c-.275,0-.549.005-.824,0-1.586-.038-2.535-.837-2.5-2.106.03-1.22.943-2,2.462-2.005C220.714,0,224.7-.019,228.676.028A18.875,18.875,0,0,1,233.17.4a10.655,10.655,0,0,1,8.008,8.178c.091.349.184.7.276,1.047Z" transform="translate(-100.846 0.001)" fill="#dad3f3"/>
    <path id="Trazado_230954" data-name="Trazado 230954" d="M87.7,90.89c.515,3.039,1.108,5.928,1.462,8.847.224,1.845-.617,2.622-2.459,2.624q-19.153.018-38.307,0c-1.891,0-2.761-.841-2.514-2.732.375-2.874.969-5.719,1.481-8.635a36.062,36.062,0,0,1-4.236-2.33,14.023,14.023,0,0,1-6.046-11.737c-.067-6.45-.173-12.917.195-19.35.782-13.671,12.14-25.562,25.67-27.528A30.521,30.521,0,0,1,97.323,54.031a37.015,37.015,0,0,1,.646,6.952c.1,4.666-.138,9.343.067,14,.32,7.279-3.157,13.445-10.336,15.9M62.186,49.252c-.89.794-1.647,1.523-2.46,2.184a34.934,34.934,0,0,1-11.287,5.753,1.642,1.642,0,0,0-1.345,1.43A20.863,20.863,0,0,0,57.345,80.876c7.417,4.147,14.932,3.869,21.874-.947,7.262-5.039,10.035-12.28,8.822-21.04-.107-.774-.471-1-1.248-1.092-2.85-.353-5.725-.652-8.519-1.287a45.1,45.1,0,0,1-16.088-7.258m19.5,34.074c1.023,1.165,1.878,2.242,2.855,3.194A1.868,1.868,0,0,0,86,86.97a10.248,10.248,0,0,0,7.858-10.125c.058-5.719.017-11.438-.012-17.157a24.386,24.386,0,0,0-.255-3,26.257,26.257,0,0,0-52.21,1.378c-.432,6.331-.312,12.715-.149,19.068a10.136,10.136,0,0,0,7.978,9.9c.315.067.81.087.981-.1,1.078-1.15,2.088-2.363,3.151-3.592-.272-.23-.475-.409-.684-.579-8.455-6.838-11.492-15.586-9.324-26.217a3.421,3.421,0,0,1,2.727-2.965c4.87-1.409,9.418-3.467,13.086-7.152,1.584-1.591,3.278-1.7,5.258-.585.677.38,1.322.816,1.979,1.233a41.13,41.13,0,0,0,16.3,6.108c2.121.306,4.272.407,6.409.595A2.3,2.3,0,0,1,91.445,55.5a25.316,25.316,0,0,1-9.761,27.827M50.128,98.163H84.964a17.881,17.881,0,0,0-6.812-12.184,1.632,1.632,0,0,0-1.336-.013c-5.432,2.144-11.065,2.689-16.476.586-3.084-1.2-4.517.052-6.118,2.008a17.486,17.486,0,0,0-4.094,9.6" transform="translate(-26.849 -21.558)" fill="#dad3f3"/>
    <path id="Trazado_230955" data-name="Trazado 230955" d="M320.012,83.325c-2.086,0-3.954.013-5.821,0-3.279-.027-4.9-1.634-4.94-4.888-.017-1.464-.044-2.929.01-4.391a4.19,4.19,0,0,1,4.507-4.443c1.738-.033,3.477-.037,5.215,0,.776.018,1.053-.266,1.039-1.033-.033-1.829-.024-3.66,0-5.489.035-3.286,1.638-4.89,4.894-4.912,1.372-.009,2.745-.016,4.117,0,3.011.04,4.655,1.656,4.708,4.679.039,2.187.008,4.375.008,6.742,2.016,0,3.878-.006,5.741,0,3.464.015,5,1.561,5.024,5.041.007,1.327.024,2.654,0,3.98-.065,3.011-1.7,4.652-4.706,4.7-1.955.033-3.911.006-6.052.006v1.739q0,9.058,0,18.116c0,3.754-1.484,5.22-5.24,5.223-1.373,0-2.745.02-4.117-.007a4.113,4.113,0,0,1-4.345-4.3c-.084-2.926-.029-5.855-.03-8.783,0-3.928,0-7.855,0-11.988m-6.641-9.612c0,1.7.024,3.157-.01,4.613-.018.779.4.89,1.038.884,2.2-.018,4.39-.009,6.586-.005,2.606,0,3.146.532,3.148,3.122q.008,10.153.005,20.307c0,.524.047,1.048.072,1.552h5.414v-1.731q0-10.222.006-20.444c0-2.152.653-2.79,2.773-2.8,2.287-.015,4.574.025,6.859-.033.377-.01,1.052-.382,1.066-.618.1-1.575.05-3.158.05-4.844-2.808,0-5.409.019-8.011-.006-2.017-.019-2.709-.718-2.737-2.741-.026-1.829-.006-3.659-.006-5.488,0-1.028,0-2.057,0-3.189-1.614,0-2.981.051-4.342-.018-.929-.047-1.19.319-1.16,1.19.051,1.462.007,2.927.014,4.39.027,5.918.413,5.95-5.8,5.866-1.593-.022-3.188,0-4.96,0" transform="translate(-224.307 -42.188)" fill="#dad3f3"/>
    <path id="Trazado_230956" data-name="Trazado 230956" d="M117.114,319.318h-49c-.457,0-.916.014-1.372-.018a1.925,1.925,0,0,1-2-1.856,1.956,1.956,0,0,1,1.8-2.186,8.11,8.11,0,0,1,1.368-.058q49.348,0,98.7,0a6.857,6.857,0,0,1,1.761.175,1.8,1.8,0,0,1,1.4,2.07,1.864,1.864,0,0,1-1.731,1.82,10.076,10.076,0,0,1-1.507.047q-24.708,0-49.416,0" transform="translate(-46.95 -228.636)" fill="#dad3f3"/>
    <path id="Trazado_230957" data-name="Trazado 230957" d="M117.149,353.32H67.732c-2.112-.005-3.069-.661-3.044-2.086.025-1.39,1.01-2.034,3.132-2.034q49.416,0,98.833,0a6.992,6.992,0,0,1,1.365.08,2.018,2.018,0,0,1-.219,4.014c-.455.039-.915.023-1.372.023H117.149" transform="translate(-46.923 -253.301)" fill="#dad3f3"/>
    <path id="Trazado_230958" data-name="Trazado 230958" d="M117.257,387.321H68.115c-.458,0-.916.013-1.372-.017a1.925,1.925,0,0,1-2.005-1.85,1.954,1.954,0,0,1,1.8-2.191A8.018,8.018,0,0,1,67.9,383.2q49.348,0,98.7,0a6.932,6.932,0,0,1,1.761.173,1.8,1.8,0,0,1,1.409,2.066,1.863,1.863,0,0,1-1.726,1.825,9.933,9.933,0,0,1-1.507.048q-24.639,0-49.279,0" transform="translate(-46.949 -277.964)" fill="#dad3f3"/>
    <path id="Trazado_230959" data-name="Trazado 230959" d="M78.676,433.319c-3.84,0-7.682.044-11.52-.038A3.409,3.409,0,0,1,65,432.433a1.877,1.877,0,0,1,.866-3.005,5.449,5.449,0,0,1,1.75-.22q11.041-.021,22.082-.008a7.863,7.863,0,0,1,1.095.034,1.988,1.988,0,0,1,1.943,2.2,1.928,1.928,0,0,1-2.126,1.867c-2.469.026-4.937.013-7.406.015q-2.263,0-4.526,0" transform="translate(-46.808 -311.329)" fill="#dad3f3"/>
    <path id="Trazado_230960" data-name="Trazado 230960" d="M358.523,433.317c-3.795,0-7.59.044-11.383-.039a3.382,3.382,0,0,1-2.151-.858,1.874,1.874,0,0,1,.886-3,5.535,5.535,0,0,1,1.751-.216q11.041-.02,22.082-.007a6.981,6.981,0,0,1,1.095.037,1.985,1.985,0,0,1,1.941,2.077,1.957,1.957,0,0,1-2.151,1.986c-2.514.041-5.029.016-7.543.018q-2.263,0-4.526,0" transform="translate(-249.911 -311.327)" fill="#dad3f3"/>
    <path id="Trazado_230965" data-name="Trazado 230965" d="M134.859,156.729a6,6,0,0,1-4.389-1.907,1.949,1.949,0,0,1-.172-2.727,1.875,1.875,0,0,1,2.782-.318,2.463,2.463,0,0,0,3.54.009,1.886,1.886,0,0,1,2.784.3,1.974,1.974,0,0,1-.159,2.733,5.965,5.965,0,0,1-4.385,1.91" transform="translate(-94.169 -109.75)" fill="#dad3f3"/>
    <path id="Trazado_230966" data-name="Trazado 230966" d="M188.85,147.177a8.676,8.676,0,0,1-.005.957,2.15,2.15,0,0,1-2.069,2.131c-1.17-.007-1.963-.889-2.02-2.288a17.252,17.252,0,0,1,.014-1.914,1.977,1.977,0,0,1,1.959-2.035,1.935,1.935,0,0,1,2.057,1.788,12.593,12.593,0,0,1,.11,1.358l-.045,0" transform="translate(-134.003 -104.475)" fill="#dad3f3"/>
    <path id="Trazado_230967" data-name="Trazado 230967" d="M96.655,147.146c0-2.156.592-3.1,1.983-3.137,1.452-.042,2.141.974,2.137,3.149,0,.182.005.365,0,.547-.071,1.611-.838,2.549-2.078,2.544s-1.99-.941-2.037-2.556c-.006-.182,0-.365,0-.547" transform="translate(-70.11 -104.459)" fill="#dad3f3"/>
  </g>
</svg>
