<svg xmlns="http://www.w3.org/2000/svg" xmlns:xlink="http://www.w3.org/1999/xlink" width="808.584" height="925.707" viewBox="0 0 808.584 925.707">
  <defs>
    <clipPath id="clip-path">
      <rect id="Rectángulo_47843" data-name="Rectángulo 47843" width="808.584" height="925.707" fill="none"/>
    </clipPath>
  </defs>
  <g id="Grupo_159285" data-name="Grupo 159285" transform="translate(-395.708 -7615.001)">
    <g id="Grupo_158833" data-name="Grupo 158833" transform="translate(395.708 7615.001)">
      <g id="Grupo_158832" data-name="Grupo 158832" clip-path="url(#clip-path)">
        <path id="Trazado_231408" data-name="Trazado 231408" d="M404.292,47.34c223.285,0,404.291,181.009,404.291,404.295s-181.006,404.29-404.291,404.29S0,674.918,0,451.635,181.008,47.34,404.292,47.34" transform="translate(0 10.267)" fill="#e4e4e4" fill-rule="evenodd"/>
        <path id="Trazado_231409" data-name="Trazado 231409" d="M361.022,437.112,199.5,157.353c99.428-57.408,223.61-57.407,323.038,0Z" transform="translate(43.27 24.789)" fill="#5bd3a9" fill-rule="evenodd"/>
        <path id="Trazado_231410" data-name="Trazado 231410" d="M332.235,429.439l161.52-279.76a323.03,323.03,0,0,1,161.516,279.76Z" transform="translate(72.057 32.463)" fill="#5c9ebc" fill-rule="evenodd"/>
        <path id="Trazado_231411" data-name="Trazado 231411" d="M332.235,379.577H655.271A323.027,323.027,0,0,1,493.755,659.333Z" transform="translate(72.057 82.325)" fill="#7e5ee3" fill-rule="evenodd"/>
        <path id="Trazado_231412" data-name="Trazado 231412" d="M361.022,379.577l161.52,279.756c-99.428,57.405-223.611,57.405-323.038,0Z" transform="translate(43.27 82.325)" fill="#008bfd" fill-rule="evenodd"/>
        <path id="Trazado_231413" data-name="Trazado 231413" d="M389.81,379.577,228.292,659.333A323.033,323.033,0,0,1,66.772,379.577Z" transform="translate(14.482 82.325)" fill="#5e7aa8" fill-rule="evenodd"/>
        <path id="Trazado_231414" data-name="Trazado 231414" d="M389.81,429.439H66.772a323.035,323.035,0,0,1,161.52-279.76Z" transform="translate(14.482 32.463)" fill="#f2a203" fill-rule="evenodd"/>
        <path id="Trazado_231415" data-name="Trazado 231415" d="M355.468,272.452A130.356,130.356,0,1,1,225.112,402.811,130.354,130.354,0,0,1,355.468,272.452" transform="translate(48.824 59.091)" fill="#fff" fill-rule="evenodd"/>
        <path id="Trazado_231416" data-name="Trazado 231416" d="M342.491,0a57.55,57.55,0,0,1,13.82,113.414l-13.82,18.941-13.82-18.941A57.549,57.549,0,0,1,342.491,0" transform="translate(61.801)" fill="#5bd3a9" fill-rule="evenodd"/>
        <path id="Trazado_231417" data-name="Trazado 231417" d="M339.722,12.806a42.006,42.006,0,1,1-42.007,42,42.007,42.007,0,0,1,42.007-42" transform="translate(64.57 2.777)" fill="#fff" fill-rule="evenodd"/>
        <path id="Trazado_231418" data-name="Trazado 231418" d="M676.782,185.248a57.549,57.549,0,0,1-91.309,68.675l-23.309-2.5,9.492-21.438a57.548,57.548,0,0,1,105.127-44.739" transform="translate(121.925 33.935)" fill="#5c9ebc" fill-rule="evenodd"/>
        <path id="Trazado_231419" data-name="Trazado 231419" d="M659.237,190.266A42,42,0,1,1,601.86,174.89a42,42,0,0,1,57.377,15.375" transform="translate(125.978 36.709)" fill="#fff" fill-rule="evenodd"/>
        <path id="Trazado_231420" data-name="Trazado 231420" d="M9,185.248a57.549,57.549,0,0,0,91.309,68.675l23.313-2.5-9.492-21.438A57.55,57.55,0,0,0,9,185.248" transform="translate(0.277 33.935)" fill="#f2a203" fill-rule="evenodd"/>
        <path id="Trazado_231421" data-name="Trazado 231421" d="M19.716,190.266A42.006,42.006,0,1,0,77.1,174.89a42,42,0,0,0-57.38,15.375" transform="translate(3.054 36.709)" fill="#fff" fill-rule="evenodd"/>
        <path id="Trazado_231422" data-name="Trazado 231422" d="M676.782,592.274A57.55,57.55,0,0,0,585.473,523.6l-23.309,2.5,9.492,21.438a57.547,57.547,0,0,0,105.127,44.735" transform="translate(121.925 109.734)" fill="#7e5ee3" fill-rule="evenodd"/>
        <path id="Trazado_231423" data-name="Trazado 231423" d="M659.237,581.719A42,42,0,1,0,601.86,597.1a42,42,0,0,0,57.377-15.377" transform="translate(125.978 112.499)" fill="#fff" fill-rule="evenodd"/>
        <path id="Trazado_231424" data-name="Trazado 231424" d="M9,592.274A57.55,57.55,0,0,1,100.307,523.6l23.313,2.5-9.492,21.438A57.549,57.549,0,0,1,9,592.274" transform="translate(0.277 109.734)" fill="#5e7aa8" fill-rule="evenodd"/>
        <path id="Trazado_231425" data-name="Trazado 231425" d="M19.716,581.719A42.006,42.006,0,1,1,77.1,597.1a42.009,42.009,0,0,1-57.38-15.377" transform="translate(3.054 112.499)" fill="#fff" fill-rule="evenodd"/>
        <path id="Trazado_231426" data-name="Trazado 231426" d="M342.491,784.307A57.547,57.547,0,0,0,356.311,670.9l-13.82-18.943L328.671,670.9a57.547,57.547,0,0,0,13.82,113.409" transform="translate(61.801 141.4)" fill="#008bfd" fill-rule="evenodd"/>
        <path id="Trazado_231427" data-name="Trazado 231427" d="M339.722,762.888a42.006,42.006,0,1,0-42.007-42.006,42.007,42.007,0,0,0,42.007,42.006" transform="translate(64.57 147.239)" fill="#fff" fill-rule="evenodd"/>
        <path id="Trazado_231428" data-name="Trazado 231428" d="M622.046,536.26a13.258,13.258,0,1,0,8.573,3.155,13.253,13.253,0,0,0-8.573-3.155m-.021,31.527a18.263,18.263,0,1,1,13.93-6.441,18.28,18.28,0,0,1-13.93,6.441" transform="translate(130.951 115.222)" fill="#5359a6" fill-rule="evenodd"/>
        <rect id="Rectángulo_47842" data-name="Rectángulo 47842" width="8.255" height="5.005" transform="translate(735.529 681.43) rotate(-49.668)" fill="#5359a6"/>
        <path id="Trazado_231429" data-name="Trazado 231429" d="M602.226,575.409a2.5,2.5,0,0,1-3.531.29l-2.551-2.167a2.5,2.5,0,0,1-.285-3.527l8.259-9.725a2.5,2.5,0,0,1,3.526-.285l2.556,2.161a2.509,2.509,0,0,1,.285,3.529Z" transform="translate(129.104 121.325)" fill="#5359a6" fill-rule="evenodd"/>
        <path id="Trazado_231430" data-name="Trazado 231430" d="M623.768,539.2c.434,1.81-2.5.06-5.685.818s-5.424,3.75-5.858,1.936,3.071-4.147,4.988-4.664c2.185-.585,6.121.1,6.555,1.911" transform="translate(132.775 116.486)" fill="#5359a6" fill-rule="evenodd"/>
        <path id="Trazado_231431" data-name="Trazado 231431" d="M625.259,540.361c-.266.785-1.182.493-1.964.226s-1.143-.415-.876-1.2.416-1.147,1.2-.876,1.907,1.06,1.64,1.848" transform="translate(134.975 116.776)" fill="#5359a6" fill-rule="evenodd"/>
        <path id="Trazado_231432" data-name="Trazado 231432" d="M360.552,358.247c0,13.271-10.76,27.05-24.033,27.05s-24.031-13.779-24.031-27.05a24.032,24.032,0,0,1,48.065,0" transform="translate(67.774 72.487)" fill="#5e7aa8" fill-rule="evenodd"/>
        <path id="Trazado_231433" data-name="Trazado 231433" d="M373.7,435.652a7.991,7.991,0,0,0,7.991-7.993v-5.55c0-17.152-12.377-42.533-41.979-42.533-28.447,0-41.98,24.429-41.98,41.8v6.279a7.992,7.992,0,0,0,7.993,7.993Z" transform="translate(64.575 82.325)" fill="#5e7aa8" fill-rule="evenodd"/>
        <path id="Trazado_231434" data-name="Trazado 231434" d="M311.234,363.736c0,9.691-7.857,20.568-17.55,20.568s-17.551-10.877-17.551-20.568a17.551,17.551,0,1,1,35.1,0" transform="translate(59.889 75.083)" fill="#5e7aa8" fill-rule="evenodd"/>
        <path id="Trazado_231435" data-name="Trazado 231435" d="M316.269,386.816a31.3,31.3,0,0,0-20.249-7.5,30.655,30.655,0,0,0-30.523,27.83h-.136a13.128,13.128,0,0,0,13.127,13.125h22.4a42.29,42.29,0,0,1,15.385-33.451" transform="translate(57.553 82.267)" fill="#5e7aa8" fill-rule="evenodd"/>
        <path id="Trazado_231436" data-name="Trazado 231436" d="M359.381,363.736c0,9.691,7.856,20.568,17.554,20.568s17.547-10.877,17.547-20.568a17.551,17.551,0,1,0-35.1,0" transform="translate(77.945 75.083)" fill="#5e7aa8" fill-rule="evenodd"/>
        <path id="Trazado_231437" data-name="Trazado 231437" d="M357.162,386.816a31.31,31.31,0,0,1,20.253-7.5,30.657,30.657,0,0,1,30.522,27.83h.134a13.128,13.128,0,0,1-13.125,13.125h-22.4a42.279,42.279,0,0,0-15.385-33.451" transform="translate(77.463 82.267)" fill="#5e7aa8" fill-rule="evenodd"/>
        <path id="Trazado_231438" data-name="Trazado 231438" d="M571.586,187.451A359.765,359.765,0,0,0,389.781,91.188l.195-5.33A364.96,364.96,0,0,1,575.282,183.7l8.134-7.626L591.4,203.5l-27.438-7.939Z" transform="translate(84.538 18.621)" fill="#5bd3a9"/>
        <path id="Trazado_231439" data-name="Trazado 231439" d="M609.423,276.6l4.936-1.846A368.143,368.143,0,0,1,620.117,513.2l10.566,3.536-20.853,19.518-5.323-28.067,10.581,3.455c24.164-77.326,22.667-159.006-5.666-235.049" transform="translate(131.109 59.589)" fill="#5c9ebc"/>
        <path id="Trazado_231440" data-name="Trazado 231440" d="M409.407,684.647A359.767,359.767,0,0,0,587.814,576.555l3.92,3.517A365.386,365.386,0,0,1,410.679,689.757l2.686,10.808-27.608-7.316,20.96-19.4Z" transform="translate(83.665 125.047)" fill="#7e5ee3"/>
        <path id="Trazado_231441" data-name="Trazado 231441" d="M127.984,591.825a360.667,360.667,0,0,0,179.9,96.626l-1.068,5.154A366.389,366.389,0,0,1,124.254,595.54l-7.9,7.862-7.907-27.448,27.418,8.018Z" transform="translate(23.522 124.916)" fill="#008bfd"/>
        <path id="Trazado_231442" data-name="Trazado 231442" d="M59.144,524.4l-4.96,1.771a366.177,366.177,0,0,1-3.86-233.985l-10.586-3.468,20.871-19.5L65.9,297.284l-10.575-3.462C31.577,369.211,32.457,449.859,59.144,524.4" transform="translate(7.158 58.389)" fill="#5e7aa8"/>
        <path id="Trazado_231443" data-name="Trazado 231443" d="M295.015,95.779A360.463,360.463,0,0,0,116.378,200.809l-3.868-3.576A366.029,366.029,0,0,1,293.8,90.655l-2.568-10.84,27.526,7.625-21.177,19.166Z" transform="translate(24.402 17.311)" fill="#f2a203"/>
      </g>
    </g>
    <path id="Trazado_232837" data-name="Trazado 232837" d="M35.168,21.836h7.16V25H31.055V7.938h4.113Zm16.1,1.793a4.072,4.072,0,0,1-3.387,1.605,3.993,3.993,0,0,1-3.158-1.213,5.1,5.1,0,0,1-1.072-3.486V12.32H47.6v8.238a1.419,1.419,0,0,0,1.582,1.629,2.064,2.064,0,0,0,1.934-.973V12.32H55.09V25h-3.7Zm5.52-5.062a8.561,8.561,0,0,1,.633-3.4,5.094,5.094,0,0,1,1.816-2.279,4.788,4.788,0,0,1,2.754-.8,3.807,3.807,0,0,1,3.094,1.336l.141-1.1h3.586v12.2a5.346,5.346,0,0,1-.779,2.912,5,5,0,0,1-2.256,1.9,8.292,8.292,0,0,1-3.422.662,7.153,7.153,0,0,1-2.7-.527,4.876,4.876,0,0,1-2-1.371l1.652-2.32a3.621,3.621,0,0,0,2.906,1.3q2.625,0,2.625-2.7v-.4a3.708,3.708,0,0,1-2.871,1.254,4.583,4.583,0,0,1-3.75-1.775,7.356,7.356,0,0,1-1.43-4.752Zm3.961.246a4.511,4.511,0,0,0,.586,2.467,1.849,1.849,0,0,0,1.641.908,2.1,2.1,0,0,0,1.863-.855V16A2.045,2.045,0,0,0,63,15.133a1.861,1.861,0,0,0-1.652.943A5.144,5.144,0,0,0,60.75,18.813ZM78.2,25a4.459,4.459,0,0,1-.375-1.137,3.672,3.672,0,0,1-3.047,1.371A4.5,4.5,0,0,1,71.73,24.15a3.45,3.45,0,0,1-1.254-2.725A3.546,3.546,0,0,1,72,18.309a7.761,7.761,0,0,1,4.43-1.055h1.219v-.671q0-1.755-1.512-1.755a1.236,1.236,0,0,0-1.406,1.39H70.781a3.54,3.54,0,0,1,1.564-2.985,6.575,6.575,0,0,1,3.99-1.147,5.764,5.764,0,0,1,3.832,1.184,4.115,4.115,0,0,1,1.441,3.246v5.613a5.748,5.748,0,0,0,.539,2.672V25Zm-2.473-2.578a2.2,2.2,0,0,0,1.225-.316,1.983,1.983,0,0,0,.7-.715V19.363H76.5q-2.062,0-2.062,1.852a1.131,1.131,0,0,0,.363.873A1.315,1.315,0,0,0,75.727,22.422Zm15.738-6.527-1.3-.094a2.336,2.336,0,0,0-2.391,1.172V25H83.824V12.32h3.7l.129,1.629a3.058,3.058,0,0,1,2.777-1.863,3.851,3.851,0,0,1,1.1.141Zm6.9,2.648a7.484,7.484,0,0,1,.738-3.381,5.28,5.28,0,0,1,2.121-2.279,6.388,6.388,0,0,1,3.246-.8,5.83,5.83,0,0,1,4.488,1.764,6.768,6.768,0,0,1,1.641,4.8v.141a6.566,6.566,0,0,1-1.646,4.705,5.846,5.846,0,0,1-4.459,1.74,5.912,5.912,0,0,1-4.348-1.623,6.348,6.348,0,0,1-1.77-4.4Zm3.949.246a4.718,4.718,0,0,0,.551,2.578,1.835,1.835,0,0,0,1.629.82q2.109,0,2.156-3.246v-.4q0-3.41-2.18-3.41-1.98,0-2.145,2.941ZM4.436,48.566a7.746,7.746,0,0,1,1.3-4.746,4.282,4.282,0,0,1,3.633-1.734,3.641,3.641,0,0,1,2.859,1.336V37h3.961V55H12.639l-.2-1.359a3.739,3.739,0,0,1-3.094,1.594A4.274,4.274,0,0,1,5.76,53.5,7.991,7.991,0,0,1,4.436,48.566Zm3.949.246q0,3.375,1.969,3.375a1.944,1.944,0,0,0,1.875-1.1V46.258a1.892,1.892,0,0,0-1.852-1.125q-1.828,0-1.98,2.953ZM22.6,55H18.639V42.32H22.6ZM18.4,39.051a1.763,1.763,0,0,1,.609-1.383,2.591,2.591,0,0,1,3.164,0,1.874,1.874,0,0,1,0,2.766,2.591,2.591,0,0,1-3.164,0A1.763,1.763,0,0,1,18.4,39.051Zm14.3,6.844L31.4,45.8a2.336,2.336,0,0,0-2.391,1.172V55H25.061V42.32h3.7l.129,1.629a3.058,3.058,0,0,1,2.777-1.863,3.851,3.851,0,0,1,1.1.141Zm7.559,9.34a6.518,6.518,0,0,1-4.723-1.74,6.009,6.009,0,0,1-1.8-4.529v-.328a7.787,7.787,0,0,1,.721-3.434,5.274,5.274,0,0,1,2.1-2.3,6.35,6.35,0,0,1,3.281-.814,5.489,5.489,0,0,1,4.219,1.658A6.516,6.516,0,0,1,45.6,48.367V49.9H37.752a2.846,2.846,0,0,0,.926,1.676,2.755,2.755,0,0,0,1.852.609,3.549,3.549,0,0,0,2.93-1.312l1.8,2.133a5.045,5.045,0,0,1-2.092,1.623A7.069,7.069,0,0,1,40.26,55.234Zm-.445-10.1q-1.734,0-2.062,2.3h3.984v-.3a1.956,1.956,0,0,0-.48-1.471A1.912,1.912,0,0,0,39.814,45.133Zm12.738,7.055a1.756,1.756,0,0,0,1.289-.451,1.654,1.654,0,0,0,.445-1.26h3.7A4.384,4.384,0,0,1,56.5,53.9a5.558,5.558,0,0,1-3.85,1.336A5.627,5.627,0,0,1,48.287,53.5a6.834,6.834,0,0,1-1.594-4.8v-.164a7.723,7.723,0,0,1,.709-3.393,5.162,5.162,0,0,1,2.045-2.262,6.1,6.1,0,0,1,3.164-.791,5.488,5.488,0,0,1,3.926,1.371,4.863,4.863,0,0,1,1.453,3.715h-3.7a2.168,2.168,0,0,0-.48-1.512,1.658,1.658,0,0,0-1.289-.527q-1.535,0-1.793,1.957a13.809,13.809,0,0,0-.082,1.711,5.424,5.424,0,0,0,.457,2.648A1.582,1.582,0,0,0,52.553,52.188Zm12.469,0a1.756,1.756,0,0,0,1.289-.451,1.654,1.654,0,0,0,.445-1.26h3.7A4.384,4.384,0,0,1,68.965,53.9a5.558,5.558,0,0,1-3.85,1.336A5.627,5.627,0,0,1,60.756,53.5a6.834,6.834,0,0,1-1.594-4.8v-.164a7.723,7.723,0,0,1,.709-3.393,5.162,5.162,0,0,1,2.045-2.262,6.1,6.1,0,0,1,3.164-.791,5.488,5.488,0,0,1,3.926,1.371,4.863,4.863,0,0,1,1.453,3.715h-3.7a2.168,2.168,0,0,0-.48-1.512,1.658,1.658,0,0,0-1.289-.527q-1.535,0-1.793,1.957a13.809,13.809,0,0,0-.082,1.711,5.424,5.424,0,0,0,.457,2.648A1.582,1.582,0,0,0,65.021,52.188ZM76.295,55H72.334V42.32h3.961ZM72.1,39.051a1.763,1.763,0,0,1,.609-1.383,2.591,2.591,0,0,1,3.164,0,1.874,1.874,0,0,1,0,2.766,2.591,2.591,0,0,1-3.164,0A1.763,1.763,0,0,1,72.1,39.051Zm6.129,9.492a7.484,7.484,0,0,1,.738-3.381,5.28,5.28,0,0,1,2.121-2.279,6.388,6.388,0,0,1,3.246-.8,5.83,5.83,0,0,1,4.488,1.764,6.768,6.768,0,0,1,1.641,4.8v.141a6.566,6.566,0,0,1-1.646,4.705,5.846,5.846,0,0,1-4.459,1.74,5.912,5.912,0,0,1-4.348-1.623,6.348,6.348,0,0,1-1.77-4.4Zm3.949.246a4.718,4.718,0,0,0,.551,2.578,1.835,1.835,0,0,0,1.629.82q2.109,0,2.156-3.246v-.4q0-3.41-2.18-3.41-1.98,0-2.145,2.941ZM84.873,37h4.172l-3.258,3.68-3.223-.006ZM95.83,42.32l.129,1.488a4.3,4.3,0,0,1,3.621-1.723,3.618,3.618,0,0,1,2.959,1.184,5.635,5.635,0,0,1,1.014,3.563V55H99.592V47a2.14,2.14,0,0,0-.387-1.412,1.789,1.789,0,0,0-1.406-.451,1.883,1.883,0,0,0-1.723.914V55H92.127V42.32Zm15.387,6.246a7.746,7.746,0,0,1,1.3-4.746,4.282,4.282,0,0,1,3.633-1.734,3.641,3.641,0,0,1,2.859,1.336V37h3.961V55H119.42l-.2-1.359a3.739,3.739,0,0,1-3.094,1.594,4.274,4.274,0,0,1-3.586-1.734A7.991,7.991,0,0,1,111.217,48.566Zm3.949.246q0,3.375,1.969,3.375a1.944,1.944,0,0,0,1.875-1.1V46.258a1.892,1.892,0,0,0-1.852-1.125q-1.828,0-1.98,2.953Zm16.184,6.422a6.518,6.518,0,0,1-4.723-1.74,6.009,6.009,0,0,1-1.8-4.529v-.328a7.787,7.787,0,0,1,.721-3.434,5.274,5.274,0,0,1,2.1-2.3,6.35,6.35,0,0,1,3.281-.814,5.489,5.489,0,0,1,4.219,1.658,6.516,6.516,0,0,1,1.547,4.623V49.9h-7.852a2.846,2.846,0,0,0,.926,1.676,2.755,2.755,0,0,0,1.852.609,3.549,3.549,0,0,0,2.93-1.312l1.8,2.133a5.045,5.045,0,0,1-2.092,1.623A7.069,7.069,0,0,1,131.35,55.234Zm-.445-10.1q-1.734,0-2.062,2.3h3.984v-.3a1.956,1.956,0,0,0-.48-1.471A1.912,1.912,0,0,0,130.9,45.133ZM13.072,78.543a7.484,7.484,0,0,1,.738-3.381,5.28,5.28,0,0,1,2.121-2.279,6.388,6.388,0,0,1,3.246-.8,5.83,5.83,0,0,1,4.488,1.764,6.768,6.768,0,0,1,1.641,4.8v.141a6.566,6.566,0,0,1-1.646,4.705,5.846,5.846,0,0,1-4.459,1.74,5.912,5.912,0,0,1-4.348-1.623,6.348,6.348,0,0,1-1.77-4.4Zm3.949.246a4.718,4.718,0,0,0,.551,2.578,1.835,1.835,0,0,0,1.629.82q2.109,0,2.156-3.246v-.4q0-3.41-2.18-3.41-1.98,0-2.145,2.941Zm15.387,3.4a1.756,1.756,0,0,0,1.289-.451,1.654,1.654,0,0,0,.445-1.26h3.7A4.384,4.384,0,0,1,36.352,83.9a5.558,5.558,0,0,1-3.85,1.336A5.627,5.627,0,0,1,28.143,83.5a6.834,6.834,0,0,1-1.594-4.8v-.164a7.723,7.723,0,0,1,.709-3.393A5.162,5.162,0,0,1,29.3,72.877a6.1,6.1,0,0,1,3.164-.791,5.488,5.488,0,0,1,3.926,1.371,4.863,4.863,0,0,1,1.453,3.715h-3.7a2.168,2.168,0,0,0-.48-1.512,1.658,1.658,0,0,0-1.289-.527q-1.535,0-1.793,1.957A13.809,13.809,0,0,0,30.5,78.8a5.424,5.424,0,0,0,.457,2.648A1.582,1.582,0,0,0,32.408,82.188Zm14.66,1.441a4.072,4.072,0,0,1-3.387,1.605,3.993,3.993,0,0,1-3.158-1.213,5.1,5.1,0,0,1-1.072-3.486V72.32H43.4v8.238a1.419,1.419,0,0,0,1.582,1.629,2.064,2.064,0,0,0,1.934-.973V72.32h3.973V85h-3.7Zm13.652-7.734-1.3-.094a2.336,2.336,0,0,0-2.391,1.172V85H53.08V72.32h3.7l.129,1.629a3.058,3.058,0,0,1,2.777-1.863,3.851,3.851,0,0,1,1.1.141Zm9.094,0-1.3-.094a2.336,2.336,0,0,0-2.391,1.172V85H62.174V72.32h3.7l.129,1.629a3.058,3.058,0,0,1,2.777-1.863,3.851,3.851,0,0,1,1.1.141Zm7.559,9.34a6.518,6.518,0,0,1-4.723-1.74,6.009,6.009,0,0,1-1.8-4.529v-.328a7.787,7.787,0,0,1,.721-3.434,5.274,5.274,0,0,1,2.1-2.3,6.35,6.35,0,0,1,3.281-.814,5.489,5.489,0,0,1,4.219,1.658,6.516,6.516,0,0,1,1.547,4.623V79.9H74.865a2.846,2.846,0,0,0,.926,1.676,2.755,2.755,0,0,0,1.852.609,3.549,3.549,0,0,0,2.93-1.312l1.8,2.133a5.045,5.045,0,0,1-2.092,1.623A7.069,7.069,0,0,1,77.373,85.234Zm-.445-10.1q-1.734,0-2.062,2.3H78.85v-.3a1.956,1.956,0,0,0-.48-1.471A1.912,1.912,0,0,0,76.928,75.133Zm11-2.812.129,1.488a4.3,4.3,0,0,1,3.621-1.723,3.618,3.618,0,0,1,2.959,1.184,5.635,5.635,0,0,1,1.014,3.563V85H91.693V77a2.14,2.14,0,0,0-.387-1.412,1.789,1.789,0,0,0-1.406-.451,1.883,1.883,0,0,0-1.723.914V85H84.229V72.32Zm15.27,9.867a1.756,1.756,0,0,0,1.289-.451,1.654,1.654,0,0,0,.445-1.26h3.7a4.384,4.384,0,0,1-1.494,3.422,5.558,5.558,0,0,1-3.85,1.336A5.627,5.627,0,0,1,98.936,83.5a6.834,6.834,0,0,1-1.594-4.8v-.164a7.723,7.723,0,0,1,.709-3.393,5.162,5.162,0,0,1,2.045-2.262,6.1,6.1,0,0,1,3.164-.791,5.488,5.488,0,0,1,3.926,1.371,4.863,4.863,0,0,1,1.453,3.715h-3.7a2.168,2.168,0,0,0-.48-1.512,1.658,1.658,0,0,0-1.289-.527q-1.535,0-1.793,1.957a13.809,13.809,0,0,0-.082,1.711,5.424,5.424,0,0,0,.457,2.648A1.582,1.582,0,0,0,103.2,82.188ZM114.475,85h-3.961V72.32h3.961Zm-4.2-15.949a1.763,1.763,0,0,1,.609-1.383,2.591,2.591,0,0,1,3.164,0,1.874,1.874,0,0,1,0,2.766,2.591,2.591,0,0,1-3.164,0A1.763,1.763,0,0,1,110.279,69.051ZM124.049,85a4.459,4.459,0,0,1-.375-1.137,3.672,3.672,0,0,1-3.047,1.371,4.5,4.5,0,0,1-3.047-1.084,3.45,3.45,0,0,1-1.254-2.725,3.546,3.546,0,0,1,1.523-3.117,7.761,7.761,0,0,1,4.43-1.055H123.5v-.671q0-1.755-1.512-1.755a1.236,1.236,0,0,0-1.406,1.39h-3.949a3.54,3.54,0,0,1,1.564-2.985,6.575,6.575,0,0,1,3.99-1.147,5.764,5.764,0,0,1,3.832,1.184,4.115,4.115,0,0,1,1.441,3.246v5.613A5.748,5.748,0,0,0,128,84.8V85Zm-2.473-2.578a2.2,2.2,0,0,0,1.225-.316,1.983,1.983,0,0,0,.7-.715V79.363H122.35q-2.062,0-2.062,1.852a1.131,1.131,0,0,0,.363.873A1.315,1.315,0,0,0,121.576,82.422ZM18.486,108.566a7.746,7.746,0,0,1,1.3-4.746,4.282,4.282,0,0,1,3.633-1.734,3.641,3.641,0,0,1,2.859,1.336V97H30.24v18H26.689l-.2-1.359a3.739,3.739,0,0,1-3.094,1.594,4.274,4.274,0,0,1-3.586-1.734A7.991,7.991,0,0,1,18.486,108.566Zm3.949.246q0,3.375,1.969,3.375a1.944,1.944,0,0,0,1.875-1.1v-4.828a1.892,1.892,0,0,0-1.852-1.125q-1.828,0-1.98,2.953Zm16.184,6.422a6.518,6.518,0,0,1-4.723-1.74,6.009,6.009,0,0,1-1.8-4.529v-.328a7.787,7.787,0,0,1,.721-3.434,5.274,5.274,0,0,1,2.1-2.3,6.35,6.35,0,0,1,3.281-.814,5.489,5.489,0,0,1,4.219,1.658,6.516,6.516,0,0,1,1.547,4.623V109.9H36.111a2.846,2.846,0,0,0,.926,1.676,2.755,2.755,0,0,0,1.852.609,3.549,3.549,0,0,0,2.93-1.312l1.8,2.133a5.045,5.045,0,0,1-2.092,1.623A7.069,7.069,0,0,1,38.619,115.234Zm-.445-10.1q-1.734,0-2.062,2.3H40.1v-.3a1.956,1.956,0,0,0-.48-1.471A1.912,1.912,0,0,0,38.174,105.133ZM49.717,115H45.756V97h3.961Zm12.27-11.32a4.334,4.334,0,0,1,6.4-.352A5.582,5.582,0,0,1,69.475,107v8H65.514v-7.91a2.232,2.232,0,0,0-.41-1.482,1.762,1.762,0,0,0-1.395-.475,1.9,1.9,0,0,0-1.723.773V115H58.037V97h3.949Zm15.82,11.555a6.518,6.518,0,0,1-4.723-1.74,6.009,6.009,0,0,1-1.8-4.529v-.328A7.787,7.787,0,0,1,72,105.2a5.274,5.274,0,0,1,2.1-2.3,6.35,6.35,0,0,1,3.281-.814,5.489,5.489,0,0,1,4.219,1.658,6.516,6.516,0,0,1,1.547,4.623V109.9H75.3a2.846,2.846,0,0,0,.926,1.676,2.755,2.755,0,0,0,1.852.609,3.549,3.549,0,0,0,2.93-1.312l1.8,2.133a5.045,5.045,0,0,1-2.092,1.623A7.069,7.069,0,0,1,77.807,115.234Zm-.445-10.1q-1.734,0-2.062,2.3h3.984v-.3a1.956,1.956,0,0,0-.48-1.471A1.912,1.912,0,0,0,77.361,105.133ZM90.1,112.188a1.756,1.756,0,0,0,1.289-.451,1.654,1.654,0,0,0,.445-1.26h3.7a4.384,4.384,0,0,1-1.494,3.422,5.558,5.558,0,0,1-3.85,1.336,5.627,5.627,0,0,1-4.359-1.734,6.834,6.834,0,0,1-1.594-4.8v-.164a7.723,7.723,0,0,1,.709-3.393,5.162,5.162,0,0,1,2.045-2.262,6.1,6.1,0,0,1,3.164-.791,5.488,5.488,0,0,1,3.926,1.371,4.863,4.863,0,0,1,1.453,3.715h-3.7a2.168,2.168,0,0,0-.48-1.512,1.658,1.658,0,0,0-1.289-.527q-1.535,0-1.793,1.957a13.809,13.809,0,0,0-.082,1.711,5.424,5.424,0,0,0,.457,2.648A1.582,1.582,0,0,0,90.1,112.188Zm10.969-8.508a4.334,4.334,0,0,1,6.4-.352,5.582,5.582,0,0,1,1.09,3.668v8H104.6v-7.91a2.232,2.232,0,0,0-.41-1.482,1.762,1.762,0,0,0-1.395-.475,1.9,1.9,0,0,0-1.723.773V115H97.119V97h3.949Zm9.188,4.863a7.484,7.484,0,0,1,.738-3.381,5.28,5.28,0,0,1,2.121-2.279,6.388,6.388,0,0,1,3.246-.8,5.83,5.83,0,0,1,4.488,1.764,6.768,6.768,0,0,1,1.641,4.8v.141a6.566,6.566,0,0,1-1.646,4.705,5.846,5.846,0,0,1-4.459,1.74,5.912,5.912,0,0,1-4.348-1.623,6.348,6.348,0,0,1-1.77-4.4Zm3.949.246a4.718,4.718,0,0,0,.551,2.578,1.835,1.835,0,0,0,1.629.82q2.109,0,2.156-3.246v-.4q0-3.41-2.18-3.41-1.98,0-2.145,2.941Z" transform="translate(539 8122)" fill="#fff"/>
    <path id="Trazado_232833" data-name="Trazado 232833" d="M45.92,19.223a6.231,6.231,0,0,1-.961,3.146,5.8,5.8,0,0,1-2.467,2.115,8.4,8.4,0,0,1-3.627.75,6.7,6.7,0,0,1-5.3-2.191,9.048,9.048,0,0,1-1.934-6.187v-.844a10.328,10.328,0,0,1,.873-4.389,6.615,6.615,0,0,1,2.514-2.906,7.013,7.013,0,0,1,3.8-1.025,7.354,7.354,0,0,1,4.992,1.635,6.459,6.459,0,0,1,2.145,4.506h-4.1a3.056,3.056,0,0,0-.785-2.238,3.229,3.229,0,0,0-2.25-.68,2.457,2.457,0,0,0-2.25,1.148,7.381,7.381,0,0,0-.75,3.668v1.207a8.167,8.167,0,0,0,.686,3.9,2.509,2.509,0,0,0,2.361,1.172,3.159,3.159,0,0,0,2.168-.668,2.835,2.835,0,0,0,.8-2.121ZM54.826,25a4.459,4.459,0,0,1-.375-1.137A3.672,3.672,0,0,1,51.4,25.234a4.5,4.5,0,0,1-3.047-1.084A3.45,3.45,0,0,1,47.1,21.426a3.546,3.546,0,0,1,1.523-3.117,7.761,7.761,0,0,1,4.43-1.055h1.219v-.671q0-1.755-1.512-1.755a1.236,1.236,0,0,0-1.406,1.39H47.408a3.54,3.54,0,0,1,1.564-2.985,6.575,6.575,0,0,1,3.99-1.147,5.764,5.764,0,0,1,3.832,1.184,4.115,4.115,0,0,1,1.441,3.246v5.613a5.748,5.748,0,0,0,.539,2.672V25Zm-2.473-2.578a2.2,2.2,0,0,0,1.225-.316,1.983,1.983,0,0,0,.7-.715V19.363H53.127q-2.062,0-2.062,1.852a1.131,1.131,0,0,0,.363.873A1.315,1.315,0,0,0,52.354,22.422Zm15.621,1.207a4.072,4.072,0,0,1-3.387,1.605,3.993,3.993,0,0,1-3.158-1.213,5.1,5.1,0,0,1-1.072-3.486V12.32h3.949v8.238a1.419,1.419,0,0,0,1.582,1.629,2.064,2.064,0,0,0,1.934-.973V12.32h3.973V25h-3.7ZM80.6,21.438a.912.912,0,0,0-.527-.809,8.021,8.021,0,0,0-2-.633,9.138,9.138,0,0,1-2.437-.861,4.083,4.083,0,0,1-1.465-1.295,3.092,3.092,0,0,1-.5-1.746A3.5,3.5,0,0,1,75.1,13.217a5.938,5.938,0,0,1,3.773-1.131A6.579,6.579,0,0,1,82.9,13.223a3.555,3.555,0,0,1,1.523,2.988H80.467q0-1.523-1.605-1.523a1.591,1.591,0,0,0-1.043.346,1.07,1.07,0,0,0-.422.861.982.982,0,0,0,.516.855,4.872,4.872,0,0,0,1.646.539,14.228,14.228,0,0,1,1.986.5q2.859.984,2.859,3.527a3.321,3.321,0,0,1-1.541,2.824,6.758,6.758,0,0,1-3.99,1.09,6.9,6.9,0,0,1-2.906-.586,4.86,4.86,0,0,1-1.992-1.594,3.609,3.609,0,0,1-.715-2.121h3.691a1.526,1.526,0,0,0,.586,1.283,2.41,2.41,0,0,0,1.441.4,1.9,1.9,0,0,0,1.213-.328A1.05,1.05,0,0,0,80.6,21.438ZM93.393,25a4.459,4.459,0,0,1-.375-1.137,3.672,3.672,0,0,1-3.047,1.371,4.5,4.5,0,0,1-3.047-1.084,3.45,3.45,0,0,1-1.254-2.725,3.546,3.546,0,0,1,1.523-3.117,7.761,7.761,0,0,1,4.43-1.055h1.219v-.671q0-1.755-1.512-1.755a1.236,1.236,0,0,0-1.406,1.39H85.975a3.54,3.54,0,0,1,1.564-2.985,6.575,6.575,0,0,1,3.99-1.147,5.764,5.764,0,0,1,3.832,1.184A4.115,4.115,0,0,1,96.8,16.516v5.613a5.748,5.748,0,0,0,.539,2.672V25ZM90.92,22.422a2.2,2.2,0,0,0,1.225-.316,1.983,1.983,0,0,0,.7-.715V19.363H91.693q-2.062,0-2.062,1.852a1.131,1.131,0,0,0,.363.873A1.315,1.315,0,0,0,90.92,22.422Zm14.707-.984a.912.912,0,0,0-.527-.809,8.021,8.021,0,0,0-2-.633,9.138,9.138,0,0,1-2.437-.861,4.083,4.083,0,0,1-1.465-1.295,3.092,3.092,0,0,1-.5-1.746,3.5,3.5,0,0,1,1.441-2.877,5.938,5.938,0,0,1,3.773-1.131,6.579,6.579,0,0,1,4.031,1.137,3.555,3.555,0,0,1,1.523,2.988H105.5q0-1.523-1.605-1.523a1.591,1.591,0,0,0-1.043.346,1.07,1.07,0,0,0-.422.861.982.982,0,0,0,.516.855,4.872,4.872,0,0,0,1.646.539,14.228,14.228,0,0,1,1.986.5q2.859.984,2.859,3.527a3.321,3.321,0,0,1-1.541,2.824,6.758,6.758,0,0,1-3.99,1.09A6.9,6.9,0,0,1,101,24.648a4.86,4.86,0,0,1-1.992-1.594,3.609,3.609,0,0,1-.715-2.121h3.691a1.526,1.526,0,0,0,.586,1.283,2.41,2.41,0,0,0,1.441.4,1.9,1.9,0,0,0,1.213-.328A1.05,1.05,0,0,0,105.627,21.438Z" transform="translate(533 7951)" fill="#fff"/>
    <path id="Trazado_232832" data-name="Trazado 232832" d="M53.865,20.465a1.69,1.69,0,0,0-.639-1.406,7.938,7.938,0,0,0-2.244-1.043,21.53,21.53,0,0,1-2.625-1.043q-3.316-1.629-3.316-4.477a4.014,4.014,0,0,1,.826-2.5,5.344,5.344,0,0,1,2.338-1.687,9.1,9.1,0,0,1,3.4-.6,7.958,7.958,0,0,1,3.3.656,5.223,5.223,0,0,1,2.268,1.869A4.881,4.881,0,0,1,57.979,13h-4.1a2.063,2.063,0,0,0-.639-1.617,2.489,2.489,0,0,0-1.729-.574,2.807,2.807,0,0,0-1.74.486,1.432,1.432,0,0,0,.064,2.426,8.867,8.867,0,0,0,2.473,1.1,15.147,15.147,0,0,1,2.906,1.225,4.884,4.884,0,0,1,2.766,4.395,4.166,4.166,0,0,1-1.687,3.516,7.506,7.506,0,0,1-4.629,1.277,9.184,9.184,0,0,1-3.756-.744,5.663,5.663,0,0,1-2.531-2.039,5.313,5.313,0,0,1-.85-2.982H48.65a2.617,2.617,0,0,0,.709,2.021,3.351,3.351,0,0,0,2.3.65,2.647,2.647,0,0,0,1.611-.439A1.45,1.45,0,0,0,53.865,20.465Zm12.176,4.77a6.518,6.518,0,0,1-4.723-1.74,6.009,6.009,0,0,1-1.8-4.529v-.328a7.787,7.787,0,0,1,.721-3.434,5.274,5.274,0,0,1,2.1-2.3,6.35,6.35,0,0,1,3.281-.814,5.489,5.489,0,0,1,4.219,1.658,6.516,6.516,0,0,1,1.547,4.623V19.9H63.533a2.846,2.846,0,0,0,.926,1.676,2.755,2.755,0,0,0,1.852.609,3.549,3.549,0,0,0,2.93-1.312l1.8,2.133a5.045,5.045,0,0,1-2.092,1.623A7.069,7.069,0,0,1,66.041,25.234Zm-.445-10.1q-1.734,0-2.062,2.3h3.984v-.3a1.956,1.956,0,0,0-.48-1.471A1.912,1.912,0,0,0,65.6,15.133Zm12.516.68,1.84-3.492h4.1L80.713,18.5l3.5,6.5H80.092L78.1,21.25,76.143,25H71.994l3.516-6.5L72.182,12.32H76.33Zm6.246,2.73a7.484,7.484,0,0,1,.738-3.381,5.28,5.28,0,0,1,2.121-2.279,6.388,6.388,0,0,1,3.246-.8,5.83,5.83,0,0,1,4.488,1.764,6.768,6.768,0,0,1,1.641,4.8v.141a6.566,6.566,0,0,1-1.646,4.705,5.846,5.846,0,0,1-4.459,1.74,5.912,5.912,0,0,1-4.348-1.623,6.348,6.348,0,0,1-1.77-4.4Zm3.949.246a4.718,4.718,0,0,0,.551,2.578,1.835,1.835,0,0,0,1.629.82q2.109,0,2.156-3.246v-.4q0-3.41-2.18-3.41-1.98,0-2.145,2.941Z" transform="translate(730 7859)" fill="#fff"/>
    <path id="Trazado_232836" data-name="Trazado 232836" d="M40.939,17.617a7.952,7.952,0,0,1-.357,2.7,4.035,4.035,0,0,1-1.2,1.658l-.773.715a3.056,3.056,0,0,0-1.09,2.18,1.628,1.628,0,0,0,.393,1.213,1.4,1.4,0,0,0,1.014.381,1.548,1.548,0,0,0,1.225-.5,2.153,2.153,0,0,0,.463-1.412h3.973a4.8,4.8,0,0,1-1.494,3.656,5.881,5.881,0,0,1-4.072,1.3A6.047,6.047,0,0,1,34.98,28.3a4.257,4.257,0,0,1-1.424-3.428A3.937,3.937,0,0,1,34,23.037a7.273,7.273,0,0,1,1.523-1.869l1-.914a2.692,2.692,0,0,0,1.008-1.793l.059-.844Zm-1.57-1.582a2.27,2.27,0,0,1-1.564-.557,1.93,1.93,0,0,1,0-2.848,2.27,2.27,0,0,1,1.564-.557,2.231,2.231,0,0,1,1.576.568,1.928,1.928,0,0,1,0,2.824A2.231,2.231,0,0,1,39.369,16.035Zm20.648,3.188a6.231,6.231,0,0,1-.961,3.146,5.8,5.8,0,0,1-2.467,2.115,8.4,8.4,0,0,1-3.627.75,6.7,6.7,0,0,1-5.3-2.191,9.048,9.048,0,0,1-1.934-6.187v-.844a10.328,10.328,0,0,1,.873-4.389,6.615,6.615,0,0,1,2.514-2.906,7.013,7.013,0,0,1,3.8-1.025,7.354,7.354,0,0,1,4.992,1.635,6.459,6.459,0,0,1,2.145,4.506h-4.1a3.056,3.056,0,0,0-.785-2.238,3.229,3.229,0,0,0-2.25-.68,2.457,2.457,0,0,0-2.25,1.148,7.381,7.381,0,0,0-.75,3.668v1.207a8.167,8.167,0,0,0,.686,3.9,2.509,2.509,0,0,0,2.361,1.172,3.159,3.159,0,0,0,2.168-.668,2.835,2.835,0,0,0,.8-2.121Zm1.266-.68a7.484,7.484,0,0,1,.738-3.381,5.28,5.28,0,0,1,2.121-2.279,6.388,6.388,0,0,1,3.246-.8,5.83,5.83,0,0,1,4.488,1.764,6.768,6.768,0,0,1,1.641,4.8v.141a6.566,6.566,0,0,1-1.646,4.705,5.846,5.846,0,0,1-4.459,1.74,5.912,5.912,0,0,1-4.348-1.623,6.348,6.348,0,0,1-1.77-4.4Zm3.949.246a4.718,4.718,0,0,0,.551,2.578,1.835,1.835,0,0,0,1.629.82q2.109,0,2.156-3.246v-.4q0-3.41-2.18-3.41-1.98,0-2.145,2.941ZM67.928,7H72.1l-3.258,3.68-3.223-.006ZM78.99,12.32l.129,1.488a4.36,4.36,0,0,1,3.621-1.723A3.21,3.21,0,0,1,85.986,14a4.22,4.22,0,0,1,3.727-1.91q3.855,0,3.961,4.664V25H89.713V17a2.417,2.417,0,0,0-.328-1.418,1.4,1.4,0,0,0-1.2-.445,1.871,1.871,0,0,0-1.746,1.043l.012.164V25H82.494V17.02a2.541,2.541,0,0,0-.316-1.441,1.393,1.393,0,0,0-1.207-.445,1.894,1.894,0,0,0-1.734,1.043V25H75.287V12.32Zm16.441,6.223a7.484,7.484,0,0,1,.738-3.381,5.28,5.28,0,0,1,2.121-2.279,6.388,6.388,0,0,1,3.246-.8,5.83,5.83,0,0,1,4.488,1.764,6.768,6.768,0,0,1,1.641,4.8v.141a6.566,6.566,0,0,1-1.646,4.705,5.846,5.846,0,0,1-4.459,1.74,5.912,5.912,0,0,1-4.348-1.623,6.348,6.348,0,0,1-1.77-4.4Zm3.949.246a4.718,4.718,0,0,0,.551,2.578,1.835,1.835,0,0,0,1.629.82q2.109,0,2.156-3.246v-.4q0-3.41-2.18-3.41-1.98,0-2.145,2.941ZM19.418,48.543a7.484,7.484,0,0,1,.738-3.381,5.28,5.28,0,0,1,2.121-2.279,6.388,6.388,0,0,1,3.246-.8,5.83,5.83,0,0,1,4.488,1.764,6.768,6.768,0,0,1,1.641,4.8v.141a6.566,6.566,0,0,1-1.646,4.705,5.846,5.846,0,0,1-4.459,1.74A5.912,5.912,0,0,1,21.2,53.611a6.348,6.348,0,0,1-1.77-4.4Zm3.949.246a4.718,4.718,0,0,0,.551,2.578,1.835,1.835,0,0,0,1.629.82q2.109,0,2.156-3.246v-.4q0-3.41-2.18-3.41-1.98,0-2.145,2.941Zm15.387,3.4a1.756,1.756,0,0,0,1.289-.451,1.654,1.654,0,0,0,.445-1.26h3.7A4.384,4.384,0,0,1,42.7,53.9a5.558,5.558,0,0,1-3.85,1.336A5.627,5.627,0,0,1,34.488,53.5a6.834,6.834,0,0,1-1.594-4.8v-.164a7.723,7.723,0,0,1,.709-3.393,5.162,5.162,0,0,1,2.045-2.262,6.1,6.1,0,0,1,3.164-.791,5.488,5.488,0,0,1,3.926,1.371,4.863,4.863,0,0,1,1.453,3.715h-3.7a2.168,2.168,0,0,0-.48-1.512,1.658,1.658,0,0,0-1.289-.527q-1.535,0-1.793,1.957a13.809,13.809,0,0,0-.082,1.711,5.424,5.424,0,0,0,.457,2.648A1.582,1.582,0,0,0,38.754,52.188Zm14.66,1.441a4.072,4.072,0,0,1-3.387,1.605,3.993,3.993,0,0,1-3.158-1.213A5.1,5.1,0,0,1,45.8,50.535V42.32h3.949v8.238a1.419,1.419,0,0,0,1.582,1.629,2.064,2.064,0,0,0,1.934-.973V42.32h3.973V55h-3.7Zm13.652-7.734-1.3-.094a2.336,2.336,0,0,0-2.391,1.172V55H59.426V42.32h3.7l.129,1.629a3.058,3.058,0,0,1,2.777-1.863,3.851,3.851,0,0,1,1.1.141Zm9.094,0-1.3-.094a2.336,2.336,0,0,0-2.391,1.172V55H68.52V42.32h3.7l.129,1.629a3.058,3.058,0,0,1,2.777-1.863,3.851,3.851,0,0,1,1.1.141ZM81.75,55H77.789V42.32H81.75Zm-4.2-15.949a1.763,1.763,0,0,1,.609-1.383,2.591,2.591,0,0,1,3.164,0,1.874,1.874,0,0,1,0,2.766,2.591,2.591,0,0,1-3.164,0A1.763,1.763,0,0,1,77.555,39.051Zm6.129,9.492a7.484,7.484,0,0,1,.738-3.381,5.28,5.28,0,0,1,2.121-2.279,6.388,6.388,0,0,1,3.246-.8,5.83,5.83,0,0,1,4.488,1.764,6.768,6.768,0,0,1,1.641,4.8v.141a6.566,6.566,0,0,1-1.646,4.705,5.846,5.846,0,0,1-4.459,1.74,5.912,5.912,0,0,1-4.348-1.623,6.348,6.348,0,0,1-1.77-4.4Zm3.949.246a4.718,4.718,0,0,0,.551,2.578,1.835,1.835,0,0,0,1.629.82q2.109,0,2.156-3.246v-.4q0-3.41-2.18-3.41-1.98,0-2.145,2.941ZM90.328,37H94.5l-3.258,3.68-3.223-.006ZM109.77,55.234a6.518,6.518,0,0,1-4.723-1.74,6.009,6.009,0,0,1-1.8-4.529v-.328a7.787,7.787,0,0,1,.721-3.434,5.274,5.274,0,0,1,2.1-2.3,6.35,6.35,0,0,1,3.281-.814,5.489,5.489,0,0,1,4.219,1.658,6.516,6.516,0,0,1,1.547,4.623V49.9h-7.852a2.846,2.846,0,0,0,.926,1.676,2.755,2.755,0,0,0,1.852.609,3.549,3.549,0,0,0,2.93-1.312l1.8,2.133a5.045,5.045,0,0,1-2.092,1.623A7.069,7.069,0,0,1,109.77,55.234Zm-.445-10.1q-1.734,0-2.062,2.3h3.984v-.3a1.956,1.956,0,0,0-.48-1.471A1.912,1.912,0,0,0,109.324,45.133ZM120.867,55h-3.961V37h3.961ZM36.3,73.68a4.334,4.334,0,0,1,6.4-.352A5.582,5.582,0,0,1,43.793,77v8H39.832V77.09a2.232,2.232,0,0,0-.41-1.482,1.762,1.762,0,0,0-1.395-.475,1.9,1.9,0,0,0-1.723.773V85H32.355V67H36.3Zm15.82,11.555a6.518,6.518,0,0,1-4.723-1.74,6.009,6.009,0,0,1-1.8-4.529v-.328a7.787,7.787,0,0,1,.721-3.434,5.274,5.274,0,0,1,2.1-2.3,6.35,6.35,0,0,1,3.281-.814,5.489,5.489,0,0,1,4.219,1.658,6.516,6.516,0,0,1,1.547,4.623V79.9H49.617a2.846,2.846,0,0,0,.926,1.676,2.755,2.755,0,0,0,1.852.609,3.549,3.549,0,0,0,2.93-1.312l1.8,2.133a5.045,5.045,0,0,1-2.092,1.623A7.069,7.069,0,0,1,52.125,85.234Zm-.445-10.1q-1.734,0-2.062,2.3H53.6v-.3a1.956,1.956,0,0,0-.48-1.471A1.912,1.912,0,0,0,51.68,75.133Zm12.738,7.055a1.756,1.756,0,0,0,1.289-.451,1.654,1.654,0,0,0,.445-1.26h3.7A4.384,4.384,0,0,1,68.361,83.9a5.558,5.558,0,0,1-3.85,1.336A5.627,5.627,0,0,1,60.152,83.5a6.834,6.834,0,0,1-1.594-4.8v-.164a7.723,7.723,0,0,1,.709-3.393,5.162,5.162,0,0,1,2.045-2.262,6.1,6.1,0,0,1,3.164-.791A5.488,5.488,0,0,1,68.4,73.457a4.863,4.863,0,0,1,1.453,3.715h-3.7a2.168,2.168,0,0,0-.48-1.512,1.658,1.658,0,0,0-1.289-.527q-1.535,0-1.793,1.957a13.809,13.809,0,0,0-.082,1.711,5.424,5.424,0,0,0,.457,2.648A1.582,1.582,0,0,0,64.418,82.188ZM75.387,73.68a4.334,4.334,0,0,1,6.4-.352A5.582,5.582,0,0,1,82.875,77v8H78.914V77.09a2.232,2.232,0,0,0-.41-1.482,1.762,1.762,0,0,0-1.395-.475,1.9,1.9,0,0,0-1.723.773V85H71.438V67h3.949Zm9.188,4.863a7.484,7.484,0,0,1,.738-3.381,5.28,5.28,0,0,1,2.121-2.279,6.388,6.388,0,0,1,3.246-.8,5.83,5.83,0,0,1,4.488,1.764,6.768,6.768,0,0,1,1.641,4.8v.141a6.566,6.566,0,0,1-1.646,4.705,5.846,5.846,0,0,1-4.459,1.74,5.912,5.912,0,0,1-4.348-1.623,6.348,6.348,0,0,1-1.77-4.4Zm3.949.246a4.718,4.718,0,0,0,.551,2.578,1.835,1.835,0,0,0,1.629.82q2.109,0,2.156-3.246v-.4q0-3.41-2.18-3.41-1.98,0-2.145,2.941Zm12.949.809a7.627,7.627,0,0,1,.387-2.7,4.225,4.225,0,0,1,1.254-1.717,8.337,8.337,0,0,0,1.318-1.33,2.171,2.171,0,0,0,.451-1.33q0-1.77-1.523-1.77a1.413,1.413,0,0,0-1.137.516,2.193,2.193,0,0,0-.457,1.395H97.8a4.725,4.725,0,0,1,1.477-3.65,5.887,5.887,0,0,1,4.078-1.307,6.115,6.115,0,0,1,4.049,1.207,4.237,4.237,0,0,1,1.436,3.434,4,4,0,0,1-.387,1.77,5.98,5.98,0,0,1-1.242,1.629L105.867,77a3.17,3.17,0,0,0-.8,1.131,4.481,4.481,0,0,0-.246,1.471Zm-.48,3.563a1.819,1.819,0,0,1,.627-1.424,2.477,2.477,0,0,1,3.129,0,1.93,1.93,0,0,1,0,2.848,2.477,2.477,0,0,1-3.129,0A1.819,1.819,0,0,1,100.992,83.16Z" transform="translate(730 8262)" fill="#fff"/>
    <path id="Trazado_232835" data-name="Trazado 232835" d="M27.3,19.211V25H23.191V7.938H30a7.93,7.93,0,0,1,3.463.721,5.431,5.431,0,0,1,2.332,2.051,5.6,5.6,0,0,1,.826,3.018,4.937,4.937,0,0,1-1.787,3.99,7.415,7.415,0,0,1-4.9,1.494Zm0-3.176H30a2.542,2.542,0,0,0,1.822-.6,2.221,2.221,0,0,0,.627-1.687,2.745,2.745,0,0,0-.645-1.91,2.282,2.282,0,0,0-1.758-.727H27.3Zm19-.141L45,15.8a2.336,2.336,0,0,0-2.391,1.172V25H38.66V12.32h3.7l.129,1.629a3.058,3.058,0,0,1,2.777-1.863,3.851,3.851,0,0,1,1.1.141Zm.5,2.648a7.484,7.484,0,0,1,.738-3.381,5.28,5.28,0,0,1,2.121-2.279,6.388,6.388,0,0,1,3.246-.8A5.83,5.83,0,0,1,57.4,13.85a6.768,6.768,0,0,1,1.641,4.8v.141a6.566,6.566,0,0,1-1.646,4.705,5.846,5.846,0,0,1-4.459,1.74,5.912,5.912,0,0,1-4.348-1.623,6.348,6.348,0,0,1-1.77-4.4Zm3.949.246a4.718,4.718,0,0,0,.551,2.578,1.835,1.835,0,0,0,1.629.82q2.109,0,2.156-3.246v-.4q0-3.41-2.18-3.41-1.98,0-2.145,2.941Zm21.8-.023a7.728,7.728,0,0,1-1.289,4.793,4.318,4.318,0,0,1-3.633,1.676A3.747,3.747,0,0,1,64.512,23.7L64.348,25H60.809V7h3.949v6.34a3.615,3.615,0,0,1,2.848-1.254,4.319,4.319,0,0,1,3.656,1.7,7.768,7.768,0,0,1,1.289,4.781Zm-3.961-.252a5.155,5.155,0,0,0-.486-2.6,1.639,1.639,0,0,0-1.494-.778,1.891,1.891,0,0,0-1.852,1.018v5.031a1.9,1.9,0,0,0,1.875,1.006A1.677,1.677,0,0,0,68.4,20.83,9.745,9.745,0,0,0,68.59,18.514ZM81.434,25a4.459,4.459,0,0,1-.375-1.137,3.672,3.672,0,0,1-3.047,1.371,4.5,4.5,0,0,1-3.047-1.084,3.45,3.45,0,0,1-1.254-2.725,3.546,3.546,0,0,1,1.523-3.117,7.761,7.761,0,0,1,4.43-1.055h1.219v-.671q0-1.755-1.512-1.755a1.236,1.236,0,0,0-1.406,1.39H74.016a3.54,3.54,0,0,1,1.564-2.985,6.575,6.575,0,0,1,3.99-1.147A5.764,5.764,0,0,1,83.4,13.27a4.115,4.115,0,0,1,1.441,3.246v5.613a5.748,5.748,0,0,0,.539,2.672V25Zm-2.473-2.578a2.2,2.2,0,0,0,1.225-.316,1.983,1.983,0,0,0,.7-.715V19.363H79.734q-2.062,0-2.062,1.852a1.131,1.131,0,0,0,.363.873A1.315,1.315,0,0,0,78.961,22.422ZM98.8,18.766a7.728,7.728,0,0,1-1.289,4.793,4.318,4.318,0,0,1-3.633,1.676A3.747,3.747,0,0,1,90.762,23.7L90.6,25H87.059V7h3.949v6.34a3.615,3.615,0,0,1,2.848-1.254,4.319,4.319,0,0,1,3.656,1.7A7.768,7.768,0,0,1,98.8,18.566Zm-3.961-.252a5.155,5.155,0,0,0-.486-2.6,1.639,1.639,0,0,0-1.494-.778,1.891,1.891,0,0,0-1.852,1.018v5.031a1.9,1.9,0,0,0,1.875,1.006,1.677,1.677,0,0,0,1.77-1.357A9.745,9.745,0,0,0,94.84,18.514ZM104.707,25h-3.961V7h3.961Zm8.566.234a6.518,6.518,0,0,1-4.723-1.74,6.009,6.009,0,0,1-1.8-4.529v-.328a7.787,7.787,0,0,1,.721-3.434,5.274,5.274,0,0,1,2.1-2.3,6.35,6.35,0,0,1,3.281-.814,5.489,5.489,0,0,1,4.219,1.658,6.516,6.516,0,0,1,1.547,4.623V19.9h-7.852a2.846,2.846,0,0,0,.926,1.676,2.755,2.755,0,0,0,1.852.609,3.549,3.549,0,0,0,2.93-1.312l1.8,2.133a5.045,5.045,0,0,1-2.092,1.623A7.069,7.069,0,0,1,113.273,25.234Zm-.445-10.1q-1.734,0-2.062,2.3h3.984v-.3a1.956,1.956,0,0,0-.48-1.471A1.912,1.912,0,0,0,112.828,15.133ZM18.322,42.32l.129,1.488a4.36,4.36,0,0,1,3.621-1.723A3.21,3.21,0,0,1,25.318,44a4.22,4.22,0,0,1,3.727-1.91q3.855,0,3.961,4.664V55H29.045V47a2.417,2.417,0,0,0-.328-1.418,1.4,1.4,0,0,0-1.2-.445,1.871,1.871,0,0,0-1.746,1.043l.012.164V55H21.826V47.02a2.541,2.541,0,0,0-.316-1.441,1.393,1.393,0,0,0-1.207-.445,1.894,1.894,0,0,0-1.734,1.043V55H14.619V42.32ZM42.4,55a4.459,4.459,0,0,1-.375-1.137,3.672,3.672,0,0,1-3.047,1.371,4.5,4.5,0,0,1-3.047-1.084,3.45,3.45,0,0,1-1.254-2.725,3.546,3.546,0,0,1,1.523-3.117,7.761,7.761,0,0,1,4.43-1.055h1.219v-.671q0-1.755-1.512-1.755a1.236,1.236,0,0,0-1.406,1.39H34.986a3.54,3.54,0,0,1,1.564-2.985,6.575,6.575,0,0,1,3.99-1.147,5.764,5.764,0,0,1,3.832,1.184,4.115,4.115,0,0,1,1.441,3.246v5.613a5.748,5.748,0,0,0,.539,2.672V55Zm-2.473-2.578a2.2,2.2,0,0,0,1.225-.316,1.983,1.983,0,0,0,.7-.715V49.363H40.705q-2.062,0-2.062,1.852a1.131,1.131,0,0,0,.363.873A1.315,1.315,0,0,0,39.932,52.422Zm11.7-10.1.129,1.488a4.3,4.3,0,0,1,3.621-1.723,3.618,3.618,0,0,1,2.959,1.184,5.635,5.635,0,0,1,1.014,3.563V55H55.389V47A2.14,2.14,0,0,0,55,45.584a1.789,1.789,0,0,0-1.406-.451,1.883,1.883,0,0,0-1.723.914V55H47.924V42.32ZM67.67,55.234a6.518,6.518,0,0,1-4.723-1.74,6.009,6.009,0,0,1-1.8-4.529v-.328a7.787,7.787,0,0,1,.721-3.434,5.274,5.274,0,0,1,2.1-2.3,6.35,6.35,0,0,1,3.281-.814,5.489,5.489,0,0,1,4.219,1.658,6.516,6.516,0,0,1,1.547,4.623V49.9H65.162a2.846,2.846,0,0,0,.926,1.676,2.755,2.755,0,0,0,1.852.609,3.549,3.549,0,0,0,2.93-1.312l1.8,2.133a5.045,5.045,0,0,1-2.092,1.623A7.069,7.069,0,0,1,67.67,55.234Zm-.445-10.1q-1.734,0-2.062,2.3h3.984v-.3a1.956,1.956,0,0,0-.48-1.471A1.912,1.912,0,0,0,67.225,45.133Zm15.047.762-1.3-.094a2.336,2.336,0,0,0-2.391,1.172V55H74.631V42.32h3.7l.129,1.629a3.058,3.058,0,0,1,2.777-1.863,3.851,3.851,0,0,1,1.1.141ZM90.486,55a4.459,4.459,0,0,1-.375-1.137,3.672,3.672,0,0,1-3.047,1.371,4.5,4.5,0,0,1-3.047-1.084,3.45,3.45,0,0,1-1.254-2.725,3.546,3.546,0,0,1,1.523-3.117,7.761,7.761,0,0,1,4.43-1.055h1.219v-.671q0-1.755-1.512-1.755a1.236,1.236,0,0,0-1.406,1.39H83.068a3.54,3.54,0,0,1,1.564-2.985,6.575,6.575,0,0,1,3.99-1.147,5.764,5.764,0,0,1,3.832,1.184A4.115,4.115,0,0,1,93.9,46.516v5.613a5.748,5.748,0,0,0,.539,2.672V55Zm-2.473-2.578a2.2,2.2,0,0,0,1.225-.316,1.983,1.983,0,0,0,.7-.715V49.363H88.787q-2.062,0-2.062,1.852a1.131,1.131,0,0,0,.363.873A1.315,1.315,0,0,0,88.014,52.422Zm13.547-3.855a7.746,7.746,0,0,1,1.3-4.746,4.282,4.282,0,0,1,3.633-1.734,3.641,3.641,0,0,1,2.859,1.336V37h3.961V55h-3.551l-.2-1.359a3.739,3.739,0,0,1-3.094,1.594,4.274,4.274,0,0,1-3.586-1.734A7.991,7.991,0,0,1,101.561,48.566Zm3.949.246q0,3.375,1.969,3.375a1.944,1.944,0,0,0,1.875-1.1V46.258a1.892,1.892,0,0,0-1.852-1.125q-1.828,0-1.98,2.953Zm16.184,6.422a6.518,6.518,0,0,1-4.723-1.74,6.009,6.009,0,0,1-1.8-4.529v-.328a7.787,7.787,0,0,1,.721-3.434,5.274,5.274,0,0,1,2.1-2.3,6.35,6.35,0,0,1,3.281-.814,5.489,5.489,0,0,1,4.219,1.658,6.516,6.516,0,0,1,1.547,4.623V49.9h-7.852a2.846,2.846,0,0,0,.926,1.676,2.755,2.755,0,0,0,1.852.609,3.549,3.549,0,0,0,2.93-1.312l1.8,2.133a5.045,5.045,0,0,1-2.092,1.623A7.069,7.069,0,0,1,121.693,55.234Zm-.445-10.1q-1.734,0-2.062,2.3h3.984v-.3a1.956,1.956,0,0,0-.48-1.471A1.912,1.912,0,0,0,121.248,45.133ZM36.211,72.32l.129,1.488a4.36,4.36,0,0,1,3.621-1.723A3.21,3.21,0,0,1,43.207,74a4.22,4.22,0,0,1,3.727-1.91q3.855,0,3.961,4.664V85H46.934V77a2.417,2.417,0,0,0-.328-1.418,1.4,1.4,0,0,0-1.2-.445,1.871,1.871,0,0,0-1.746,1.043l.012.164V85H39.715V77.02a2.541,2.541,0,0,0-.316-1.441,1.393,1.393,0,0,0-1.207-.445,1.894,1.894,0,0,0-1.734,1.043V85H32.508V72.32ZM60.7,83.629a4.072,4.072,0,0,1-3.387,1.605,3.993,3.993,0,0,1-3.158-1.213,5.1,5.1,0,0,1-1.072-3.486V72.32h3.949v8.238a1.419,1.419,0,0,0,1.582,1.629,2.064,2.064,0,0,0,1.934-.973V72.32h3.973V85h-3.7ZM72.82,85.234a6.518,6.518,0,0,1-4.723-1.74,6.009,6.009,0,0,1-1.8-4.529v-.328a7.787,7.787,0,0,1,.721-3.434,5.274,5.274,0,0,1,2.1-2.3,6.35,6.35,0,0,1,3.281-.814,5.489,5.489,0,0,1,4.219,1.658,6.516,6.516,0,0,1,1.547,4.623V79.9H70.313a2.846,2.846,0,0,0,.926,1.676,2.755,2.755,0,0,0,1.852.609,3.549,3.549,0,0,0,2.93-1.312l1.8,2.133a5.045,5.045,0,0,1-2.092,1.623A7.069,7.069,0,0,1,72.82,85.234Zm-.445-10.1q-1.734,0-2.062,2.3H74.3v-.3a1.956,1.956,0,0,0-.48-1.471A1.912,1.912,0,0,0,72.375,75.133Zm15.047.762-1.3-.094a2.336,2.336,0,0,0-2.391,1.172V85H79.781V72.32h3.7l.129,1.629a3.058,3.058,0,0,1,2.777-1.863,3.851,3.851,0,0,1,1.1.141Zm6.609-6.727V72.32h2.086v2.742H94.031v5.8a1.481,1.481,0,0,0,.258,1,1.383,1.383,0,0,0,1.02.281,5.793,5.793,0,0,0,.984-.07v2.824a7.288,7.288,0,0,1-2.227.34,4.137,4.137,0,0,1-3.012-.961,3.939,3.939,0,0,1-.973-2.918V75.063H88.465V72.32h1.617V69.168ZM103.8,85.234a6.518,6.518,0,0,1-4.723-1.74,6.009,6.009,0,0,1-1.8-4.529v-.328A7.787,7.787,0,0,1,98,75.2a5.274,5.274,0,0,1,2.1-2.3,6.35,6.35,0,0,1,3.281-.814,5.489,5.489,0,0,1,4.219,1.658,6.516,6.516,0,0,1,1.547,4.623V79.9H101.3a2.846,2.846,0,0,0,.926,1.676,2.755,2.755,0,0,0,1.852.609A3.549,3.549,0,0,0,107,80.875l1.8,2.133a5.045,5.045,0,0,1-2.092,1.623A7.069,7.069,0,0,1,103.8,85.234Zm-.445-10.1q-1.734,0-2.062,2.3h3.984v-.3a1.956,1.956,0,0,0-.48-1.471A1.912,1.912,0,0,0,103.359,75.133Z" transform="translate(927 8137)" fill="#fff"/>
    <path id="Trazado_232834" data-name="Trazado 232834" d="M55.787,17.758H49.318v4.078h7.641V25H45.205V7.938H56.982v3.176H49.318v3.6h6.469Zm2.168.809a7.746,7.746,0,0,1,1.3-4.746,4.282,4.282,0,0,1,3.633-1.734,3.641,3.641,0,0,1,2.859,1.336V7h3.961V25H66.158l-.2-1.359a3.739,3.739,0,0,1-3.094,1.594A4.274,4.274,0,0,1,59.279,23.5,7.991,7.991,0,0,1,57.955,18.566Zm3.949.246q0,3.375,1.969,3.375a1.944,1.944,0,0,0,1.875-1.1V16.258A1.892,1.892,0,0,0,63.9,15.133q-1.828,0-1.98,2.953ZM79.1,25a4.459,4.459,0,0,1-.375-1.137,3.672,3.672,0,0,1-3.047,1.371,4.5,4.5,0,0,1-3.047-1.084,3.45,3.45,0,0,1-1.254-2.725A3.546,3.546,0,0,1,72.9,18.309a7.761,7.761,0,0,1,4.43-1.055h1.219v-.671q0-1.755-1.512-1.755a1.236,1.236,0,0,0-1.406,1.39H71.678a3.54,3.54,0,0,1,1.564-2.985,6.575,6.575,0,0,1,3.99-1.147,5.764,5.764,0,0,1,3.832,1.184,4.115,4.115,0,0,1,1.441,3.246v5.613a5.748,5.748,0,0,0,.539,2.672V25Zm-2.473-2.578a2.2,2.2,0,0,0,1.225-.316,1.983,1.983,0,0,0,.7-.715V19.363H77.4q-2.062,0-2.062,1.852a1.131,1.131,0,0,0,.363.873A1.315,1.315,0,0,0,76.623,22.422Zm7.57-3.855a7.746,7.746,0,0,1,1.3-4.746,4.282,4.282,0,0,1,3.633-1.734,3.641,3.641,0,0,1,2.859,1.336V7h3.961V25H92.4l-.2-1.359A3.739,3.739,0,0,1,89.1,25.234,4.274,4.274,0,0,1,85.518,23.5,7.991,7.991,0,0,1,84.193,18.566Zm3.949.246q0,3.375,1.969,3.375a1.944,1.944,0,0,0,1.875-1.1V16.258a1.892,1.892,0,0,0-1.852-1.125q-1.828,0-1.98,2.953Z" transform="translate(910 7951)" fill="#fff"/>
    <g id="Grupo_158834" data-name="Grupo 158834" transform="translate(773.275 7645.572)">
      <g id="Grupo_158250" data-name="Grupo 158250" transform="translate(0 0)">
        <path id="Trazado_230813" data-name="Trazado 230813" d="M15.343,0a25.443,25.443,0,0,1,3.289.747A13.743,13.743,0,0,1,28.16,12.519,14.032,14.032,0,0,1,16.208,28.142c-.134.02-.268.045-.423.072v9.442c.168.008.334.023.5.023,1.357,0,2.713,0,4.07,0a1.567,1.567,0,1,1,0,3.127c-1.51.008-3.02,0-4.592,0v1.376c0,1.061,0,2.122,0,3.183a1.569,1.569,0,1,1-3.128.018c-.007-1.339,0-2.679,0-4.018v-.559c-1.488,0-2.927,0-4.366,0a3.242,3.242,0,0,1-.624-.03,1.56,1.56,0,0,1,.27-3.094c1.339-.019,2.679-.006,4.018-.006h.662V28.367a34.941,34.941,0,0,1-4.171-1.34A13.792,13.792,0,0,1,.1,15.79c-.021-.151-.064-.3-.1-.447v-2.3c.032-.15.074-.3.1-.449A14,14,0,0,1,9.564.819,26.311,26.311,0,0,1,13.047,0ZM14.218,3.132a11.011,11.011,0,1,0,10.937,11.1,11.081,11.081,0,0,0-10.937-11.1" transform="translate(0 0)" fill="#5bd3a9"/>
        <path id="Trazado_230815" data-name="Trazado 230815" d="M252.08,79.42V66.01c-.142.12-.258.2-.357.3-1.023,1.018-2.04,2.043-3.066,3.058a1.578,1.578,0,1,1-2.206-2.223q2.985-2.992,5.977-5.976a1.582,1.582,0,0,1,2.471-.016q3.015,3,6.014,6.013a1.575,1.575,0,1,1-2.214,2.217c-1.122-1.116-2.235-2.239-3.418-3.425V79.436a14.123,14.123,0,0,1,10.31,6.4,13.465,13.465,0,0,1,2.135,9.554A14.14,14.14,0,1,1,252.08,79.42m-9.369,14.013A11.011,11.011,0,1,0,253.684,82.5a11.032,11.032,0,0,0-10.973,10.935" transform="translate(-214.425 -54.211)" fill="#5bd3a9"/>
      </g>
    </g>
    <g id="Grupo_158836" data-name="Grupo 158836" transform="translate(1112 7831.392)">
      <g id="Grupo_158837" data-name="Grupo 158837">
        <path id="Trazado_231444" data-name="Trazado 231444" d="M284.931,33.708c-.784,1.842-1.324,2.323-3.09,2.7V55.431h-12.51V36.409c-.217-.039-.371-.062-.523-.095a3.271,3.271,0,0,1-2.643-3.194c-.019-4.346-.09-8.694.026-13.037A7.772,7.772,0,0,1,271.1,12.9c.125-.058.254-.109.39-.167a7.089,7.089,0,0,1-.636-10.961,6.963,6.963,0,0,1,9.614.3l-1.2,1.235a5.253,5.253,0,0,0-7.373-.051,5.191,5.191,0,0,0,6.073,8.287A5.262,5.262,0,0,0,280.2,4.613l1.494-.764c1.716,2.312.845,5.957-2.12,8.879a8.239,8.239,0,0,1,3.552,2.527,7.95,7.95,0,0,1,1.7,3.769,2.081,2.081,0,0,0,.111.327Zm-4.882.866c.567,0,1.042.011,1.517,0A1.466,1.466,0,0,0,283.135,33c.007-4.286.029-8.573-.011-12.859a6.09,6.09,0,0,0-5.043-5.919,23.374,23.374,0,0,0-3.874-.136,6.208,6.208,0,0,0-6.247,6.224c-.036,4.207-.014,8.414-.007,12.62a1.5,1.5,0,0,0,1.626,1.647c.49.01.981,0,1.546,0V53.654h3.544V37.831h1.783V53.647h3.6Z" transform="translate(-223.674 0.001)" fill="#5c9ebc"/>
        <path id="Trazado_231445" data-name="Trazado 231445" d="M0,101.6l.295-1.12,1.5.4c0,2.393,0,4.7,0,7.007,0,1.36.51,1.864,1.882,1.868h.8v13H8.035v-9.771H9.823v9.748H13.4V109.75c.671,0,1.279,0,1.888,0a1.519,1.519,0,0,0,1.7-1.7c.008-1.814.018-3.629,0-5.443a6.227,6.227,0,0,0-6.054-6.3c-1.015-.047-2.034-.041-3.05-.007a6.271,6.271,0,0,0-5.3,3.172l-1.534-.861a8.175,8.175,0,0,1,4.335-3.661,7.021,7.021,0,0,1-2.933-6.564,6.717,6.717,0,0,1,2.517-4.6,6.944,6.944,0,0,1,9.395.524,6.77,6.77,0,0,1,1.961,5.5,7.092,7.092,0,0,1-2.939,5.121,8.255,8.255,0,0,1,4.1,3.252,8.08,8.08,0,0,1,1.3,4.468c.007,1.675-.067,3.353.02,5.024a3.48,3.48,0,0,1-3.545,3.906v12.933H2.694v-.7c0-3.868-.007-7.736.009-11.6,0-.469-.068-.736-.589-.9A3.387,3.387,0,0,1,0,108.9v-7.3M9.411,84a5.188,5.188,0,1,0,5.156,5.193A5.179,5.179,0,0,0,9.411,84" transform="translate(0 -69.088)" fill="#5c9ebc"/>
        <path id="Trazado_231446" data-name="Trazado 231446" d="M138.187,57.57A7.055,7.055,0,0,1,137.1,47.047a6.976,6.976,0,0,1,9.705-.478,6.8,6.8,0,0,1,2.363,5.641,6.964,6.964,0,0,1-2.943,5.324c4.156,1.77,5.775,5.117,5.321,9.622H149.8c0-.693.026-1.4,0-2.11a6.036,6.036,0,0,0-3.678-5.562,6.165,6.165,0,0,0-2.243-.531,20.352,20.352,0,0,0-4,.062,6.121,6.121,0,0,0-5.241,6.069c-.062,2.97-.026,5.942-.011,8.913a1.485,1.485,0,0,0,1.617,1.6c.416.009.833,0,1.31,0V91.318h3.6V79.093h1.785v12.24h3.588V75.6c.6,0,1.126.008,1.657,0a1.479,1.479,0,0,0,1.619-1.643c.009-1.631,0-3.261,0-4.929h1.792v.863c0,1.316,0,2.632,0,3.948a3.315,3.315,0,0,1-3.227,3.58V93.1H135.806V77.5a11.367,11.367,0,0,1-1.508-.677,2.912,2.912,0,0,1-1.442-2.487c-.024-3.329-.129-6.667.077-9.984a7.54,7.54,0,0,1,4.881-6.616l.374-.167m4.054-10.95a5.193,5.193,0,1,0,5.153,5.194,5.209,5.209,0,0,0-5.153-5.194" transform="translate(-111.621 -37.679)" fill="#5c9ebc"/>
        <rect id="Rectángulo_47844" data-name="Rectángulo 47844" width="1.719" height="1.717" transform="translate(29.576 25.981)" fill="#5c9ebc"/>
        <rect id="Rectángulo_47845" data-name="Rectángulo 47845" width="1.7" height="1.741" transform="translate(29.591 29.534)" fill="#5c9ebc"/>
        <rect id="Rectángulo_47846" data-name="Rectángulo 47846" width="1.707" height="1.731" transform="translate(8.097 31.34)" fill="#5c9ebc"/>
        <rect id="Rectángulo_47847" data-name="Rectángulo 47847" width="1.719" height="1.703" transform="translate(8.093 34.937)" fill="#5c9ebc"/>
        <path id="Trazado_231447" data-name="Trazado 231447" d="M289.594,108.685v19.073H286V111.941h-1.783v15.823h-3.544V108.685c-.565,0-1.055.009-1.546,0a1.5,1.5,0,0,1-1.626-1.647c-.007-4.207-.029-8.414.007-12.62a6.209,6.209,0,0,1,6.248-6.225,23.409,23.409,0,0,1,3.874.136,6.09,6.09,0,0,1,5.043,5.919c.04,4.286.018,8.573.011,12.859a1.466,1.466,0,0,1-1.568,1.576c-.475.013-.95,0-1.517,0m-5.382-14.049h1.714V92.922h-1.714Zm-.011,3.577h1.741v-1.7H284.2Zm.028,3.575h1.712v-1.713H284.23Z" transform="translate(-233.218 -74.11)" fill="#fff"/>
        <path id="Trazado_231448" data-name="Trazado 231448" d="M31.454,93.487a5.188,5.188,0,1,1-5.227,5.11,5.2,5.2,0,0,1,5.227-5.11" transform="translate(-22.043 -78.573)" fill="#fff"/>
        <path id="Trazado_231449" data-name="Trazado 231449" d="M164.36,56.046a5.193,5.193,0,1,1-5.236,5.178,5.2,5.2,0,0,1,5.236-5.178" transform="translate(-133.74 -47.105)" fill="#fff"/>
        <rect id="Rectángulo_47848" data-name="Rectángulo 47848" width="1.714" height="1.714" transform="translate(50.994 18.812)" fill="#5c9ebc"/>
        <rect id="Rectángulo_47849" data-name="Rectángulo 47849" width="1.741" height="1.703" transform="translate(50.983 22.4)" fill="#5c9ebc"/>
        <rect id="Rectángulo_47850" data-name="Rectángulo 47850" width="1.712" height="1.713" transform="translate(51.011 25.965)" fill="#5c9ebc"/>
      </g>
    </g>
    <g id="Grupo_158839" data-name="Grupo 158839" transform="translate(423.855 7836.589)">
      <g id="Grupo_158840" data-name="Grupo 158840">
        <path id="Trazado_231450" data-name="Trazado 231450" d="M18.517,37.439V35.922c0-3.266-.006-6.531.008-9.8a.948.948,0,0,0-.446-.84c-.956-.765-1.854-1.6-2.766-2.4A8.355,8.355,0,1,1,15.4,13.74l.429-.56a8.322,8.322,0,0,1,14.95,4.844,8.113,8.113,0,0,1-3.87,7.2,1.022,1.022,0,0,0-.534.989c.02,3.549.011,7.1.011,10.646v.711a4.051,4.051,0,0,1,4.1.792c2.092-1.4,3.386-1.395,5.44.014a3.855,3.855,0,0,1,3.681-.905A3.74,3.74,0,0,1,42.455,40.9c.048,3.874.094,7.753-.068,11.621a13.715,13.715,0,0,1-1.1,4.332,12.643,12.643,0,0,0-1.047,5.456,11.545,11.545,0,0,1-.012,1.5,1.2,1.2,0,0,1-1.215,1.126,1.18,1.18,0,0,1-1.254-1.082c-.072-2.459-.158-4.923.927-7.242a14.2,14.2,0,0,0,1.3-6.4c-.055-2.807-.012-5.617-.012-8.425,0-.2.006-.393-.007-.588a1.4,1.4,0,0,0-1.276-1.344,1.375,1.375,0,0,0-1.452,1.064,6.6,6.6,0,0,0-.1,1.361c-.015,1.045.01,2.09-.017,3.135A1.224,1.224,0,0,1,35.9,46.686,1.257,1.257,0,0,1,34.62,45.4c-.023-1.284,0-2.569-.008-3.853,0-1.034-.544-1.684-1.4-1.7a1.484,1.484,0,0,0-1.448,1.664c-.011,1.219,0,2.438,0,3.658-.005.947-.474,1.511-1.242,1.517s-1.263-.581-1.266-1.5c-.005-1.241.005-2.482,0-3.723a1.436,1.436,0,1,0-2.851,0c-.013,1.263,0,2.525-.006,3.788a1.265,1.265,0,1,1-2.5-.015q-.008-9.634-.008-19.267a5.412,5.412,0,0,0-.009-.587,1.475,1.475,0,0,0-1.441-1.339,1.459,1.459,0,0,0-1.4,1.38c-.016.195-.006.392-.006.588q0,8.785,0,17.569c0,.2.007.392,0,.588a1.266,1.266,0,0,1-1.244,1.257,1.236,1.236,0,0,1-1.249-1.241,16.1,16.1,0,0,1,.014-2.739c.2-1.4-1.464-2.023-2.446-1.514a1.805,1.805,0,0,0-1.09,1.652c-.015,2.569-.023,5.138.007,7.707a3.379,3.379,0,0,0,1.275,2.551q.912.792,1.845,1.56a8.432,8.432,0,0,1,3.212,6.646c.018,1.132.014,2.264,0,3.4-.01.96-.474,1.493-1.265,1.492s-1.259-.55-1.267-1.494c-.01-1.2.012-2.4-.014-3.592a5.636,5.636,0,0,0-1.85-4.11c-.649-.611-1.342-1.177-2.033-1.742a6.321,6.321,0,0,1-2.454-5.173c.013-2.308.038-4.616-.005-6.923a4.45,4.45,0,0,1,5.828-4.451.951.951,0,0,0,.231-.01M8.345,24.027a5.811,5.811,0,0,0,0-11.622,5.811,5.811,0,1,0,0,11.622m17.377-1.044A5.724,5.724,0,0,0,28,16.523a5.792,5.792,0,0,0-11.249.661c-.443,2.252.747,5,2.454,5.8.595-.392,1.159-.751,1.705-1.134a.593.593,0,0,0,.249-.388c.021-.932.011-1.864.011-2.827a1.923,1.923,0,0,0-.3.041,1.172,1.172,0,0,1-1.467-.527,1.209,1.209,0,0,1,.253-1.6c.62-.642,1.245-1.28,1.891-1.895a1.193,1.193,0,0,1,1.709-.075c.735.679,1.439,1.393,2.12,2.126a1.027,1.027,0,0,1,.124,1.38,2.857,2.857,0,0,1-1.11.665c-.16.068-.4-.056-.666-.1,0,.983-.006,1.916.007,2.848a.441.441,0,0,0,.168.312c.589.4,1.19.772,1.82,1.176" transform="translate(0 -8.161)" fill="#f2a203"/>
        <path id="Trazado_231451" data-name="Trazado 231451" d="M200.034,28.172A14.086,14.086,0,1,1,214.158,14.13a14.091,14.091,0,0,1-14.125,14.042M211.623,14.1a11.581,11.581,0,1,0-11.675,11.551A11.558,11.558,0,0,0,211.623,14.1" transform="translate(-153.562 0)" fill="#f2a203"/>
        <path id="Trazado_231455" data-name="Trazado 231455" d="M31.225,38.627c0-.7-.007-1.375,0-2.046.012-.935.493-1.512,1.255-1.522s1.27.565,1.286,1.491c.012.672,0,1.345,0,2.063.236-.039.416-.079.6-.1a1.147,1.147,0,0,1,1.2.618,1.1,1.1,0,0,1-.1,1.344c-.705.769-1.438,1.518-2.211,2.219a1.091,1.091,0,0,1-1.55-.021c-.739-.674-1.439-1.394-2.122-2.125a1.141,1.141,0,0,1-.136-1.449,1.168,1.168,0,0,1,1.28-.576c.145.021.287.058.5.1" transform="translate(-24.158 -28.952)" fill="#f2a203"/>
        <path id="Trazado_231456" data-name="Trazado 231456" d="M228.195,33.9c.072-.2.119-.361.192-.516a1.243,1.243,0,0,1,1.521-.688c.569.171,1.075.815.834,1.36-.494,1.116.166,1.613.906,2.135.07.049.142.1.208.142.893-.641,1.53-.693,2.045-.176s.485,1.135-.18,2.034c.3.39.6.808.946,1.191a.617.617,0,0,0,.455.1,6.651,6.651,0,0,0,.7-.156,1.25,1.25,0,0,1,.715,2.394c-.119.049-.241.09-.368.137-.053.674.175,1.02.9,1.105.937.109,1.4.731,1.27,1.479-.138.773-.826,1.167-1.764.964-.657-.142-1.287-.282-1.753.485.084.094.211.227.327.37a1.234,1.234,0,0,1-.016,1.667,1.186,1.186,0,0,1-1.651.167c-.548-.426-1.03-.934-1.553-1.393a7.506,7.506,0,0,0-.682-.469c-.153.486-.244.861-.387,1.215a1.255,1.255,0,0,1-1.551.748,1.156,1.156,0,0,1-.832-1.427c.485-1.091-.005-1.636-.9-2.069a2.3,2.3,0,0,1-.212-.13c-.968.664-1.585.717-2.1.189-.531-.545-.474-1.13.219-2.055-.238-.367-.462-.762-.741-1.114a.679.679,0,0,0-.512-.217c-.364.032-.718.184-1.083.22a1.191,1.191,0,0,1-1.313-.93,1.206,1.206,0,0,1,.714-1.443c.357-.151.74-.239,1.246-.4a5.455,5.455,0,0,0-.438-.686c-.386-.442-.817-.846-1.2-1.292a1.272,1.272,0,1,1,1.851-1.713c.047.045.1.086.146.129a1.259,1.259,0,0,0,.5-1.627,1.886,1.886,0,0,1-.064-.451,1.261,1.261,0,1,1,2.476-.454c.015.063.024.128.034.193.162.991.095.866,1.086.978m3.935,10.08.025-.078c.152-.011.3-.016.456-.033,1.241-.144,1.512-.672.86-1.752a16.857,16.857,0,0,0-5.534-5.532c-1.1-.657-1.743-.337-1.718.926a5.9,5.9,0,0,0,.448,2.265,7.318,7.318,0,0,0,3.731,3.679,12.868,12.868,0,0,0,1.733.526" transform="translate(-183.104 -26.114)" fill="#f2a203"/>
      </g>
    </g>
    <g id="Grupo_158842" data-name="Grupo 158842" transform="translate(827.763 8515.967) rotate(180)">
      <g id="Grupo_158843" data-name="Grupo 158843">
        <path id="Trazado_231457" data-name="Trazado 231457" d="M38.985,0a4.381,4.381,0,0,1,2.364,1.985c2.406,3.668,4.858,7.306,7.293,10.955a3.228,3.228,0,0,1-.018,4.235L39.011,31.57c-.143.215-.28.434-.432.67l5.656,8.471q4.446,6.659,8.9,13.314a3.378,3.378,0,0,1,.659,2.309,2.962,2.962,0,0,1-3.5,2.635c-1.974-.368-3.941-.776-5.912-1.165-.125-.025-.252-.037-.446-.065-.312,1.555-.6,3.1-.937,4.632a6.426,6.426,0,0,1-.943,2.923,2.987,2.987,0,0,1-4.463.241,6.35,6.35,0,0,1-.674-.869q-4.74-7.086-9.471-14.178c-.154-.231-.311-.46-.524-.775-.183.257-.331.455-.468.66Q21.63,57.6,16.805,64.821a3.079,3.079,0,0,1-3.3,1.543,2.863,2.863,0,0,1-2.3-2.211c-.435-1.893-.784-3.806-1.172-5.71-.046-.228-.109-.452-.174-.72-1.921.383-3.805.743-5.682,1.139a3.548,3.548,0,0,1-2.521-.183A2.992,2.992,0,0,1,.625,54.144q4.724-7.1,9.467-14.18l5.16-7.726c-.148-.229-.286-.446-.429-.66Q10,24.353,5.174,17.129a3.218,3.218,0,0,1,.009-4.182c2.446-3.668,4.9-7.327,7.33-11.008A3.966,3.966,0,0,1,14.974,0ZM15.452,8.483c-.167.232-.3.4-.415.576-1.2,1.8-2.383,3.607-3.607,5.388a.884.884,0,0,0-.012,1.179Q24.6,35.321,37.753,55.035c.117.175.246.342.418.579.4-1.439.317-3,1.683-3.94,1.4-.967,2.834-.279,4.378-.1L15.452,8.483m19.46,18.262a2.433,2.433,0,0,0,.207-.228q3.726-5.572,7.433-11.156a.812.812,0,0,0-.052-.715c-1.212-1.864-2.453-3.709-3.688-5.558-.125-.187-.258-.368-.429-.613L30.549,20.209l4.362,6.536M18.888,37.669l-9.3,13.917c1.528-.192,2.936-.859,4.327.053,1.424.934,1.329,2.519,1.724,3.9.064-.038.113-.05.134-.081Q19.439,50,23.085,44.523a.62.62,0,0,0,0-.555c-1.364-2.075-2.748-4.137-4.193-6.3m8.027-22.9L32.708,6.1H21.121l5.794,8.676" transform="translate(0)" fill="#008bfd"/>
      </g>
    </g>
    <g id="Grupo_158845" data-name="Grupo 158845" transform="translate(447.22 8329.401) rotate(-135)">
      <g id="Grupo_158846" data-name="Grupo 158846">
        <path id="Trazado_231458" data-name="Trazado 231458" d="M12.564,45.6c-.96-1.1-1.859-2.149-2.777-3.18-1.52-1.708-3.166-3.315-4.559-5.12A23.125,23.125,0,1,1,46.383,19.766,22.8,22.8,0,0,1,40.4,38.991q-2.6,2.882-5.2,5.754c-.23.255-.437.529-.7.848,1.067.316,2.078.586,3.07.914A18.968,18.968,0,0,1,44.39,50.2c3.419,3.042,3.508,7.365.136,10.45a16.674,16.674,0,0,1-2.982,2.115,26.455,26.455,0,0,1-7.793,2.761,48.556,48.556,0,0,1-21.759-.3,22.755,22.755,0,0,1-8.612-3.795,11.344,11.344,0,0,1-1.705-1.614,6.371,6.371,0,0,1-.109-8.491,14.187,14.187,0,0,1,6.058-4.121c1.39-.546,2.843-.935,4.268-1.394.189-.061.38-.119.672-.21M23.5,52c.213-.25.363-.421.508-.6,4.34-5.248,8.553-10.6,13.221-15.575a17.821,17.821,0,0,0,4.8-14.992A18.684,18.684,0,1,0,9.843,35.951c2.889,3.175,5.669,6.449,8.458,9.714,1.752,2.052,3.427,4.17,5.195,6.331m-.013,10.281c2.136-.177,4.282-.28,6.407-.549A26.008,26.008,0,0,0,39.008,59.1a13.305,13.305,0,0,0,2.964-2.217,1.793,1.793,0,0,0,.017-2.728,9.269,9.269,0,0,0-2-1.675,24.191,24.191,0,0,0-8.115-2.829.866.866,0,0,0-.993.349c-1.783,2.209-3.592,4.4-5.388,6.595-1.255,1.535-2.721,1.532-3.976-.007-1.794-2.2-3.588-4.4-5.4-6.584a.975.975,0,0,0-.7-.378,24.227,24.227,0,0,0-7.849,2.555A11.435,11.435,0,0,0,5.066,54.11a1.879,1.879,0,0,0,0,2.846,5.233,5.233,0,0,0,1.276,1.154A26.306,26.306,0,0,0,9.9,59.938a40.534,40.534,0,0,0,13.585,2.339" transform="translate(0 0)" fill="#5e7aa8"/>
        <path id="Trazado_231459" data-name="Trazado 231459" d="M44.79,71.836c-1.768-2.161-3.443-4.279-5.195-6.331-2.788-3.265-5.569-6.54-8.458-9.714A18.684,18.684,0,1,1,63.324,40.672a17.82,17.82,0,0,1-4.8,14.992C53.851,60.642,49.638,65.992,45.3,71.24c-.145.175-.295.347-.508.6M56.521,43.01A11.722,11.722,0,1,0,44.965,54.747,11.747,11.747,0,0,0,56.521,43.01" transform="translate(-21.295 -19.841)" fill="#fff"/>
        <path id="Trazado_231460" data-name="Trazado 231460" d="M42.967,281.236A40.534,40.534,0,0,1,29.383,278.9a26.311,26.311,0,0,1-3.554-1.828,5.234,5.234,0,0,1-1.276-1.154,1.879,1.879,0,0,1,0-2.846,11.434,11.434,0,0,1,2.494-1.935,24.226,24.226,0,0,1,7.849-2.555.975.975,0,0,1,.7.378c1.813,2.184,3.607,4.384,5.4,6.584,1.255,1.539,2.721,1.543,3.976.007,1.8-2.2,3.605-4.386,5.388-6.595a.866.866,0,0,1,.993-.349,24.191,24.191,0,0,1,8.115,2.829,9.27,9.27,0,0,1,2,1.675,1.793,1.793,0,0,1-.017,2.728,13.306,13.306,0,0,1-2.964,2.217,26.007,26.007,0,0,1-9.119,2.632c-2.125.268-4.271.371-6.407.549" transform="translate(-19.485 -218.959)" fill="#fff"/>
        <path id="Trazado_231461" data-name="Trazado 231461" d="M87.223,73.8A11.722,11.722,0,1,1,75.334,62.1,11.718,11.718,0,0,1,87.223,73.8M75.5,81.1a7.284,7.284,0,1,0-7.28-7.337A7.271,7.271,0,0,0,75.5,81.1" transform="translate(-51.998 -50.626)" fill="#5e7aa8"/>
        <path id="Trazado_231462" data-name="Trazado 231462" d="M95.075,100.65a7.284,7.284,0,1,1,7.29-7.249,7.288,7.288,0,0,1-7.29,7.249" transform="translate(-71.576 -70.18)" fill="#fff"/>
      </g>
    </g>
  </g>
</svg>
