<svg xmlns="http://www.w3.org/2000/svg" width="787.943" height="597.792" viewBox="0 0 787.943 597.792">
  <g id="Grupo_159291" data-name="Grupo 159291" transform="translate(-390 -13715.68)">
    <g id="Grupo_158862" data-name="Grupo 158862" transform="translate(49 -21.32)">
      <path id="Trazado_231503" data-name="Trazado 231503" d="M0,0,168.918,209.758" transform="translate(819.43 13856.597)" fill="none" stroke="#9abbc0" stroke-width="4"/>
      <line id="Línea_555" data-name="Línea 555" x2="98.906" y2="126.224" transform="translate(481.594 13856.597)" fill="none" stroke="#9abbc0" stroke-miterlimit="10" stroke-width="4"/>
      <line id="Línea_556" data-name="Línea 556" x1="168.918" y2="209.758" transform="translate(650.512 13856.597)" fill="none" stroke="#9abbc0" stroke-miterlimit="10" stroke-width="4"/>
      <path id="Trazado_231475" data-name="Trazado 231475" d="M244,0,190.3,165.279,330.893,267.426,471.486,165.279,417.783,0Z" transform="translate(488.538 13737)" fill="#7e5ee3"/>
      <path id="Trazado_231476" data-name="Trazado 231476" d="M197.452,156.434,246.3,6.086H404.39L453.24,156.434,325.346,249.355Z" transform="translate(494.084 13741.718)" fill="#fff"/>
      <path id="Trazado_231477" data-name="Trazado 231477" d="M201.744,151.127,247.685,9.737H396.352l45.941,141.39L322.019,238.512Z" transform="translate(497.412 13744.549)" fill="none" stroke="#7e5ee3" stroke-miterlimit="10" stroke-width="1"/>
      <path id="Trazado_231478" data-name="Trazado 231478" d="M426.042,109.054,285.447,211.2l53.7,165.278H512.934l53.7-165.278Z" transform="translate(562.306 13821.549)" fill="#5bbcb2"/>
      <path id="Trazado_231479" data-name="Trazado 231479" d="M341.453,359.845,292.6,209.5,420.5,116.576,548.388,209.5,499.538,359.845Z" transform="translate(567.853 13827.381)" fill="#fff"/>
      <path id="Trazado_231480" data-name="Trazado 231480" d="M342.835,349.864l-45.941-141.39,120.275-87.385,120.273,87.385L491.5,349.864Z" transform="translate(571.181 13830.88)" fill="none" stroke="#5bbcb2" stroke-miterlimit="10" stroke-width="1"/>
      <path id="Trazado_231481" data-name="Trazado 231481" d="M53.7,0,0,165.279,140.594,267.426,281.187,165.279,227.485,0Z" transform="translate(341 13737)" fill="#f9ba3a"/>
      <path id="Trazado_231482" data-name="Trazado 231482" d="M7.154,156.434,56,6.086H214.091l48.851,150.348L135.048,249.355Z" transform="translate(346.547 13741.718)" fill="#fff"/>
      <path id="Trazado_231483" data-name="Trazado 231483" d="M11.446,151.127,57.387,9.737H206.054l45.941,141.39L131.72,238.512Z" transform="translate(349.874 13744.549)" fill="none" stroke="#f9ba3a" stroke-miterlimit="10" stroke-width="1"/>
      <path id="Trazado_231484" data-name="Trazado 231484" d="M235.743,109.054,95.149,211.2l53.7,165.278H322.635l53.7-165.278Z" transform="translate(414.769 13821.549)" fill="#008bfd"/>
      <path id="Trazado_231485" data-name="Trazado 231485" d="M151.155,359.845,102.3,209.5,230.2,116.576,358.091,209.5,309.24,359.845Z" transform="translate(420.315 13827.381)" fill="#fff"/>
      <path id="Trazado_231486" data-name="Trazado 231486" d="M152.537,349.864l-45.943-141.39,120.275-87.385,120.275,87.385L301.2,349.864Z" transform="translate(423.642 13830.88)" fill="none" stroke="#008bfd" stroke-miterlimit="10" stroke-width="1"/>
      <rect id="Rectángulo_47861" data-name="Rectángulo 47861" width="43.141" height="5.445" transform="translate(797.86 13920.88)" fill="#7e5ee3"/>
      <path id="Trazado_232848" data-name="Trazado 232848" d="M9.139,0,7.1-2.925A2.959,2.959,0,0,0,8.97-5.8c0-2.041-1.521-3.3-3.952-3.3H1.079V0H3.185V-2.535H5.122L6.877,0Zm-2.3-5.8c0,.988-.65,1.586-1.937,1.586H3.185V-7.384H4.9C6.188-7.384,6.838-6.8,6.838-5.8Zm10.5,2.327A3.462,3.462,0,0,0,13.7-7.1,3.561,3.561,0,0,0,9.971-3.5c0,2.08,1.573,3.6,3.991,3.6a3.663,3.663,0,0,0,2.886-1.131L15.769-2.2a2.371,2.371,0,0,1-1.755.676,1.865,1.865,0,0,1-2-1.4H17.3C17.316-3.094,17.342-3.315,17.342-3.471ZM13.715-5.564a1.662,1.662,0,0,1,1.716,1.456H11.986A1.656,1.656,0,0,1,13.715-5.564ZM21.125-7.1a5.376,5.376,0,0,0-3.016.845l.728,1.417a3.363,3.363,0,0,1,2.015-.65c1.092,0,1.612.507,1.612,1.378H20.852c-2.132,0-3,.858-3,2.093C17.849-.806,18.824.1,20.462.1a2.3,2.3,0,0,0,2.132-.975V0h1.9V-3.991C24.492-6.11,23.257-7.1,21.125-7.1Zm-.156,5.837c-.715,0-1.144-.338-1.144-.845,0-.468.3-.819,1.248-.819h1.391v.715A1.494,1.494,0,0,1,20.969-1.261ZM26.325,0h2.028V-9.646H26.325Zm4.927-7.969a1.166,1.166,0,0,0,1.261-1.17,1.138,1.138,0,0,0-1.261-1.092A1.159,1.159,0,0,0,29.991-9.1,1.159,1.159,0,0,0,31.252-7.969ZM30.238,0h2.028V-6.994H30.238Zm5.993-1.56,3.562-4.212V-6.994H33.761v1.56h3.471L33.67-1.222V0h6.24V-1.56Zm7.8-5.538a5.376,5.376,0,0,0-3.016.845l.728,1.417a3.363,3.363,0,0,1,2.015-.65c1.092,0,1.612.507,1.612,1.378H43.758c-2.132,0-3,.858-3,2.093C40.755-.806,41.73.1,43.368.1A2.3,2.3,0,0,0,45.5-.871V0h1.9V-3.991C47.4-6.11,46.163-7.1,44.031-7.1Zm-.156,5.837c-.715,0-1.144-.338-1.144-.845,0-.468.3-.819,1.248-.819H45.37v.715A1.494,1.494,0,0,1,43.875-1.261Zm7.293-4.81v-.923H49.231V0h2.028V-3.3a1.718,1.718,0,0,1,1.859-1.95c.156,0,.286.013.455.026V-7.1A2.822,2.822,0,0,0,51.168-6.071Z" transform="translate(790.155 13857.116)" fill="#383838"/>
      <path id="Trazado_232849" data-name="Trazado 232849" d="M5.434.156A4.676,4.676,0,0,0,9.191-1.469L7.839-2.717A2.9,2.9,0,0,1,5.551-1.638,2.792,2.792,0,0,1,2.639-4.55,2.792,2.792,0,0,1,5.551-7.462,2.928,2.928,0,0,1,7.839-6.4L9.191-7.644A4.7,4.7,0,0,0,5.447-9.256,4.675,4.675,0,0,0,.507-4.55,4.672,4.672,0,0,0,5.434.156ZM13.312.1a3.589,3.589,0,0,0,3.835-3.6,3.589,3.589,0,0,0-3.835-3.6A3.6,3.6,0,0,0,9.464-3.5,3.6,3.6,0,0,0,13.312.1Zm0-1.664A1.775,1.775,0,0,1,11.518-3.5a1.775,1.775,0,0,1,1.794-1.937A1.765,1.765,0,0,1,15.093-3.5,1.765,1.765,0,0,1,13.312-1.56ZM22.75-7.1a3.062,3.062,0,0,0-2.314.923v-.819H18.5V0h2.028V-3.458c0-1.287.7-1.885,1.677-1.885.9,0,1.417.52,1.417,1.651V0h2.028V-4C25.649-6.136,24.4-7.1,22.75-7.1Zm8.7,5.33a1.367,1.367,0,0,1-.819.26.816.816,0,0,1-.871-.923V-5.278H31.5v-1.56H29.757v-1.7H27.729v1.7H26.65v1.56h1.079V-2.4A2.306,2.306,0,0,0,30.342.1a2.9,2.9,0,0,0,1.651-.442Zm3.627-4.3v-.923H33.137V0h2.028V-3.3a1.718,1.718,0,0,1,1.859-1.95c.156,0,.286.013.455.026V-7.1A2.822,2.822,0,0,0,35.074-6.071ZM41.834.1a3.589,3.589,0,0,0,3.835-3.6,3.589,3.589,0,0,0-3.835-3.6,3.6,3.6,0,0,0-3.848,3.6A3.6,3.6,0,0,0,41.834.1Zm0-1.664A1.775,1.775,0,0,1,40.04-3.5a1.775,1.775,0,0,1,1.794-1.937A1.765,1.765,0,0,1,43.615-3.5,1.765,1.765,0,0,1,41.834-1.56ZM47.021,0h2.028V-9.646H47.021ZM59.709-9.646v3.393A2.687,2.687,0,0,0,57.616-7.1a3.4,3.4,0,0,0-3.5,3.6,3.4,3.4,0,0,0,3.5,3.6A2.69,2.69,0,0,0,59.8-.806V0h1.937V-9.646ZM57.967-1.56A1.775,1.775,0,0,1,56.173-3.5a1.775,1.775,0,0,1,1.794-1.937A1.772,1.772,0,0,1,59.748-3.5,1.772,1.772,0,0,1,57.967-1.56ZM70.46-3.471A3.462,3.462,0,0,0,66.82-7.1a3.561,3.561,0,0,0-3.731,3.6c0,2.08,1.573,3.6,3.991,3.6a3.663,3.663,0,0,0,2.886-1.131L68.887-2.2a2.371,2.371,0,0,1-1.755.676,1.865,1.865,0,0,1-2-1.4h5.291C70.434-3.094,70.46-3.315,70.46-3.471ZM66.833-5.564a1.662,1.662,0,0,1,1.716,1.456H65.1A1.656,1.656,0,0,1,66.833-5.564ZM78.871.1A3.245,3.245,0,0,0,82-1.664l-1.573-.858a1.721,1.721,0,0,1-1.573.962A1.79,1.79,0,0,1,77.025-3.5a1.79,1.79,0,0,1,1.833-1.937,1.744,1.744,0,0,1,1.573.962L82-5.317A3.213,3.213,0,0,0,78.871-7.1a3.616,3.616,0,0,0-3.9,3.6A3.616,3.616,0,0,0,78.871.1ZM86-7.1a5.376,5.376,0,0,0-3.016.845l.728,1.417a3.363,3.363,0,0,1,2.015-.65c1.092,0,1.612.507,1.612,1.378H85.722c-2.132,0-3,.858-3,2.093C82.719-.806,83.694.1,85.332.1a2.3,2.3,0,0,0,2.132-.975V0h1.9V-3.991C89.362-6.11,88.127-7.1,86-7.1Zm-.156,5.837c-.715,0-1.144-.338-1.144-.845,0-.468.3-.819,1.248-.819h1.391v.715A1.494,1.494,0,0,1,85.839-1.261ZM91.195,0h2.028V-9.646H91.195Zm4.927-7.969a1.166,1.166,0,0,0,1.261-1.17,1.138,1.138,0,0,0-1.261-1.092A1.159,1.159,0,0,0,94.861-9.1,1.159,1.159,0,0,0,96.122-7.969ZM95.108,0h2.028V-6.994H95.108Zm9.009-9.646v3.393a2.687,2.687,0,0,0-2.093-.845,3.4,3.4,0,0,0-3.5,3.6,3.4,3.4,0,0,0,3.5,3.6,2.69,2.69,0,0,0,2.184-.91V0h1.937V-9.646ZM102.375-1.56A1.775,1.775,0,0,1,100.581-3.5a1.775,1.775,0,0,1,1.794-1.937A1.772,1.772,0,0,1,104.156-3.5,1.772,1.772,0,0,1,102.375-1.56ZM110.838-7.1a5.376,5.376,0,0,0-3.016.845l.728,1.417a3.363,3.363,0,0,1,2.015-.65c1.092,0,1.612.507,1.612,1.378h-1.612c-2.132,0-3,.858-3,2.093,0,1.209.975,2.119,2.613,2.119a2.3,2.3,0,0,0,2.132-.975V0h1.9V-3.991C114.205-6.11,112.97-7.1,110.838-7.1Zm-.156,5.837c-.715,0-1.144-.338-1.144-.845,0-.468.3-.819,1.248-.819h1.391v.715A1.494,1.494,0,0,1,110.682-1.261ZM121.29-9.646v3.393A2.687,2.687,0,0,0,119.2-7.1a3.4,3.4,0,0,0-3.5,3.6A3.4,3.4,0,0,0,119.2.1a2.69,2.69,0,0,0,2.184-.91V0h1.937V-9.646ZM119.548-1.56A1.775,1.775,0,0,1,117.754-3.5a1.775,1.775,0,0,1,1.794-1.937A1.772,1.772,0,0,1,121.329-3.5,1.772,1.772,0,0,1,119.548-1.56Z" transform="translate(752.038 13874)" fill="#383838"/>
      <path id="Trazado_231487" data-name="Trazado 231487" d="M278.283,61.9a20.127,20.127,0,1,1,20.125-20.127A20.15,20.15,0,0,1,278.283,61.9Z" transform="translate(541.147 13753.782)" fill="none" stroke="#7e5ee3" stroke-miterlimit="10" stroke-width="0.5"/>
      <path id="Trazado_231488" data-name="Trazado 231488" d="M294.279,40.517a17.251,17.251,0,1,1-17.251-17.251,17.251,17.251,0,0,1,17.251,17.251" transform="translate(542.403 13755.038)" fill="#7e5ee3"/>
      <text id="_3" data-name="3" transform="translate(812.719 13802.317)" fill="#fff" font-size="21" font-family="Montserrat-ExtraBold, Montserrat" font-weight="800"><tspan x="0" y="0">3</tspan></text>
      <rect id="Rectángulo_47863" data-name="Rectángulo 47863" width="43.141" height="5.445" transform="translate(460.025 13920.88)" fill="#f9ba3a"/>
      <path id="Trazado_232846" data-name="Trazado 232846" d="M9.139,0,7.1-2.925A2.959,2.959,0,0,0,8.97-5.8c0-2.041-1.521-3.3-3.952-3.3H1.079V0H3.185V-2.535H5.122L6.877,0Zm-2.3-5.8c0,.988-.65,1.586-1.937,1.586H3.185V-7.384H4.9C6.188-7.384,6.838-6.8,6.838-5.8Zm10.5,2.327A3.462,3.462,0,0,0,13.7-7.1,3.561,3.561,0,0,0,9.971-3.5c0,2.08,1.573,3.6,3.991,3.6a3.663,3.663,0,0,0,2.886-1.131L15.769-2.2a2.371,2.371,0,0,1-1.755.676,1.865,1.865,0,0,1-2-1.4H17.3C17.316-3.094,17.342-3.315,17.342-3.471ZM13.715-5.564a1.662,1.662,0,0,1,1.716,1.456H11.986A1.656,1.656,0,0,1,13.715-5.564ZM22.074.1a3.245,3.245,0,0,0,3.133-1.768l-1.573-.858a1.721,1.721,0,0,1-1.573.962A1.79,1.79,0,0,1,20.228-3.5a1.79,1.79,0,0,1,1.833-1.937,1.744,1.744,0,0,1,1.573.962l1.573-.845A3.213,3.213,0,0,0,22.074-7.1a3.616,3.616,0,0,0-3.9,3.6A3.616,3.616,0,0,0,22.074.1Zm7.462,0a3.589,3.589,0,0,0,3.835-3.6,3.589,3.589,0,0,0-3.835-3.6,3.6,3.6,0,0,0-3.848,3.6A3.6,3.6,0,0,0,29.536.1Zm0-1.664A1.775,1.775,0,0,1,27.742-3.5a1.775,1.775,0,0,1,1.794-1.937A1.765,1.765,0,0,1,31.317-3.5,1.765,1.765,0,0,1,29.536-1.56ZM34.723,0h2.028V-9.646H34.723ZM45.487-3.471A3.462,3.462,0,0,0,41.847-7.1a3.561,3.561,0,0,0-3.731,3.6c0,2.08,1.573,3.6,3.991,3.6a3.663,3.663,0,0,0,2.886-1.131L43.914-2.2a2.371,2.371,0,0,1-1.755.676,1.865,1.865,0,0,1-2-1.4h5.291C45.461-3.094,45.487-3.315,45.487-3.471ZM41.86-5.564a1.662,1.662,0,0,1,1.716,1.456H40.131A1.656,1.656,0,0,1,41.86-5.564ZM50.219.1a3.245,3.245,0,0,0,3.133-1.768l-1.573-.858a1.721,1.721,0,0,1-1.573.962A1.79,1.79,0,0,1,48.373-3.5a1.79,1.79,0,0,1,1.833-1.937,1.744,1.744,0,0,1,1.573.962l1.573-.845A3.213,3.213,0,0,0,50.219-7.1a3.616,3.616,0,0,0-3.9,3.6A3.616,3.616,0,0,0,50.219.1Zm8.476-1.872a1.367,1.367,0,0,1-.819.26A.816.816,0,0,1,57-2.431V-5.278h1.742v-1.56H57v-1.7H54.977v1.7H53.9v1.56h1.079V-2.4A2.306,2.306,0,0,0,57.59.1a2.9,2.9,0,0,0,1.651-.442ZM63.206-7.1a5.376,5.376,0,0,0-3.016.845l.728,1.417a3.363,3.363,0,0,1,2.015-.65c1.092,0,1.612.507,1.612,1.378H62.933c-2.132,0-3,.858-3,2.093C59.93-.806,60.9.1,62.543.1a2.3,2.3,0,0,0,2.132-.975V0h1.9V-3.991C66.573-6.11,65.338-7.1,63.206-7.1ZM63.05-1.261c-.715,0-1.144-.338-1.144-.845,0-.468.3-.819,1.248-.819h1.391v.715A1.494,1.494,0,0,1,63.05-1.261Zm7.293-4.81v-.923H68.406V0h2.028V-3.3a1.718,1.718,0,0,1,1.859-1.95c.156,0,.286.013.455.026V-7.1A2.822,2.822,0,0,0,70.343-6.071ZM77.688,0h2.028V-9.646H77.688Zm6.734-7.1a5.376,5.376,0,0,0-3.016.845l.728,1.417a3.363,3.363,0,0,1,2.015-.65c1.092,0,1.612.507,1.612,1.378H84.149c-2.132,0-3,.858-3,2.093C81.146-.806,82.121.1,83.759.1a2.3,2.3,0,0,0,2.132-.975V0h1.9V-3.991C87.789-6.11,86.554-7.1,84.422-7.1Zm-.156,5.837c-.715,0-1.144-.338-1.144-.845,0-.468.3-.819,1.248-.819h1.391v.715A1.494,1.494,0,0,1,84.266-1.261Z" transform="translate(431.623 13857.116)" fill="#383838"/>
      <path id="Trazado_232847" data-name="Trazado 232847" d="M1.95-7.969a1.166,1.166,0,0,0,1.261-1.17A1.138,1.138,0,0,0,1.95-10.231,1.159,1.159,0,0,0,.689-9.1,1.159,1.159,0,0,0,1.95-7.969ZM.936,0H2.964V-6.994H.936ZM9.1-7.1a3.062,3.062,0,0,0-2.314.923v-.819H4.849V0H6.877V-3.458c0-1.287.7-1.885,1.677-1.885.9,0,1.417.52,1.417,1.651V0H12V-4C12-6.136,10.751-7.1,9.1-7.1Zm6.955-.039c0-.689.325-1.014.923-1.014A1.42,1.42,0,0,1,17.8-7.9l.533-1.469a2.875,2.875,0,0,0-1.547-.377,2.441,2.441,0,0,0-2.7,2.6v.312H13v1.56h1.079V0h2.028V-5.278h1.742v-1.56H16.055ZM22.022.1a3.589,3.589,0,0,0,3.835-3.6,3.589,3.589,0,0,0-3.835-3.6,3.6,3.6,0,0,0-3.848,3.6A3.6,3.6,0,0,0,22.022.1Zm0-1.664A1.775,1.775,0,0,1,20.228-3.5a1.775,1.775,0,0,1,1.794-1.937A1.765,1.765,0,0,1,23.8-3.5,1.765,1.765,0,0,1,22.022-1.56Zm7.124-4.511v-.923H27.209V0h2.028V-3.3A1.718,1.718,0,0,1,31.1-5.252c.156,0,.286.013.455.026V-7.1A2.822,2.822,0,0,0,29.146-6.071ZM41.665-7.1a3.145,3.145,0,0,0-2.522,1.144,2.611,2.611,0,0,0-2.3-1.144,2.833,2.833,0,0,0-2.2.91v-.806H32.708V0h2.028V-3.51c0-1.248.637-1.833,1.534-1.833.845,0,1.326.52,1.326,1.651V0h2.028V-3.51c0-1.248.637-1.833,1.547-1.833.819,0,1.326.52,1.326,1.651V0h2.028V-4C44.525-6.136,43.329-7.1,41.665-7.1Zm7.5,0a5.376,5.376,0,0,0-3.016.845l.728,1.417a3.363,3.363,0,0,1,2.015-.65c1.092,0,1.612.507,1.612,1.378H48.893c-2.132,0-3,.858-3,2.093C45.89-.806,46.865.1,48.5.1a2.3,2.3,0,0,0,2.132-.975V0h1.9V-3.991C52.533-6.11,51.3-7.1,49.166-7.1ZM49.01-1.261c-.715,0-1.144-.338-1.144-.845,0-.468.3-.819,1.248-.819h1.391v.715A1.494,1.494,0,0,1,49.01-1.261ZM57.9.1a3.245,3.245,0,0,0,3.133-1.768l-1.573-.858a1.721,1.721,0,0,1-1.573.962A1.79,1.79,0,0,1,56.056-3.5a1.79,1.79,0,0,1,1.833-1.937,1.744,1.744,0,0,1,1.573.962l1.573-.845A3.213,3.213,0,0,0,57.9-7.1,3.616,3.616,0,0,0,54-3.5,3.616,3.616,0,0,0,57.9.1Zm5.317-8.073a1.166,1.166,0,0,0,1.261-1.17,1.138,1.138,0,0,0-1.261-1.092A1.159,1.159,0,0,0,61.958-9.1,1.159,1.159,0,0,0,63.219-7.969ZM62.2,0h2.028V-6.994H62.2Zm6.032-7.891h1.586l2.353-1.872H69.992Zm1.209,8a3.589,3.589,0,0,0,3.835-3.6,3.589,3.589,0,0,0-3.835-3.6A3.6,3.6,0,0,0,65.6-3.5,3.6,3.6,0,0,0,69.446.1Zm0-1.664A1.775,1.775,0,0,1,67.652-3.5a1.775,1.775,0,0,1,1.794-1.937A1.765,1.765,0,0,1,71.227-3.5,1.765,1.765,0,0,1,69.446-1.56ZM78.884-7.1a3.062,3.062,0,0,0-2.314.923v-.819H74.633V0h2.028V-3.458c0-1.287.7-1.885,1.677-1.885.9,0,1.417.52,1.417,1.651V0h2.028V-4C81.783-6.136,80.535-7.1,78.884-7.1ZM94.146-3.471A3.462,3.462,0,0,0,90.506-7.1a3.561,3.561,0,0,0-3.731,3.6c0,2.08,1.573,3.6,3.991,3.6a3.663,3.663,0,0,0,2.886-1.131L92.573-2.2a2.371,2.371,0,0,1-1.755.676,1.865,1.865,0,0,1-2-1.4h5.291C94.12-3.094,94.146-3.315,94.146-3.471ZM90.519-5.564a1.662,1.662,0,0,1,1.716,1.456H88.79A1.656,1.656,0,0,1,90.519-5.564ZM101.855,0l-2.7-3.575,2.6-3.419H99.593L98.072-4.953,96.59-6.994H94.315l2.6,3.471L94.224,0h2.21L98.02-2.145,99.554,0Zm2-7.969a1.166,1.166,0,0,0,1.261-1.17,1.138,1.138,0,0,0-1.261-1.092A1.159,1.159,0,0,0,102.6-9.1,1.159,1.159,0,0,0,103.857-7.969ZM102.843,0h2.028V-6.994h-2.028Zm6.266.1c2.093,0,3.3-.923,3.3-2.223,0-2.756-4.225-1.6-4.225-2.8,0-.364.39-.65,1.3-.65a4.016,4.016,0,0,1,2.015.52l.676-1.443a5.751,5.751,0,0,0-2.691-.611c-2.041,0-3.237.936-3.237,2.262,0,2.795,4.225,1.625,4.225,2.769,0,.39-.351.637-1.287.637a4.785,4.785,0,0,1-2.431-.676L106.08-.65A6,6,0,0,0,109.109.1Zm8.515-1.872a1.367,1.367,0,0,1-.819.26.816.816,0,0,1-.871-.923V-5.278h1.742v-1.56h-1.742v-1.7h-2.028v1.7h-1.079v1.56h1.079V-2.4A2.306,2.306,0,0,0,116.519.1a2.9,2.9,0,0,0,1.651-.442Zm8.1-1.7a3.462,3.462,0,0,0-3.64-3.627,3.561,3.561,0,0,0-3.731,3.6c0,2.08,1.573,3.6,3.991,3.6a3.663,3.663,0,0,0,2.886-1.131L124.15-2.2a2.371,2.371,0,0,1-1.755.676,1.865,1.865,0,0,1-2-1.4h5.291C125.7-3.094,125.723-3.315,125.723-3.471ZM122.1-5.564a1.662,1.662,0,0,1,1.716,1.456h-3.445A1.656,1.656,0,0,1,122.1-5.564Zm9.23-1.534a3.062,3.062,0,0,0-2.314.923v-.819h-1.937V0H129.1V-3.458c0-1.287.7-1.885,1.677-1.885.9,0,1.417.52,1.417,1.651V0h2.028V-4C134.225-6.136,132.977-7.1,131.326-7.1Zm8.7,5.33a1.367,1.367,0,0,1-.819.26.816.816,0,0,1-.871-.923V-5.278h1.742v-1.56h-1.742v-1.7H136.3v1.7h-1.079v1.56H136.3V-2.4A2.306,2.306,0,0,0,138.918.1a2.9,2.9,0,0,0,1.651-.442Zm8.112-1.7a3.462,3.462,0,0,0-3.64-3.627,3.561,3.561,0,0,0-3.731,3.6c0,2.08,1.573,3.6,3.991,3.6a3.663,3.663,0,0,0,2.886-1.131L146.562-2.2a2.371,2.371,0,0,1-1.755.676,1.865,1.865,0,0,1-2-1.4H148.1C148.109-3.094,148.135-3.315,148.135-3.471Zm-3.627-2.093a1.662,1.662,0,0,1,1.716,1.456h-3.445A1.656,1.656,0,0,1,144.508-5.564Z" transform="translate(400.837 13874)" fill="#383838"/>
      <path id="Trazado_231489" data-name="Trazado 231489" d="M87.985,61.9a20.127,20.127,0,1,1,20.125-20.127A20.15,20.15,0,0,1,87.985,61.9Z" transform="translate(393.61 13753.782)" fill="none" stroke="#f9ba3a" stroke-miterlimit="10" stroke-width="0.5"/>
      <path id="Trazado_231490" data-name="Trazado 231490" d="M103.98,40.517A17.251,17.251,0,1,1,86.729,23.266,17.251,17.251,0,0,1,103.98,40.517" transform="translate(394.865 13755.038)" fill="#f9ba3a"/>
      <text id="_1" data-name="1" transform="translate(477.086 13801.317)" fill="#fff" font-size="20" font-family="Montserrat-ExtraBold, Montserrat" font-weight="800"><tspan x="0" y="0">1</tspan></text>
      <rect id="Rectángulo_47866" data-name="Rectángulo 47866" width="43.141" height="5.445" transform="translate(966.778 14146.417)" fill="#5bbcb2"/>
      <path id="Trazado_232852" data-name="Trazado 232852" d="M7.735-9.1,4.927-2.6,2.158-9.1H-.117L3.809,0h2.08L9.828-9.1Zm8.333,5.629A3.462,3.462,0,0,0,12.428-7.1,3.561,3.561,0,0,0,8.7-3.5C8.7-1.417,10.27.1,12.688.1a3.663,3.663,0,0,0,2.886-1.131L14.5-2.2a2.371,2.371,0,0,1-1.755.676,1.865,1.865,0,0,1-2-1.4h5.291C16.042-3.094,16.068-3.315,16.068-3.471ZM12.441-5.564a1.662,1.662,0,0,1,1.716,1.456H10.712A1.656,1.656,0,0,1,12.441-5.564Zm6.916-.507v-.923H17.42V0h2.028V-3.3a1.718,1.718,0,0,1,1.859-1.95c.156,0,.286.013.455.026V-7.1A2.822,2.822,0,0,0,19.357-6.071Zm4.589-1.9a1.166,1.166,0,0,0,1.261-1.17,1.138,1.138,0,0,0-1.261-1.092A1.159,1.159,0,0,0,22.685-9.1,1.159,1.159,0,0,0,23.946-7.969ZM22.932,0H24.96V-6.994H22.932Zm11-7.969a1.166,1.166,0,0,0,1.261-1.17,1.138,1.138,0,0,0-1.261-1.092A1.159,1.159,0,0,0,32.669-9.1,1.159,1.159,0,0,0,33.93-7.969Zm-3.939-.182a1.42,1.42,0,0,1,.819.247l.533-1.469A2.875,2.875,0,0,0,29.8-9.75a2.441,2.441,0,0,0-2.7,2.6v.312H26.013v1.56h1.079V0H29.12V-5.278h1.742v-1.56H29.068v-.3C29.068-7.826,29.393-8.151,29.991-8.151ZM32.916,0h2.028V-6.994H32.916Zm7.293.1a3.245,3.245,0,0,0,3.133-1.768l-1.573-.858A1.721,1.721,0,0,1,40.2-1.56,1.79,1.79,0,0,1,38.363-3.5,1.79,1.79,0,0,1,40.2-5.434a1.744,1.744,0,0,1,1.573.962l1.573-.845A3.213,3.213,0,0,0,40.209-7.1a3.616,3.616,0,0,0-3.9,3.6A3.616,3.616,0,0,0,40.209.1Zm7.124-7.2a5.376,5.376,0,0,0-3.016.845l.728,1.417a3.363,3.363,0,0,1,2.015-.65c1.092,0,1.612.507,1.612,1.378H47.06c-2.132,0-3,.858-3,2.093C44.057-.806,45.032.1,46.67.1A2.3,2.3,0,0,0,48.8-.871V0h1.9V-3.991C50.7-6.11,49.465-7.1,47.333-7.1Zm-.156,5.837c-.715,0-1.144-.338-1.144-.845,0-.468.3-.819,1.248-.819h1.391v.715A1.494,1.494,0,0,1,47.177-1.261Zm7.293-4.81v-.923H52.533V0h2.028V-3.3a1.718,1.718,0,0,1,1.859-1.95c.156,0,.286.013.455.026V-7.1A2.822,2.822,0,0,0,54.47-6.071Zm12.506-.923v.806a2.69,2.69,0,0,0-2.184-.91,3.4,3.4,0,0,0-3.5,3.6,3.4,3.4,0,0,0,3.5,3.6,2.687,2.687,0,0,0,2.093-.845V2.522h2.028V-6.994ZM65.143-1.56A1.775,1.775,0,0,1,63.349-3.5a1.775,1.775,0,0,1,1.794-1.937A1.772,1.772,0,0,1,66.924-3.5,1.772,1.772,0,0,1,65.143-1.56ZM75.8-6.994v3.458c0,1.287-.676,1.885-1.612,1.885-.9,0-1.417-.52-1.417-1.69V-6.994H70.746v3.952C70.746-.884,71.981.1,73.736.1a2.83,2.83,0,0,0,2.171-.936V0h1.924V-6.994ZM86.567-3.471A3.462,3.462,0,0,0,82.927-7.1,3.561,3.561,0,0,0,79.2-3.5c0,2.08,1.573,3.6,3.991,3.6a3.663,3.663,0,0,0,2.886-1.131L84.994-2.2a2.371,2.371,0,0,1-1.755.676,1.865,1.865,0,0,1-2-1.4h5.291C86.541-3.094,86.567-3.315,86.567-3.471ZM82.94-5.564a1.662,1.662,0,0,1,1.716,1.456H81.211A1.656,1.656,0,0,1,82.94-5.564ZM91.6,0h2.028V-9.646H91.6Zm7.241.1a3.589,3.589,0,0,0,3.835-3.6,3.589,3.589,0,0,0-3.835-3.6,3.6,3.6,0,0,0-3.848,3.6A3.6,3.6,0,0,0,98.839.1Zm0-1.664A1.775,1.775,0,0,1,97.045-3.5a1.775,1.775,0,0,1,1.794-1.937A1.765,1.765,0,0,1,100.62-3.5,1.765,1.765,0,0,1,98.839-1.56ZM106.379.1c2.093,0,3.3-.923,3.3-2.223,0-2.756-4.225-1.6-4.225-2.8,0-.364.39-.65,1.3-.65a4.016,4.016,0,0,1,2.015.52l.676-1.443a5.751,5.751,0,0,0-2.691-.611c-2.041,0-3.237.936-3.237,2.262,0,2.795,4.225,1.625,4.225,2.769,0,.39-.351.637-1.287.637a4.785,4.785,0,0,1-2.431-.676L103.35-.65A6,6,0,0,0,106.379.1ZM119.7-9.646v3.393a2.687,2.687,0,0,0-2.093-.845,3.4,3.4,0,0,0-3.5,3.6,3.4,3.4,0,0,0,3.5,3.6,2.69,2.69,0,0,0,2.184-.91V0h1.937V-9.646ZM117.962-1.56A1.775,1.775,0,0,1,116.168-3.5a1.775,1.775,0,0,1,1.794-1.937A1.772,1.772,0,0,1,119.743-3.5,1.772,1.772,0,0,1,117.962-1.56ZM126.425-7.1a5.376,5.376,0,0,0-3.016.845l.728,1.417a3.363,3.363,0,0,1,2.015-.65c1.092,0,1.612.507,1.612,1.378h-1.612c-2.132,0-3,.858-3,2.093,0,1.209.975,2.119,2.613,2.119a2.3,2.3,0,0,0,2.132-.975V0h1.9V-3.991C129.792-6.11,128.557-7.1,126.425-7.1Zm-.156,5.837c-.715,0-1.144-.338-1.144-.845,0-.468.3-.819,1.248-.819h1.391v.715A1.494,1.494,0,0,1,126.269-1.261Zm9.321-.507a1.367,1.367,0,0,1-.819.26.816.816,0,0,1-.871-.923V-5.278h1.742v-1.56H133.9v-1.7h-2.028v1.7h-1.079v1.56h1.079V-2.4A2.306,2.306,0,0,0,134.485.1a2.9,2.9,0,0,0,1.651-.442ZM140.179.1a3.589,3.589,0,0,0,3.835-3.6,3.589,3.589,0,0,0-3.835-3.6,3.6,3.6,0,0,0-3.848,3.6A3.6,3.6,0,0,0,140.179.1Zm0-1.664A1.775,1.775,0,0,1,138.385-3.5a1.775,1.775,0,0,1,1.794-1.937A1.765,1.765,0,0,1,141.96-3.5,1.765,1.765,0,0,1,140.179-1.56ZM147.719.1c2.093,0,3.3-.923,3.3-2.223,0-2.756-4.225-1.6-4.225-2.8,0-.364.39-.65,1.3-.65a4.016,4.016,0,0,1,2.015.52l.676-1.443A5.751,5.751,0,0,0,148.1-7.1c-2.041,0-3.237.936-3.237,2.262,0,2.795,4.225,1.625,4.225,2.769,0,.39-.351.637-1.287.637a4.785,4.785,0,0,1-2.431-.676L144.69-.65A6,6,0,0,0,147.719.1Z" transform="translate(905.939 14064.902)" fill="#383838"/>
      <path id="Trazado_232853" data-name="Trazado 232853" d="M5.187-7.1a3.062,3.062,0,0,0-2.314.923v-.819H.936V0H2.964V-3.458c0-1.287.7-1.885,1.677-1.885.9,0,1.417.52,1.417,1.651V0H8.086V-4C8.086-6.136,6.838-7.1,5.187-7.1ZM13.4.1a3.589,3.589,0,0,0,3.835-3.6A3.589,3.589,0,0,0,13.4-7.1,3.6,3.6,0,0,0,9.555-3.5,3.6,3.6,0,0,0,13.4.1Zm0-1.664A1.775,1.775,0,0,1,11.609-3.5,1.775,1.775,0,0,1,13.4-5.434,1.765,1.765,0,0,1,15.184-3.5,1.765,1.765,0,0,1,13.4-1.56ZM29.12-3.471A3.462,3.462,0,0,0,25.48-7.1a3.561,3.561,0,0,0-3.731,3.6c0,2.08,1.573,3.6,3.991,3.6a3.663,3.663,0,0,0,2.886-1.131L27.547-2.2a2.371,2.371,0,0,1-1.755.676,1.865,1.865,0,0,1-2-1.4h5.291C29.094-3.094,29.12-3.315,29.12-3.471ZM25.493-5.564a1.662,1.662,0,0,1,1.716,1.456H23.764A1.656,1.656,0,0,1,25.493-5.564ZM32.825.1c2.093,0,3.3-.923,3.3-2.223,0-2.756-4.225-1.6-4.225-2.8,0-.364.39-.65,1.3-.65a4.016,4.016,0,0,1,2.015.52l.676-1.443A5.751,5.751,0,0,0,33.2-7.1c-2.041,0-3.237.936-3.237,2.262,0,2.795,4.225,1.625,4.225,2.769,0,.39-.351.637-1.287.637a4.785,4.785,0,0,1-2.431-.676L29.8-.65A6,6,0,0,0,32.825.1ZM41.34-1.768a1.367,1.367,0,0,1-.819.26.816.816,0,0,1-.871-.923V-5.278h1.742v-1.56H39.65v-1.7H37.622v1.7H36.543v1.56h1.079V-2.4A2.306,2.306,0,0,0,40.235.1a2.9,2.9,0,0,0,1.651-.442Zm7.176-8H46.332L44.577-7.891h1.586Zm.923,6.292A3.462,3.462,0,0,0,45.8-7.1a3.561,3.561,0,0,0-3.731,3.6c0,2.08,1.573,3.6,3.991,3.6a3.663,3.663,0,0,0,2.886-1.131L47.866-2.2a2.371,2.371,0,0,1-1.755.676,1.865,1.865,0,0,1-2-1.4H49.4C49.413-3.094,49.439-3.315,49.439-3.471ZM45.812-5.564a1.662,1.662,0,0,1,1.716,1.456H44.083A1.656,1.656,0,0,1,45.812-5.564ZM55.042-7.1a3.062,3.062,0,0,0-2.314.923v-.819H50.791V0h2.028V-3.458c0-1.287.7-1.885,1.677-1.885.9,0,1.417.52,1.417,1.651V0h2.028V-4C57.941-6.136,56.693-7.1,55.042-7.1Zm9.425-.871a1.166,1.166,0,0,0,1.261-1.17,1.138,1.138,0,0,0-1.261-1.092A1.159,1.159,0,0,0,63.206-9.1,1.159,1.159,0,0,0,64.467-7.969ZM63.453,0h2.028V-6.994H63.453Zm8.164-7.1a3.062,3.062,0,0,0-2.314.923v-.819H67.366V0h2.028V-3.458c0-1.287.7-1.885,1.677-1.885.9,0,1.417.52,1.417,1.651V0h2.028V-4C74.516-6.136,73.268-7.1,71.617-7.1ZM79.872.1A3.245,3.245,0,0,0,83-1.664l-1.573-.858a1.721,1.721,0,0,1-1.573.962A1.79,1.79,0,0,1,78.026-3.5a1.79,1.79,0,0,1,1.833-1.937,1.744,1.744,0,0,1,1.573.962L83-5.317A3.213,3.213,0,0,0,79.872-7.1a3.616,3.616,0,0,0-3.9,3.6A3.616,3.616,0,0,0,79.872.1ZM84.084,0h2.028V-9.646H84.084Zm8.931-6.994v3.458c0,1.287-.676,1.885-1.612,1.885-.9,0-1.417-.52-1.417-1.69V-6.994H87.958v3.952C87.958-.884,89.193.1,90.948.1a2.83,2.83,0,0,0,2.171-.936V0h1.924V-6.994Zm4.927-.975A1.166,1.166,0,0,0,99.2-9.139a1.138,1.138,0,0,0-1.261-1.092A1.159,1.159,0,0,0,96.681-9.1,1.159,1.159,0,0,0,97.942-7.969ZM96.928,0h2.028V-6.994H96.928Zm9.009-9.646v3.393a2.687,2.687,0,0,0-2.093-.845,3.4,3.4,0,0,0-3.5,3.6,3.4,3.4,0,0,0,3.5,3.6,2.69,2.69,0,0,0,2.184-.91V0h1.937V-9.646ZM104.2-1.56A1.775,1.775,0,0,1,102.4-3.5,1.775,1.775,0,0,1,104.2-5.434,1.772,1.772,0,0,1,105.976-3.5,1.772,1.772,0,0,1,104.2-1.56ZM113.165.1A3.589,3.589,0,0,0,117-3.5a3.589,3.589,0,0,0-3.835-3.6,3.6,3.6,0,0,0-3.848,3.6A3.6,3.6,0,0,0,113.165.1Zm0-1.664A1.775,1.775,0,0,1,111.371-3.5a1.775,1.775,0,0,1,1.794-1.937A1.765,1.765,0,0,1,114.946-3.5,1.765,1.765,0,0,1,113.165-1.56ZM120.705.1c2.093,0,3.3-.923,3.3-2.223,0-2.756-4.225-1.6-4.225-2.8,0-.364.39-.65,1.3-.65a4.016,4.016,0,0,1,2.015.52l.676-1.443a5.751,5.751,0,0,0-2.691-.611c-2.041,0-3.237.936-3.237,2.262,0,2.795,4.225,1.625,4.225,2.769,0,.39-.351.637-1.287.637a4.785,4.785,0,0,1-2.431-.676L117.676-.65A6,6,0,0,0,120.705.1Z" transform="translate(921.009 14081.786)" fill="#383838"/>
      <path id="Trazado_232854" data-name="Trazado 232854" d="M7.787-3.471A3.462,3.462,0,0,0,4.147-7.1,3.561,3.561,0,0,0,.416-3.5C.416-1.417,1.989.1,4.407.1A3.663,3.663,0,0,0,7.293-1.027L6.214-2.2a2.371,2.371,0,0,1-1.755.676,1.865,1.865,0,0,1-2-1.4H7.748C7.761-3.094,7.787-3.315,7.787-3.471ZM4.16-5.564A1.662,1.662,0,0,1,5.876-4.108H2.431A1.656,1.656,0,0,1,4.16-5.564ZM13.39-7.1a3.062,3.062,0,0,0-2.314.923v-.819H9.139V0h2.028V-3.458c0-1.287.7-1.885,1.677-1.885.9,0,1.417.52,1.417,1.651V0h2.028V-4C16.289-6.136,15.041-7.1,13.39-7.1Zm12.545,0a2.715,2.715,0,0,0-2.106.845V-9.646H21.8V0h1.937V-.806a2.717,2.717,0,0,0,2.2.91,3.4,3.4,0,0,0,3.484-3.6A3.4,3.4,0,0,0,25.935-7.1ZM25.584-1.56A1.765,1.765,0,0,1,23.8-3.5a1.765,1.765,0,0,1,1.781-1.937A1.765,1.765,0,0,1,27.365-3.5,1.765,1.765,0,0,1,25.584-1.56ZM33.371-7.1a5.376,5.376,0,0,0-3.016.845l.728,1.417a3.363,3.363,0,0,1,2.015-.65c1.092,0,1.612.507,1.612,1.378H33.1c-2.132,0-3,.858-3,2.093C30.1-.806,31.07.1,32.708.1A2.3,2.3,0,0,0,34.84-.871V0h1.9V-3.991C36.738-6.11,35.5-7.1,33.371-7.1Zm-.156,5.837c-.715,0-1.144-.338-1.144-.845,0-.468.3-.819,1.248-.819H34.71v.715A1.494,1.494,0,0,1,33.215-1.261ZM40.924.1c2.093,0,3.3-.923,3.3-2.223,0-2.756-4.225-1.6-4.225-2.8,0-.364.39-.65,1.3-.65a4.016,4.016,0,0,1,2.015.52l.676-1.443A5.751,5.751,0,0,0,41.3-7.1c-2.041,0-3.237.936-3.237,2.262,0,2.795,4.225,1.625,4.225,2.769,0,.39-.351.637-1.287.637a4.785,4.785,0,0,1-2.431-.676L37.9-.65A6,6,0,0,0,40.924.1Zm11.4-3.575A3.462,3.462,0,0,0,48.685-7.1a3.561,3.561,0,0,0-3.731,3.6c0,2.08,1.573,3.6,3.991,3.6a3.663,3.663,0,0,0,2.886-1.131L50.752-2.2A2.371,2.371,0,0,1,49-1.521a1.865,1.865,0,0,1-2-1.4h5.291C52.3-3.094,52.325-3.315,52.325-3.471ZM48.7-5.564a1.662,1.662,0,0,1,1.716,1.456H46.969A1.656,1.656,0,0,1,48.7-5.564ZM56.03.1c2.093,0,3.3-.923,3.3-2.223,0-2.756-4.225-1.6-4.225-2.8,0-.364.39-.65,1.3-.65a4.016,4.016,0,0,1,2.015.52L59.1-6.487A5.751,5.751,0,0,0,56.407-7.1c-2.041,0-3.237.936-3.237,2.262,0,2.795,4.225,1.625,4.225,2.769,0,.39-.351.637-1.287.637a4.785,4.785,0,0,1-2.431-.676L53-.65A6,6,0,0,0,56.03.1Zm13.325-9.75v3.393A2.687,2.687,0,0,0,67.262-7.1a3.4,3.4,0,0,0-3.5,3.6,3.4,3.4,0,0,0,3.5,3.6,2.69,2.69,0,0,0,2.184-.91V0h1.937V-9.646ZM67.613-1.56A1.775,1.775,0,0,1,65.819-3.5a1.775,1.775,0,0,1,1.794-1.937A1.772,1.772,0,0,1,69.394-3.5,1.772,1.772,0,0,1,67.613-1.56ZM80.106-3.471A3.462,3.462,0,0,0,76.466-7.1a3.561,3.561,0,0,0-3.731,3.6c0,2.08,1.573,3.6,3.991,3.6a3.663,3.663,0,0,0,2.886-1.131L78.533-2.2a2.371,2.371,0,0,1-1.755.676,1.865,1.865,0,0,1-2-1.4h5.291C80.08-3.094,80.106-3.315,80.106-3.471ZM76.479-5.564a1.662,1.662,0,0,1,1.716,1.456H74.75A1.656,1.656,0,0,1,76.479-5.564ZM90.233-9.646v3.393A2.687,2.687,0,0,0,88.14-7.1a3.4,3.4,0,0,0-3.5,3.6A3.4,3.4,0,0,0,88.14.1a2.69,2.69,0,0,0,2.184-.91V0h1.937V-9.646ZM88.491-1.56A1.775,1.775,0,0,1,86.7-3.5a1.775,1.775,0,0,1,1.794-1.937A1.772,1.772,0,0,1,90.272-3.5,1.772,1.772,0,0,1,88.491-1.56ZM96.954-7.1a5.376,5.376,0,0,0-3.016.845l.728,1.417a3.363,3.363,0,0,1,2.015-.65c1.092,0,1.612.507,1.612,1.378H96.681c-2.132,0-3,.858-3,2.093C93.678-.806,94.653.1,96.291.1a2.3,2.3,0,0,0,2.132-.975V0h1.9V-3.991C100.321-6.11,99.086-7.1,96.954-7.1ZM96.8-1.261c-.715,0-1.144-.338-1.144-.845,0-.468.3-.819,1.248-.819h1.391v.715A1.494,1.494,0,0,1,96.8-1.261Zm9.321-.507a1.367,1.367,0,0,1-.819.26.816.816,0,0,1-.871-.923V-5.278h1.742v-1.56h-1.742v-1.7H102.4v1.7h-1.079v1.56H102.4V-2.4A2.306,2.306,0,0,0,105.014.1a2.9,2.9,0,0,0,1.651-.442ZM110.695.1a3.589,3.589,0,0,0,3.835-3.6,3.589,3.589,0,0,0-3.835-3.6,3.6,3.6,0,0,0-3.848,3.6A3.6,3.6,0,0,0,110.695.1Zm0-1.664A1.775,1.775,0,0,1,108.9-3.5a1.775,1.775,0,0,1,1.794-1.937A1.765,1.765,0,0,1,112.476-3.5,1.765,1.765,0,0,1,110.695-1.56ZM118.235.1c2.093,0,3.3-.923,3.3-2.223,0-2.756-4.225-1.6-4.225-2.8,0-.364.39-.65,1.3-.65a4.016,4.016,0,0,1,2.015.52l.676-1.443a5.751,5.751,0,0,0-2.691-.611c-2.041,0-3.237.936-3.237,2.262,0,2.795,4.225,1.625,4.225,2.769,0,.39-.351.637-1.287.637a4.785,4.785,0,0,1-2.431-.676L115.206-.65A6,6,0,0,0,118.235.1Z" transform="translate(922.233 14098.67)" fill="#383838"/>
      <path id="Trazado_232855" data-name="Trazado 232855" d="M5.928-6.994,3.952-2.249,1.989-6.994H-.1L2.925.052,2.9.117c-.273.624-.585.871-1.144.871A1.8,1.8,0,0,1,.611.546L-.13,1.989a3.106,3.106,0,0,0,1.95.637c1.261,0,2.223-.507,2.9-2.2L7.878-6.994Zm5.148-.1a5.376,5.376,0,0,0-3.016.845l.728,1.417a3.363,3.363,0,0,1,2.015-.65c1.092,0,1.612.507,1.612,1.378H10.8c-2.132,0-3,.858-3,2.093C7.8-.806,8.775.1,10.413.1a2.3,2.3,0,0,0,2.132-.975V0h1.9V-3.991C14.443-6.11,13.208-7.1,11.076-7.1ZM10.92-1.261c-.715,0-1.144-.338-1.144-.845,0-.468.3-.819,1.248-.819h1.391v.715A1.494,1.494,0,0,1,10.92-1.261ZM24.089-7.1a2.717,2.717,0,0,0-2.2.91v-.806H19.955V2.522h2.028V-.741A2.715,2.715,0,0,0,24.089.1a3.4,3.4,0,0,0,3.484-3.6A3.4,3.4,0,0,0,24.089-7.1ZM23.738-1.56A1.765,1.765,0,0,1,21.957-3.5a1.765,1.765,0,0,1,1.781-1.937A1.765,1.765,0,0,1,25.519-3.5,1.765,1.765,0,0,1,23.738-1.56Zm10.2-5.434v3.458c0,1.287-.676,1.885-1.612,1.885-.9,0-1.417-.52-1.417-1.69V-6.994H28.886v3.952C28.886-.884,30.121.1,31.876.1a2.83,2.83,0,0,0,2.171-.936V0h1.924V-6.994Zm8.047-.1a2.715,2.715,0,0,0-2.106.845V-9.646H37.856V0h1.937V-.806a2.717,2.717,0,0,0,2.2.91,3.4,3.4,0,0,0,3.484-3.6A3.4,3.4,0,0,0,41.99-7.1ZM41.639-1.56A1.765,1.765,0,0,1,39.858-3.5a1.765,1.765,0,0,1,1.781-1.937A1.765,1.765,0,0,1,43.42-3.5,1.765,1.765,0,0,1,41.639-1.56ZM46.826,0h2.028V-9.646H46.826Zm4.927-7.969a1.166,1.166,0,0,0,1.261-1.17,1.138,1.138,0,0,0-1.261-1.092A1.159,1.159,0,0,0,50.492-9.1,1.159,1.159,0,0,0,51.753-7.969ZM50.739,0h2.028V-6.994H50.739Zm7.293.1a3.245,3.245,0,0,0,3.133-1.768l-1.573-.858a1.721,1.721,0,0,1-1.573.962A1.79,1.79,0,0,1,56.186-3.5a1.79,1.79,0,0,1,1.833-1.937,1.744,1.744,0,0,1,1.573.962l1.573-.845A3.213,3.213,0,0,0,58.032-7.1a3.616,3.616,0,0,0-3.9,3.6A3.616,3.616,0,0,0,58.032.1Zm7.124-7.2a5.376,5.376,0,0,0-3.016.845l.728,1.417a3.363,3.363,0,0,1,2.015-.65c1.092,0,1.612.507,1.612,1.378H64.883c-2.132,0-3,.858-3,2.093C61.88-.806,62.855.1,64.493.1a2.3,2.3,0,0,0,2.132-.975V0h1.9V-3.991C68.523-6.11,67.288-7.1,65.156-7.1ZM65-1.261c-.715,0-1.144-.338-1.144-.845,0-.468.3-.819,1.248-.819H66.5v.715A1.494,1.494,0,0,1,65-1.261ZM75.6-9.646v3.393A2.687,2.687,0,0,0,73.5-7.1a3.4,3.4,0,0,0-3.5,3.6A3.4,3.4,0,0,0,73.5.1a2.69,2.69,0,0,0,2.184-.91V0h1.937V-9.646ZM73.853-1.56A1.775,1.775,0,0,1,72.059-3.5a1.775,1.775,0,0,1,1.794-1.937A1.772,1.772,0,0,1,75.634-3.5,1.772,1.772,0,0,1,73.853-1.56ZM82.316-7.1a5.376,5.376,0,0,0-3.016.845l.728,1.417a3.363,3.363,0,0,1,2.015-.65c1.092,0,1.612.507,1.612,1.378H82.043c-2.132,0-3,.858-3,2.093C79.04-.806,80.015.1,81.653.1a2.3,2.3,0,0,0,2.132-.975V0h1.9V-3.991C85.683-6.11,84.448-7.1,82.316-7.1ZM82.16-1.261c-.715,0-1.144-.338-1.144-.845,0-.468.3-.819,1.248-.819h1.391v.715A1.494,1.494,0,0,1,82.16-1.261ZM89.869.1c2.093,0,3.3-.923,3.3-2.223,0-2.756-4.225-1.6-4.225-2.8,0-.364.39-.65,1.3-.65a4.016,4.016,0,0,1,2.015.52l.676-1.443A5.751,5.751,0,0,0,90.246-7.1c-2.041,0-3.237.936-3.237,2.262,0,2.795,4.225,1.625,4.225,2.769,0,.39-.351.637-1.287.637a4.785,4.785,0,0,1-2.431-.676L86.84-.65A6,6,0,0,0,89.869.1Zm5.317,0A1.241,1.241,0,0,0,96.447-1.17a1.212,1.212,0,0,0-1.261-1.248A1.212,1.212,0,0,0,93.925-1.17,1.241,1.241,0,0,0,95.186.1Z" transform="translate(935.825 14115.555)" fill="#383838"/>
      <path id="Trazado_231491" data-name="Trazado 231491" d="M373.433,188.942a20.127,20.127,0,1,1,20.125-20.127A20.15,20.15,0,0,1,373.433,188.942Z" transform="translate(614.917 13852.277)" fill="none" stroke="#5bbcb2" stroke-miterlimit="10" stroke-width="0.5"/>
      <path id="Trazado_231492" data-name="Trazado 231492" d="M389.428,167.56a17.251,17.251,0,1,1-17.251-17.251,17.251,17.251,0,0,1,17.251,17.251" transform="translate(616.172 13853.534)" fill="#5bbcb2"/>
      <text id="_4" data-name="4" transform="translate(980.559 14027.858)" fill="#fff" font-size="21" font-family="Montserrat-ExtraBold, Montserrat" font-weight="800"><tspan x="0" y="0">4</tspan></text>
      <rect id="Rectángulo_47869" data-name="Rectángulo 47869" width="43.141" height="5.445" transform="translate(628.942 14146.417)" fill="#008bfd"/>
      <path id="Trazado_232850" data-name="Trazado 232850" d="M5.434.156A4.676,4.676,0,0,0,9.191-1.469L7.839-2.717A2.9,2.9,0,0,1,5.551-1.638,2.792,2.792,0,0,1,2.639-4.55,2.792,2.792,0,0,1,5.551-7.462,2.928,2.928,0,0,1,7.839-6.4L9.191-7.644A4.7,4.7,0,0,0,5.447-9.256,4.675,4.675,0,0,0,.507-4.55,4.672,4.672,0,0,0,5.434.156ZM13.312.1a3.589,3.589,0,0,0,3.835-3.6,3.589,3.589,0,0,0-3.835-3.6A3.6,3.6,0,0,0,9.464-3.5,3.6,3.6,0,0,0,13.312.1Zm0-1.664A1.775,1.775,0,0,1,11.518-3.5a1.775,1.775,0,0,1,1.794-1.937A1.765,1.765,0,0,1,15.093-3.5,1.765,1.765,0,0,1,13.312-1.56ZM22.75-7.1a3.062,3.062,0,0,0-2.314.923v-.819H18.5V0h2.028V-3.458c0-1.287.7-1.885,1.677-1.885.9,0,1.417.52,1.417,1.651V0h2.028V-4C25.649-6.136,24.4-7.1,22.75-7.1ZM29.835.1c2.093,0,3.3-.923,3.3-2.223,0-2.756-4.225-1.6-4.225-2.8,0-.364.39-.65,1.3-.65a4.016,4.016,0,0,1,2.015.52L32.9-6.487A5.751,5.751,0,0,0,30.212-7.1c-2.041,0-3.237.936-3.237,2.262,0,2.795,4.225,1.625,4.225,2.769,0,.39-.351.637-1.287.637a4.785,4.785,0,0,1-2.431-.676L26.806-.65A6,6,0,0,0,29.835.1Zm7.878,0a3.589,3.589,0,0,0,3.835-3.6,3.589,3.589,0,0,0-3.835-3.6,3.6,3.6,0,0,0-3.848,3.6A3.6,3.6,0,0,0,37.713.1Zm0-1.664A1.775,1.775,0,0,1,35.919-3.5a1.775,1.775,0,0,1,1.794-1.937A1.765,1.765,0,0,1,39.494-3.5,1.765,1.765,0,0,1,37.713-1.56ZM42.9,0h2.028V-9.646H42.9Zm4.927-7.969a1.166,1.166,0,0,0,1.261-1.17,1.138,1.138,0,0,0-1.261-1.092A1.159,1.159,0,0,0,46.566-9.1,1.159,1.159,0,0,0,47.827-7.969ZM46.813,0h2.028V-6.994H46.813Zm9.009-9.646v3.393A2.687,2.687,0,0,0,53.729-7.1a3.4,3.4,0,0,0-3.5,3.6,3.4,3.4,0,0,0,3.5,3.6,2.69,2.69,0,0,0,2.184-.91V0H57.85V-9.646ZM54.08-1.56A1.775,1.775,0,0,1,52.286-3.5,1.775,1.775,0,0,1,54.08-5.434,1.772,1.772,0,0,1,55.861-3.5,1.772,1.772,0,0,1,54.08-1.56ZM62.543-7.1a5.376,5.376,0,0,0-3.016.845l.728,1.417a3.363,3.363,0,0,1,2.015-.65c1.092,0,1.612.507,1.612,1.378H62.27c-2.132,0-3,.858-3,2.093C59.267-.806,60.242.1,61.88.1a2.3,2.3,0,0,0,2.132-.975V0h1.9V-3.991C65.91-6.11,64.675-7.1,62.543-7.1Zm-.156,5.837c-.715,0-1.144-.338-1.144-.845,0-.468.3-.819,1.248-.819h1.391v.715A1.494,1.494,0,0,1,62.387-1.261Zm7.293-4.81v-.923H67.743V0h2.028V-3.3a1.718,1.718,0,0,1,1.859-1.95c.156,0,.286.013.455.026V-7.1A2.822,2.822,0,0,0,69.68-6.071Z" transform="translate(611.202 14082.654)" fill="#383838"/>
      <path id="Trazado_232851" data-name="Trazado 232851" d="M.936,0H2.964V-9.646H.936ZM8.177.1a3.589,3.589,0,0,0,3.835-3.6A3.589,3.589,0,0,0,8.177-7.1,3.6,3.6,0,0,0,4.329-3.5,3.6,3.6,0,0,0,8.177.1Zm0-1.664A1.775,1.775,0,0,1,6.383-3.5,1.775,1.775,0,0,1,8.177-5.434,1.765,1.765,0,0,1,9.958-3.5,1.765,1.765,0,0,1,8.177-1.56ZM15.717.1c2.093,0,3.3-.923,3.3-2.223,0-2.756-4.225-1.6-4.225-2.8,0-.364.39-.65,1.3-.65a4.016,4.016,0,0,1,2.015.52l.676-1.443A5.751,5.751,0,0,0,16.094-7.1c-2.041,0-3.237.936-3.237,2.262,0,2.795,4.225,1.625,4.225,2.769,0,.39-.351.637-1.287.637a4.785,4.785,0,0,1-2.431-.676L12.688-.65A6,6,0,0,0,15.717.1ZM25.883-6.071v-.923H23.946V0h2.028V-3.3a1.718,1.718,0,0,1,1.859-1.95c.156,0,.286.013.455.026V-7.1A2.822,2.822,0,0,0,25.883-6.071Zm10.3,2.6A3.462,3.462,0,0,0,32.539-7.1a3.561,3.561,0,0,0-3.731,3.6c0,2.08,1.573,3.6,3.991,3.6a3.663,3.663,0,0,0,2.886-1.131L34.606-2.2a2.371,2.371,0,0,1-1.755.676,1.865,1.865,0,0,1-2-1.4H36.14C36.153-3.094,36.179-3.315,36.179-3.471ZM32.552-5.564a1.662,1.662,0,0,1,1.716,1.456H30.823A1.656,1.656,0,0,1,32.552-5.564Zm10.27-1.43v.9a2.807,2.807,0,0,0-2.314-1,3.33,3.33,0,0,0-3.5,3.38,3.33,3.33,0,0,0,3.5,3.38,2.879,2.879,0,0,0,2.21-.871v.3C42.718.351,42.094,1,40.664,1a4.18,4.18,0,0,1-2.47-.793l-.806,1.456a5.762,5.762,0,0,0,3.432.962c2.522,0,3.926-1.2,3.926-3.8V-6.994ZM40.911-2a1.709,1.709,0,0,1-1.846-1.716,1.709,1.709,0,0,1,1.846-1.716,1.7,1.7,0,0,1,1.833,1.716A1.7,1.7,0,0,1,40.911-2Zm6.734-5.967a1.166,1.166,0,0,0,1.261-1.17,1.138,1.138,0,0,0-1.261-1.092A1.159,1.159,0,0,0,46.384-9.1,1.159,1.159,0,0,0,47.645-7.969ZM46.631,0h2.028V-6.994H46.631ZM52.9.1c2.093,0,3.3-.923,3.3-2.223,0-2.756-4.225-1.6-4.225-2.8,0-.364.39-.65,1.3-.65a4.016,4.016,0,0,1,2.015.52l.676-1.443A5.751,5.751,0,0,0,53.274-7.1c-2.041,0-3.237.936-3.237,2.262,0,2.795,4.225,1.625,4.225,2.769,0,.39-.351.637-1.287.637a4.785,4.785,0,0,1-2.431-.676L49.868-.65A6,6,0,0,0,52.9.1Zm8.515-1.872a1.367,1.367,0,0,1-.819.26.816.816,0,0,1-.871-.923V-5.278h1.742v-1.56H59.722v-1.7H57.694v1.7H56.615v1.56h1.079V-2.4A2.306,2.306,0,0,0,60.307.1a2.9,2.9,0,0,0,1.651-.442Zm3.627-4.3v-.923H63.1V0H65.13V-3.3a1.718,1.718,0,0,1,1.859-1.95c.156,0,.286.013.455.026V-7.1A2.823,2.823,0,0,0,65.039-6.071ZM71.812.1a3.589,3.589,0,0,0,3.835-3.6,3.589,3.589,0,0,0-3.835-3.6,3.6,3.6,0,0,0-3.848,3.6A3.6,3.6,0,0,0,71.812.1Zm0-1.664A1.775,1.775,0,0,1,70.018-3.5a1.775,1.775,0,0,1,1.794-1.937A1.765,1.765,0,0,1,73.593-3.5,1.765,1.765,0,0,1,71.812-1.56ZM79.352.1c2.093,0,3.3-.923,3.3-2.223,0-2.756-4.225-1.6-4.225-2.8,0-.364.39-.65,1.3-.65a4.016,4.016,0,0,1,2.015.52l.676-1.443A5.751,5.751,0,0,0,79.729-7.1c-2.041,0-3.237.936-3.237,2.262,0,2.795,4.225,1.625,4.225,2.769,0,.39-.351.637-1.287.637A4.785,4.785,0,0,1,77-2.106L76.323-.65A6,6,0,0,0,79.352.1Z" transform="translate(605.504 14099.539)" fill="#383838"/>
      <path id="Trazado_231493" data-name="Trazado 231493" d="M183.133,188.942a20.127,20.127,0,1,1,20.125-20.127A20.15,20.15,0,0,1,183.133,188.942Z" transform="translate(467.378 13852.277)" fill="none" stroke="#008bfd" stroke-miterlimit="10" stroke-width="0.5"/>
      <path id="Trazado_231494" data-name="Trazado 231494" d="M199.129,167.56a17.251,17.251,0,1,1-17.251-17.251,17.25,17.25,0,0,1,17.251,17.251" transform="translate(468.634 13853.534)" fill="#008bfd"/>
      <text id="_2" data-name="2" transform="translate(643.846 14027.858)" fill="#fff" font-size="21" font-family="Montserrat-ExtraBold, Montserrat" font-weight="800"><tspan x="0" y="0">2</tspan></text>
      <line id="Línea_557" data-name="Línea 557" x2="787.942" transform="translate(341 14261.392)" fill="none" stroke="#ccc" stroke-miterlimit="10" stroke-width="4"/>
      <path id="Trazado_231496" data-name="Trazado 231496" d="M306.975,306.777a26.089,26.089,0,1,1-26.09-26.09,26.089,26.089,0,0,1,26.09,26.09" transform="translate(538.543 13954.616)" fill="#7e5ee3"/>
      <path id="Trazado_231498" data-name="Trazado 231498" d="M116.678,306.777a26.089,26.089,0,1,1-26.09-26.09,26.089,26.089,0,0,1,26.09,26.09" transform="translate(391.007 13954.616)" fill="#f9ba3a"/>
      <path id="Trazado_232857" data-name="Trazado 232857" d="M1.079,0H5.213c2.977,0,5.018-1.794,5.018-4.55S8.19-9.1,5.213-9.1H1.079ZM3.185-1.729V-7.371H5.109A2.716,2.716,0,0,1,8.1-4.55a2.716,2.716,0,0,1-2.99,2.821Zm9.5-6.24a1.166,1.166,0,0,0,1.261-1.17,1.138,1.138,0,0,0-1.261-1.092A1.159,1.159,0,0,0,11.427-9.1,1.159,1.159,0,0,0,12.688-7.969ZM11.674,0H13.7V-6.994H11.674Zm5.85-6.071v-.923H15.587V0h2.028V-3.3a1.718,1.718,0,0,1,1.859-1.95c.156,0,.286.013.455.026V-7.1A2.822,2.822,0,0,0,17.524-6.071Zm10.3,2.6A3.462,3.462,0,0,0,24.18-7.1a3.561,3.561,0,0,0-3.731,3.6c0,2.08,1.573,3.6,3.991,3.6a3.663,3.663,0,0,0,2.886-1.131L26.247-2.2a2.371,2.371,0,0,1-1.755.676,1.865,1.865,0,0,1-2-1.4h5.291C27.794-3.094,27.82-3.315,27.82-3.471ZM24.193-5.564a1.662,1.662,0,0,1,1.716,1.456H22.464A1.656,1.656,0,0,1,24.193-5.564ZM32.552.1a3.245,3.245,0,0,0,3.133-1.768l-1.573-.858a1.721,1.721,0,0,1-1.573.962A1.79,1.79,0,0,1,30.706-3.5a1.79,1.79,0,0,1,1.833-1.937,1.744,1.744,0,0,1,1.573.962l1.573-.845A3.213,3.213,0,0,0,32.552-7.1a3.616,3.616,0,0,0-3.9,3.6A3.616,3.616,0,0,0,32.552.1Zm7.514,0A3.245,3.245,0,0,0,43.2-1.664l-1.573-.858a1.721,1.721,0,0,1-1.573.962A1.79,1.79,0,0,1,38.22-3.5a1.79,1.79,0,0,1,1.833-1.937,1.744,1.744,0,0,1,1.573.962L43.2-5.317A3.213,3.213,0,0,0,40.066-7.1a3.616,3.616,0,0,0-3.9,3.6A3.616,3.616,0,0,0,40.066.1Zm5.317-8.073a1.166,1.166,0,0,0,1.261-1.17,1.138,1.138,0,0,0-1.261-1.092A1.159,1.159,0,0,0,44.122-9.1,1.159,1.159,0,0,0,45.383-7.969ZM44.369,0H46.4V-6.994H44.369ZM51.61.1a3.589,3.589,0,0,0,3.835-3.6A3.589,3.589,0,0,0,51.61-7.1a3.6,3.6,0,0,0-3.848,3.6A3.6,3.6,0,0,0,51.61.1Zm0-1.664A1.775,1.775,0,0,1,49.816-3.5,1.775,1.775,0,0,1,51.61-5.434,1.765,1.765,0,0,1,53.391-3.5,1.765,1.765,0,0,1,51.61-1.56ZM61.048-7.1a3.062,3.062,0,0,0-2.314.923v-.819H56.8V0h2.028V-3.458c0-1.287.7-1.885,1.677-1.885.9,0,1.417.52,1.417,1.651V0h2.028V-4C63.947-6.136,62.7-7.1,61.048-7.1ZM72.787-3.471A3.462,3.462,0,0,0,69.147-7.1a3.561,3.561,0,0,0-3.731,3.6c0,2.08,1.573,3.6,3.991,3.6a3.663,3.663,0,0,0,2.886-1.131L71.214-2.2a2.371,2.371,0,0,1-1.755.676,1.865,1.865,0,0,1-2-1.4h5.291C72.761-3.094,72.787-3.315,72.787-3.471ZM69.16-5.564a1.662,1.662,0,0,1,1.716,1.456H67.431A1.656,1.656,0,0,1,69.16-5.564ZM76.492.1c2.093,0,3.3-.923,3.3-2.223,0-2.756-4.225-1.6-4.225-2.8,0-.364.39-.65,1.3-.65a4.016,4.016,0,0,1,2.015.52l.676-1.443A5.751,5.751,0,0,0,76.869-7.1c-2.041,0-3.237.936-3.237,2.262,0,2.795,4.225,1.625,4.225,2.769,0,.39-.351.637-1.287.637a4.785,4.785,0,0,1-2.431-.676L73.463-.65A6,6,0,0,0,76.492.1Z" transform="translate(445.107 14315.282)" fill="#383838"/>
      <path id="Trazado_232858" data-name="Trazado 232858" d="M4.9-1.768a1.367,1.367,0,0,1-.819.26.816.816,0,0,1-.871-.923V-5.278H4.953v-1.56H3.211v-1.7H1.183v1.7H.1v1.56H1.183V-2.4A2.306,2.306,0,0,0,3.8.1,2.9,2.9,0,0,0,5.447-.338Zm8.1-1.7A3.462,3.462,0,0,0,9.36-7.1,3.561,3.561,0,0,0,5.629-3.5C5.629-1.417,7.2.1,9.62.1a3.663,3.663,0,0,0,2.886-1.131L11.427-2.2a2.371,2.371,0,0,1-1.755.676,1.865,1.865,0,0,1-2-1.4h5.291C12.974-3.094,13-3.315,13-3.471ZM9.373-5.564a1.662,1.662,0,0,1,1.716,1.456H7.644A1.656,1.656,0,0,1,9.373-5.564Zm6.916-.507v-.923H14.352V0H16.38V-3.3a1.718,1.718,0,0,1,1.859-1.95c.156,0,.286.013.455.026V-7.1A2.822,2.822,0,0,0,16.289-6.071Zm5.5,0v-.923H19.851V0h2.028V-3.3a1.718,1.718,0,0,1,1.859-1.95c.156,0,.286.013.455.026V-7.1A2.822,2.822,0,0,0,21.788-6.071Zm4.576-1.9a1.166,1.166,0,0,0,1.261-1.17,1.138,1.138,0,0,0-1.261-1.092A1.159,1.159,0,0,0,25.1-9.1,1.159,1.159,0,0,0,26.364-7.969ZM25.35,0h2.028V-6.994H25.35Zm7.878-1.768a1.367,1.367,0,0,1-.819.26.816.816,0,0,1-.871-.923V-5.278H33.28v-1.56H31.538v-1.7H29.51v1.7H28.431v1.56H29.51V-2.4A2.306,2.306,0,0,0,32.123.1a2.9,2.9,0,0,0,1.651-.442ZM37.817.1a3.589,3.589,0,0,0,3.835-3.6,3.589,3.589,0,0,0-3.835-3.6,3.6,3.6,0,0,0-3.848,3.6A3.6,3.6,0,0,0,37.817.1Zm0-1.664A1.775,1.775,0,0,1,36.023-3.5a1.775,1.775,0,0,1,1.794-1.937A1.765,1.765,0,0,1,39.6-3.5,1.765,1.765,0,0,1,37.817-1.56Zm7.124-4.511v-.923H43V0h2.028V-3.3a1.718,1.718,0,0,1,1.859-1.95c.156,0,.286.013.455.026V-7.1A2.822,2.822,0,0,0,44.941-6.071Zm4.576-1.9a1.166,1.166,0,0,0,1.261-1.17,1.138,1.138,0,0,0-1.261-1.092A1.159,1.159,0,0,0,48.256-9.1,1.159,1.159,0,0,0,49.517-7.969ZM48.5,0h2.028V-6.994H48.5Zm6.734-7.1a5.376,5.376,0,0,0-3.016.845l.728,1.417a3.363,3.363,0,0,1,2.015-.65c1.092,0,1.612.507,1.612,1.378H54.964c-2.132,0-3,.858-3,2.093C51.961-.806,52.936.1,54.574.1a2.3,2.3,0,0,0,2.132-.975V0h1.9V-3.991C58.6-6.11,57.369-7.1,55.237-7.1Zm-.156,5.837c-.715,0-1.144-.338-1.144-.845,0-.468.3-.819,1.248-.819h1.391v.715A1.494,1.494,0,0,1,55.081-1.261ZM60.437,0h2.028V-9.646H60.437ZM71.2-3.471A3.462,3.462,0,0,0,67.561-7.1,3.561,3.561,0,0,0,63.83-3.5c0,2.08,1.573,3.6,3.991,3.6a3.663,3.663,0,0,0,2.886-1.131L69.628-2.2a2.371,2.371,0,0,1-1.755.676,1.865,1.865,0,0,1-2-1.4h5.291C71.175-3.094,71.2-3.315,71.2-3.471ZM67.574-5.564A1.662,1.662,0,0,1,69.29-4.108H65.845A1.656,1.656,0,0,1,67.574-5.564ZM74.906.1c2.093,0,3.3-.923,3.3-2.223,0-2.756-4.225-1.6-4.225-2.8,0-.364.39-.65,1.3-.65a4.016,4.016,0,0,1,2.015.52l.676-1.443A5.751,5.751,0,0,0,75.283-7.1c-2.041,0-3.237.936-3.237,2.262,0,2.795,4.225,1.625,4.225,2.769,0,.39-.351.637-1.287.637a4.785,4.785,0,0,1-2.431-.676L71.877-.65A6,6,0,0,0,74.906.1Zm13.221-7.1L86.151-2.249,84.188-6.994H82.1L85.124.052,85.1.117c-.273.624-.585.871-1.144.871A1.8,1.8,0,0,1,82.81.546l-.741,1.443a3.106,3.106,0,0,0,1.95.637c1.261,0,2.223-.507,2.9-2.2l3.159-7.423Zm13.312,3.523A3.462,3.462,0,0,0,97.8-7.1a3.561,3.561,0,0,0-3.731,3.6c0,2.08,1.573,3.6,3.991,3.6a3.663,3.663,0,0,0,2.886-1.131L99.866-2.2a2.371,2.371,0,0,1-1.755.676,1.865,1.865,0,0,1-2-1.4H101.4C101.413-3.094,101.439-3.315,101.439-3.471ZM97.812-5.564a1.662,1.662,0,0,1,1.716,1.456H96.083A1.656,1.656,0,0,1,97.812-5.564Zm9.23-1.534a3.062,3.062,0,0,0-2.314.923v-.819h-1.937V0h2.028V-3.458c0-1.287.7-1.885,1.677-1.885.9,0,1.417.52,1.417,1.651V0h2.028V-4C109.941-6.136,108.693-7.1,107.042-7.1ZM122.3-3.471a3.462,3.462,0,0,0-3.64-3.627,3.561,3.561,0,0,0-3.731,3.6c0,2.08,1.573,3.6,3.991,3.6a3.663,3.663,0,0,0,2.886-1.131L120.731-2.2a2.371,2.371,0,0,1-1.755.676,1.865,1.865,0,0,1-2-1.4h5.291C122.278-3.094,122.3-3.315,122.3-3.471Zm-3.627-2.093a1.662,1.662,0,0,1,1.716,1.456h-3.445A1.656,1.656,0,0,1,118.677-5.564ZM123.656,0h2.028V-9.646h-2.028Zm7.735,0h4.134c2.977,0,5.018-1.794,5.018-4.55S138.5-9.1,135.525-9.1h-4.134ZM133.5-1.729V-7.371h1.924a2.716,2.716,0,0,1,2.99,2.821,2.716,2.716,0,0,1-2.99,2.821ZM148.681,0h2.21l-4.069-9.1h-2.08L140.686,0h2.158l.806-1.95h4.225Zm-4.355-3.549,1.443-3.484,1.443,3.484ZM158.106-9.1v5.525L153.582-9.1H151.84V0h2.08V-5.525L158.457,0h1.729V-9.1Zm6.331,7.41V-3.8h4.225V-5.434h-4.225V-7.41h4.784V-9.1h-6.877V0h7.046V-1.69Z" transform="translate(396.143 14332.166)" fill="#383838"/>
      <path id="Trazado_232856" data-name="Trazado 232856" d="M5.434.156A4.676,4.676,0,0,0,9.191-1.469L7.839-2.717A2.9,2.9,0,0,1,5.551-1.638,2.792,2.792,0,0,1,2.639-4.55,2.792,2.792,0,0,1,5.551-7.462,2.928,2.928,0,0,1,7.839-6.4L9.191-7.644A4.7,4.7,0,0,0,5.447-9.256,4.675,4.675,0,0,0,.507-4.55,4.672,4.672,0,0,0,5.434.156ZM13.182-7.1a5.376,5.376,0,0,0-3.016.845l.728,1.417a3.363,3.363,0,0,1,2.015-.65c1.092,0,1.612.507,1.612,1.378H12.909c-2.132,0-3,.858-3,2.093C9.906-.806,10.881.1,12.519.1a2.3,2.3,0,0,0,2.132-.975V0h1.9V-3.991C16.549-6.11,15.314-7.1,13.182-7.1Zm-.156,5.837c-.715,0-1.144-.338-1.144-.845,0-.468.3-.819,1.248-.819h1.391v.715A1.494,1.494,0,0,1,13.026-1.261ZM18.382,0H20.41V-9.646H18.382Zm4.927-7.969a1.166,1.166,0,0,0,1.261-1.17,1.138,1.138,0,0,0-1.261-1.092A1.159,1.159,0,0,0,22.048-9.1,1.159,1.159,0,0,0,23.309-7.969ZM22.3,0h2.028V-6.994H22.3ZM31.3-9.646v3.393A2.687,2.687,0,0,0,29.211-7.1a3.4,3.4,0,0,0-3.5,3.6,3.4,3.4,0,0,0,3.5,3.6A2.69,2.69,0,0,0,31.4-.806V0h1.937V-9.646ZM29.562-1.56A1.775,1.775,0,0,1,27.768-3.5a1.775,1.775,0,0,1,1.794-1.937A1.772,1.772,0,0,1,31.343-3.5,1.772,1.772,0,0,1,29.562-1.56ZM38.025-7.1a5.376,5.376,0,0,0-3.016.845l.728,1.417a3.363,3.363,0,0,1,2.015-.65c1.092,0,1.612.507,1.612,1.378H37.752c-2.132,0-3,.858-3,2.093C34.749-.806,35.724.1,37.362.1a2.3,2.3,0,0,0,2.132-.975V0h1.9V-3.991C41.392-6.11,40.157-7.1,38.025-7.1Zm-.156,5.837c-.715,0-1.144-.338-1.144-.845,0-.468.3-.819,1.248-.819h1.391v.715A1.494,1.494,0,0,1,37.869-1.261ZM48.477-9.646v3.393A2.687,2.687,0,0,0,46.384-7.1a3.4,3.4,0,0,0-3.5,3.6,3.4,3.4,0,0,0,3.5,3.6,2.69,2.69,0,0,0,2.184-.91V0h1.937V-9.646ZM46.735-1.56A1.775,1.775,0,0,1,44.941-3.5a1.775,1.775,0,0,1,1.794-1.937A1.772,1.772,0,0,1,48.516-3.5,1.772,1.772,0,0,1,46.735-1.56ZM61.152-9.646v3.393A2.687,2.687,0,0,0,59.059-7.1a3.4,3.4,0,0,0-3.5,3.6,3.4,3.4,0,0,0,3.5,3.6,2.69,2.69,0,0,0,2.184-.91V0H63.18V-9.646ZM59.41-1.56A1.775,1.775,0,0,1,57.616-3.5,1.775,1.775,0,0,1,59.41-5.434,1.772,1.772,0,0,1,61.191-3.5,1.772,1.772,0,0,1,59.41-1.56ZM71.9-3.471A3.462,3.462,0,0,0,68.263-7.1a3.561,3.561,0,0,0-3.731,3.6c0,2.08,1.573,3.6,3.991,3.6a3.663,3.663,0,0,0,2.886-1.131L70.33-2.2a2.371,2.371,0,0,1-1.755.676,1.865,1.865,0,0,1-2-1.4h5.291C71.877-3.094,71.9-3.315,71.9-3.471ZM68.276-5.564a1.662,1.662,0,0,1,1.716,1.456H66.547A1.656,1.656,0,0,1,68.276-5.564ZM73.255,0h2.028V-9.646H73.255ZM85.943-9.646v3.393A2.687,2.687,0,0,0,83.85-7.1a3.4,3.4,0,0,0-3.5,3.6A3.4,3.4,0,0,0,83.85.1a2.69,2.69,0,0,0,2.184-.91V0h1.937V-9.646ZM84.2-1.56A1.775,1.775,0,0,1,82.407-3.5,1.775,1.775,0,0,1,84.2-5.434,1.772,1.772,0,0,1,85.982-3.5,1.772,1.772,0,0,1,84.2-1.56ZM92.664-7.1a5.376,5.376,0,0,0-3.016.845l.728,1.417a3.363,3.363,0,0,1,2.015-.65c1.092,0,1.612.507,1.612,1.378H92.391c-2.132,0-3,.858-3,2.093C89.388-.806,90.363.1,92,.1a2.3,2.3,0,0,0,2.132-.975V0h1.9V-3.991C96.031-6.11,94.8-7.1,92.664-7.1Zm-.156,5.837c-.715,0-1.144-.338-1.144-.845,0-.468.3-.819,1.248-.819H94v.715A1.494,1.494,0,0,1,92.508-1.261Zm9.321-.507a1.367,1.367,0,0,1-.819.26.816.816,0,0,1-.871-.923V-5.278h1.742v-1.56h-1.742v-1.7H98.111v1.7H97.032v1.56h1.079V-2.4A2.306,2.306,0,0,0,100.724.1a2.9,2.9,0,0,0,1.651-.442ZM106.418.1a3.589,3.589,0,0,0,3.835-3.6,3.589,3.589,0,0,0-3.835-3.6,3.6,3.6,0,0,0-3.848,3.6A3.6,3.6,0,0,0,106.418.1Zm0-1.664A1.775,1.775,0,0,1,104.624-3.5a1.775,1.775,0,0,1,1.794-1.937A1.765,1.765,0,0,1,108.2-3.5,1.765,1.765,0,0,1,106.418-1.56Z" transform="translate(764.365 14315.282)" fill="#383838"/>
      <path id="Trazado_231499" data-name="Trazado 231499" d="M97.937,301.08a13.045,13.045,0,1,1-13.045-13.045A13.045,13.045,0,0,1,97.937,301.08" transform="translate(396.703 13960.313)" fill="#fff"/>
      <path id="Trazado_231500" data-name="Trazado 231500" d="M288.236,301.08a13.045,13.045,0,1,1-13.045-13.045,13.045,13.045,0,0,1,13.045,13.045" transform="translate(544.241 13960.313)" fill="#fff"/>
      <path id="Path" d="M0,1.5,1.63,0,8,6,1.63,12,0,10.5,4.8,6Z" transform="translate(579.544 13972.509) rotate(47)" fill="#9abbc0" stroke="#9abbc0" stroke-width="1"/>
      <path id="Path-2" data-name="Path" d="M0,1.5,1.63,0,8,6,1.63,12,0,10.5,4.8,6Z" transform="matrix(0.616, -0.788, 0.788, 0.616, 735.693, 13951.984)" fill="#9abbc0" stroke="#9abbc0" stroke-width="1"/>
      <path id="Path-3" data-name="Path" d="M0,1.5,1.63,0,8,6,1.63,12,0,10.5,4.8,6Z" transform="matrix(0.602, 0.799, -0.799, 0.602, 919.268, 13971.721)" fill="#9abbc0" stroke="#9abbc0" stroke-width="1"/>
      <line id="Línea_580" data-name="Línea 580" y2="217" transform="translate(481.5 14003.82)" fill="none" stroke="#f9ba3a" stroke-width="3"/>
      <line id="Línea_581" data-name="Línea 581" y2="217" transform="translate(819.5 14003.82)" fill="none" stroke="#7e5ee3" stroke-width="3"/>
    </g>
  </g>
</svg>
