<svg xmlns="http://www.w3.org/2000/svg" width="69" height="87" viewBox="0 0 69 87">
  <g id="Grupo_159282" data-name="Grupo 159282" transform="translate(-810 -461)">
    <g id="Grupo_158432" data-name="Grupo 158432" transform="translate(642)">
      <g id="Grupo_158431" data-name="Grupo 158431">
        <rect id="Rectángulo_47671" data-name="Rectángulo 47671" width="69" height="87" rx="3" transform="translate(168 461)" fill="#7e5ee3"/>
        <rect id="Rectángulo_47672" data-name="Rectángulo 47672" width="67" height="85" rx="3" transform="translate(169 462)" fill="#fff"/>
      </g>
      <rect id="Rectángulo_47673" data-name="Rectángulo 47673" width="46" height="2" rx="1" transform="translate(180 466)" fill="#7e5ee3"/>
      <rect id="Rectángulo_47674" data-name="Rectángulo 47674" width="59" height="1" rx="0.5" transform="translate(173 473)" fill="#7e5ee3"/>
      <rect id="Rectángulo_47675" data-name="Rectángulo 47675" width="59" height="1" rx="0.5" transform="translate(173 477)" fill="#7e5ee3"/>
      <rect id="Rectángulo_47676" data-name="Rectángulo 47676" width="59" height="1" rx="0.5" transform="translate(173 481)" fill="#7e5ee3"/>
      <rect id="Rectángulo_47677" data-name="Rectángulo 47677" width="59" height="1" rx="0.5" transform="translate(173 485)" fill="#7e5ee3"/>
      <rect id="Rectángulo_47678" data-name="Rectángulo 47678" width="59" height="1" rx="0.5" transform="translate(173 492)" fill="#7e5ee3"/>
      <rect id="Rectángulo_47679" data-name="Rectángulo 47679" width="59" height="1" rx="0.5" transform="translate(173 496)" fill="#7e5ee3"/>
      <rect id="Rectángulo_47680" data-name="Rectángulo 47680" width="59" height="1" rx="0.5" transform="translate(173 500)" fill="#7e5ee3"/>
      <rect id="Rectángulo_47681" data-name="Rectángulo 47681" width="59" height="1" rx="0.5" transform="translate(173 504)" fill="#7e5ee3"/>
      <rect id="Rectángulo_47682" data-name="Rectángulo 47682" width="59" height="1" rx="0.5" transform="translate(173 508)" fill="#7e5ee3"/>
      <rect id="Rectángulo_47683" data-name="Rectángulo 47683" width="59" height="1" rx="0.5" transform="translate(173 515)" fill="#7e5ee3"/>
      <rect id="Rectángulo_47684" data-name="Rectángulo 47684" width="59" height="1" rx="0.5" transform="translate(173 519)" fill="#7e5ee3"/>
      <rect id="Rectángulo_47685" data-name="Rectángulo 47685" width="59" height="1" rx="0.5" transform="translate(173 523)" fill="#7e5ee3"/>
      <rect id="Rectángulo_47686" data-name="Rectángulo 47686" width="30" height="1" rx="0.5" transform="translate(202 530)" fill="#7e5ee3"/>
      <rect id="Rectángulo_47687" data-name="Rectángulo 47687" width="30" height="1" rx="0.5" transform="translate(202 534)" fill="#7e5ee3"/>
      <rect id="Rectángulo_47688" data-name="Rectángulo 47688" width="30" height="1" rx="0.5" transform="translate(202 538)" fill="#7e5ee3"/>
      <rect id="Rectángulo_47689" data-name="Rectángulo 47689" width="30" height="1" rx="0.5" transform="translate(202 542)" fill="#7e5ee3"/>
      <rect id="Rectángulo_47690" data-name="Rectángulo 47690" width="27" height="13" transform="translate(173 530)" fill="#7e5ee3"/>
    </g>
  </g>
</svg>
