<svg xmlns="http://www.w3.org/2000/svg" xmlns:xlink="http://www.w3.org/1999/xlink" width="507.136" height="316.737" viewBox="0 0 507.136 316.737">
  <defs>
    <clipPath id="clip-path">
      <path id="Trazado_231227" data-name="Trazado 231227" d="M543.736,0C520.729.008,495.86,9.25,474.277,23.79c-45.677,30.772-78.51,80.48-110.248,67.3S281.865-17.209,195.812,59.9c-21.794,19.529-39.942,53.877-9.006,86.525s38.712,50.148,19.867,72.169-25.966,65.447,19.183,83.862c23.654,9.648,40.517-10.122,56.2-29.892,14.248-17.965,27.521-35.93,44.025-31.822,33.2,8.262,42.971,67.066,96.122,67.112h.106c2.319,0,4.717-.114,7.207-.348,59.645-5.6,48.489-72.958,87.255-57.014s80.482,33.07,96.479-2.631-36.195-63.148-36.365-106.334S632.918,93.962,606.638,39.97C592.792,11.521,569.47.017,543.82,0Z" transform="translate(-170.308 -0.001)" fill="#dad3f3"/>
    </clipPath>
    <clipPath id="clip-path-2">
      <rect id="Rectángulo_47692" data-name="Rectángulo 47692" width="507.136" height="307.852" fill="none"/>
    </clipPath>
    <clipPath id="clip-path-3">
      <path id="Trazado_231231" data-name="Trazado 231231" d="M1573.627,397.358c-1.156.016-2.31.1-3.46.211a48.29,48.29,0,0,0-6.825,1.2l-.842.209c-.281.067-.556.159-.834.238-.554.166-1.111.321-1.662.5-1.092.381-2.195.735-3.26,1.188l-.806.323-.4.162-.394.18-1.576.729c-.531.231-1.032.523-1.547.788s-1.029.532-1.53.821a55.99,55.99,0,0,0-11.065,8.341,65.2,65.2,0,0,0-8.853,10.666l-1.872,2.923-1.708,3.019-.427.755-.388.775-.772,1.553-.772,1.553c-.134.256-.248.521-.362.787l-.345.795-1.38,3.18-1.224,3.242-.61,1.622-.534,1.647-1.065,3.3c-.094.273-.167.552-.243.831l-.229.835-.457,1.67c-.3,1.113-.621,2.228-.9,3.338l-.864,3.334c-.146.555-.285,1.112-.436,1.666l-.469,1.656-.938,3.313-1.012,3.29-.509,1.644c-.166.549-.362,1.088-.542,1.633l-1.1,3.261c-.382,1.081-.789,2.153-1.183,3.231l-.6,1.614-.642,1.6-.642,1.6c-.219.53-.417,1.069-.656,1.59l-1.383,3.149a124.461,124.461,0,0,1-6.363,12.179l-1.814,2.918-1.923,2.847c-.657.938-1.346,1.852-2.018,2.78-.33.468-.692.912-1.048,1.361l-1.068,1.345a94,94,0,0,1-9.413,10,112.492,112.492,0,0,1-10.7,8.638c-3.733,2.67-7.6,5.153-11.531,7.531s-7.938,4.634-11.97,6.845-8.088,4.38-12.145,6.549a.109.109,0,0,0,.1.193c4.079-2.126,8.158-4.254,12.215-6.424s8.091-4.388,12.057-6.729a134.593,134.593,0,0,0,22.442-16.085,94.284,94.284,0,0,0,17.531-21.331,125.271,125.271,0,0,0,6.44-12.251l1.4-3.165c.241-.524.443-1.065.664-1.6l.65-1.6.65-1.6.6-1.621c.4-1.082.81-2.159,1.2-3.245l1.114-3.274c.182-.547.38-1.089.548-1.64l.515-1.65,1.025-3.3.95-3.323.475-1.662c.153-.555.294-1.114.441-1.671l.875-3.343c.289-1.118.6-2.215.9-3.323l.45-1.658.225-.829c.075-.276.147-.554.239-.825l1.05-3.272.527-1.635.6-1.608,1.207-3.216,1.362-3.152.34-.788c.112-.263.225-.526.357-.78l.76-1.538.761-1.538.382-.768.421-.747,1.683-2.989,1.844-2.892a66.649,66.649,0,0,1,8.677-10.576,55.228,55.228,0,0,1,10.851-8.307c.493-.288,1-.546,1.5-.82s1-.558,1.521-.789l1.549-.733.387-.183.4-.164.791-.329c1.047-.461,2.131-.823,3.206-1.214.542-.181,1.091-.34,1.636-.512.274-.081.544-.175.822-.246l.83-.216a47.805,47.805,0,0,1,6.737-1.277c1.137-.12,2.277-.227,3.421-.262a29.01,29.01,0,0,1,3.42.048h.009a.181.181,0,0,0,.033-.361c-.883-.087-1.759-.118-2.636-.118q-.418,0-.838.009" transform="translate(-1436.259 -397.349)" fill="none"/>
    </clipPath>
    <linearGradient id="linear-gradient" x1="-2.448" y1="1.386" x2="-2.446" y2="1.386" gradientUnits="objectBoundingBox">
      <stop offset="0" stop-color="#dae3fe"/>
      <stop offset="1" stop-color="#e9effd"/>
    </linearGradient>
    <clipPath id="clip-path-4">
      <path id="Trazado_231232" data-name="Trazado 231232" d="M1632.858,90.848a29.717,29.717,0,0,0-4.813.538,26.011,26.011,0,0,0-4.64,1.418l-.56.236c-.188.077-.374.158-.553.251l-1.09.538-1.056.6c-.178.1-.349.205-.518.318l-.509.332a25.44,25.44,0,0,0-3.773,3.042c-.145.14-.3.275-.437.42l-.415.441c-.272.3-.562.581-.82.891-.517.619-1.046,1.229-1.514,1.885l-.362.484-.18.242-.168.251-.669,1c-.231.33-.422.684-.631,1.027s-.417.688-.61,1.039a49.968,49.968,0,0,0-3.759,8.831,71.365,71.365,0,0,0-2.269,9.3c-.573,3.137-.943,6.3-1.212,9.473s-.407,6.35-.454,9.527c-.057,6.356.209,12.709.765,19.032a.146.146,0,0,0,.291-.022c-.377-6.328-.563-12.667-.378-19,.011-.791.057-1.581.089-2.371s.057-1.581.113-2.37l.159-2.367c.047-.79.139-1.575.207-2.362.3-3.146.705-6.283,1.307-9.381a75.23,75.23,0,0,1,2.324-9.154,48.951,48.951,0,0,1,3.71-8.637c.19-.342.4-.673.6-1.01s.391-.678.617-1l.653-.973.163-.243.176-.234.352-.467c.455-.635.968-1.222,1.47-1.818.25-.3.53-.57.794-.856l.4-.424c.135-.14.282-.268.422-.4a24.358,24.358,0,0,1,3.631-2.907l.488-.317c.161-.108.325-.211.5-.3l1.012-.572,1.044-.511c.173-.089.35-.166.531-.238l.537-.224a26.244,26.244,0,0,1,4.446-1.352,28.573,28.573,0,0,1,4.63-.538,34.806,34.806,0,0,1,9.292.988,45.883,45.883,0,0,1,8.857,3.131,48.4,48.4,0,0,1,8.082,4.806,32.828,32.828,0,0,1,3.577,3.034l1.681,1.688c.276.29.585.547.876.821s.584.548.893.8c.617.511,1.222,1.037,1.871,1.508.629.5,1.3.938,1.961,1.391a33.485,33.485,0,0,0,4.211,2.317,27.411,27.411,0,0,0,9.272,2.349,23.014,23.014,0,0,0,9.447-1.219.119.119,0,0,0-.08-.223l-.009,0a20.171,20.171,0,0,1-4.609.954,25.474,25.474,0,0,1-4.711.015,26.966,26.966,0,0,1-9.031-2.487,32.815,32.815,0,0,1-4.087-2.319c-.641-.452-1.291-.891-1.9-1.386-.63-.468-1.215-.992-1.813-1.5-.3-.253-.576-.534-.865-.8s-.581-.528-.849-.816l-1.654-1.705a33.709,33.709,0,0,0-3.631-3.163,48.124,48.124,0,0,0-17.247-8.207,36.683,36.683,0,0,0-8.544-1.077q-.511,0-1.024.017" transform="translate(-1601.838 -90.831)" fill="none"/>
    </clipPath>
    <linearGradient id="linear-gradient-2" x1="-4.22" y1="4.013" x2="-4.217" y2="4.013" xlink:href="#linear-gradient"/>
    <clipPath id="clip-path-6">
      <path id="Trazado_231234" data-name="Trazado 231234" d="M666.6,56.5a147.151,147.151,0,0,0-20.608,23.876,18.711,18.711,0,0,0-2.948,5.613A7.155,7.155,0,0,0,644,92.264a.361.361,0,1,0,.567-.446,6.437,6.437,0,0,1-.835-5.64,18.114,18.114,0,0,1,2.846-5.392,146.428,146.428,0,0,1,20.507-23.759c2.6-2.427,6.038-5.1,9.6-4.249a.361.361,0,1,0,.168-.7,6.626,6.626,0,0,0-1.555-.184c-3.3,0-6.337,2.4-8.7,4.607" transform="translate(-642.731 -51.893)" fill="none"/>
    </clipPath>
    <linearGradient id="linear-gradient-3" x1="-4.434" y1="7.292" x2="-4.427" y2="7.292" xlink:href="#linear-gradient"/>
    <clipPath id="clip-path-8">
      <path id="Trazado_231236" data-name="Trazado 231236" d="M852.335,23.26a85.846,85.846,0,0,0-22.393,10.791c-7.275,4.911-12.013,9.875-13,13.618a.361.361,0,0,0,.257.44.357.357,0,0,0,.092.012.361.361,0,0,0,.348-.269c1.929-7.334,19.54-19.4,34.9-23.9,1.208-.354,5.84-.041,6.305.725.609,1-.666,2.264-1.516,2.851a34.973,34.973,0,0,1-10.839,5.021.361.361,0,1,0,.187.7,35.7,35.7,0,0,0,11.062-5.125c1.313-.908,2.552-2.453,1.722-3.819-.539-.886-3.227-1.2-5.195-1.2a8.383,8.383,0,0,0-1.929.162" transform="translate(-816.933 -23.098)" fill="none"/>
    </clipPath>
    <linearGradient id="linear-gradient-4" x1="-4.524" y1="12.08" x2="-4.518" y2="12.08" xlink:href="#linear-gradient"/>
    <clipPath id="clip-path-10">
      <path id="Trazado_231240" data-name="Trazado 231240" d="M108.3,345.74a.223.223,0,0,0,.007.315l.011.01a78.541,78.541,0,0,1,7.808,8.9l.913,1.168.874,1.2,1.747,2.4c.568.809,1.113,1.635,1.671,2.451s1.116,1.632,1.656,2.46A198.735,198.735,0,0,1,134.7,385.26l1.315,2.659c.439.886.884,1.768,1.281,2.674l2.457,5.4c.847,1.787,1.567,3.631,2.331,5.455l2.264,5.484,2.079,5.558,1.039,2.778.52,1.389.472,1.406,3.775,11.264.945,2.832,1.006,2.811.5,1.406c.168.468.353.93.528,1.4l1.066,2.788c.355.93.744,1.846,1.114,2.77s.736,1.849,1.138,2.76c.788,1.827,1.559,3.662,2.394,5.468,1.623,3.634,3.376,7.208,5.175,10.757s3.726,7.033,5.7,10.49c3.979,6.892,8.234,13.625,12.817,20.132q3.444,4.875,7.113,9.587c2.462,3.135,4.963,6.212,7.663,9.19a.832.832,0,0,0,1.236-1.113l-.014-.016c-2.61-2.914-5.1-6.009-7.513-9.126s-4.743-6.32-7-9.561q-6.806-9.706-12.711-20-2.931-5.151-5.666-10.41c-1.8-3.516-3.555-7.057-5.181-10.658-.837-1.79-1.609-3.607-2.4-5.418-.4-.9-.759-1.823-1.14-2.735s-.761-1.823-1.117-2.744l-1.069-2.763c-.176-.461-.361-.919-.53-1.383l-.5-1.393-1.009-2.785-.949-2.806c-.623-1.868-1.281-3.751-1.929-5.629l-1.947-5.635-.487-1.409-.535-1.392-1.069-2.783-2.138-5.565-2.324-5.491c-.784-1.827-1.524-3.672-2.391-5.462l-2.518-5.406c-.407-.907-.87-1.787-1.322-2.672L135.8,384.7a199.76,199.76,0,0,0-12.054-20.567c-.559-.822-1.143-1.627-1.713-2.441s-1.14-1.629-1.727-2.431l-1.8-2.376-.9-1.187-.94-1.158a78.956,78.956,0,0,0-8.046-8.812.223.223,0,0,0-.312.01" transform="translate(-108.241 -345.671)" fill="none"/>
    </clipPath>
    <linearGradient id="linear-gradient-5" x1="-0.28" y1="1.351" x2="-0.278" y2="1.351" xlink:href="#linear-gradient"/>
    <clipPath id="clip-path-11">
      <rect id="Rectángulo_47701" data-name="Rectángulo 47701" width="507.136" height="307.852" fill="#b2a4e7"/>
    </clipPath>
    <clipPath id="clip-path-12">
      <path id="Trazado_231242" data-name="Trazado 231242" d="M112.458,914.428a.832.832,0,0,0,.238,1.152c2.192,1.441,4.4,2.794,6.63,4.134s4.476,2.64,6.74,3.913q6.79,3.822,13.754,7.316a311.151,311.151,0,0,0,28.476,12.6l1.819.693.909.346.916.33,3.663,1.319c1.226.427,2.458.835,3.686,1.253.616.205,1.227.422,1.846.618l1.856.585,1.857.585c.618.2,1.237.391,1.862.567l3.737,1.088c1.246.362,2.506.675,3.758,1.015l1.881.5c.628.16,1.261.3,1.891.458l3.786.9,3.808.8c1.266.283,2.546.5,3.822.734l1.915.348.957.174.962.146,3.848.579c.64.106,1.285.172,1.929.249l1.932.227,1.932.227c.644.077,1.292.114,1.938.172l3.877.32a.13.13,0,0,0,.023-.258h0l-3.867-.363c-.644-.066-1.29-.109-1.932-.193l-1.926-.249-1.925-.249c-.641-.084-1.284-.157-1.922-.27l-3.832-.621-.958-.157-.953-.185-1.906-.368c-1.27-.248-2.543-.478-3.8-.775l-3.788-.845-3.766-.94c-.627-.16-1.256-.311-1.881-.478l-1.87-.52c-1.245-.353-2.5-.679-3.735-1.054l-3.714-1.127c-.621-.183-1.236-.383-1.85-.587l-1.844-.6-1.844-.6c-.615-.2-1.222-.425-1.833-.636-1.22-.43-2.443-.851-3.66-1.29l-3.636-1.356-.909-.339-.9-.356-1.805-.711a310.039,310.039,0,0,1-28.229-12.871q-6.894-3.558-13.612-7.439-3.358-1.938-6.66-3.968c-2.2-1.353-4.392-2.735-6.515-4.165l-.015-.01,0,0a.831.831,0,0,0-1.152.238" transform="translate(-112.321 -914.053)" fill="none"/>
    </clipPath>
    <linearGradient id="linear-gradient-6" x1="-0.23" y1="2.016" x2="-0.228" y2="2.016" xlink:href="#linear-gradient"/>
    <clipPath id="clip-path-13">
      <rect id="Rectángulo_47670" data-name="Rectángulo 47670" width="418.317" height="287.59" fill="none"/>
    </clipPath>
    <clipPath id="clip-path-14">
      <rect id="Rectángulo_47660" data-name="Rectángulo 47660" width="12.463" height="19.37" fill="none"/>
    </clipPath>
    <clipPath id="clip-path-15">
      <rect id="Rectángulo_47661" data-name="Rectángulo 47661" width="7.122" height="8.447" fill="none"/>
    </clipPath>
    <clipPath id="clip-path-16">
      <rect id="Rectángulo_47662" data-name="Rectángulo 47662" width="5.685" height="7.429" fill="none"/>
    </clipPath>
    <clipPath id="clip-path-17">
      <rect id="Rectángulo_47663" data-name="Rectángulo 47663" width="8.669" height="8.911" fill="none"/>
    </clipPath>
    <clipPath id="clip-path-18">
      <rect id="Rectángulo_47664" data-name="Rectángulo 47664" width="12.943" height="14.367" fill="none"/>
    </clipPath>
    <clipPath id="clip-path-19">
      <rect id="Rectángulo_47667" data-name="Rectángulo 47667" width="37.532" height="52.638" fill="none"/>
    </clipPath>
    <clipPath id="clip-path-20">
      <rect id="Rectángulo_47668" data-name="Rectángulo 47668" width="1.384" height="8.082" fill="none"/>
    </clipPath>
    <clipPath id="clip-path-21">
      <rect id="Rectángulo_47669" data-name="Rectángulo 47669" width="4.682" height="17.904" fill="none"/>
    </clipPath>
  </defs>
  <g id="Grupo_159281" data-name="Grupo 159281" transform="translate(-197.864 -402.264)">
    <g id="Grupo_158459" data-name="Grupo 158459" transform="translate(-666.499 -19.419)">
      <g id="Grupo_158457" data-name="Grupo 158457" transform="translate(864.363 421.683)">
        <g id="Grupo_158434" data-name="Grupo 158434" transform="translate(40.931 0)">
          <g id="Grupo_158433" data-name="Grupo 158433" transform="translate(0 0)" clip-path="url(#clip-path)">
            <rect id="Rectángulo_47691" data-name="Rectángulo 47691" width="477.048" height="329.313" transform="translate(-14.438 -17.21)" fill="#dad3f3"/>
          </g>
        </g>
        <g id="Grupo_158436" data-name="Grupo 158436" transform="translate(0 0)">
          <g id="Grupo_158435" data-name="Grupo 158435" transform="translate(0 0)" clip-path="url(#clip-path-2)">
            <path id="Trazado_231228" data-name="Trazado 231228" d="M1380.881,304.524a1.7,1.7,0,0,1-.251-2.967c12.655-8.029,63.895-44.42,34.03-90.548-33.911-52.379-46.846-65.358-32.375-98.49,13.174-30.165,34.669-39.733,54.895-41.218a1.358,1.358,0,0,1,.785,2.518c-10.549,6.077-33.584,21.947-32.519,44.158,1.38,28.763,34.468,82.943,26.028,122.487-8.338,39.068-28.66,49.941-49.016,63.916a1.624,1.624,0,0,1-1.578.145" transform="translate(-1045.624 -54.162)" fill="#b2a4e7"/>
            <path id="Trazado_231229" data-name="Trazado 231229" d="M1549.933,92.851a2.35,2.35,0,0,0-1.1-3.769c-4.431-1.322-12.52-4.635-21.23-12.626-8.735-8.013-30.281-24.5-57.875-8.7s-19.308,71.159-7.458,124.381-39.4,91.844-39.4,91.844l-13.4,11.387s51.872-28.054,59.566-73.674-15.982-103.825,18.051-114.568c32.668-10.312,43.839,7.539,62.845-14.272" transform="translate(-1070.724 -46.454)" fill="#b2a4e7"/>
            <path id="Trazado_231230" data-name="Trazado 231230" d="M1576.448,370.023a2,2,0,0,0,1.342-3.546c-8.422-7.142-26.452-19.421-44.606-12.548-24.881,9.419-39.378,27.271-49.254,76.391-9.6,47.743-58.308,80.13-72.645,85.524a1.495,1.495,0,0,0,1.08,2.788c9.983-4.042,62.21-25.91,84.173-49.587,23.06-24.859,43.174-100.841,79.911-99.022" transform="translate(-1071.383 -267.331)" fill="#b2a4e7"/>
          </g>
        </g>
        <g id="Grupo_158438" data-name="Grupo 158438" transform="translate(345.186 95.497)">
          <g id="Grupo_158437" data-name="Grupo 158437" clip-path="url(#clip-path-3)">
            <rect id="Rectángulo_47693" data-name="Rectángulo 47693" width="141.029" height="153.166" transform="translate(-0.015 0)" fill="url(#linear-gradient)"/>
          </g>
        </g>
        <g id="Grupo_158440" data-name="Grupo 158440" transform="translate(384.981 21.83)">
          <g id="Grupo_158439" data-name="Grupo 158439" clip-path="url(#clip-path-4)">
            <rect id="Rectángulo_47694" data-name="Rectángulo 47694" width="91.216" height="71.275" transform="translate(-0.05 0)" fill="url(#linear-gradient-2)"/>
          </g>
        </g>
        <g id="Grupo_158442" data-name="Grupo 158442" transform="translate(0 0)">
          <g id="Grupo_158441" data-name="Grupo 158441" transform="translate(0 0)" clip-path="url(#clip-path-2)">
            <path id="Trazado_231233" data-name="Trazado 231233" d="M499.236,287.889s-73.937-38.8-61.879-101.955c11.023-57.742,43.577-100.878,49.079-107.852a.786.786,0,0,0-.392-1.242c-2.639-.786-8.265-3.913-1.672-15.842,8.334-15.079,28.487-37.74,37.868-35.652S520.882,45.911,508.687,59.7s-16.933,19.351-16.933,19.351S371.51,211.731,499.236,287.889" transform="translate(-331.234 -19.153)" fill="#b2a4e7"/>
          </g>
        </g>
        <g id="Grupo_158444" data-name="Grupo 158444" transform="translate(154.472 12.472)">
          <g id="Grupo_158443" data-name="Grupo 158443" clip-path="url(#clip-path-6)">
            <rect id="Rectángulo_47696" data-name="Rectángulo 47696" width="34.763" height="40.509" transform="translate(-0.328 0)" fill="url(#linear-gradient-3)"/>
          </g>
        </g>
        <g id="Grupo_158446" data-name="Grupo 158446" transform="translate(0 0)">
          <g id="Grupo_158445" data-name="Grupo 158445" transform="translate(0 0)" clip-path="url(#clip-path-2)">
            <path id="Trazado_231235" data-name="Trazado 231235" d="M563.261,42.806s-2.284-10.447,17.163-22.5c17.107-10.6,29.941-15.37,33.922-7.363S581.621,42.061,565.665,44.7c0,0-142.431,131.8-25.407,230.824,0,0-127.071-73.2,23-232.714" transform="translate(-372.255 -6.785)" fill="#b2a4e7"/>
          </g>
        </g>
        <g id="Grupo_158448" data-name="Grupo 158448" transform="translate(196.339 5.551)">
          <g id="Grupo_158447" data-name="Grupo 158447" clip-path="url(#clip-path-8)">
            <rect id="Rectángulo_47698" data-name="Rectángulo 47698" width="43.396" height="25.024" transform="translate(-0.039 0)" fill="url(#linear-gradient-4)"/>
          </g>
        </g>
        <g id="Grupo_158450" data-name="Grupo 158450" transform="translate(0 0)">
          <g id="Grupo_158449" data-name="Grupo 158449" transform="translate(0 0)" clip-path="url(#clip-path-2)">
            <path id="Trazado_231237" data-name="Trazado 231237" d="M389.729,301.892s-41.75-27.461-43.171-87.449c-1.38-58.306,9.85-138.057-50.775-170.478a2.653,2.653,0,0,0-3.815,3.018c3.509,13.233,11.337,47.591,8.825,82.8-3.206,44.94,11.618,154.534,88.936,172.111" transform="translate(-221.727 -33.156)" fill="#b2a4e7"/>
            <path id="Trazado_231238" data-name="Trazado 231238" d="M359.237,138.405l.2.18.171.165c.115.109.224.219.329.329.217.218.424.441.63.664.41.447.81.9,1.2,1.363s.762.933,1.14,1.4c.36.481.735.952,1.082,1.442a67.633,67.633,0,0,1,3.906,6.043,71.562,71.562,0,0,1,3.271,6.4c1,2.177,1.862,4.414,2.667,6.667a91.272,91.272,0,0,1,3.612,13.876,98.4,98.4,0,0,1,1.45,14.249,118.419,118.419,0,0,1-.454,14.3l-.368,3.557-.487,3.542c-.159,1.187-.336,2.339-.5,3.51l-.254,1.751c-.082.584-.145,1.17-.218,1.755-.609,4.678-1,9.384-1.276,14.1l-.18,3.535-.106,3.539c-.048,1.18-.038,2.36-.052,3.54s-.031,2.361,0,3.541l.049,3.541.123,3.539c.024.59.035,1.18.07,1.77l.1,1.768.1,1.768c.031.59.068,1.179.119,1.767l.281,3.531c.1,1.177.233,2.35.348,3.525l.18,1.762.218,1.758c.15,1.171.282,2.345.448,3.514.646,4.68,1.456,9.336,2.4,13.966q1.459,6.936,3.4,13.76,1.976,6.808,4.486,13.446l1.3,3.3c.443,1.1.926,2.174,1.387,3.263.238.541.455,1.092.71,1.625l.75,1.606c.5,1.07.987,2.149,1.537,3.2l.8,1.581.4.791c.131.265.268.527.414.784l1.713,3.106c1.2,2.037,2.4,4.08,3.716,6.044a101.59,101.59,0,0,0,8.575,11.3,101.669,101.669,0,0,1-8.752-11.187c-1.352-1.948-2.581-3.976-3.814-6l-1.764-3.089c-.15-.256-.292-.516-.427-.78l-.414-.787-.829-1.574c-.567-1.042-1.071-2.116-1.59-3.183l-.776-1.6c-.264-.531-.49-1.08-.737-1.619-.478-1.086-.981-2.161-1.437-3.256l-1.347-3.295q-2.595-6.628-4.662-13.449a208.638,208.638,0,0,1-8.438-56.175c-.038-1.187-.024-2.375-.028-3.563s-.016-2.376.021-3.563l.076-3.563.15-3.561c.24-4.746.589-9.49,1.161-14.21.069-.59.127-1.182.2-1.772l.241-1.767.477-3.526.465-3.5.347-3.511a116.686,116.686,0,0,0,.382-14.086,94.506,94.506,0,0,0-5.005-27.588c-.786-2.206-1.626-4.394-2.6-6.522-.961-2.134-2-4.234-3.162-6.263a65.927,65.927,0,0,0-3.769-5.906c-.334-.479-.7-.936-1.041-1.405-.362-.455-.713-.921-1.087-1.365s-.747-.889-1.133-1.318c-.193-.214-.387-.427-.586-.631-.1-.1-.2-.206-.3-.3l-.147-.145-.128-.118-.051-.047a.831.831,0,0,1,1.118-1.229" transform="translate(-271.847 -104.981)" fill="#bdd0fb"/>
            <path id="Trazado_231239" data-name="Trazado 231239" d="M24.093,253.221a1.917,1.917,0,0,1,2.28-2.847c17.637,6.673,62.936,29.766,81.158,95.337,22.862,82.268,51,104.1,78.522,113.126,0,0-31.281,3.342-60.826-18.4-72.54-53.374-82.7-159.827-101.134-187.219" transform="translate(-18.052 -190.102)" fill="#dad3f3"/>
          </g>
        </g>
        <g id="Grupo_158452" data-name="Grupo 158452" transform="translate(26.014 83.077)">
          <g id="Grupo_158451" data-name="Grupo 158451" clip-path="url(#clip-path-10)">
            <rect id="Rectángulo_47700" data-name="Rectángulo 47700" width="92.712" height="166.41" transform="translate(-0.023 0)" fill="url(#linear-gradient-5)"/>
          </g>
        </g>
        <g id="Grupo_158454" data-name="Grupo 158454" transform="translate(0 0)">
          <g id="Grupo_158453" data-name="Grupo 158453" transform="translate(0 0)" clip-path="url(#clip-path-11)">
            <path id="Trazado_231241" data-name="Trazado 231241" d="M4.749,859.223c23.44-3.349,87.071-4.407,158.667,62.35,0,0-99.051,15.528-161.948-53.123a5.533,5.533,0,0,1,3.281-9.227" transform="translate(0 -651.8)" fill="#b2a4e7"/>
          </g>
        </g>
        <g id="Grupo_158456" data-name="Grupo 158456" transform="translate(26.995 219.68)">
          <g id="Grupo_158455" data-name="Grupo 158455" clip-path="url(#clip-path-12)">
            <rect id="Rectángulo_47702" data-name="Rectángulo 47702" width="116.626" height="43.732" transform="translate(-0.116 0)" fill="url(#linear-gradient-6)"/>
          </g>
        </g>
      </g>
      <g id="Grupo_158458" data-name="Grupo 158458" transform="translate(908.773 450.829)">
        <g id="Grupo_158429" data-name="Grupo 158429" transform="translate(0 0)">
          <g id="Grupo_158428" data-name="Grupo 158428" clip-path="url(#clip-path-13)">
            <path id="Trazado_230996" data-name="Trazado 230996" d="M55.564,1170.868c0,2.12-11.8,3.839-26.347,3.839s-26.346-1.719-26.346-3.839,11.8-3.838,26.346-3.838,26.347,1.718,26.347,3.838" transform="translate(-2.239 -902.528)" fill="#5fc3f3"/>
            <path id="Trazado_230997" data-name="Trazado 230997" d="M89.479,1034.2l.316,3.839s3.8,1.745,6.142-.389l-.246-4.3Z" transform="translate(-69.787 -799.15)" fill="#f2bf9d"/>
            <path id="Trazado_230998" data-name="Trazado 230998" d="M95.836,1035.878l-.145-2.523-6.212.848.18,2.18a7.493,7.493,0,0,0,6.177-.505" transform="translate(-69.787 -799.15)" fill="#ea9a63"/>
            <path id="Trazado_230999" data-name="Trazado 230999" d="M132.773,980.876a2.294,2.294,0,0,0,1.375,2.855,2.232,2.232,0,0,0,2.407-2.006,2.3,2.3,0,0,0-1.375-2.855,2.231,2.231,0,0,0-2.407,2.006" transform="translate(-103.499 -756.985)" fill="#ea9a63"/>
            <path id="Trazado_231000" data-name="Trazado 231000" d="M56.685,955.583a34.206,34.206,0,0,0,.2-5c-.024-.326-.029-.652-.029-.979a10.9,10.9,0,0,0-.761-4.02,10.339,10.339,0,0,0-10.556-6.576,10.578,10.578,0,0,0-9.2,12.4,2.18,2.18,0,0,0-2.009.2c-1.115.771-1.258,2.557-.321,3.99s2.6,1.969,3.715,1.2a1.99,1.99,0,0,0,.406-.378c1.375,5.035,7.314,7.478,12.2,6.52,2.389-.469,5.912-1.952,6.352-7.35" transform="translate(-26.045 -726.149)" fill="#f2bf9d"/>
            <path id="Trazado_231001" data-name="Trazado 231001" d="M86.6,932.777c-1.666.441-2.058-1.413-1.1-2.2.9-.734.879-1.362.144-1.968,2.2-.379,1.764,2.384,1.286,2.914.538,0,1.3-.936.8-1.5,1.18.512,1.033,1.874.151,1.988-.073.871-.992,1.136-1.286.757" transform="translate(-66.28 -718.121)"/>
            <path id="Trazado_231002" data-name="Trazado 231002" d="M103.885,988.566a4.6,4.6,0,0,0,.066,1.253,3.5,3.5,0,0,0,.171.619,1.638,1.638,0,0,0,.362.585c.2.163.295.209.355.361a.58.58,0,0,1-.031.453,1.7,1.7,0,0,1-.841.74,1.366,1.366,0,0,0,1.1-.587.875.875,0,0,0,.115-.731c-.082-.259-.215-.347-.44-.531a1.547,1.547,0,0,1-.288-.441,5.223,5.223,0,0,1-.215-.547c-.126-.38-.236-.773-.357-1.173" transform="translate(-81.009 -764.513)" fill="#ea9a63"/>
            <path id="Trazado_231003" data-name="Trazado 231003" d="M82.016,995.884a.929.929,0,0,1-.67,1.116.9.9,0,0,1-1.086-.689.929.929,0,0,1,.671-1.116.9.9,0,0,1,1.085.689" transform="translate(-62.578 -769.62)"/>
            <path id="Trazado_231004" data-name="Trazado 231004" d="M116.807,990.042a.929.929,0,0,1-.671,1.116.9.9,0,0,1-1.085-.689.929.929,0,0,1,.67-1.116.9.9,0,0,1,1.086.689" transform="translate(-89.712 -765.101)"/>
            <path id="Trazado_231005" data-name="Trazado 231005" d="M74.27,986.221a9.022,9.022,0,0,0-1.356.061,4.472,4.472,0,0,0-1.212.327,4.214,4.214,0,0,0-1.071.657c-.263.177-.846.808-1,.943a3.027,3.027,0,0,1,.609-1.348,2.919,2.919,0,0,1,1.2-.928,2.972,2.972,0,0,1,1.48-.225,2.733,2.733,0,0,1,1.359.512" transform="translate(-54.304 -762.29)"/>
            <path id="Trazado_231006" data-name="Trazado 231006" d="M108.645,980.556a2.8,2.8,0,0,1,1.094-.974,2.973,2.973,0,0,1,1.461-.329,2.855,2.855,0,0,1,1.438.431,2.948,2.948,0,0,1,1.034,1.039c-.2-.07-.959-.446-1.265-.516a4.119,4.119,0,0,0-1.228-.224,4.451,4.451,0,0,0-1.246.136,9.14,9.14,0,0,0-1.288.437" transform="translate(-84.735 -757.309)"/>
            <path id="Trazado_231007" data-name="Trazado 231007" d="M96.489,1008.45c-.6-.94-1.371-1.141-3.036-.194l-.014.008a3.426,3.426,0,0,1-2.6.321l-.016,0c-1.835-.515-2.54-.132-2.905.927-.333.965,1.179,4.744,4.352,4.258q.484-.074.971-.12c3.195-.3,3.795-4.339,3.249-5.2" transform="translate(-68.533 -779.261)" fill="#1d65b1"/>
            <path id="Trazado_231008" data-name="Trazado 231008" d="M105.326,1017.176a1.5,1.5,0,0,1-1.279,1.673,1.473,1.473,0,0,1-1.628-1.315,1.5,1.5,0,0,1,1.279-1.674,1.473,1.473,0,0,1,1.628,1.315" transform="translate(-79.871 -785.613)" fill="#fff"/>
            <path id="Trazado_231009" data-name="Trazado 231009" d="M99.479,1024.2a2.571,2.571,0,0,1-.938-1.715,2.605,2.605,0,0,1,.517-1.894,2.465,2.465,0,0,1,1.668-.964,2.432,2.432,0,0,1,1.842.531,2.573,2.573,0,0,1,.938,1.715,2.607,2.607,0,0,1-.516,1.895,2.467,2.467,0,0,1-1.668.964,2.433,2.433,0,0,1-1.842-.531m1.292-4.189a2.1,2.1,0,0,0-1.417.819,2.213,2.213,0,0,0-.439,1.609,2.186,2.186,0,0,0,.8,1.457,2.069,2.069,0,0,0,1.565.451,2.1,2.1,0,0,0,1.417-.819,2.213,2.213,0,0,0,.439-1.609,2.185,2.185,0,0,0-.8-1.457,2.069,2.069,0,0,0-1.565-.451" transform="translate(-76.841 -788.52)" fill="#fff"/>
            <path id="Trazado_231010" data-name="Trazado 231010" d="M125.323,1128.545s6.494,1.052,8.54,4.383c0,0,2.16-3.039,3.808-2.192a2.085,2.085,0,0,1,.872,1.79,5.462,5.462,0,0,1-4.428,5.82,19.874,19.874,0,0,1-6.709-.148c-9.454-1.54-2.083-9.653-2.083-9.653" transform="translate(-95.609 -872.766)" fill="#1d65b1"/>
            <path id="Trazado_231011" data-name="Trazado 231011" d="M125.713,1008.051s4.276-1.365,11.019-6.58a36.519,36.519,0,0,1,.828-4.778c.214-.107.371.028.85,2.146a.171.171,0,0,0,.293.084c.734-.791,3.059-3.267,3.3-3.121.283.174-1.741,2.438-1.6,2.716s2.064-1.981,2.338-1.745-1.545,2.236-1.464,2.377,2.024-1.584,2.266-1.544-1.613,2.14-1.561,2.34,1.8-.812,1.9-.667.193.223-3.109,3.661c0,0-.32.241-.668.545-.28.834-3.5,10-10.591,13.058-6.534.941-3.8-8.49-3.8-8.49" transform="translate(-97.605 -770.103)" fill="#f2bf9d"/>
            <path id="Trazado_231012" data-name="Trazado 231012" d="M62.564,1048.753l0-.033a15.088,15.088,0,0,0-2.036-.174l-.024.026c-2.812,2.95-6.289.226-6.29.225-1.323.11-2.391.225-2.867.279l-.29.009s-4.274,4.125-5.4,8.592c0,0-6.537,18.937,6.082,22.269s13.472-2.221,13.472-2.221,5-3.273,6.2-7.657-3.964-17.146-8.846-21.314" transform="translate(-34.292 -810.899)" fill="#3e79b7"/>
            <path id="Trazado_231013" data-name="Trazado 231013" d="M95.358,1148.3a2.244,2.244,0,0,0-.555-1.231,1.492,1.492,0,0,0-1.3-.38,3.031,3.031,0,0,0-1.213.53,6.691,6.691,0,0,0-.986.85,9.652,9.652,0,0,0-.684.781A6.594,6.594,0,0,0,89,1147.26a11.629,11.629,0,0,0-2.185-1.191,17.79,17.79,0,0,0-2.334-.8,19.187,19.187,0,0,0-2.4-.483,24.315,24.315,0,0,1,2.353.663,21.018,21.018,0,0,1,2.269.89,12.384,12.384,0,0,1,2.1,1.215,6.241,6.241,0,0,1,1.661,1.719l.145.232.165-.222a8.161,8.161,0,0,1,1.729-1.763,2.717,2.717,0,0,1,1.065-.5,1.214,1.214,0,0,1,1.041.267,2,2,0,0,1,.512,1.056,5.916,5.916,0,0,1,.1,1.257,13.881,13.881,0,0,1-.283,2.548,11.583,11.583,0,0,0,.3-1.255,11.4,11.4,0,0,0,.169-1.287,6.089,6.089,0,0,0-.046-1.312" transform="translate(-64.012 -885.329)" fill="#fff"/>
            <path id="Trazado_231014" data-name="Trazado 231014" d="M16.655,1000.752s-4.015-2.038-9.878-8.277a36.626,36.626,0,0,0-.089-4.853c-.195-.14-.371-.032-1.166,1.982a.171.171,0,0,1-.3.036c-.6-.9-2.523-3.72-2.78-3.614-.306.126,1.348,2.689,1.164,2.941s-1.736-2.29-2.043-2.1,1.185,2.457,1.083,2.583-1.757-1.89-2-1.89,1.267,2.374,1.185,2.563S.171,989.03.048,989.156s-.224.189,2.513,4.117c0,0,.279.29.576.646.149.869,1.927,10.445,8.468,14.6,6.309,1.984,5.05-7.772,5.05-7.772" transform="translate(0 -762.546)" fill="#f2bf9d"/>
            <path id="Trazado_231015" data-name="Trazado 231015" d="M792.184,1170.868c0,2.12-20.776,3.839-46.4,3.839s-46.4-1.719-46.4-3.839,20.776-3.838,46.4-3.838,46.4,1.718,46.4,3.838" transform="translate(-545.461 -902.528)" fill="#5fc3f3"/>
            <path id="Trazado_231016" data-name="Trazado 231016" d="M922.7,403.854s7.9,1.513,11.548,18.948c3.04,14.526,6.205,62.211,6.205,62.211s-12.221,2.085-12.371-.387S917.9,413.05,917.9,410.113s4.793-6.259,4.793-6.259" transform="translate(-715.896 -312.323)" fill="#1f66b2"/>
            <path id="Trazado_231017" data-name="Trazado 231017" d="M810.228,965.775l-2.7,40.69,2.616,6.082,5.98-3.664,7.54-43.808Z" transform="translate(-629.808 -746.346)" fill="#f2bf9d"/>
            <path id="Trazado_231018" data-name="Trazado 231018" d="M826.677,671.147l-31.887-3.4v96.66a4.541,4.541,0,0,0,2.973,4.3,16.392,16.392,0,0,0,10.836.1,4.533,4.533,0,0,0,3.01-3.594Z" transform="translate(-619.876 -516.407)" fill="#1f1f1f"/>
            <path id="Trazado_231019" data-name="Trazado 231019" d="M783,1147.7v7.151a1.055,1.055,0,0,1-1.04,1.069H765.679a1.218,1.218,0,0,1-.633-2.234l8.922-5.987s3.8,2.693,9.036,0" transform="translate(-596.252 -887.576)"/>
            <path id="Trazado_231020" data-name="Trazado 231020" d="M990.54,1013.285l-2.407,30.156-2.616,6.082-6.42-6.082-.461-30.554Z" transform="translate(-763.263 -783.322)" fill="#f2bf9d"/>
            <path id="Trazado_231021" data-name="Trazado 231021" d="M884.862,687.173l23.613-9.631s13.9,39.72,15.036,50.943c1.134,11.164-4.166,43.5-4.166,43.5a4.541,4.541,0,0,1-2.973,4.3,16.394,16.394,0,0,1-10.837.1,4.533,4.533,0,0,1-3.009-3.594l-.042-41.031Z" transform="translate(-690.127 -523.981)" fill="#1f1f1f"/>
            <path id="Trazado_231022" data-name="Trazado 231022" d="M980.732,1147.7v7.151a1.055,1.055,0,0,0,1.04,1.069h16.284a1.218,1.218,0,0,0,.633-2.234l-8.921-5.987s-3.8,2.693-9.036,0" transform="translate(-764.898 -887.576)"/>
            <path id="Trazado_231023" data-name="Trazado 231023" d="M798.46,382.017s-1.594-8,14.995-8,13.6,8.848,13.6,8.848l-14.212,4.173Z" transform="translate(-622.708 -289.249)" fill="#1f66b2"/>
            <path id="Trazado_231024" data-name="Trazado 231024" d="M791.692,713.955s11.451-3.958,9.892-14.6.226-2.5-.5-2.5-6.974-.631-6.974-.631l-3.292,1.836,1.953,6.884-1.257,3.409Z" transform="translate(-616.779 -536.614)"/>
            <path id="Trazado_231025" data-name="Trazado 231025" d="M785.843,403.676h27.1c.55,0,1.1-.03,1.648-.051,1.024-.038,4.111.688,5.971,10.251,2.255,11.591,11.514,55.473,7,58.951S789,478.555,784.49,472.3s-7.891-62.361,1.353-68.62" transform="translate(-608.328 -312.145)" fill="#3e79b7"/>
            <path id="Trazado_231026" data-name="Trazado 231026" d="M861.632,377.409c.022-.031.044-.059.065-.089l-.218-7.594-8.222,1.842-.678,5.893s5.362,5.275,9.052-.052" transform="translate(-664.949 -285.93)" fill="#f2bf9d"/>
            <path id="Trazado_231027" data-name="Trazado 231027" d="M862.828,375.044l-.152-5.317-8.336,2.8-.226,1.994a14.126,14.126,0,0,0,8.715.524" transform="translate(-666.145 -285.931)" fill="#ea9a63"/>
            <path id="Trazado_231028" data-name="Trazado 231028" d="M918.075,313.252c-.467,1.536.123,3.094,1.318,3.478s2.543-.549,3.011-2.086-.123-3.094-1.318-3.478-2.544.549-3.011,2.086" transform="translate(-715.906 -240.575)" fill="#ea9a63"/>
            <path id="Trazado_231029" data-name="Trazado 231029" d="M827.662,279.8a23.663,23.663,0,0,0,.742-5.814c0-.383.031-.764.064-1.146a12.8,12.8,0,0,0-.484-4.773,12.187,12.187,0,0,0-11.662-8.8,12.325,12.325,0,0,0-11.986,13.5,2.553,2.553,0,0,0-2.365.015c-1.379.782-1.726,2.851-.776,4.623s2.838,2.574,4.216,1.793a2.32,2.32,0,0,0,.512-.4c1.1,6.024,6.323,10.3,12.122,9.695a11.262,11.262,0,0,0,9.616-8.693" transform="translate(-624.455 -200.508)" fill="#f2bf9d"/>
            <path id="Trazado_231030" data-name="Trazado 231030" d="M859.529,316.1a1.08,1.08,0,0,1-.946,1.19,1.065,1.065,0,0,1-1.158-.973,1.08,1.08,0,0,1,.946-1.191,1.066,1.066,0,0,1,1.158.973" transform="translate(-668.724 -243.7)"/>
            <path id="Trazado_231031" data-name="Trazado 231031" d="M900.848,314.659a1.08,1.08,0,0,1-.946,1.19,1.065,1.065,0,0,1-1.158-.973,1.079,1.079,0,0,1,.946-1.19,1.065,1.065,0,0,1,1.158.973" transform="translate(-700.949 -242.587)"/>
            <path id="Trazado_231032" data-name="Trazado 231032" d="M869.364,351.533a6.865,6.865,0,0,0,1.622.794,5.22,5.22,0,0,0,1.75.275,4.472,4.472,0,0,0,1.719-.4,6.375,6.375,0,0,0,1.5-1.006,4.908,4.908,0,0,1-1.433,1.157,4.245,4.245,0,0,1-.865.335,4.417,4.417,0,0,1-.918.129,4.664,4.664,0,0,1-1.809-.336,5.229,5.229,0,0,1-1.569-.95" transform="translate(-678.039 -271.6)" fill="#ea9a63"/>
            <path id="Trazado_231033" data-name="Trazado 231033" d="M851.155,305.4a9.691,9.691,0,0,0-1.551-.357,5.053,5.053,0,0,0-1.48.007,4.732,4.732,0,0,0-1.408.442,14.554,14.554,0,0,0-1.392.8,3.579,3.579,0,0,1,1.081-1.33,3.393,3.393,0,0,1,1.609-.69,3.5,3.5,0,0,1,1.733.173,3.33,3.33,0,0,1,1.408.957" transform="translate(-659.291 -235.277)"/>
            <path id="Trazado_231034" data-name="Trazado 231034" d="M891.151,303.5a3.355,3.355,0,0,1,1.309-1.095,3.513,3.513,0,0,1,1.708-.348,3.375,3.375,0,0,1,1.667.524,3.564,3.564,0,0,1,1.2,1.213,14.476,14.476,0,0,0-1.461-.653,4.719,4.719,0,0,0-1.444-.3,5.075,5.075,0,0,0-1.473.143,9.731,9.731,0,0,0-1.509.513" transform="translate(-695.032 -233.591)"/>
            <path id="Trazado_231035" data-name="Trazado 231035" d="M882.711,312.02a8.6,8.6,0,0,0-.135,2.341,6.594,6.594,0,0,0,.191,1.186,3.077,3.077,0,0,0,.552,1.164c.339.344.5.45.584.747a1.078,1.078,0,0,1-.152.835,3.148,3.148,0,0,1-1.714,1.191,2.536,2.536,0,0,0,2.17-.849,1.63,1.63,0,0,0,.364-1.332,1.941,1.941,0,0,0-.708-1.082,2.924,2.924,0,0,1-.443-.882,9.937,9.937,0,0,1-.287-1.063c-.156-.734-.28-1.487-.422-2.256" transform="translate(-687.923 -241.303)" fill="#ea9a63"/>
            <path id="Trazado_231036" data-name="Trazado 231036" d="M803.489,728.455c.627-.154,1.153-.289,1.6-.411a11.672,11.672,0,0,0,.221-1.691c-1.8-.329-4.491-.724-6.484-1.005l-2.943,5.265-.448,1.213c.477.582.839,1.083.839,1.083,1.316,1.322,2.354,2.351,3.177,3.15a14.139,14.139,0,0,0,5.008-5.967c-.447-.442-.837-.823-1.112-1.09a.326.326,0,0,1,.145-.548" transform="translate(-620.379 -560.951)" fill="#f2bf9d"/>
            <path id="Trazado_231037" data-name="Trazado 231037" d="M840.193,243.337c-.031-.182-.055-.364-.077-.548a2.632,2.632,0,0,0-.415-1.07,1.269,1.269,0,0,0,.54-1.171c-.091-1.311-.925-1.033-3.464-1.41l-.088-.051a4.567,4.567,0,0,0,1.133-1.663,1.131,1.131,0,0,0-1.621-1.431,5.316,5.316,0,0,1-1.093.562,14.564,14.564,0,0,0,1.013-3.566,1.12,1.12,0,0,0-1.733-1.113,10.344,10.344,0,0,1-3.371,1.424l.014-.061a1.124,1.124,0,0,0-1.707-1.218,12.276,12.276,0,0,1-6.4,2.125,5.807,5.807,0,0,0-5.445,4.742c-1.279.171-2.1-.994-2.238.187-.1.89,1.368.609,2.117.41-.008.055-.012.088-.012.088a5.1,5.1,0,0,0-.448.4c-.813.441-1.292.367-1.53.908-.145.332.076.56.435.653-1.567,3.234-.772,8.2.056,11.505a27.111,27.111,0,0,0,2.2-5.33c1.837-5.355,5.2-4.9,5.2-4.9a13.075,13.075,0,0,0,11.631-.03c2.264.714,3.61,3.856,3.61,3.856l.939,5.883a22.188,22.188,0,0,0,.751-9.184" transform="translate(-635.569 -179.165)"/>
            <path id="Trazado_231038" data-name="Trazado 231038" d="M837.347,421.049a.694.694,0,0,0-.2-.416c.744-5.96-2.272-15.113-2.845-16.78h-.6c.274.788,3.595,10.5,2.9,16.587a.69.69,0,0,0-.59.769.679.679,0,0,0,.748.609.69.69,0,0,0,.592-.769" transform="translate(-650.223 -312.323)" fill="#fff"/>
            <path id="Trazado_231039" data-name="Trazado 231039" d="M929.638,419.985a.693.693,0,0,0-.2-.416c.642-5.147-1.519-12.675-2.49-15.707h-.6c.91,2.841,3.123,10.441,2.542,15.515a.69.69,0,0,0-.59.769.679.679,0,0,0,.748.608.689.689,0,0,0,.592-.769" transform="translate(-722.481 -312.329)" fill="#fff"/>
            <path id="Trazado_231040" data-name="Trazado 231040" d="M675.75,471.138c-8.865-11.856-18.391-28.156-16.138-32.511a121.675,121.675,0,0,1,10.1-15.58c1.414-1.869,2.92-3.752,4.492-5.573,5.424-6.286,11.628-11.848,17.5-13.62a36.251,36.251,0,0,1,1.939,3.734c2.021,4.451,4.482,11.955,1.293,17.285-4.81,8.036-17.736,16.846-17.886,19.009s19.42,32.764,19.42,32.764-3.487,5.1-7.546,7.418c-1.625.928-7.251-5.008-13.172-12.926" transform="translate(-514.187 -312.323)" fill="#1f66b2"/>
            <path id="Trazado_231041" data-name="Trazado 231041" d="M415.039,1170.868c0,2.12-12.471,3.839-27.856,3.839s-27.855-1.719-27.855-3.839,12.471-3.838,27.855-3.838,27.856,1.718,27.856,3.838" transform="translate(-280.249 -902.528)" fill="#5fc3f3"/>
            <path id="Trazado_231042" data-name="Trazado 231042" d="M428.1,1118.154l.412,11.444,4.227,2.341,2-3.743,1.006-8.884a50.739,50.739,0,0,1-7.648-1.158" transform="translate(-333.883 -864.73)" fill="#fff"/>
            <path id="Trazado_231043" data-name="Trazado 231043" d="M522.125,1118.154l-.412,11.444-4.227,2.341-2-3.743-1.006-8.884a50.74,50.74,0,0,0,7.648-1.158" transform="translate(-401.254 -864.73)" fill="#fff"/>
            <path id="Trazado_231044" data-name="Trazado 231044" d="M547.758,796.863c-.094,2.275.56,7.852.612,10.605s1.448,11.409,1.527,12.289l4.2.158c1.113-5.924.5-28.539.5-28.539l.167-.43s-5.356.774-6.957,1.812.046,1.83-.048,4.1" transform="translate(-426.699 -611.682)" fill="#f2bf9d"/>
            <path id="Trazado_231045" data-name="Trazado 231045" d="M511.514,967.878l-1.637,45.5-4.227,2.341-2-3.744-4.337-38.3Z" transform="translate(-389.424 -748.513)" fill="#f2bf9d"/>
            <path id="Trazado_231046" data-name="Trazado 231046" d="M422.528,967.878l1.637,45.5,4.228,2.341,2-3.744,4.337-38.3Z" transform="translate(-329.54 -748.513)" fill="#f2bf9d"/>
            <path id="Trazado_231047" data-name="Trazado 231047" d="M402.527,895.256l-5.91,22.356s10.378,3.254,18.46,2.418l.906-11.8,2-.878,1.307,13.1s9.843.584,16.057-1.228l-4.606-24.5Z" transform="translate(-309.332 -691.945)" fill="#9667c7"/>
            <path id="Trazado_231048" data-name="Trazado 231048" d="M462.417,717.9a45.211,45.211,0,0,0-11.582-.323c-7.533.55,3.484,4.914,3.484,4.914s3.867-.129,4.033-.162,4.065-4.429,4.065-4.429" transform="translate(-349.563 -554.799)" fill="#f2bf9d"/>
            <rect id="Rectángulo_47659" data-name="Rectángulo 47659" width="6.688" height="12.068" transform="translate(103.274 158.723)" fill="#f2bf9d"/>
            <path id="Trazado_231049" data-name="Trazado 231049" d="M310.939,731.3l-4.629,2.04-6.565-8.961-3.657,1.982,4.556,10.492a6.576,6.576,0,0,0,6.6,4.411l8.036-.543Z" transform="translate(-230.927 -560.199)" fill="#f2bf9d"/>
            <path id="Trazado_231050" data-name="Trazado 231050" d="M282.088,706.016c-.372-.325-.714-.583-.714-.583-3.531-3.675-3.433-3.76-3.324-3.914s1.979.928,2.034.714-1.928-2.459-1.669-2.5,2.335,1.8,2.422,1.651-1.857-2.289-1.564-2.541,2.346,2.164,2.5,1.866-2.012-2.718-1.709-2.9c.255-.156,2.74,2.49,3.525,3.336a.183.183,0,0,0,.313-.09c.511-2.264.68-2.408.909-2.294a39.059,39.059,0,0,1,.885,5.108l-3.605,2.157,0-.006" transform="translate(-216.83 -539.645)" fill="#f2bf9d"/>
            <path id="Trazado_231051" data-name="Trazado 231051" d="M558.587,917.185c.184.464.371.856.371.856,1.48,4.937,1.356,4.965,1.19,5.05s-1.338-1.763-1.483-1.6.6,3.1.356,3.011-1.261-2.707-1.406-2.615.619,2.912.246,3-1.109-3.034-1.378-2.842.563,3.366.211,3.387c-.3.018-1.312-3.51-1.627-4.634a.183.183,0,0,0-.318-.069c-1.471,1.765-1.685,1.813-1.836,1.6a38.916,38.916,0,0,1,1.51-4.951l4.167-.2v.006" transform="translate(-431.223 -709.305)" fill="#f2bf9d"/>
            <path id="Trazado_231052" data-name="Trazado 231052" d="M469.318,695.372v-4.116h6.676v3.5c-1.437.794-3.565,1.251-6.676.614" transform="translate(-366.033 -534.586)" fill="#ea9a63"/>
            <path id="Trazado_231053" data-name="Trazado 231053" d="M416.694,595.593a2.417,2.417,0,0,1,2.237.091,11.893,11.893,0,1,1,23.776,0,2.417,2.417,0,0,1,2.237-.091c1.336.678,1.752,2.62.928,4.338s-2.576,2.561-3.912,1.883a2.2,2.2,0,0,1-.5-.353c-.766,5.6-5.309,9.8-10.64,9.72-5.331.078-9.874-4.12-10.64-9.72a2.189,2.189,0,0,1-.5.353c-1.336.678-3.088-.165-3.912-1.883s-.409-3.66.928-4.338" transform="translate(-323.937 -451.211)" fill="#f2bf9d"/>
            <path id="Trazado_231054" data-name="Trazado 231054" d="M499.311,644.741a1,1,0,1,0,1.054-.971,1.019,1.019,0,0,0-1.054.971" transform="translate(-389.424 -497.861)"/>
            <path id="Trazado_231055" data-name="Trazado 231055" d="M460.173,645.162a1,1,0,1,0,1.054-.971,1.019,1.019,0,0,0-1.054.971" transform="translate(-358.899 -498.187)"/>
            <path id="Trazado_231056" data-name="Trazado 231056" d="M494.328,634.577a9.17,9.17,0,0,1,1.452-.4,4.8,4.8,0,0,1,1.4-.059,4.472,4.472,0,0,1,1.35.355,4.08,4.08,0,0,1,.668.314c.225.116.433.263.682.378a4.528,4.528,0,0,0-.463-.668,3.652,3.652,0,0,0-.615-.543,3.2,3.2,0,0,0-1.551-.582,3.318,3.318,0,0,0-1.632.241,3.158,3.158,0,0,0-1.291.969" transform="translate(-385.539 -489.803)"/>
            <path id="Trazado_231057" data-name="Trazado 231057" d="M456.316,634.44a3.16,3.16,0,0,0-1.283-.979,3.316,3.316,0,0,0-1.63-.254,3.2,3.2,0,0,0-1.556.57,3.639,3.639,0,0,0-.619.538,4.512,4.512,0,0,0-.467.665c.25-.113.46-.258.685-.372a4.118,4.118,0,0,1,.67-.309,4.463,4.463,0,0,1,1.353-.344,4.807,4.807,0,0,1,1.4.07,9.226,9.226,0,0,1,1.449.416" transform="translate(-351.559 -489.682)"/>
            <path id="Trazado_231058" data-name="Trazado 231058" d="M483.542,641.849a5.939,5.939,0,0,0,.086,1.617,4.576,4.576,0,0,0,.221.8,2.111,2.111,0,0,0,.468.754c.262.21.38.27.458.466a.745.745,0,0,1-.04.585,2.193,2.193,0,0,1-1.086.956,1.765,1.765,0,0,0,1.425-.758,1.132,1.132,0,0,0,.148-.944,1.351,1.351,0,0,0-.568-.686,2,2,0,0,1-.371-.569,6.839,6.839,0,0,1-.278-.707c-.163-.491-.305-1-.461-1.514" transform="translate(-377.11 -496.377)" fill="#ea9a63"/>
            <path id="Trazado_231059" data-name="Trazado 231059" d="M387.98,716.967l6.542,1.164a8.2,8.2,0,0,1,5.246,3.35l6.2,12.783-9.1,5.236,1.512,22.339s-20.215,5.245-32.5-.388l1.7-30.692-7.746,7.382s-6.423-7.576-6.99-12.821l14.358-7.576,9.446-.971s5.479,6.216,11.335.194" transform="translate(-275.189 -554.32)" fill="#448bef"/>
            <path id="Trazado_231060" data-name="Trazado 231060" d="M444.569,767.72l-1.511-22.34-1.2-7-1.843-13.426-5.776-.581s-5.438,5.458-11.915,0l-6.937,1.405-2.045,18.635-1.27,22.916s8.826,5.619,32.5.388" transform="translate(-321.387 -560.199)" fill="#2b7ced"/>
            <path id="Trazado_231061" data-name="Trazado 231061" d="M548.615,793.176c-.09-1.186-.265-2.357-.46-3.524s-.428-2.327-.738-3.473c.089,1.186.264,2.357.46,3.524s.429,2.327.738,3.473" transform="translate(-426.945 -607.996)" fill="#266dd1"/>
            <path id="Trazado_231062" data-name="Trazado 231062" d="M472.422,669.764a7.611,7.611,0,0,1-1.772.931,5.8,5.8,0,0,1-1.929.361,4.957,4.957,0,0,1-1.915-.386,7.055,7.055,0,0,1-1.694-1.066,5.418,5.418,0,0,0,1.621,1.235,4.7,4.7,0,0,0,.968.344,4.919,4.919,0,0,0,1.02.114,5.174,5.174,0,0,0,1.992-.429,5.8,5.8,0,0,0,1.708-1.1" transform="translate(-362.754 -517.841)" fill="#ea9a63"/>
            <path id="Trazado_231063" data-name="Trazado 231063" d="M425.8,618.923v3.194a1.916,1.916,0,0,1,1.967,1.322s1.841-.887,1.8-3.878-3.766-.638-3.766-.638" transform="translate(-332.093 -477.968)"/>
            <path id="Trazado_231064" data-name="Trazado 231064" d="M531.913,618.923v3.194a1.916,1.916,0,0,0-1.967,1.322s-1.841-.887-1.8-3.878,3.766-.638,3.766-.638" transform="translate(-411.915 -477.968)"/>
            <path id="Trazado_231065" data-name="Trazado 231065" d="M436.014,574.243,432.58,562.76a98.688,98.688,0,0,0-9.841-.857,98.684,98.684,0,0,0-9.841.857l-3.433,11.482-4.548,3.643a118.9,118.9,0,0,1,35.646,0Z" transform="translate(-315.804 -434.551)" fill="#3e79b7"/>
            <path id="Trazado_231066" data-name="Trazado 231066" d="M409.463,612.538l-4.548,3.643a118.9,118.9,0,0,1,35.646,0l-4.548-3.643c-20.24-2.512-26.549,0-26.549,0" transform="translate(-315.804 -472.846)" fill="#1f66b2"/>
            <path id="Trazado_231067" data-name="Trazado 231067" d="M518.591,1158.239v5.072a.748.748,0,0,0,.738.758h11.55a.864.864,0,0,0,.449-1.584l-6.321-4.246a6.342,6.342,0,0,1-6.416,0" transform="translate(-404.462 -895.73)"/>
            <path id="Trazado_231068" data-name="Trazado 231068" d="M412.189,1158.239v5.072a.748.748,0,0,1-.738.758H399.9a.864.864,0,0,1-.449-1.584l6.328-4.246a6.327,6.327,0,0,0,6.409,0" transform="translate(-311.24 -895.73)"/>
            <path id="Trazado_231069" data-name="Trazado 231069" d="M1268.1,1170.868c0,2.12-24.56,3.839-54.857,3.839s-54.858-1.719-54.858-3.839,24.561-3.838,54.858-3.838,54.857,1.718,54.857,3.838" transform="translate(-903.454 -902.528)" fill="#5fc3f3"/>
            <path id="Trazado_231070" data-name="Trazado 231070" d="M1474,1136.091v7.546a1.113,1.113,0,0,0,1.1,1.128h17.183a1.284,1.284,0,0,0,.668-2.356l-9.414-6.318s-4.008,2.841-9.535,0" transform="translate(-1149.614 -878.601)"/>
            <path id="Trazado_231071" data-name="Trazado 231071" d="M1232.637,1136.091v7.546a1.113,1.113,0,0,1-1.1,1.128h-17.183a1.284,1.284,0,0,1-.669-2.356l9.414-6.318s4.008,2.841,9.535,0" transform="translate(-946.136 -878.601)"/>
            <path id="Trazado_231072" data-name="Trazado 231072" d="M1728.132,272.935s-1.824,1.665-1.824,2.468-1.562,8.347-1.562,11.732,9.478,6.019,9.478,6.019l2.423-6.012s-1.3-11.338-1.467-11.338-7.047-2.87-7.047-2.87" transform="translate(-1345.174 -211.076)" fill="#f2bf9d"/>
            <path id="Trazado_231073" data-name="Trazado 231073" d="M1461.377,548.519c-8.937,11.372-26.8,27.777-26.8,27.777l8.684,107.527s8.553,1.521,12.652-1.155c0,0,6.043-102.234,5.46-134.149" transform="translate(-1118.867 -424.2)" fill="#2e2e2e"/>
            <path id="Trazado_231074" data-name="Trazado 231074" d="M1307.794,528.692c-.029-1.612,3.452,3.141,3.386,1.854-1.366-26.767-44.743-4.324-44.743-4.324l-10.588,9.369L1242,659.57s6.976,3,13.211.973l29.172-106.958s9.542-3.46,23.415-24.894" transform="translate(-968.665 -400.146)" fill="#2e2e2e"/>
            <path id="Trazado_231075" data-name="Trazado 231075" d="M1380.971,167.808l-.049,12.339,11.657-1.848-1.945-13.875Z" transform="translate(-1077.016 -127.159)" fill="#f2bf9d"/>
            <path id="Trazado_231076" data-name="Trazado 231076" d="M1391.649,170.812l-.9-6.388-9.674,4.553-.005,2.436a17.132,17.132,0,0,0,10.575-.6" transform="translate(-1077.135 -127.159)" fill="#ea9a63"/>
            <path id="Trazado_231077" data-name="Trazado 231077" d="M1446.493,64.846l.7,8.468-1.3.842-2.405-10.311Z" transform="translate(-1125.816 -49.374)"/>
            <path id="Trazado_231078" data-name="Trazado 231078" d="M1448.9,91.595c-.358,1.918.562,3.712,2.054,4.006s2.992-1.022,3.35-2.94-.562-3.712-2.054-4.006-2.993,1.022-3.35,2.94" transform="translate(-1129.978 -68.53)" fill="#ea9a63"/>
            <path id="Trazado_231079" data-name="Trazado 231079" d="M1340.709,59.606a15.114,15.114,0,0,0,.611-2.648,28.728,28.728,0,0,0,.116-7.113c-.045-.462-.065-.926-.076-1.39a15.465,15.465,0,0,0-1.223-5.684,14.673,14.673,0,0,0-15.234-8.954,15.061,15.061,0,0,0-12.641,17.963,3.1,3.1,0,0,0-2.848.352c-1.557,1.137-1.7,3.681-.316,5.682s3.765,2.7,5.322,1.565a2.84,2.84,0,0,0,.563-.552c2.13,7.105,9,11.515,15.909,9.97a13.176,13.176,0,0,0,8.039-5.56,6.673,6.673,0,0,0,.4-.57,13.267,13.267,0,0,0,1.381-3.06" transform="translate(-1020.257 -26.065)" fill="#f2bf9d"/>
            <path id="Trazado_231080" data-name="Trazado 231080" d="M1377.778,103.838a1.319,1.319,0,0,1-.981,1.569,1.283,1.283,0,0,1-1.526-1.008,1.319,1.319,0,0,1,.981-1.569,1.283,1.283,0,0,1,1.526,1.009" transform="translate(-1072.586 -79.5)"/>
            <path id="Trazado_231081" data-name="Trazado 231081" d="M1427.381,96.425a1.319,1.319,0,0,1-.981,1.569,1.282,1.282,0,0,1-1.525-1.008,1.318,1.318,0,0,1,.98-1.569,1.283,1.283,0,0,1,1.526,1.009" transform="translate(-1111.273 -73.768)"/>
            <path id="Trazado_231082" data-name="Trazado 231082" d="M1366.7,90.965a11.707,11.707,0,0,0-1.917-.211,6.158,6.158,0,0,0-1.782.218,5.78,5.78,0,0,0-1.638.732l-.2.118c-.067.041-.124.095-.19.139l-.39.281c-.261.194-.5.424-.788.621a5.882,5.882,0,0,1,.454-.941,4.776,4.776,0,0,1,.671-.814,4.147,4.147,0,0,1,1.847-1.06,4.251,4.251,0,0,1,2.112-.036,4.008,4.008,0,0,1,1.825.954" transform="translate(-1060.536 -69.522)"/>
            <path id="Trazado_231083" data-name="Trazado 231083" d="M1414.354,83.387a4.108,4.108,0,0,1,1.432-1.5,4.277,4.277,0,0,1,2.012-.662,4.077,4.077,0,0,1,2.08.4,4.628,4.628,0,0,1,.889.55,5.738,5.738,0,0,1,.724.742c-.339-.091-.632-.231-.94-.329l-.457-.138c-.076-.02-.147-.052-.223-.069l-.228-.045a5.7,5.7,0,0,0-1.78-.153,6.189,6.189,0,0,0-1.757.381,11.857,11.857,0,0,0-1.75.831" transform="translate(-1103.091 -62.806)"/>
            <path id="Trazado_231084" data-name="Trazado 231084" d="M1405.137,91.742a10.426,10.426,0,0,0,.151,2.84,8,8,0,0,0,.388,1.4,3.7,3.7,0,0,0,.821,1.325c.458.369.667.472.8.818a1.31,1.31,0,0,1-.071,1.027,3.851,3.851,0,0,1-1.907,1.679,3.1,3.1,0,0,0,2.5-1.33,1.987,1.987,0,0,0,.26-1.657,2.381,2.381,0,0,0-1-1.2,3.528,3.528,0,0,1-.652-1,12.075,12.075,0,0,1-.488-1.241c-.286-.862-.536-1.753-.81-2.659" transform="translate(-1095.872 -70.95)" fill="#ea9a63"/>
            <path id="Trazado_231085" data-name="Trazado 231085" d="M1365.438,212.753h-7.631c-5.709,5.893-11.248,0-11.248,0h-5.12s-13.554,73.223,5.993,76.893,29.807-2.836,29.807-2.836V252.45Z" transform="translate(-1042.654 -164.534)" fill="#dbe9ff"/>
            <path id="Trazado_231086" data-name="Trazado 231086" d="M1466.7,212.753s5.759.334,15.817,12.843,16.221,41.532,26.766,31.024,14.113-15.846,14.113-15.846,6,2,9.571,5.838c0,0-18.493,35.027-27.09,36.862s-27.374-16.179-27.374-16.179Z" transform="translate(-1143.921 -164.534)" fill="#7bbc2c"/>
            <path id="Trazado_231087" data-name="Trazado 231087" d="M1233.558,212.753s-21.412,3.5-23.359,6.755-20.051,64.228-6.912,89.5c0,0,6.843,2.323,13.2.322v6.755s16.581,4.253,28.017,0c0,0,.973-80.812-10.95-103.33" transform="translate(-934.773 -164.534)" fill="#95c955"/>
            <path id="Trazado_231088" data-name="Trazado 231088" d="M1466.7,212.753s10.95,83.565,7.787,100.328c0,0,9.976.751,15.816-1.5,0,0,.486-93.573-23.6-98.827" transform="translate(-1143.921 -164.534)" fill="#95c955"/>
            <path id="Trazado_231089" data-name="Trazado 231089" d="M1331.644,212.753l-7.34,11.74,18.29,91.59s.973-80.812-10.95-103.33" transform="translate(-1032.859 -164.534)" fill="#7bbc2c"/>
            <path id="Trazado_231090" data-name="Trazado 231090" d="M1475.454,222.778l-8.75-10.026s10.95,83.565,7.787,100.328c7.406-18.3.963-90.3.963-90.3" transform="translate(-1143.921 -164.533)" fill="#7bbc2c"/>
            <path id="Trazado_231091" data-name="Trazado 231091" d="M1363.079,590.8l-.559-2.319a1.9,1.9,0,0,0-2.3-1.427,1.959,1.959,0,0,0-1.388,2.368l2.367,9.815a1.9,1.9,0,0,0,2.3,1.427,1.959,1.959,0,0,0,1.388-2.368l-.559-2.319a1.107,1.107,0,0,0,.784-1.339l-.731-3.031a1.073,1.073,0,0,0-1.3-.807" transform="translate(-1059.742 -453.958)" fill="#fff"/>
            <path id="Trazado_231092" data-name="Trazado 231092" d="M1197.7,581.937l-40.05,10.21a3.115,3.115,0,0,1-3.777-2.344l-6.236-25.86a3.219,3.219,0,0,1,2.278-3.892l40.05-10.21a3.114,3.114,0,0,1,3.777,2.344l6.236,25.86a3.219,3.219,0,0,1-2.278,3.893" transform="translate(-895.002 -425.149)"/>
            <path id="Trazado_231093" data-name="Trazado 231093" d="M1237.478,639l-2.887.742s-2.3.173-2.385.151-2.554-.093-2.554-.093l-4.037-.771c.594,2.682,2.888,12.22,3.215,12.211.374-.01.76-4.453,1.17-4.3s1.781,6.119,2.146,5.723-.249-6.064.1-6.041,1.585,5.8,2.329,5.59-.822-6.5-.164-6.419,2.1,6.559,2.753,6.253c.545-.258-.9-7.547-1.375-9.86a.377.377,0,0,1,.5-.434c4.256,1.714,4.683,1.591,4.759,1.068a25.818,25.818,0,0,0-3.567-3.816" transform="translate(-955.888 -494.177)" fill="#f2bf9d"/>
            <path id="Trazado_231094" data-name="Trazado 231094" d="M1201.242,553.78s1.892,13.171,4.151,14.892c0,0,7,2.318,13.418.471v-6.507l.148-14.117h-9.8Z" transform="translate(-936.88 -424.2)" fill="#3e79b7"/>
            <path id="Trazado_231095" data-name="Trazado 231095" d="M1242.9,350.936l-.5,2.06c-.166.687-.307,1.38-.462,2.069l-.227,1.036-.211,1.039c-.139.693-.284,1.385-.414,2.08q-.784,4.169-1.4,8.37t-1.07,8.42q-.919,8.439-1.343,16.922c-.278,5.6-.44,11.21-.38,16.823a10.457,10.457,0,0,1-2.775.752,18.631,18.631,0,0,1-3.048.158,28.947,28.947,0,0,1-3.059-.239c-1.016-.133-2.03-.3-3.032-.524a29.764,29.764,0,0,0,3.013.663,29.22,29.22,0,0,0,3.068.35,18.929,18.929,0,0,0,3.1-.052,10.253,10.253,0,0,0,3.039-.757l.125-.054,0-.15c.082-5.644.318-11.292.651-16.928s.787-11.266,1.366-16.88c.3-2.805.626-5.609,1-8.406s.79-5.587,1.266-8.367,1-5.55,1.6-8.308,1.285-5.491,2.042-8.21c-.892,2.675-1.65,5.4-2.349,8.134" transform="translate(-955.392 -265.108)" fill="#fff"/>
            <path id="Trazado_231096" data-name="Trazado 231096" d="M1397.324,146.2a7.662,7.662,0,0,0,1.868.771,5.857,5.857,0,0,0,1.976.183,5.028,5.028,0,0,0,1.9-.569,7.182,7.182,0,0,0,1.612-1.233,5.522,5.522,0,0,1-1.525,1.4,4.778,4.778,0,0,1-.945.437,5,5,0,0,1-1.018.211,5.221,5.221,0,0,1-2.046-.246,5.839,5.839,0,0,1-1.819-.951" transform="translate(-1089.809 -112.411)" fill="#ea9a63"/>
            <path id="Trazado_231097" data-name="Trazado 231097" d="M1737.072,265.567l-8.418-1.787a1.047,1.047,0,0,1-.79-1.237l3.633-18.091a1.017,1.017,0,0,1,1.2-.813l8.418,1.787a1.047,1.047,0,0,1,.79,1.238l-3.633,18.091a1.018,1.018,0,0,1-1.2.813" transform="translate(-1347.589 -188.402)"/>
            <g id="Grupo_158406" data-name="Grupo 158406" transform="translate(381.186 55.913)" opacity="0.1">
              <g id="Grupo_158405" data-name="Grupo 158405">
                <g id="Grupo_158404" data-name="Grupo 158404" clip-path="url(#clip-path-14)">
                  <path id="Trazado_231098" data-name="Trazado 231098" d="M1740.158,266.052l-7.27-1.544a1.046,1.046,0,0,1-.791-1.238l3.159-15.732a1.017,1.017,0,0,1,1.2-.813l7.27,1.544a1.047,1.047,0,0,1,.79,1.237l-3.16,15.732a1.017,1.017,0,0,1-1.2.813" transform="translate(-1732.077 -246.703)" fill="#fff"/>
                </g>
              </g>
            </g>
            <path id="Trazado_231099" data-name="Trazado 231099" d="M1765.229,272.44c-1.215-.9-3.791-2.732-4.334-2.422-.716.41,3.081,3.633,2.795,3.837s-4.55-1.281-4.666-.728c-.1.495,3.927,2.576,3.884,2.874s-4.093-.422-4.324.073c-.209.447,3.858,1.82,3.879,2.017.177,1.655-4.3,1-4.389,1.546-.062.391,2.911,1.01,4.616,1.332l-.682,3.394.632.5,3.083-11.148a1.3,1.3,0,0,0-.493-1.273" transform="translate(-1371.166 -208.793)" fill="#f2bf9d"/>
            <path id="Trazado_231100" data-name="Trazado 231100" d="M1309.367,76.1a10.179,10.179,0,0,0,6.318,2.129,11.743,11.743,0,0,0,2.783-.338q.031-.507.053-1a9.541,9.541,0,0,1-9.212-2.085q.016.632.059,1.294" transform="translate(-1021.163 -57.853)" fill="#f2bf9d"/>
            <path id="Trazado_231101" data-name="Trazado 231101" d="M1318.683,61.763c-.008-.333-.025-.658-.05-.973-1,.2-6.026.964-9.034-2.836-.049.426-.089.862-.116,1.314a9.659,9.659,0,0,0,7.017,2.68,12.636,12.636,0,0,0,2.183-.186" transform="translate(-1021.3 -44.819)" fill="#f2bf9d"/>
            <path id="Trazado_231102" data-name="Trazado 231102" d="M1310.5,25.928h0a.715.715,0,0,0,.123-.081,2.835,2.835,0,0,1,2.5-.131,3.834,3.834,0,0,1,1.665,1.889,9.039,9.039,0,0,0,3.393,1.641c-.458-4.7.686-10.054.213-13.855l.013-.019s13.771,4.652,11.26.794c0,0,16.048,4.15,12.158-3.329,0,0,5.915-.915-1.562-6.4,0,0,4.326-.857-1-3.542S1302.691-8.186,1310.5,25.928Z" transform="translate(-1021.121 -0.002)"/>
            <path id="Trazado_231103" data-name="Trazado 231103" d="M1599.277,1238.868c0,2.12-18.437,3.838-41.181,3.838s-41.181-1.719-41.181-3.838,18.437-3.838,41.181-3.838,41.181,1.718,41.181,3.838" transform="translate(-1183.081 -955.116)" fill="#5fc3f3"/>
            <path id="Trazado_231104" data-name="Trazado 231104" d="M1732.589,1218.7v6.558a.967.967,0,0,0,.953.98h14.934a1.116,1.116,0,0,0,.58-2.048l-8.181-5.491s-3.483,2.47-8.286,0" transform="translate(-1351.291 -942.489)"/>
            <path id="Trazado_231105" data-name="Trazado 231105" d="M1607.66,1218.7v6.558a.968.968,0,0,0,.954.98h14.933a1.116,1.116,0,0,0,.581-2.048l-8.181-5.491s-3.483,2.47-8.287,0" transform="translate(-1253.855 -942.489)"/>
            <path id="Trazado_231106" data-name="Trazado 231106" d="M1800.436,245.541c-.754,2.105-.036,4.315,1.6,4.935s3.577-.585,4.331-2.69.036-4.315-1.6-4.935-3.577.584-4.33,2.69" transform="translate(-1403.973 -187.684)" fill="#ea9a63"/>
            <path id="Trazado_231107" data-name="Trazado 231107" d="M1669.7,309.041s-1.394,13.538-3.787,17.385c0,0,6.994,9.66,16.25,3.822,0,0,1.185-11.508,2.78-14.072s-15.243-7.135-15.243-7.135" transform="translate(-1299.291 -238.999)" fill="#f2bf9d"/>
            <path id="Trazado_231108" data-name="Trazado 231108" d="M1680,309.041s-.308,2.992-.883,6.563a15.1,15.1,0,0,0,10.457,6.075,14.543,14.543,0,0,0,4.129-.141,19.4,19.4,0,0,1,1.54-5.362c1.6-2.564-15.243-7.135-15.243-7.135" transform="translate(-1309.583 -238.999)" fill="#ea9a63"/>
            <path id="Trazado_231109" data-name="Trazado 231109" d="M1673.882,195.933a32.943,32.943,0,0,0,1.422-8.04c.032-.533.095-1.062.166-1.59a17.843,17.843,0,0,0-.354-6.678,16.846,16.846,0,0,0-33.231,4.864,3.558,3.558,0,0,0-3.292-.147c-1.971.99-2.593,3.847-1.389,6.38s3.777,3.785,5.749,2.794a3.221,3.221,0,0,0,.739-.518c1.126,8.462,8.112,14.778,16.223,14.353a15.62,15.62,0,0,0,13.967-11.419" transform="translate(-1276.419 -128.794)" fill="#f2bf9d"/>
            <g id="Grupo_158409" data-name="Grupo 158409" transform="translate(374.985 52.071)" opacity="0.3">
              <g id="Grupo_158408" data-name="Grupo 158408">
                <g id="Grupo_158407" data-name="Grupo 158407" clip-path="url(#clip-path-15)">
                  <path id="Trazado_231110" data-name="Trazado 231110" d="M1709.238,229.751l-5.335,6.657,1.785,1.791,5.335-7.434Z" transform="translate(-1703.902 -229.751)" fill="#fff"/>
                </g>
              </g>
            </g>
            <g id="Grupo_158412" data-name="Grupo 158412" transform="translate(377.271 53.735)" opacity="0.3">
              <g id="Grupo_158411" data-name="Grupo 158411">
                <g id="Grupo_158410" data-name="Grupo 158410" clip-path="url(#clip-path-16)">
                  <path id="Trazado_231111" data-name="Trazado 231111" d="M1719.517,237.089s-5.2,6.986-5.226,7.076l.348.354,5.335-6.973Z" transform="translate(-1714.29 -237.089)" fill="#fff"/>
                </g>
              </g>
            </g>
            <g id="Grupo_158415" data-name="Grupo 158415" transform="translate(374.69 52.253)" opacity="0.3">
              <g id="Grupo_158414" data-name="Grupo 158414">
                <g id="Grupo_158413" data-name="Grupo 158413" clip-path="url(#clip-path-17)">
                  <path id="Trazado_231112" data-name="Trazado 231112" d="M1711.229,235a4.335,4.335,0,1,1-4.333-4.456,4.4,4.4,0,0,1,4.333,4.456" transform="translate(-1702.562 -230.548)" fill="#fff"/>
                </g>
              </g>
            </g>
            <path id="Trazado_231113" data-name="Trazado 231113" d="M1726.591,245.9a1.474,1.474,0,1,1-1.547-1.436,1.5,1.5,0,0,1,1.547,1.436" transform="translate(-1344.316 -189.056)"/>
            <path id="Trazado_231114" data-name="Trazado 231114" d="M1776.878,245.946a1.474,1.474,0,1,1-1.546-1.436,1.5,1.5,0,0,1,1.546,1.436" transform="translate(-1383.536 -189.092)"/>
            <path id="Trazado_231115" data-name="Trazado 231115" d="M1708.127,222.061a15.048,15.048,0,0,0-2.147-.565,7.307,7.307,0,0,0-2.043-.082,6.8,6.8,0,0,0-1.975.5l-.25.091c-.083.032-.159.081-.241.118-.161.08-.327.158-.5.234-.335.163-.647.372-1.022.531a6.343,6.343,0,0,1,.669-1c.138-.145.28-.289.428-.43a2.6,2.6,0,0,1,.477-.381,4.674,4.674,0,0,1,2.3-.864,4.844,4.844,0,0,1,2.418.377,4.536,4.536,0,0,1,1.883,1.473" transform="translate(-1325.836 -170.282)"/>
            <path id="Trazado_231116" data-name="Trazado 231116" d="M1764.073,222.061a4.539,4.539,0,0,1,1.884-1.473,4.844,4.844,0,0,1,2.417-.377,4.672,4.672,0,0,1,2.3.864,2.591,2.591,0,0,1,.477.381c.147.141.29.285.428.43a6.315,6.315,0,0,1,.669,1c-.375-.159-.687-.369-1.022-.531-.17-.076-.336-.154-.5-.234-.082-.037-.158-.086-.241-.118l-.25-.091a6.8,6.8,0,0,0-1.975-.5,7.3,7.3,0,0,0-2.042.082,15.052,15.052,0,0,0-2.147.565" transform="translate(-1375.846 -170.282)"/>
            <path id="Trazado_231117" data-name="Trazado 231117" d="M1664.46,244.6c-1-5.374,2.069-6.262,3.038-4.971s-.294,11.778,4.736,11.353c3.158-.267,6.99-2.082,13.131-1.411,5.033.551,9.081,3.023,11.041-1.814,0,0,2.679,16.548-14.7,16.592-17.6.045-17.247-19.75-17.247-19.75" transform="translate(-1298.001 -184.91)"/>
            <path id="Trazado_231118" data-name="Trazado 231118" d="M1730.7,295.259c3.064,1.436,8.531.529,9.2,0a6.8,6.8,0,0,1-2.072,1.509,5.9,5.9,0,0,1-1.226.405,6.21,6.21,0,0,1-1.287.115,6.516,6.516,0,0,1-2.5-.6,7.314,7.314,0,0,1-2.12-1.434" transform="translate(-1349.814 -228.34)" fill="#fff"/>
            <path id="Trazado_231119" data-name="Trazado 231119" d="M1673.3,228.549a4.848,4.848,0,0,0-4.774,4.909,4.972,4.972,0,0,0,.782,2.685.866.866,0,0,0-.683.9.939.939,0,0,0,.023.155c-1.867,1.106-3.526,1.352-4.937.728-2.887-1.276-4.1-5.433-4.113-5.478l-.3-.146c.038.192,1.267,4.562,4.3,5.9a4.244,4.244,0,0,0,1.734.362,6.878,6.878,0,0,0,3.437-1.091.84.84,0,0,0,.751.4.851.851,0,0,0,.764-.611,4.672,4.672,0,0,0,3.019,1.11,4.911,4.911,0,0,0,0-9.818m0,9.213a4.306,4.306,0,1,1,4.186-4.3,4.251,4.251,0,0,1-4.186,4.3" transform="translate(-1294.131 -176.75)"/>
            <path id="Trazado_231120" data-name="Trazado 231120" d="M1752.923,229.751a13.994,13.994,0,0,0,.2,3.8,10.737,10.737,0,0,0,.52,1.879,4.963,4.963,0,0,0,1.1,1.775c.6.489.89.626,1.077,1.1a1.755,1.755,0,0,1-.1,1.376,5.159,5.159,0,0,1-2.554,2.249,4.15,4.15,0,0,0,3.352-1.782,2.66,2.66,0,0,0,.349-2.22,3.187,3.187,0,0,0-1.337-1.614,4.708,4.708,0,0,1-.874-1.34,16.255,16.255,0,0,1-.654-1.663c-.383-1.155-.718-2.348-1.086-3.562" transform="translate(-1367.11 -177.679)" fill="#ea9a63"/>
            <path id="Trazado_231121" data-name="Trazado 231121" d="M1709.769,723.661c-8.771,9.519-26.97-.109-26.97-.109l2.987,44.435,7.562,68.82s7.039,1.379,11.062-.862c0,0,5.931-85.57,5.359-112.284" transform="translate(-1312.459 -559.563)" fill="#0c50b3"/>
            <path id="Trazado_231122" data-name="Trazado 231122" d="M1563.264,711.263a25.3,25.3,0,0,1,1.161-4.913c.452,0,18.954-2.63,20.007-2.475s26.561,5.5,26.561,5.5-15.62,17.851-28.612,21.876c-1.256,35.6-4.99,89.474-4.99,89.474-4.022,2.24-11.062.862-11.062.862l-7.562-68.82-2.987-44.434a44.222,44.222,0,0,0,7.483,2.933" transform="translate(-1213.393 -544.34)" fill="#2763bb"/>
            <path id="Trazado_231123" data-name="Trazado 231123" d="M1835.372,721.382a.426.426,0,0,1,.5-.561c4.983,1.242,5.439,1.038,5.446.445,0-.344-3.693-3.1-7-5.494l.026.045-4.078,2.64s-5.587,2.418-5.723,2.467l-.01.006c.08.416.125.689.125.689,3.645,11.1,3.91,10.985,4.325,10.915s.189-5.068.666-4.966,2.882,6.523,3.229,6.027-1.171-6.7-.785-6.729,2.618,6.2,3.414,5.85-1.872-7.094-1.13-7.109,3.307,6.962,3.982,6.52c.568-.372-2.115-8.248-2.983-10.745" transform="translate(-1422.996 -553.546)" fill="#f2bf9d"/>
            <path id="Trazado_231124" data-name="Trazado 231124" d="M1771.489,361.335s13.978,3.344,16.615,31.818,5.011,42.3,8.176,47.184c0,0,0,3.5-15.032,8.163,0,0-4.483-8.706-4.747-10.333s-2.374-58.845-2.374-58.845Z" transform="translate(-1381.63 -279.44)" fill="#4589ee"/>
            <path id="Trazado_231125" data-name="Trazado 231125" d="M1674.288,361.335H1646.86s5.978,24.044,15.824,22.056,12.445-16.319,12.445-16.319Z" transform="translate(-1284.429 -279.44)" fill="#fff"/>
            <g id="Grupo_158418" data-name="Grupo 158418" transform="translate(371.558 87.029)" style="mix-blend-mode: multiply;isolation: isolate">
              <g id="Grupo_158417" data-name="Grupo 158417">
                <g id="Grupo_158416" data-name="Grupo 158416" clip-path="url(#clip-path-18)">
                  <path id="Trazado_231126" data-name="Trazado 231126" d="M1688.325,388.961l6.4-4.972,6.549,4.972-5.551,9.4s-3.244,0-3.306-.449-4.087-8.659-4.087-8.659Z" transform="translate(-1688.326 -383.989)" fill="#fff"/>
                </g>
              </g>
            </g>
            <path id="Trazado_231127" data-name="Trazado 231127" d="M1699.952,407.428l3.156-8.723h1.753l2.8,9.433-3.275,6.409Z" transform="translate(-1325.836 -308.341)" fill="#8b42db"/>
            <path id="Trazado_231128" data-name="Trazado 231128" d="M1646.86,361.335h4.019s6.011,14.05,11.75,18.925a54.26,54.26,0,0,0,8.858-18.925h2.8v20.207s-5.17,12.058-8.539,10.134-7.361-.9-9.606-6.414-4.663-6.414-5.263-10.134a35.361,35.361,0,0,0-2.173-7.825c-.922-2.565-1.846-5.968-1.846-5.968" transform="translate(-1284.429 -279.44)" fill="#0049b3"/>
            <path id="Trazado_231129" data-name="Trazado 231129" d="M1594.117,361.335a33.438,33.438,0,0,1,10.9,27.841c-1.406,18.078-4.2,47.52-2.794,53.666,1.327,5.8-24.465,9.367-51.316,3.668a6.692,6.692,0,0,1-5.21-6.029l-1.161-13.7s-1.054-14.073,0-21.86,7.736-21.527,8.791-28.4,13.362-15.186,13.362-15.186,9.143,17.717,15.824,22.056c0,0,8.088-3.977,11.6-22.056" transform="translate(-1204.258 -279.44)" fill="#5b9af5"/>
            <path id="Trazado_231130" data-name="Trazado 231130" d="M1665.125,351.424l2.666-2.9s9.363,5.355,15.483,1.256l2.46,1.648-3.114,2.89s-12.606,1.026-12.772.684-4.723-3.574-4.723-3.574" transform="translate(-1298.674 -269.529)" fill="#fff"/>
            <path id="Trazado_231131" data-name="Trazado 231131" d="M1703.9,386.3l2.967-2.307,2.852,2.164-1.513,1.764a1.62,1.62,0,0,1-2.325.156Z" transform="translate(-1328.918 -296.961)" fill="#9e65db"/>
            <path id="Trazado_231132" data-name="Trazado 231132" d="M1568.879,828.78h-5.334V720.413a10.385,10.385,0,0,0-2.73-7.129,9.521,9.521,0,0,0-6.977-3.041h-7.1a2.743,2.743,0,0,1,0-5.484h6.86a15.145,15.145,0,0,1,10.983,4.637,15.588,15.588,0,0,1,4.3,10.828Z" transform="translate(-1204.258 -545.029)"/>
            <path id="Trazado_231133" data-name="Trazado 231133" d="M1597.46,557.253l-5.575,5.733-5.575-5.733-5.575,5.733-5.575-5.733-5.575,5.733-5.575-5.733-5.576,5.733-5.575-5.733-5.486,5.641-3.143-3.232c-.145,2.3-.179,4.839-.156,7.283l3.3-3.392,5.255,5.4-5.255,5.4-3.208-3.3c.111,3.321.285,5.993.347,6.9l2.861-2.941,5.18,5.327-5.18,5.326-2.423-2.491.44,5.188,1.983-2.038,5.486,5.64,5.575-5.732,5.576,5.732,5.575-5.732,5.575,5.732,5.575-5.732,5.575,5.732,5.575-5.732,5.575,5.732,4.384-4.508c.009-.9.029-1.854.06-2.863l-4.138-4.255,4.566-4.7q.054-.893.113-1.805l-4.753-4.888,5.344-5.495.14.143q.032-.413.064-.828l-.2.209Zm-39.026,28.51-5.269-5.418,5.269-5.419,5.27,5.419Zm0-11.312-5.344-5.495,5.344-5.495,5.344,5.495Zm11.15,11.312-5.27-5.418,5.27-5.419,5.27,5.419Zm0-11.312-5.344-5.495,5.344-5.495,5.344,5.495Zm11.15,11.312-5.27-5.418,5.27-5.419,5.269,5.419Zm0-11.312-5.344-5.495,5.344-5.495,5.344,5.495Zm11.15,11.312-5.27-5.418,5.27-5.419,5.269,5.419Zm0-11.312-5.344-5.495,5.344-5.495,5.344,5.495Z" transform="translate(-1204.259 -430.955)" fill="#0c50b3"/>
            <path id="Trazado_231134" data-name="Trazado 231134" d="M1576.957,693.81c-3.871-2.187-8.712-2.023-12.638-1.292-.191.046-.381.092-.572.141-3.075.781-2.9,2.516-2.641,3.3a.593.593,0,0,0,.568.4c.482,0,1.1.018,1.935.086,4.87.4.18,6.314,2.077,6.341,2.4.034,1.765-5.338,3.016-5.24,2.353.184-.481,4.959,1.075,5.236,1.7.3.309-5.457,3.014-5.288,1.45.091-.381,5.368,1.316,4.99,1.782-.4.278-5.047,1.927-4.964,2.44.124-.588,4.741,1.217,4.994,1.084.152,2.448-7.152-.295-8.7" transform="translate(-1217.446 -535.182)" fill="#f2bf9d"/>
            <path id="Trazado_231135" data-name="Trazado 231135" d="M1534.049,361.335a42.447,42.447,0,0,0-24.263,18.53c-8.967,14.915-11.75,27.66,1.641,57.76,0,0,12.864,1.9,15.765-1.356l-9.059-30.1,17.763-21.423Z" transform="translate(-1171.617 -279.44)" fill="#5b9af5"/>
            <path id="Trazado_231136" data-name="Trazado 231136" d="M1564.689,466.927c-2.036,2.3-4.1,4.583-6.225,6.794s-4.31,4.364-6.617,6.367a41.128,41.128,0,0,1-3.607,2.806,14.435,14.435,0,0,1-4.043,2.054,9.892,9.892,0,0,0,2.164-.728l.521-.242c.171-.086.338-.181.507-.271l.506-.275.492-.3c.711-.441,1.4-.915,2.078-1.412.172.857.352,1.711.555,2.56.18.8.365,1.607.57,2.4s.394,1.6.6,2.395q.63,2.387,1.323,4.756c.921,3.158,1.871,6.309,2.905,9.429,1.012,3.061,2.054,6.111,3.147,9.145a12.818,12.818,0,0,1-3.533,1.338,22.879,22.879,0,0,1-3.958.529,38.144,38.144,0,0,1-4.009,0c-1.336-.075-2.672-.2-4-.4a35.481,35.481,0,0,0,3.988.562,33.375,33.375,0,0,0,4.031.128,23.169,23.169,0,0,0,4.021-.452,12.726,12.726,0,0,0,3.834-1.4l.156-.091-.063-.178c-1.094-3.093-2.135-6.208-3.145-9.332s-2.011-6.252-2.942-9.4-1.834-6.308-2.63-9.5q-.323-1.322-.632-2.65c.486-.363.967-.735,1.438-1.119,1.193-.972,2.336-2,3.463-3.054s2.2-2.152,3.277-3.257,2.109-2.248,3.136-3.4,2.033-2.318,3.017-3.505q2.969-3.548,5.692-7.3-2.967,3.545-6.02,7" transform="translate(-1204.258 -355.685)" fill="#4589ee"/>
            <path id="Trazado_231137" data-name="Trazado 231137" d="M295,1238.868c0,2.12-11.8,3.838-26.347,3.838s-26.347-1.719-26.347-3.838,11.8-3.838,26.347-3.838S295,1236.748,295,1238.868" transform="translate(-188.98 -955.116)" fill="#5fc3f3"/>
            <path id="Trazado_231138" data-name="Trazado 231138" d="M372.849,1155.579l-7.063-22.57,8.983-2.123-.444,2.922,3.084,19.789-3.142,2.975Z" transform="translate(-285.286 -874.577)" fill="#f2bf9d"/>
            <path id="Trazado_231139" data-name="Trazado 231139" d="M286.813,1123.4l2.843,24.873,3.434,1.9,1.627-3.041,2.056-24.521Z" transform="translate(-223.693 -868.179)" fill="#f2bf9d"/>
            <path id="Trazado_231140" data-name="Trazado 231140" d="M281.951,1095.228a24.824,24.824,0,0,0,11.232.526l.742-6.986,3.35-1.508,2.516,8.3a22.156,22.156,0,0,0,11-1.7l-2.318-13.7H281.706c-.023,2.3-.013,4.546.041,6.671.072,2.822.14,5.653.2,8.387" transform="translate(-219.701 -835.355)" fill="#3e79b7"/>
            <path id="Trazado_231141" data-name="Trazado 231141" d="M295.552,1200.329l.919,8.046,3.434,1.9,1.627-3.041.558-6.663a40.151,40.151,0,0,1-6.539-.244" transform="translate(-230.509 -928.28)" fill="#94c953"/>
            <path id="Trazado_231142" data-name="Trazado 231142" d="M284.1,1230.8v4.212a.621.621,0,0,1-.612.63H273.9a.717.717,0,0,1-.373-1.315l5.381-3.526a4.982,4.982,0,0,0,5.2,0" transform="translate(-213.08 -951.847)"/>
            <path id="Trazado_231143" data-name="Trazado 231143" d="M391.264,1195.826a9.339,9.339,0,0,1-6.116,1.021l2.8,8.954,1.417.994,3.142-2.975Z" transform="translate(-300.387 -924.798)" fill="#94c953"/>
            <path id="Trazado_231144" data-name="Trazado 231144" d="M394.949,1230.8v4.212a.621.621,0,0,0,.613.63h9.591a.717.717,0,0,0,.373-1.315l-5.381-3.526a4.982,4.982,0,0,1-5.2,0" transform="translate(-308.031 -951.847)"/>
            <rect id="Rectángulo_47665" data-name="Rectángulo 47665" width="5.683" height="5.844" transform="translate(72.479 210.888)" fill="#f2bf9d"/>
            <path id="Trazado_231145" data-name="Trazado 231145" d="M335.024,933.979v-3.5h-5.683v2.98a8.111,8.111,0,0,0,5.683.523" transform="translate(-256.862 -719.589)" fill="#ea9a63"/>
            <path id="Trazado_231146" data-name="Trazado 231146" d="M306.586,849.046a2.057,2.057,0,0,0-1.9.078,10.123,10.123,0,1,0-20.239,0,2.056,2.056,0,0,0-1.9-.078c-1.138.577-1.491,2.23-.79,3.692s2.192,2.18,3.33,1.6a1.858,1.858,0,0,0,.426-.3,9.094,9.094,0,0,0,18.114,0,1.848,1.848,0,0,0,.426.3c1.137.577,2.628-.141,3.33-1.6s.348-3.115-.79-3.692" transform="translate(-219.462 -648.618)" fill="#f2bf9d"/>
            <path id="Trazado_231147" data-name="Trazado 231147" d="M312.585,949.985s6.7,6.345,12.824.081Z" transform="translate(-243.793 -734.676)" fill="#f2bf9d"/>
            <path id="Trazado_231148" data-name="Trazado 231148" d="M395.713,876.531c-.03-.21,2.1-2.127,1.854-2.2s-2.415,1.455-2.482,1.3,2.011-1.973,1.759-2.246-2.464,1.8-2.578,1.5,2.2-2.364,1.935-2.575c-.226-.177-2.874,2.065-3.711,2.784a.176.176,0,0,1-.289-.12c-.248-2.214-.393-2.37-.623-2.286a32.5,32.5,0,0,0-1.289,4.393c-8.022,8.752-21.768,14.841-21.768,14.841s-4.947,12.406,2.018,9.772c6.106-2.309,18.653-17.007,21.655-20.6l1.2-1.184h0l0-.006c.388-.268.742-.475.742-.475,3.752-3.106,3.668-3.2,3.581-3.356s-1.983.662-2.013.452" transform="translate(-286.092 -674.6)" fill="#f2bf9d"/>
            <path id="Trazado_231149" data-name="Trazado 231149" d="M174.064,876.531c.03-.21-2.1-2.127-1.854-2.2s2.414,1.455,2.482,1.3-2.011-1.973-1.759-2.246,2.464,1.8,2.578,1.5-2.2-2.364-1.935-2.575c.226-.177,2.874,2.065,3.711,2.784a.176.176,0,0,0,.289-.12c.248-2.214.393-2.37.623-2.286a32.5,32.5,0,0,1,1.288,4.393c8.022,8.752,21.768,14.841,21.768,14.841s4.947,12.406-2.019,9.772c-6.106-2.309-18.653-17.007-21.655-20.6l-1.2-1.184h0l0-.006c-.389-.268-.742-.475-.742-.475-3.752-3.106-3.668-3.2-3.581-3.356s1.983.662,2.013.452" transform="translate(-134.166 -674.6)" fill="#f2bf9d"/>
            <path id="Trazado_231150" data-name="Trazado 231150" d="M285.593,931.819l-7.14,3.036a15.84,15.84,0,0,1-4.5,1.171c-5.542,5.673-11.614-.074-11.614-.074a15.792,15.792,0,0,1-4.971-1.217l-6.857-2.915a26.044,26.044,0,0,1-3.124,9.377l8.237,5.261-.678,19.188s21.911,1.5,26.765-.2l-1.073-19.088,8.076-5.158c-3.14-3.786-3.124-9.377-3.124-9.377" transform="translate(-192.946 -720.627)" fill="#e6f0ff"/>
            <path id="Trazado_231151" data-name="Trazado 231151" d="M286.172,993.694s10.575.458,17.138,0c0,0,.479,12.229,1.805,17.173a3.081,3.081,0,0,0,2.429,2.258l.965.169s-2.689,2.43-2.773,2.43-7.783-.086-7.895-.144-16.1-2.287-16.1-2.287a3.6,3.6,0,0,0,2.761-1.3c1.116-1.377,1.665-18.3,1.665-18.3" transform="translate(-219.742 -768.478)" fill="#3e79b7"/>
            <path id="Trazado_231152" data-name="Trazado 231152" d="M306.7,960.2h-1.469a.4.4,0,0,1-.4-.409V947.118a.4.4,0,0,1,.4-.409H306.7a.4.4,0,0,1,.4.409v12.668a.4.4,0,0,1-.4.409" transform="translate(-237.746 -732.142)" fill="#276bb5"/>
            <path id="Trazado_231153" data-name="Trazado 231153" d="M368.684,960.2h-1.468a.4.4,0,0,1-.4-.409V947.118a.4.4,0,0,1,.4-.409h1.468a.4.4,0,0,1,.4.409v12.668a.4.4,0,0,1-.4.409" transform="translate(-286.091 -732.142)" fill="#276bb5"/>
            <path id="Trazado_231154" data-name="Trazado 231154" d="M286.84,987.777c-.05.117-.093.236-.144.35a2.993,2.993,0,0,1-.388.629,2.016,2.016,0,0,1-.548.461,1.605,1.605,0,0,1-.664.212l-.264.021.213.138a1.375,1.375,0,0,0,.371.168,1.565,1.565,0,0,0,.391.067,1.677,1.677,0,0,0,.759-.145,2.458,2.458,0,0,1-.376.049,1.968,1.968,0,0,1-.372-.021,1.771,1.771,0,0,1-.355-.094c-.031-.012-.062-.028-.093-.042a1.809,1.809,0,0,0,.481-.183,1.98,1.98,0,0,0,.589-.522l.113-.162c.036-.055.063-.116.094-.173a2.561,2.561,0,0,0,.154-.36c.043-.123.069-.251.1-.376s.04-.256.055-.383c-.042.122-.079.244-.116.365" transform="translate(-222.147 -763.62)" fill="#a0bede"/>
            <path id="Trazado_231155" data-name="Trazado 231155" d="M388.93,987.327c.05.117.093.236.144.35a3,3,0,0,0,.388.629,2.01,2.01,0,0,0,.548.462,1.613,1.613,0,0,0,.665.212l.264.021-.213.138a1.373,1.373,0,0,1-.371.167,1.548,1.548,0,0,1-.39.067,1.68,1.68,0,0,1-.759-.144,2.463,2.463,0,0,0,.376.049,1.988,1.988,0,0,0,.372-.021,1.773,1.773,0,0,0,.355-.095c.031-.012.062-.027.093-.042a1.8,1.8,0,0,1-.481-.183,1.977,1.977,0,0,1-.589-.521l-.113-.162c-.036-.055-.063-.116-.095-.173a2.536,2.536,0,0,1-.154-.36c-.043-.123-.069-.251-.1-.376s-.04-.256-.055-.383c.042.122.079.244.116.365" transform="translate(-303.246 -763.272)" fill="#a0bede"/>
            <path id="Trazado_231156" data-name="Trazado 231156" d="M325.12,1025.571h-5.266a2.659,2.659,0,0,1-2.619-2.7v-2.983h10.5v2.983a2.658,2.658,0,0,1-2.618,2.7" transform="translate(-247.42 -788.738)" fill="#276bb5"/>
            <path id="Trazado_231157" data-name="Trazado 231157" d="M308.318,998.374a.651.651,0,1,1-.65-.668.66.66,0,0,1,.65.668" transform="translate(-239.45 -771.58)" fill="#fff"/>
            <path id="Trazado_231158" data-name="Trazado 231158" d="M370.3,998.374a.651.651,0,1,1-.65-.668.66.66,0,0,1,.65.668" transform="translate(-287.796 -771.58)" fill="#fff"/>
            <path id="Trazado_231159" data-name="Trazado 231159" d="M323.6,890.882a.852.852,0,1,1-.9-.827.867.867,0,0,1,.9.827" transform="translate(-251.053 -688.328)"/>
            <path id="Trazado_231160" data-name="Trazado 231160" d="M356.911,891.241a.852.852,0,1,1-.9-.827.868.868,0,0,1,.9.827" transform="translate(-277.036 -688.605)"/>
            <path id="Trazado_231161" data-name="Trazado 231161" d="M317.129,882.229a7.9,7.9,0,0,0-1.236-.345,4.09,4.09,0,0,0-1.191-.05,3.8,3.8,0,0,0-1.149.3,11.92,11.92,0,0,0-1.149.589,2.862,2.862,0,0,1,.917-1.031,2.723,2.723,0,0,1,1.32-.5,2.825,2.825,0,0,1,1.389.205,2.693,2.693,0,0,1,1.1.825" transform="translate(-243.652 -681.468)"/>
            <path id="Trazado_231162" data-name="Trazado 231162" d="M349.474,882.113a2.685,2.685,0,0,1,1.093-.833,2.824,2.824,0,0,1,1.388-.216,2.722,2.722,0,0,1,1.324.485,2.878,2.878,0,0,1,.925,1.024,11.74,11.74,0,0,0-1.154-.58,3.819,3.819,0,0,0-1.151-.293,4.1,4.1,0,0,0-1.19.059,7.848,7.848,0,0,0-1.233.354" transform="translate(-272.564 -681.365)"/>
            <path id="Trazado_231163" data-name="Trazado 231163" d="M292.639,818.917s2.852-2.486,9.335-2.085,7.717,3.886,8.084,8.86l-.379,5.92s-1.683-1.782-3.875-6.724c0,0-3.629,4.195-5.21,3.7s.6-3.517.6-3.517-7.4,6.553-11.751,6.543c0,0-2.3-7.669.931-10.483,0,0-2.437.12-2.566-.374s1.163-1.232,3.505-.953c0,0-1.669-3.363-.737-3.712s2.066,2.827,2.066,2.827" transform="translate(-224.459 -631.107)"/>
            <path id="Trazado_231164" data-name="Trazado 231164" d="M335.68,914.38a3.5,3.5,0,0,1-6.339.2Z" transform="translate(-256.862 -707.14)" fill="#fff"/>
            <path id="Trazado_231165" data-name="Trazado 231165" d="M343.095,888.422a5.053,5.053,0,0,0,.073,1.376,3.876,3.876,0,0,0,.188.68,1.8,1.8,0,0,0,.4.642c.219.178.322.226.39.4a.635.635,0,0,1-.034.5,1.865,1.865,0,0,1-.924.814,1.5,1.5,0,0,0,1.213-.645.964.964,0,0,0,.126-.8,1.137,1.137,0,0,0-.484-.584,1.708,1.708,0,0,1-.316-.485,5.8,5.8,0,0,1-.237-.6c-.138-.418-.26-.849-.393-1.288" transform="translate(-267.574 -687.066)" fill="#ea9a63"/>
            <path id="Trazado_231166" data-name="Trazado 231166" d="M1022.654,1238.868c0,2.12-24.561,3.838-54.858,3.838s-54.857-1.719-54.857-3.838,24.561-3.838,54.857-3.838,54.858,1.718,54.858,3.838" transform="translate(-712.025 -955.116)" fill="#5fc3f3"/>
            <path id="Trazado_231167" data-name="Trazado 231167" d="M1001.631,1213.692v7.546a1.113,1.113,0,0,1-1.1,1.128H983.351a1.284,1.284,0,0,1-.668-2.357l9.414-6.318s4.008,2.842,9.535,0" transform="translate(-765.969 -938.615)"/>
            <path id="Trazado_231168" data-name="Trazado 231168" d="M1243,1213.692v7.546a1.113,1.113,0,0,0,1.1,1.128h17.183a1.285,1.285,0,0,0,.668-2.357l-9.414-6.318s-4.008,2.842-9.535,0" transform="translate(-969.446 -938.615)"/>
            <path id="Trazado_231169" data-name="Trazado 231169" d="M1152,361.187l-.049,12.339,11.657-1.848-1.945-13.875Z" transform="translate(-898.433 -276.709)" fill="#f2bf9d"/>
            <path id="Trazado_231170" data-name="Trazado 231170" d="M1222.938,412.807a46.628,46.628,0,0,1,15.149,7.427c6.876,5.331,20.728,15.6,20.066,26.063s-11.625,26.818-11.625,26.818l-3.666-7.837s3.323-18.406,2.577-19.085-14.972-13.918-14.972-13.918Z" transform="translate(-953.801 -319.247)" fill="#9369bf"/>
            <path id="Trazado_231171" data-name="Trazado 231171" d="M1076.789,698.024c-.029-1.375,3.452,2.679,3.386,1.581-1.366-22.828-44.743-3.688-44.743-3.688l-10.588,7.99-13.853,105.735s6.976,2.562,13.212.829l25.916-91.076,3.256-1.288s14.477-10.386,23.414-20.084" transform="translate(-788.498 -532.383)" fill="#2763bb"/>
            <path id="Trazado_231172" data-name="Trazado 231172" d="M1230.372,714.935c-8.938,9.7-26.8,23.689-26.8,23.689l8.683,91.7s8.554,1.3,12.653-.986c0,0,6.043-87.188,5.46-114.407" transform="translate(-938.7 -552.899)" fill="#0c50b3"/>
            <path id="Trazado_231173" data-name="Trazado 231173" d="M1067.887,712.487l-1.706,15.1c4.515,1.8,15.518,3.717,23.81-14.932,2.615-5.881,3.286-10.114,2.8-13.154a115.567,115.567,0,0,0-14.32,5Z" transform="translate(-831.542 -540.963)" fill="#0c50b3"/>
            <path id="Trazado_231174" data-name="Trazado 231174" d="M1124.751,429.346c-.365,0-4.451-9.293-6.643-14.339a3.129,3.129,0,0,0-4.026-1.714c-5.934,2.38-12.495-.04-12.495-.04s-19.686,70.786-11.562,76.347c21.3,14.576,45.744-2.232,45.744-2.232s3.137-13.232,3.137-13.747-13.655-44.275-14.156-44.275" transform="translate(-848.606 -319.452)" fill="#e6efff"/>
            <path id="Trazado_231175" data-name="Trazado 231175" d="M1077.718,413.866s-3.761,5.724-4.117,5.629c-2.548-.476-9.582-6.909-10.783,14.412.668,6.523-5.362,59.285-5.362,59.285,16.361,7.9,20.972,3.286,20.972,3.286,3.339-15.964-.709-82.612-.709-82.612" transform="translate(-824.737 -320.066)" fill="#a07bc7"/>
            <path id="Trazado_231176" data-name="Trazado 231176" d="M994.773,413.866s-10.59,1.392-18.342,5.169-25.864,13.225-25.313,23.8,24.65,31.1,24.65,31.1l2.984-3.078L981.4,466.7,967.8,442.01l17.431-7.5Z" transform="translate(-741.792 -320.066)" fill="#a07bc7"/>
            <path id="Trazado_231177" data-name="Trazado 231177" d="M1211.545,413.392c4.983,5.618,14.917,23.063,22.822,76.174,0,0-8.777,5.481-18.807,6.045,0,0-2.6-70.26-9.99-83.29a4.866,4.866,0,0,1,5.975,1.071" transform="translate(-940.255 -318.416)" fill="#a07bc7"/>
            <path id="Trazado_231178" data-name="Trazado 231178" d="M1287.277,633.15c2.639,1.833,4.129,5.079,4.965,7.909.034.141.068.282.1.424.525,2.285-.616,2.739-1.19,2.828a.425.425,0,0,1-.434-.244c-.16-.317-.373-.718-.691-1.248-1.85-3.081-4,1.959-4.639.717-.81-1.569,2.749-2.921,2.276-3.713-.889-1.491-2.935,1.949-3.62,1.014-.75-1.023,3.3-2,2.306-3.728-.534-.926-3.223,2.018-3.546.774-.339-1.306,3.057-1.845,2.462-2.9-.88-1.569-2.764,1.948-3.515.841-.451-.665,3.655-3.968,5.524-2.67" transform="translate(-999.645 -489.418)" fill="#f2bf9d"/>
            <path id="Trazado_231179" data-name="Trazado 231179" d="M1162.674,364.19l-.9-6.387-9.673,4.553-.005,2.436a17.13,17.13,0,0,0,10.574-.6" transform="translate(-898.553 -276.709)" fill="#ea9a63"/>
            <path id="Trazado_231180" data-name="Trazado 231180" d="M1217.519,258.224l.7,8.468-1.3.841-2.405-10.311Z" transform="translate(-947.233 -198.925)"/>
            <path id="Trazado_231181" data-name="Trazado 231181" d="M1219.931,284.974c-.358,1.918.561,3.712,2.054,4.006s2.992-1.022,3.35-2.94-.562-3.712-2.054-4.006-2.992,1.022-3.35,2.94" transform="translate(-951.395 -218.081)" fill="#ea9a63"/>
            <path id="Trazado_231182" data-name="Trazado 231182" d="M1111.734,252.985a15.064,15.064,0,0,0,.611-2.648,28.751,28.751,0,0,0,.116-7.113c-.046-.462-.065-.926-.076-1.39a15.477,15.477,0,0,0-1.222-5.684,14.674,14.674,0,0,0-15.234-8.954,15.062,15.062,0,0,0-12.641,17.963,3.1,3.1,0,0,0-2.849.352c-1.557,1.137-1.7,3.681-.316,5.682s3.765,2.7,5.322,1.564a2.854,2.854,0,0,0,.564-.552c2.131,7.105,9,11.514,15.909,9.97a13.177,13.177,0,0,0,8.039-5.56,6.752,6.752,0,0,0,.4-.57,13.261,13.261,0,0,0,1.381-3.06" transform="translate(-841.674 -175.615)" fill="#f2bf9d"/>
            <path id="Trazado_231183" data-name="Trazado 231183" d="M1148.8,297.216a1.319,1.319,0,0,1-.981,1.569,1.283,1.283,0,0,1-1.526-1.009,1.32,1.32,0,0,1,.981-1.569,1.283,1.283,0,0,1,1.525,1.009" transform="translate(-894.003 -229.05)"/>
            <path id="Trazado_231184" data-name="Trazado 231184" d="M1198.406,289.8a1.319,1.319,0,0,1-.981,1.569,1.283,1.283,0,0,1-1.526-1.008,1.319,1.319,0,0,1,.981-1.569,1.283,1.283,0,0,1,1.526,1.008" transform="translate(-932.69 -223.318)"/>
            <path id="Trazado_231185" data-name="Trazado 231185" d="M1137.725,284.343a11.7,11.7,0,0,0-1.917-.211,6.16,6.16,0,0,0-1.783.217,5.786,5.786,0,0,0-1.639.732,18.145,18.145,0,0,0-1.571,1.16,4.384,4.384,0,0,1,1.125-1.756,4.14,4.14,0,0,1,1.847-1.06,4.241,4.241,0,0,1,2.112-.036,4.006,4.006,0,0,1,1.825.954" transform="translate(-881.953 -219.072)"/>
            <path id="Trazado_231186" data-name="Trazado 231186" d="M1185.38,276.765a4.108,4.108,0,0,1,1.431-1.5,4.284,4.284,0,0,1,2.012-.661,4.073,4.073,0,0,1,2.08.4,4.289,4.289,0,0,1,1.613,1.292,17.447,17.447,0,0,0-1.849-.581,5.7,5.7,0,0,0-1.78-.153,6.183,6.183,0,0,0-1.757.382,11.91,11.91,0,0,0-1.75.831" transform="translate(-924.508 -212.357)"/>
            <path id="Trazado_231187" data-name="Trazado 231187" d="M1108.013,201.541s4.326-.856-1-3.542-18.391-4.25-25.221,1.766c0,0-2.3-3.03-4.361-1.7s2.15,2.8,2.15,2.8-2.885.571-3.44,2.218c-.411,1.218,1.353.857,2.3.586-1.567.664-4.417,9.844,2.435,17.153,5.163-4.921,5.284-10.345,5.284-10.345s13.77,4.652,11.26.794c0,0,16.048,4.15,12.158-3.33,0,0,5.916-.915-1.562-6.4" transform="translate(-839.261 -151.283)"/>
            <path id="Trazado_231188" data-name="Trazado 231188" d="M1176.162,285.121a10.43,10.43,0,0,0,.151,2.84,7.984,7.984,0,0,0,.388,1.4,3.712,3.712,0,0,0,.821,1.325c.457.368.667.473.8.818a1.309,1.309,0,0,1-.071,1.027,3.85,3.85,0,0,1-1.907,1.679,3.1,3.1,0,0,0,2.5-1.33,1.987,1.987,0,0,0,.26-1.658,2.381,2.381,0,0,0-1-1.2,3.524,3.524,0,0,1-.653-1,12.17,12.17,0,0,1-.488-1.241c-.286-.862-.536-1.753-.811-2.659" transform="translate(-917.289 -220.5)" fill="#ea9a63"/>
            <path id="Trazado_231189" data-name="Trazado 231189" d="M1019.369,524.445c-1.5-2.656-3-5.308-4.537-7.941-.125-.216-.253-.43-.38-.645q.605-.227,1.208-.458c1.566-.6,3.119-1.23,4.669-1.869s3.088-1.307,4.617-2,3.053-1.4,4.552-2.163c-1.6.522-3.169,1.1-4.733,1.7s-3.119,1.229-4.669,1.868-3.089,1.307-4.618,2-3.053,1.4-4.552,2.163c1.041-.34,2.07-.706,3.1-1.085.131.245.26.49.393.734,1.45,2.684,2.931,5.35,4.417,8.012s3,5.308,4.536,7.942,3.09,5.255,4.687,7.852q-2.082-4.081-4.267-8.1c-1.45-2.684-2.931-5.35-4.418-8.011" transform="translate(-788.448 -393.924)" fill="#9369bf"/>
            <path id="Trazado_231190" data-name="Trazado 231190" d="M1074.842,650a.3.3,0,0,1,.143-.493c3.4-.741,3.626-1,3.462-1.368-.1-.212-3.144-.784-5.851-1.255l.029.02-1.745,2.845s-2.732,3.163-2.8,3.234l-.005.007c.168.231.273.384.273.384,5.395,5.7,5.524,5.548,5.758,5.381s-1.328-3.16-1.007-3.241,3.623,3.126,3.694,2.717-2.626-3.75-2.4-3.883,3.37,3.009,3.757,2.553-3.168-3.779-2.717-4.013,4.008,3.267,4.3,2.793c.241-.4-3.645-4.413-4.888-5.681" transform="translate(-833.018 -500.27)" fill="#f2bf9d"/>
            <path id="Trazado_231191" data-name="Trazado 231191" d="M1063.168,654.206l1.484-1.754c.487-.589.983-1.169,1.458-1.767s.948-1.2,1.4-1.809c.224-.308.453-.615.659-.938.225-.31.416-.643.627-.967a12.815,12.815,0,0,1-1.091,2.046,22.029,22.029,0,0,1-1.359,1.871c-.485.6-.99,1.177-1.522,1.729a22.419,22.419,0,0,1-1.658,1.589" transform="translate(-829.192 -500.338)" fill="#9369bf"/>
            <path id="Trazado_231192" data-name="Trazado 231192" d="M1167.713,339.2c-.32,1.643-2.111,2.969-4.339,3.088s-4.142-1.008-4.626-2.609Z" transform="translate(-903.737 -262.325)" fill="#fff"/>
            <path id="Trazado_231193" data-name="Trazado 231193" d="M633,1238.868c0,2.12-16.477,3.838-36.8,3.838s-36.8-1.719-36.8-3.838,16.477-3.838,36.8-3.838,36.8,1.718,36.8,3.838" transform="translate(-436.29 -955.116)" fill="#5fc3f3"/>
            <path id="Trazado_231194" data-name="Trazado 231194" d="M922.163,697.03c.429-.375.825-.673.825-.673,4.078-4.245,3.965-4.342,3.839-4.52s-2.285,1.071-2.349.825,2.226-2.841,1.928-2.889-2.7,2.081-2.8,1.907,2.145-2.644,1.807-2.935-2.71,2.5-2.887,2.155,2.324-3.139,1.974-3.354c-.294-.181-3.165,2.876-4.072,3.853a.211.211,0,0,1-.361-.1c-.591-2.615-.785-2.782-1.049-2.649a45.057,45.057,0,0,0-1.023,5.9l4.164,2.492,0-.007" transform="translate(-715.969 -531.71)" fill="#f2bf9d"/>
            <path id="Trazado_231195" data-name="Trazado 231195" d="M744.5,686.713c-3.276-6.814-10.773-4.947-11.09-4.865l-.324-1.3c.088-.024,8.836-2.23,12.586,5.571Z" transform="translate(-571.756 -526.068)"/>
            <path id="Trazado_231196" data-name="Trazado 231196" d="M724.471,702.942s-1.373-4.978,14.052-4.231a6.012,6.012,0,0,1,4.333,2.625l3.373,6.26s-11.523,4.381-12.879,2.763-8.879-7.417-8.879-7.417" transform="translate(-565.009 -540.293)" fill="#77ba25"/>
            <path id="Trazado_231197" data-name="Trazado 231197" d="M687.134,710.751s4.677-1.008,13.377-.374-4.025,5.676-4.025,5.676-4.466-.15-4.658-.187-4.695-5.115-4.695-5.115" transform="translate(-535.913 -549.212)" fill="#f2bf9d"/>
            <rect id="Rectángulo_47666" data-name="Rectángulo 47666" width="7.724" height="13.939" transform="translate(154.561 156.486)" fill="#f2bf9d"/>
            <path id="Trazado_231198" data-name="Trazado 231198" d="M776.937,750.661s4.5,22.1,3.2,24.493-18.447,3.136-18.447,3.136l-.726-28.376,6.536-10.156Z" transform="translate(-593.492 -572.096)" fill="#77ba25"/>
            <path id="Trazado_231199" data-name="Trazado 231199" d="M762.584,1079.482l-.353,32.621-2.019,5.074-5.094-5.074-5.641-32.582Z" transform="translate(-584.537 -834.823)" fill="#f2bf9d"/>
            <path id="Trazado_231200" data-name="Trazado 231200" d="M642.463,1080.206l-2.129,32.031,2.059,4.788,4.708-2.884,5.935-34.486Z" transform="translate(-499.412 -834.957)" fill="#f2bf9d"/>
            <path id="Trazado_231201" data-name="Trazado 231201" d="M637.53,919.906l-2.618,59.458a14.271,14.271,0,0,0,11.783.449l5.019-46,4.364-.673,6.546,45.547s5.237,4.038,12.656.673l-5.237-61.029Z" transform="translate(-495.184 -710.199)" fill="#3e79b7"/>
            <path id="Trazado_231202" data-name="Trazado 231202" d="M841.709,726.226l5.346,2.356,7.583-10.351,4.224,2.29L853.6,732.641a7.6,7.6,0,0,1-7.628,5.095l-9.283-.627Z" transform="translate(-652.556 -555.448)" fill="#f2bf9d"/>
            <path id="Trazado_231203" data-name="Trazado 231203" d="M758.909,936.035s2.413,11.513,9.2,11.741L767.1,936.035Z" transform="translate(-591.892 -723.887)" fill="#276bb5"/>
            <path id="Trazado_231204" data-name="Trazado 231204" d="M653.19,936.035s-2.413,11.513-9.2,11.741l.051-1.276Z" transform="translate(-502.268 -723.887)" fill="#276bb5"/>
            <path id="Trazado_231205" data-name="Trazado 231205" d="M710.026,684.735v-4.754h-7.711v4.044c1.66.917,4.118,1.445,7.711.71" transform="translate(-547.754 -525.867)" fill="#ea9a63"/>
            <path id="Trazado_231206" data-name="Trazado 231206" d="M671.436,569.488a2.792,2.792,0,0,0-2.584.1,13.736,13.736,0,1,0-27.462,0,2.792,2.792,0,0,0-2.584-.1c-1.544.783-2.023,3.026-1.072,5.01s2.975,2.958,4.519,2.175a2.511,2.511,0,0,0,.578-.408c.885,6.469,6.132,11.318,12.29,11.228,6.157.09,11.405-4.759,12.29-11.228a2.513,2.513,0,0,0,.578.408c1.544.783,3.567-.191,4.519-2.175s.472-4.227-1.072-5.01" transform="translate(-497.004 -429.566)" fill="#f2bf9d"/>
            <path id="Trazado_231207" data-name="Trazado 231207" d="M694.518,626.255a1.157,1.157,0,1,1-1.218-1.122,1.177,1.177,0,0,1,1.218,1.122" transform="translate(-539.87 -483.448)"/>
            <path id="Trazado_231208" data-name="Trazado 231208" d="M739.723,626.741a1.157,1.157,0,1,1-1.217-1.122,1.177,1.177,0,0,1,1.217,1.122" transform="translate(-575.127 -483.824)"/>
            <path id="Trazado_231209" data-name="Trazado 231209" d="M685.744,614.514a10.618,10.618,0,0,0-1.677-.468,5.552,5.552,0,0,0-1.616-.068,5.176,5.176,0,0,0-1.559.409l-.2.075c-.065.026-.124.066-.189.1l-.387.193c-.26.134-.5.3-.788.436a5.2,5.2,0,0,1,.534-.771,4.228,4.228,0,0,1,.71-.627,3.693,3.693,0,0,1,1.791-.672,3.833,3.833,0,0,1,1.885.279,3.647,3.647,0,0,1,1.491,1.119" transform="translate(-529.829 -474.14)"/>
            <path id="Trazado_231210" data-name="Trazado 231210" d="M729.633,614.356a3.654,3.654,0,0,1,1.482-1.13,3.829,3.829,0,0,1,1.883-.293,3.693,3.693,0,0,1,1.8.658,4.232,4.232,0,0,1,.715.621,5.221,5.221,0,0,1,.54.768c-.288-.13-.531-.3-.791-.43l-.388-.19c-.065-.029-.124-.068-.19-.094l-.2-.074a5.179,5.179,0,0,0-1.562-.4,5.56,5.56,0,0,0-1.615.081,10.666,10.666,0,0,0-1.674.481" transform="translate(-569.06 -474)"/>
            <path id="Trazado_231211" data-name="Trazado 231211" d="M720.977,622.916a6.861,6.861,0,0,0,.1,1.868,5.275,5.275,0,0,0,.255.923,2.442,2.442,0,0,0,.54.871c.3.242.438.309.529.538a.863.863,0,0,1-.047.676,2.532,2.532,0,0,1-1.254,1.1,2.036,2.036,0,0,0,1.646-.875,1.306,1.306,0,0,0,.172-1.09,1.536,1.536,0,0,0-.657-.792,2.318,2.318,0,0,1-.429-.658,8.006,8.006,0,0,1-.321-.816c-.188-.567-.352-1.153-.533-1.749" transform="translate(-562.289 -481.735)" fill="#ea9a63"/>
            <path id="Trazado_231212" data-name="Trazado 231212" d="M605.49,709.676l-7.556,1.345a9.475,9.475,0,0,0-6.058,3.87L582.36,728.3l12.874,7.4-1.746,25.8s23.349,6.058,37.532-.449l-1.964-35.451L638,734.133s7.419-8.75,8.074-14.808l-16.584-8.75-10.911-1.122s-6.328,7.18-13.093.224" transform="translate(-454.198 -548.659)" fill="#e6efff"/>
            <g id="Grupo_158421" data-name="Grupo 158421" transform="translate(139.291 162.784)" opacity="0.5">
              <g id="Grupo_158420" data-name="Grupo 158420">
                <g id="Grupo_158419" data-name="Grupo 158419" clip-path="url(#clip-path-19)">
                  <path id="Trazado_231213" data-name="Trazado 231213" d="M632.929,768.3l1.746-25.8,1.384-8.082,2.129-15.508,6.671-.672s6.281,6.305,13.763,0l8.012,1.623L669,741.379l1.466,26.468s-10.195,6.49-37.532.448" transform="translate(-632.929 -718.232)" fill="#e6efff"/>
                </g>
              </g>
            </g>
            <g id="Grupo_158424" data-name="Grupo 158424" transform="translate(141.037 178.963)" opacity="0.5">
              <g id="Grupo_158423" data-name="Grupo 158423">
                <g id="Grupo_158422" data-name="Grupo 158422" clip-path="url(#clip-path-20)">
                  <path id="Trazado_231214" data-name="Trazado 231214" d="M640.861,797.7c.1-1.37.306-2.722.531-4.07s.495-2.688.853-4.012c-.1,1.37-.305,2.722-.531,4.07s-.5,2.687-.853,4.011" transform="translate(-640.861 -789.619)" fill="#b3cfff"/>
                </g>
              </g>
            </g>
            <path id="Trazado_231215" data-name="Trazado 231215" d="M681.4,879.116a2.539,2.539,0,0,1,2.336.88l-.058,2.929-1.841.882a18.5,18.5,0,0,1-2.108-2.046,27.759,27.759,0,0,0,1.67-2.645" transform="translate(-530.132 -679.849)" fill="#8cc446"/>
            <path id="Trazado_231216" data-name="Trazado 231216" d="M614.4,901.332l-24.243,7.211-2.349-18.248,24.243-7.212Z" transform="translate(-458.447 -682.937)" fill="#8cc446"/>
            <path id="Trazado_231217" data-name="Trazado 231217" d="M589.388,904.344l2.129,1.848,23.2-6.838-2.085-17.2L611,881.45Z" transform="translate(-459.679 -681.674)" fill="#fff"/>
            <g id="Grupo_158427" data-name="Grupo 158427" transform="translate(150.359 199.776)" style="mix-blend-mode: multiply;isolation: isolate">
              <g id="Grupo_158426" data-name="Grupo 158426">
                <g id="Grupo_158425" data-name="Grupo 158425" clip-path="url(#clip-path-21)">
                  <path id="Trazado_231218" data-name="Trazado 231218" d="M687.9,899.355l-1.655-1.48-3.027-3.419.184-9.409.775-3.6,1.645.677Z" transform="translate(-683.22 -881.451)" fill="#fff"/>
                </g>
              </g>
            </g>
            <path id="Trazado_231219" data-name="Trazado 231219" d="M603.554,896.134l-24.243,7.211-2.119-16.933,24.243-7.211Z" transform="translate(-450.167 -679.934)" fill="#94c953"/>
            <path id="Trazado_231220" data-name="Trazado 231220" d="M597.9,821.362c2.606.156,2.817.011,2.768-.287a42.017,42.017,0,0,0-5.188-2.661c-6.461-11.248.934-26.073.934-26.073l-7.546-4.352c-10.62,17.8,3.067,33.849,3.067,33.849l.024-.022c.227.527.392,1,.392,1,2.809,5.221,2.932,5.138,3.133,5.064s-.354-2.557-.106-2.55,2.021,3,2.151,2.717-1.18-3.248-.989-3.3,1.861,2.862,2.228,2.611-1.566-3.379-1.2-3.456,2.273,3.179,2.572,2.894c.252-.239-1.79-3.934-2.446-5.1a.219.219,0,0,1,.2-.328" transform="translate(-456.128 -609.395)" fill="#f2bf9d"/>
            <path id="Trazado_231221" data-name="Trazado 231221" d="M582.36,780.954s6.262,7.123,12.874,7.4c0,0,.464-5.095.367-5.244s-1.695-3.734-2.9-4.232a59.638,59.638,0,0,0-6.536-1.344Z" transform="translate(-454.198 -601.313)" fill="#e6efff"/>
            <path id="Trazado_231222" data-name="Trazado 231222" d="M777.191,708.735c.323,22.2,8.747,26.232,8.82,26.381l.363,5.078s-16.268-5-14.567-31.949a1.251,1.251,0,0,1,1.4-1.223l2.944.452a1.26,1.26,0,0,1,1.039,1.26" transform="translate(-601.855 -546.769)"/>
            <path id="Trazado_231223" data-name="Trazado 231223" d="M703.849,655.158a8.8,8.8,0,0,0,2.046,1.075,6.687,6.687,0,0,0,2.228.417,5.724,5.724,0,0,0,2.212-.446,8.147,8.147,0,0,0,1.956-1.231,6.271,6.271,0,0,1-1.872,1.426,5.453,5.453,0,0,1-1.118.4,5.673,5.673,0,0,1-1.179.132,5.978,5.978,0,0,1-2.3-.5,6.7,6.7,0,0,1-1.973-1.273" transform="translate(-548.95 -506.526)" fill="#ea9a63"/>
            <path id="Trazado_231224" data-name="Trazado 231224" d="M621.031,1223.413v5.629a.83.83,0,0,1-.819.842H607.394a.958.958,0,0,1-.5-1.758l7.023-4.713a7.022,7.022,0,0,0,7.113,0" transform="translate(-472.997 -946.132)"/>
            <path id="Trazado_231225" data-name="Trazado 231225" d="M775.109,1223.413v5.629a.831.831,0,0,0,.819.842h12.819a.958.958,0,0,0,.5-1.758l-7.023-4.713a7.022,7.022,0,0,1-7.113,0" transform="translate(-604.528 -946.132)"/>
            <path id="Trazado_231226" data-name="Trazado 231226" d="M651.822,550.99c-2.743-7.685-2.409-15.192.4-15.08.873-6.883,6.186-9.014,5.892-7.026,4.962-3.426,7.5-2.856,6.991-.429,5.734-3.855,7.209-1.594,5.57.559,6.179.49,6.547,1.765,4.553,2.954,4.206,2.626,5.638,4.729,2.958,4.482,2.911,5,2.192,7.784.416,7.138,1.038,3.186-.548,6.841-.548,6.841-1.67-9.269-4.171-10.411-4.171-10.411.283,2.427-2.924,1.489-4.717-.612.009,2.468-2.8,2.185-4.238.613.227,1.569-3.238,1.248-5.7,0-.175,2.713-1.7,3-4.473,2.855,1.386,1.57-2,2.807-2.941,8.114" transform="translate(-506.898 -407.069)"/>
          </g>
        </g>
      </g>
    </g>
  </g>
</svg>
