<svg id="Grupo_159099" data-name="Grupo 159099" xmlns="http://www.w3.org/2000/svg" xmlns:xlink="http://www.w3.org/1999/xlink" width="96.173" height="109.152" viewBox="0 0 96.173 109.152">
  <defs>
    <clipPath id="clip-path">
      <rect id="Rectángulo_47969" data-name="Rectángulo 47969" width="96.173" height="109.152" fill="#12263f"/>
    </clipPath>
  </defs>
  <g id="Grupo_159294" data-name="Grupo 159294">
    <g id="Grupo_159098" data-name="Grupo 159098" clip-path="url(#clip-path)">
      <path id="Trazado_232253" data-name="Trazado 232253" d="M67.7,0A19.987,19.987,0,0,1,70.51,1.966a4.367,4.367,0,0,1,1.068,3.465c-.018.416,0,.834,0,1.375.636,0,1.157,0,1.679,0,3.291.02,5.331,2.031,5.34,5.3.014,4.653,0,9.307,0,13.96v35.1c.732,0,1.392-.013,2.051,0a57.54,57.54,0,0,1,6.906.225,10.159,10.159,0,0,1,8.531,9.43c.092,1.451.079,2.911.062,4.366-.014,1.194-.625,1.842-1.613,1.829S93,76.359,92.965,75.144c-.033-1.349.031-2.7-.064-4.047a7.129,7.129,0,0,0-7.1-6.715q-13.642-.052-27.283,0a7.14,7.14,0,0,0-7.155,7.231q-.119,13.533,0,27.067a7.2,7.2,0,0,0,7.566,7.271q13.162.02,26.324,0a7.263,7.263,0,0,0,7.69-7.579c.044-4.8.01-9.591.011-14.386,0-.319-.011-.64.011-.959a1.589,1.589,0,0,1,1.551-1.686,1.552,1.552,0,0,1,1.62,1.717c.008,5.434.1,10.872-.074,16.3a10.232,10.232,0,0,1-8.388,9.588,4.267,4.267,0,0,0-.583.2H57.248a12.739,12.739,0,0,1-5.176-2.329,10.619,10.619,0,0,1-3.931-8.392c-.006-.461-.016-.922-.032-1.383,0-.062-.054-.122-.137-.3h-1.2c-11.333,0-22.666.014-34-.025a7.71,7.71,0,0,1-2.984-.583,4.523,4.523,0,0,1-2.729-4.02c-.057-.668-.009-1.345-.009-2.184-.721,0-1.345.011-1.968,0A4.994,4.994,0,0,1,.018,85.084C-.006,84.695,0,84.3,0,83.913Q0,55.991,0,28.069a8.055,8.055,0,0,1,.063-1.38,1.449,1.449,0,0,1,1.568-1.3,1.43,1.43,0,0,1,1.491,1.258A8.56,8.56,0,0,1,3.2,28.137q0,27.762,0,55.524c0,.391-.015.783.01,1.172a1.786,1.786,0,0,0,1.972,1.9q21.21.017,42.419,0a4.395,4.395,0,0,0,.538-.082V85.392c0-4.476-.029-8.952.008-13.428.046-5.6,3.637-9.9,9.06-10.668a45.7,45.7,0,0,1,5.959-.124c1.7-.014,3.392,0,5.21,0V59.921q0-27.069,0-54.138c0-2.084-.5-2.584-2.556-2.584H21.2c-.022.459-.055.836-.055,1.213,0,3.695,0,7.389,0,11.084-.009,3.6-2.018,5.606-5.616,5.61-4.441.005-8.882-.007-13.323.008-.865,0-1.673-.083-2.052-.985s.082-1.543.7-2.162Q9.4,9.473,17.913.957L18.87,0Zm3.974,10.075V61.09H75.4V59.636c0-15.452-.036-30.905.029-46.358.014-3.262-.854-3.465-3.759-3.2M10.308,90c-.343,2.907.227,3.552,3.024,3.552H48.083V90ZM5.723,17.908c3.319,0,6.579,0,9.838,0,1.763,0,2.377-.6,2.384-2.362.011-3.052.005-6.1,0-9.157a4.452,4.452,0,0,0-.1-.657L5.723,17.908" transform="translate(0)" fill="#12263f"/>
      <path id="Trazado_232254" data-name="Trazado 232254" d="M113.609,31.493q5.915,0,11.83,0a4.365,4.365,0,0,1,4.691,4.642q.018,11.882,0,23.765a4.363,4.363,0,0,1-4.6,4.63q-11.937.019-23.873,0a4.321,4.321,0,0,1-4.566-4.54q-.019-11.989,0-23.978a4.314,4.314,0,0,1,4.581-4.519c3.979-.011,7.958,0,11.937,0m9.168,29.846c.92,0,1.7.005,2.477,0,1.332-.01,1.68-.359,1.68-1.723q.005-11.61,0-23.22c0-1.354-.348-1.7-1.7-1.7q-11.611,0-23.223,0c-1.431,0-1.73.305-1.73,1.759q0,8.415,0,16.83c0,2.2.01,4.4,0,6.6-.005.781.271,1.367,1.091,1.427.979.071,1.968.017,3.1.017-.258-4.425-.273-8.7,4.118-10.715-.149-1.783-.379-3.28-.378-4.777a5.4,5.4,0,0,1,10.8-.044c.012,1.557-.255,3.116-.407,4.79,3.143,1.942,4.169,3.785,4.172,7.74,0,.954,0,1.908,0,3.017m-3.245-.05c0-1.528.083-2.981-.02-4.421a4.165,4.165,0,0,0-4.012-3.825c-1.274-.056-2.554-.056-3.827,0a4.041,4.041,0,0,0-3.858,3.239,40.125,40.125,0,0,0-.044,5ZM111.385,46.7c0,.248-.007.5,0,.742a2.23,2.23,0,1,0,4.454.067c.024-.494.02-.99,0-1.485a2.234,2.234,0,1,0-4.456.038c-.006.212,0,.424,0,.636" transform="translate(-69.486 -22.539)" fill="#0158a0"/>
      <path id="Trazado_232255" data-name="Trazado 232255" d="M63.97,183.336q-11.032,0-22.065,0c-.355,0-.809.119-1.045-.053-.5-.362-1.171-.846-1.229-1.345a2.385,2.385,0,0,1,.885-1.588c.271-.254.875-.2,1.329-.2q22.172-.013,44.343,0a4.137,4.137,0,0,1,1.257.147,1.432,1.432,0,0,1,1.044,1.648,1.453,1.453,0,0,1-1.389,1.376,10.3,10.3,0,0,1-1.065.02H63.97" transform="translate(-28.363 -128.934)" fill="#12263f"/>
      <path id="Trazado_232256" data-name="Trazado 232256" d="M53.626,268.722q-6.127,0-12.254,0c-1.35,0-2.06-.567-2.049-1.607s.725-1.587,2.083-1.587q12.2-.005,24.4,0c1.314,0,2.083.617,2.071,1.621s-.765,1.572-2.1,1.573q-6.073.005-12.147,0" transform="translate(-28.145 -190.048)" fill="#12263f"/>
      <path id="Trazado_232257" data-name="Trazado 232257" d="M53.629,211.787q-6.127,0-12.253,0c-1.372,0-2.06-.546-2.052-1.594s.72-1.6,2.08-1.6q12.2-.008,24.4,0c1.611,0,2.512,1.144,1.881,2.341a1.769,1.769,0,0,1-1.8.86c-4.084-.014-8.169-.007-12.253-.007" transform="translate(-28.147 -149.297)" fill="#12263f"/>
      <path id="Trazado_232258" data-name="Trazado 232258" d="M47.15,240.243c-1.987,0-3.974.009-5.961,0-1.182-.007-1.856-.591-1.863-1.569s.677-1.613,1.835-1.618q6.067-.025,12.135,0c1.174,0,1.853.619,1.86,1.592.008.991-.657,1.587-1.833,1.595-2.058.014-4.116,0-6.174,0" transform="translate(-28.147 -169.662)" fill="#12263f"/>
      <path id="Trazado_232259" data-name="Trazado 232259" d="M40.968,126.511c-.39-.326-1-.6-1.161-1.034a1.93,1.93,0,0,1,.151-1.65c1.759-1.9,3.6-3.727,5.477-5.518a1.559,1.559,0,0,1,2.235,2.142c-1.8,1.909-3.683,3.746-5.561,5.582a3.985,3.985,0,0,1-1.139.478" transform="translate(-28.411 -84.379)" fill="#12263f"/>
      <path id="Trazado_232260" data-name="Trazado 232260" d="M114.371,237.042c.816,0,1.634-.028,2.449.007a1.643,1.643,0,0,1,1.732,1.637,1.622,1.622,0,0,1-1.8,1.545c-1.632.017-3.266.02-4.9,0a1.59,1.59,0,0,1-1.728-1.506,1.629,1.629,0,0,1,1.691-1.673c.85-.039,1.7-.008,2.555-.008" transform="translate(-78.82 -169.655)" fill="#12263f"/>
      <path id="Trazado_232261" data-name="Trazado 232261" d="M212.6,272.5c3.194-3.2,6.225-6.249,9.261-9.288,2.206-2.208,4.109-2.2,6.324.009.628.627,1.263,1.249,1.881,1.886a3.685,3.685,0,0,1-.023,5.565q-5.179,5.218-10.393,10.4c-1.13,1.13-2.244,2.277-3.4,3.385a5.318,5.318,0,0,1-7.649.011c-2.393-2.327-4.746-4.7-7.084-7.079a3.636,3.636,0,0,1-.026-5.335c.88-.927,1.783-1.834,2.712-2.712a3.65,3.65,0,0,1,5.336.034c1.017.981,1.98,2.019,3.058,3.124m-.156,10.578a11.275,11.275,0,0,0,1.734-1.085c1.1-1.005,2.123-2.092,3.177-3.145,3.388-3.388,6.763-6.789,10.175-10.152.631-.622.669-1.057-.006-1.635a14.01,14.01,0,0,1-1.654-1.656c-.615-.738-1.065-.644-1.71.011-3.335,3.39-6.709,6.742-10.078,10.1-1.083,1.079-1.813,1.076-2.9,0-1.213-1.2-2.427-2.392-3.608-3.619-.5-.517-.887-.584-1.4-.022-.694.759-1.429,1.483-2.18,2.186-.518.485-.447.856.03,1.327,2.248,2.219,4.457,4.478,6.722,6.678a8.822,8.822,0,0,0,1.7,1.009" transform="translate(-143.394 -187.209)" fill="#0158a0"/>
    </g>
  </g>
</svg>
