<svg xmlns="http://www.w3.org/2000/svg" width="92.903" height="98.699" viewBox="0 0 92.903 98.699">
  <g id="Grupo_159295" data-name="Grupo 159295" transform="translate(-1162.711 -1352.301)">
    <g id="Grupo_159100" data-name="Grupo 159100" transform="translate(1162.711 1352.301)">
      <g id="Grupo_159101" data-name="Grupo 159101" transform="translate(0)">
        <path id="Trazado_232263" data-name="Trazado 232263" d="M82.513,0A2.937,2.937,0,0,1,84.3,3.075c-.066,3.6-.028,7.2-.016,10.793a1.591,1.591,0,0,1-.938,1.726c-1.007.4-1.935-.328-1.95-1.56-.027-2.216-.008-4.433-.008-6.649,0-1.467,0-2.935,0-4.447H21.048V27.725c1.78,0,3.509-.058,5.233.014a6.131,6.131,0,0,1,2.061,11.739c-.563.252-.806.529-.735,1.132a6.72,6.72,0,0,1,0,1.155,3.356,3.356,0,0,0,.817,2.494c.66.824.785,2.076,1.208,3.327,1.646,0,3.564.012,5.481-.019.191,0,.426-.234.559-.419A2.518,2.518,0,0,1,37.9,46.044c1.317.021,2.644-.09,3.947.046a3.4,3.4,0,0,1,1.905.89,1.725,1.725,0,0,0,1.363.622q4.192-.036,8.385,0a1.724,1.724,0,0,0,1.3-.572,3.459,3.459,0,0,1,1.988-.934c2.662-.106,5.331-.054,8-.04,1.006.005,1.59.547,1.6,1.407.012.877-.614,1.462-1.658,1.471-2.152.019-4.3.006-6.457.006h-1.2v6.7c.321.026.567.064.813.064q14.264,0,28.527,0a3.4,3.4,0,0,0,3.415-2.314,3.182,3.182,0,0,0-1.2-3.749,4.786,4.786,0,0,0-2.338-.669c-4.593-.061-9.188-.03-13.781-.031-.257,0-.516.015-.771-.008A1.441,1.441,0,0,1,70.3,47.442a1.38,1.38,0,0,1,1.523-1.384c2.377-.021,4.754-.008,7.132-.01h2.439V44.86q0-11.517.006-23.033a4.17,4.17,0,0,1,.157-1.324,1.4,1.4,0,0,1,2.7.319,8.253,8.253,0,0,1,.027,1.059q0,11.42,0,22.84v1.334c.862,0,1.681-.017,2.5,0a6.269,6.269,0,0,1-.052,12.534c-.768.018-1.536,0-2.447,0v1.178c0,11.95-.016,23.9.021,35.85A2.972,2.972,0,0,1,82.513,98.7H1.737A2.764,2.764,0,0,1,.016,96.257c-.007-1.766-.038-3.533.012-5.3a3.285,3.285,0,0,1,2.466-3.09c.3-.086.6-.162.937-.253,0-.684,0-1.324,0-1.963a3.387,3.387,0,0,1,3.719-3.7c3.275-.008,6.551,0,9.826,0h1.051V76.927c-1.514,0-2.956.02-4.4,0a6.117,6.117,0,0,1-5.747-4.336c-.784-2.546.013-5.5,2.344-6.75,1.715-.917,1.945-2.063,1.752-3.651-.008-.063.018-.136,0-.191-.168-.413-.337-.826-.518-1.234a7.327,7.327,0,0,1-1.027-2.385c-.106-4.043-.083-8.092-.014-12.136a2.938,2.938,0,0,1,.757-1.988,2.618,2.618,0,0,0,.808-2.4,7.306,7.306,0,0,1,.006-1.155c.08-.665-.181-.977-.805-1.273a5.845,5.845,0,0,1-3.562-5.4,5.646,5.646,0,0,1,3.194-5.516,10.3,10.3,0,0,1,3.507-.785A37,37,0,0,1,18.1,27.7V26.4c0-7.739.029-15.478-.025-23.217A3.049,3.049,0,0,1,19.859,0ZM36.223,87.636c2.6.636,3.372,1.62,3.375,4.211,0,1.3,0,2.607,0,3.9H81.316V58.6H80.1q-11.466,0-22.931.007a3.107,3.107,0,0,1-2.419-.953,1.857,1.857,0,0,0-1.163-.565c-2.826-.048-5.652-.012-8.478-.036a1.738,1.738,0,0,0-1.361.619,3.46,3.46,0,0,1-1.913.888c-1.27.137-2.565.026-3.85.044a2.591,2.591,0,0,1-2.314-1.128.9.9,0,0,0-.572-.392c-1.917-.029-3.834-.018-5.455-.018-.431,1.257-.553,2.522-1.226,3.325a3.332,3.332,0,0,0-.8,2.5,7.409,7.409,0,0,0,.027,1.343,1.311,1.311,0,0,0,.561.823,6.18,6.18,0,0,1-2.7,11.88c-1.468,0-2.937,0-4.439,0v5.021h1.108c3.5,0,7-.015,10.5.006a3.4,3.4,0,0,1,3.553,3.5c.017.7,0,1.409,0,2.178m-2.891.09c0-.551,0-.993,0-1.434,0-1.447,0-1.448-1.429-1.448H8.774c-2.722,0-2.722,0-2.409,2.712,0,.025.039.047.15.17h.943c1.606,0,3.213-.021,4.819.012a1.438,1.438,0,1,1,0,2.873c-.256.015-.514.006-.771.006q-3.806,0-7.613,0c-.462,0-.968-.031-.976.624-.019,1.5-.006,3-.006,4.514h33.8c0-1.328-.049-2.607.016-3.881.048-.945-.233-1.288-1.238-1.278-5.2.047-10.408.022-15.612.021a6.088,6.088,0,0,1-.962-.025,1.335,1.335,0,0,1-1.236-1.368,1.357,1.357,0,0,1,1.143-1.454,3.551,3.551,0,0,1,.863-.042q6.264,0,12.528,0h1.124M19.791,45.865c-1.863,0-3.727.025-5.59-.013-.721-.015-.949.249-.944.953q.036,5.541,0,11.083c0,.657.226.913.9.91q5.638-.03,11.276,0c.712,0,.965-.268.962-.967q-.027-5.541,0-11.083c0-.668-.259-.9-.919-.893-1.9.028-3.791.01-5.686.01m.018,28.174c1.957,0,3.914.01,5.871,0a3.275,3.275,0,1,0,.054-6.543q-5.918-.034-11.837,0a3.275,3.275,0,1,0,.042,6.544c1.957.013,3.914,0,5.871,0M19.9,30.588c-1.957,0-3.916-.056-5.868.029a4.682,4.682,0,0,0-2.157.624,3.114,3.114,0,0,0-1.216,3.649A3.341,3.341,0,0,0,14,37.148q5.774.033,11.547,0a3.306,3.306,0,0,0,3.571-3.328,3.263,3.263,0,0,0-3.548-3.229c-1.892-.022-3.785,0-5.677,0M44.378,54.11h9.745V50.545H44.378ZM24.679,40.1H14.933v2.8h9.746Zm0,21.628H14.933v2.793H24.68Zm13.572-6.07H41.4V48.986H38.252ZM29.32,54.1h5.9V50.555h-5.9Z" transform="translate(0)" fill="#12263f"/>
        <path id="Trazado_232264" data-name="Trazado 232264" d="M155.98,35.019A14.966,14.966,0,1,1,140.969,49.8,14.927,14.927,0,0,1,155.98,35.019m-.05,2.891a12.075,12.075,0,1,0,12.063,12.066A12.063,12.063,0,0,0,155.93,37.91" transform="translate(-104.736 -26.018)" fill="#0158a0"/>
        <path id="Trazado_232266" data-name="Trazado 232266" d="M186.382,302.871H173.771a4.97,4.97,0,0,1-.865-.02,1.435,1.435,0,0,1-.031-2.841,4.183,4.183,0,0,1,.864-.029q12.611,0,25.222,0a4.4,4.4,0,0,1,.959.04,1.433,1.433,0,0,1-.062,2.826,4.913,4.913,0,0,1-.865.024H186.382" transform="translate(-127.537 -222.871)" fill="#0158a0"/>
        <path id="Trazado_232267" data-name="Trazado 232267" d="M186.324,248.157H173.809a6.14,6.14,0,0,1-.865-.017,1.34,1.34,0,0,1-1.284-1.319,1.361,1.361,0,0,1,1.174-1.518,3.234,3.234,0,0,1,.766-.036q12.756,0,25.511,0a4.219,4.219,0,0,1,.673.018,1.415,1.415,0,0,1,1.306,1.426,1.392,1.392,0,0,1-1.386,1.433c-.736.042-1.476.015-2.214.015H186.324" transform="translate(-127.535 -182.222)" fill="#0158a0"/>
        <path id="Trazado_232268" data-name="Trazado 232268" d="M180.726,327.417c2.375,0,4.75-.006,7.124,0,1.182,0,1.794.483,1.822,1.382.029.94-.609,1.5-1.819,1.5q-7.22.019-14.441,0c-1.17,0-1.767-.529-1.768-1.448s.589-1.426,1.766-1.431c2.439-.012,4.878,0,7.317,0" transform="translate(-127.526 -243.259)" fill="#0158a0"/>
        <path id="Trazado_232269" data-name="Trazado 232269" d="M230.106,272.672c2.215,0,4.431-.026,6.645.011,1.167.02,1.917,1,1.414,1.91a1.975,1.975,0,0,1-1.4.917c-4.494.069-8.989.054-13.483.031a1.4,1.4,0,0,1-1.542-1.472c.021-.849.6-1.383,1.62-1.393,2.247-.024,4.494-.007,6.742-.007Z" transform="translate(-164.749 -202.58)" fill="#0158a0"/>
        <path id="Trazado_232270" data-name="Trazado 232270" d="M177.07,275.542c-1.251,0-2.5.019-3.752-.005-1.091-.021-1.67-.542-1.674-1.437s.565-1.429,1.664-1.438q3.7-.032,7.408,0c1.06.01,1.657.589,1.632,1.475-.024.843-.607,1.373-1.622,1.4-1.218.028-2.437.007-3.656.007" transform="translate(-127.526 -202.568)" fill="#0158a0"/>
        <path id="Trazado_232271" data-name="Trazado 232271" d="M252.9,327.413c1.091,0,2.182-.017,3.273,0,1,.02,1.608.561,1.63,1.389a1.436,1.436,0,0,1-1.556,1.475q-3.368.054-6.738,0a1.433,1.433,0,1,1,.021-2.858c1.122-.028,2.246-.006,3.369-.007" transform="translate(-184.251 -243.253)" fill="#0158a0"/>
        <path id="Trazado_232272" data-name="Trazado 232272" d="M179.4,82.358c1.942-1.946,3.742-3.773,5.575-5.566.328-.321.81-.725,1.188-.694a2.166,2.166,0,0,1,1.392.771,1.277,1.277,0,0,1-.32,1.728q-1.968,1.978-3.941,3.952c-.884.885-1.758,1.781-2.658,2.649a1.47,1.47,0,0,1-2.415.019q-2.062-2.021-4.084-4.082a1.457,1.457,0,0,1-.194-2.206,1.473,1.473,0,0,1,2.208.145c1.072,1.051,2.113,2.134,3.248,3.285" transform="translate(-128.921 -56.537)" fill="#0158a0"/>
      </g>
    </g>
  </g>
</svg>
