<svg xmlns="http://www.w3.org/2000/svg" width="287" height="148" viewBox="0 0 287 148">
  <g id="Grupo_159308" data-name="Grupo 159308" transform="translate(-335 -7678)">
    <rect id="Rectángulo_47414" data-name="Rectángulo 47414" width="287" height="148" rx="27" transform="translate(335 7678)" fill="#008bfd"/>
    <rect id="Rectángulo_48079" data-name="Rectángulo 48079" width="33" height="47" transform="translate(335 7779)" fill="#008bfd"/>
    <rect id="Rectángulo_48080" data-name="Rectángulo 48080" width="26" height="40" transform="translate(596 7786)" fill="#008bfd"/>
    <g id="Grupo_158614" data-name="Grupo 158614" transform="translate(437.226 7705.875)">
      <g id="Grupo_158269" data-name="Grupo 158269" transform="translate(0)">
        <path id="Trazado_230875" data-name="Trazado 230875" d="M84.485,0a3.206,3.206,0,0,0,.41.221A4.986,4.986,0,0,1,88.4,5.1c.033,3.827.017,7.655,0,11.483,0,1.147-.6,1.83-1.508,1.823s-1.451-.683-1.454-1.849c-.007-3.564,0-7.128,0-10.691,0-2.292-.593-2.894-2.851-2.894H24.865c-2.482,0-3.006.534-2.974,3.036,0,.258.031.515.056.888H23.24c17.524,0,35.048.052,52.571-.043a5.426,5.426,0,0,1,5.744,5.762c-.072,25.837-.04,51.675-.04,77.512V91.49a20.762,20.762,0,0,0,2.215-.016,1.777,1.777,0,0,0,1.61-1.518,6.732,6.732,0,0,0,.092-1.376q.006-31.777,0-63.554c0-.363-.012-.727.006-1.089a1.473,1.473,0,0,1,1.445-1.556A1.505,1.505,0,0,1,88.394,23.9c.022.229.01.462.01.693q0,32.173,0,64.346c0,2.906-1.525,5.05-4.019,5.449a23.4,23.4,0,0,1-3.474.028c.415,3.372-.584,5.891-3.951,6.967H15.57c-3.262-1.3-4.1-2.557-4.1-6.143q0-6.039,0-12.077a4.508,4.508,0,0,1,.108-1.174,1.322,1.322,0,0,1,1.488-1.029A1.33,1.33,0,0,1,14.4,82.181a6.375,6.375,0,0,1,.037.988q0,6.286,0,12.572c0,2,.674,2.671,2.676,2.671H75.331c2.016,0,2.648-.637,2.648-2.67q0-41.627,0-83.255c0-2-.61-2.621-2.577-2.622q-29.157,0-58.314,0c-2.014,0-2.648.639-2.648,2.68q0,30.936,0,61.872A10.412,10.412,0,0,1,14.4,75.7a1.335,1.335,0,0,1-1.331,1.234A1.339,1.339,0,0,1,11.581,75.9a4.061,4.061,0,0,1-.108-1.075q-.007-31.233,0-62.466c0-3.449,2.029-5.453,5.482-5.46.619,0,1.237,0,1.965,0,0-.628,0-1.146,0-1.664A4.93,4.93,0,0,1,22.563.184,2.106,2.106,0,0,0,22.9,0Z" transform="translate(-11.468)" fill="#fff"/>
        <path id="Trazado_230876" data-name="Trazado 230876" d="M76.864,72.88q0,6.383,0,12.766a3.482,3.482,0,0,1-3.788,3.834q-12.817.013-25.633,0a3.521,3.521,0,0,1-3.835-3.809q-.013-12.815,0-25.631a3.5,3.5,0,0,1,3.811-3.821q12.817-.009,25.633,0a3.456,3.456,0,0,1,3.813,3.8q.013,6.432,0,12.865M60.2,59.188c-4.156,0-8.312.017-12.467-.014-.822-.006-1.184.19-1.181,1.1q.039,12.565,0,25.129c0,.877.314,1.131,1.161,1.128q12.516-.035,25.033,0c.834,0,1.162-.211,1.159-1.108q-.043-12.565,0-25.129c0-.881-.285-1.126-1.14-1.118-4.188.036-8.377.016-12.566.016" transform="translate(-35.116 -41.374)" fill="#8bdae6"/>
        <path id="Trazado_230877" data-name="Trazado 230877" d="M56.731,292.514c.707-.748,1.468-1.571,2.248-2.376a1.522,1.522,0,0,1,2.26-.267,1.5,1.5,0,0,1-.083,2.275c-.865.952-1.8,1.844-2.617,2.834a2.6,2.6,0,0,0-.569,1.468c-.061,2.176-.015,4.354-.03,6.531a3.158,3.158,0,0,1-3.489,3.5q-3.711.011-7.423,0a3.154,3.154,0,0,1-3.43-3.461q-.015-3.711,0-7.422a3.157,3.157,0,0,1,3.434-3.46c2.474-.025,4.949-.032,7.423.01a16.381,16.381,0,0,1,2.276.372m-10.143,2.659,3.19,4.747,4.453-4.747Zm3.974,8.259h4.316v-4.6l-4.316,4.6m-2.036.045-1.874-2.844v2.844Z" transform="translate(-35.11 -213.052)" fill="#8bdae6"/>
        <path id="Trazado_230878" data-name="Trazado 230878" d="M69.848,267.657q12.072,0,24.143,0c.361,0,.843-.1,1.057.088a2.952,2.952,0,0,1,1.007,1.4c.151.721-.393,1.228-1.1,1.41a4.416,4.416,0,0,1-1.081.063q-23.995,0-47.99,0c-.165,0-.33,0-.494,0-1.059-.039-1.737-.63-1.731-1.506s.679-1.458,1.753-1.459q8.509-.01,17.019,0h7.421" transform="translate(-35.158 -196.973)" fill="#8bdae6"/>
        <path id="Trazado_230879" data-name="Trazado 230879" d="M69.913,203.929H93.759a9.072,9.072,0,0,1,.989.016,1.463,1.463,0,0,1,.234,2.878,4.072,4.072,0,0,1-1.079.073q-23.994,0-47.989,0h-.2c-1.322-.007-2.045-.524-2.061-1.475s.7-1.494,2.017-1.494q12.121,0,24.242,0" transform="translate(-35.156 -150.085)" fill="#8bdae6"/>
        <path id="Trazado_230880" data-name="Trazado 230880" d="M69.857,238.721q-11.872,0-23.744,0a9.617,9.617,0,0,1-1.087-.032,1.451,1.451,0,0,1-.123-2.867,4.593,4.593,0,0,1,.982-.067q24.041,0,48.081,0a4.42,4.42,0,0,1,1.079.086,1.448,1.448,0,0,1-.161,2.842,8.172,8.172,0,0,1-1.086.038q-11.971,0-23.942,0" transform="translate(-35.21 -173.509)" fill="#8bdae6"/>
        <path id="Trazado_230881" data-name="Trazado 230881" d="M128.8,323.986c-5.082,0-10.164-.006-15.245.007a1.7,1.7,0,0,1-1.757-.835,1.468,1.468,0,0,1,1.1-2.108,5.662,5.662,0,0,1,.987-.033h29.995c.2,0,.4-.006.594,0a1.517,1.517,0,0,1,1.656,1.46c.019.906-.623,1.5-1.7,1.5q-7.82.013-15.641,0" transform="translate(-85.189 -236.259)" fill="#8bdae6"/>
        <path id="Trazado_230882" data-name="Trazado 230882" d="M189.507,118.49c-2.045,0-4.089,0-6.134,0-1.252,0-1.911-.529-1.9-1.5.012-.929.665-1.467,1.84-1.47q6.183-.012,12.366,0c1.18,0,1.833.534,1.852,1.461.019.963-.649,1.5-1.892,1.5-2.045,0-4.089,0-6.134,0" transform="translate(-136.591 -85.019)" fill="#8bdae6"/>
        <path id="Trazado_230883" data-name="Trazado 230883" d="M189.411,86.639c-2.109,0-4.219.021-6.328-.006-1.268-.016-2.1-1-1.586-1.957a2.014,2.014,0,0,1,1.426-.951c4.316-.074,8.635-.058,12.953-.034a1.422,1.422,0,0,1,1.559,1.434,1.445,1.445,0,0,1-1.6,1.5c-2.142.031-4.285.01-6.427.011" transform="translate(-136.493 -61.581)" fill="#8bdae6"/>
        <path id="Trazado_230884" data-name="Trazado 230884" d="M189.488,152.545c-2.109,0-4.22.019-6.329-.007-1.16-.015-1.847-.723-1.688-1.691a1.409,1.409,0,0,1,1.53-1.255c4.318-.014,8.636-.021,12.954,0a1.425,1.425,0,0,1,1.557,1.438,1.44,1.44,0,0,1-1.6,1.5c-2.142.033-4.285.01-6.428.01Z" transform="translate(-136.57 -110.087)" fill="#8bdae6"/>
        <path id="Trazado_230885" data-name="Trazado 230885" d="M331.8,136.009c0,6.8.013,13.593-.02,20.389a4.766,4.766,0,0,1-.465,1.977c-1.429,2.968-2.931,5.9-4.388,8.856a2.558,2.558,0,0,1-4.913-.008c-1.473-2.983-2.978-5.951-4.433-8.943a3.8,3.8,0,0,1-.387-1.6q-.031-20.686-.014-41.372c0-2.363,1.309-3.654,3.686-3.662,2.343-.008,4.685,0,7.028,0,2.618,0,3.9,1.268,3.9,3.872q.009,10.244,0,20.488m-3.033-12.04h-8.545v31.646h8.545Zm.054-3.065c0-1.975.018-3.845-.028-5.714a.837.837,0,0,0-.607-.543c-2.47-.039-4.94-.036-7.41-.005-.208,0-.587.284-.591.443-.041,1.927-.027,3.855-.027,5.82Zm-4.349,44.584,3.4-6.822h-6.792l3.393,6.822" transform="translate(-236.466 -82.169)" fill="#fff"/>
        <path id="Trazado_230892" data-name="Trazado 230892" d="M90.757,88.568c3.178,2.3,3.035,5.686,2.9,9.052a1.4,1.4,0,0,1-1.481,1.426q-2.323.06-4.649,0a1.47,1.47,0,1,1,.078-2.94c.984-.033,1.97-.007,2.936-.007.878-3.475-1.51-6.4-4.787-5.959a4.154,4.154,0,0,0-3.575,3.684c-.1,1.113-.048,2.239-.072,3.359-.025,1.173-.557,1.851-1.456,1.871s-1.485-.665-1.507-1.812c-.018-.923,0-1.846,0-2.769A7.369,7.369,0,0,1,82,88.553c-3.078-3.7-3.146-7.484-.218-10.22a6.781,6.781,0,0,1,9.32.055c2.244,2.126,3.356,6.568-.346,10.179M90.2,83.242a3.8,3.8,0,1,0-3.811,3.84,3.786,3.786,0,0,0,3.811-3.84" transform="translate(-61.271 -56.307)" fill="#8bdae6"/>
      </g>
    </g>
  </g>
</svg>
