<svg xmlns="http://www.w3.org/2000/svg" width="287" height="148" viewBox="0 0 287 148">
  <g id="Grupo_159308" data-name="Grupo 159308" transform="translate(-335 -7678)">
    <rect id="Rectángulo_47414" data-name="Rectángulo 47414" width="287" height="148" rx="27" transform="translate(335 7678)" fill="#008bfd"/>
    <rect id="Rectángulo_48079" data-name="Rectángulo 48079" width="33" height="47" transform="translate(335 7779)" fill="#008bfd"/>
    <rect id="Rectángulo_48080" data-name="Rectángulo 48080" width="26" height="40" transform="translate(596 7786)" fill="#008bfd"/>
    <g id="Grupo_158613" data-name="Grupo 158613" transform="translate(437.226 7704)">
      <g id="Grupo_158266" data-name="Grupo 158266" transform="translate(0 0)">
        <path id="Trazado_230873" data-name="Trazado 230873" d="M27.656,106.028c-.373-.161-.754-.306-1.118-.485a4.6,4.6,0,0,1-2.53-4.86c.453-2.91.982-5.809,1.478-8.712.006-.034.018-.066.026-.1.264-1.105.954-1.651,1.859-1.47a1.539,1.539,0,0,1,1.153,1.98c-.436,2.74-.905,5.475-1.377,8.209-.281,1.627.283,2.348,1.922,2.348q41.617.005,83.234,0c1.574,0,2.158-.741,1.893-2.288q-2.234-13.066-4.45-26.135a5.221,5.221,0,0,0-4-4.555c-3.357-.96-6.687-2.014-10.029-3.024-.289-.087-.586-.147-1-.249,0,2.645-.016,5.207.031,7.768,0,.2.417.471.689.563a7.972,7.972,0,1,1-10.227,7.145,7.868,7.868,0,0,1,5.69-7.18c.294-.1.686-.5.691-.768.051-2.81.031-5.62.031-8.505L86.308,64.1c-.442,1.017-.893,1.969-1.275,2.948Q78.765,83.123,72.514,99.2c-.357.916-.56,2.037-1.844,2.041s-1.493-1.114-1.852-2.03q-6.666-17.02-13.334-34.039c-.124-.316-.278-.621-.476-1.06L49.7,65.7c0,1.166-.039,2.264.028,3.355a1.045,1.045,0,0,0,.6.732,7.651,7.651,0,0,1,5.753,7.3c.343,4.512.71,9.022,1.051,13.535.218,2.888-1.4,4.641-4.281,4.674a10.34,10.34,0,0,1-1.642-.049,1.512,1.512,0,0,1,.16-3.016c.513-.028,1.029-.02,1.543-.012.877.014,1.236-.4,1.166-1.277-.271-3.383-.517-6.768-.778-10.152q-.15-1.948-.326-3.894a4.53,4.53,0,0,0-4.5-4.229,4.409,4.409,0,0,0-4.953,3.768c-.4,3.055-.567,6.14-.827,9.213q-.213,2.511-.4,5.024c-.093,1.29.135,1.529,1.4,1.546.48.006.962-.017,1.439.025a1.422,1.422,0,0,1,1.391,1.4,1.334,1.334,0,0,1-1.1,1.529c-3.483.659-6.579-.637-6.221-4.775.4-4.678.7-9.367,1.174-14.038.339-3.353,2.346-5.462,5.5-6.471.578-.185.773-.406.739-.982-.043-.709-.01-1.422-.01-2.269l-7.586,2.3c-1.147.347-2.285.725-3.443,1.032a5.082,5.082,0,0,0-3.983,4.445c-.55,3.311-1.121,6.619-1.685,9.928a5.674,5.674,0,0,1-.155.7,1.432,1.432,0,0,1-1.7,1.137,1.371,1.371,0,0,1-1.247-1.61c.157-1.325.4-2.64.623-3.956.4-2.364.8-4.728,1.219-7.088a7.672,7.672,0,0,1,5.667-6.392c3.828-1.179,7.671-2.307,11.494-3.5.373-.116.878-.508.933-.837a14,14,0,0,1,9.216-11.4,3.991,3.991,0,0,0,.38-.216l-.626-.772a24.981,24.981,0,0,1-5.206-10.482c-.129-.593-.325-.838-.986-.881-3.135-.2-4.757-1.983-4.777-5.127-.01-1.649-.225-3.472,1.153-4.624,1.252-1.046,1.275-2.232,1.266-3.613-.03-4.458-.076-8.918.027-13.374A11.92,11.92,0,0,1,58.728.714Q70.659.527,82.6.713a11.983,11.983,0,0,1,11.55,11.574c.031.925.041,1.852.016,2.777-.027,1.037-.557,1.629-1.429,1.673a1.51,1.51,0,0,1-1.621-1.606c-.058-.819,0-1.646-.042-2.468A8.984,8.984,0,0,0,81.9,3.769q-11.265-.088-22.532,0a8.854,8.854,0,0,0-9.08,8.844c-.141,5.375-.032,10.757-.032,16.136l2.667.885c.018-.379.048-.734.049-1.088,0-3.532,0-7.065,0-10.6.008-4.283,2.557-6.825,6.853-6.845.789,0,1.58.04,2.366-.009a8.144,8.144,0,0,1,5.914,1.861,3.949,3.949,0,0,0,5.137-.02A8.041,8.041,0,0,1,79.066,11.1c.923.056,1.852-.005,2.777.013a6.244,6.244,0,0,1,6.5,6.571c.025,3.6.005,7.2.005,10.8v1.163l2.739-.892c0-1.756,0-3.565,0-5.374,0-1.677.485-2.4,1.582-2.386,1.058.015,1.5.7,1.5,2.332,0,1.337-.044,2.677.027,4.011a1.859,1.859,0,0,0,.565,1.181,4.424,4.424,0,0,1,1.7,3.053,18.936,18.936,0,0,1,.019,3.484,4.414,4.414,0,0,1-4.5,3.963c-.762.045-1.031.272-1.2,1.018a24.915,24.915,0,0,1-5.124,10.3c-.211.262-.42.526-.614.77a40.9,40.9,0,0,1,3.6,2,13.448,13.448,0,0,1,5.836,9.407,1.221,1.221,0,0,0,1.035,1.151c3.775,1.115,7.537,2.274,11.308,3.406a7.783,7.783,0,0,1,5.866,6.572q2.309,13.47,4.614,26.941a4.6,4.6,0,0,1-3.09,5.194c-.187.07-.364.166-.546.25ZM53.12,33.755a47.842,47.842,0,0,0,.645,6.362,20.163,20.163,0,0,0,5.373,9.452c4.195,4.331,9.229,6.233,15.2,4.769,4.367-1.07,7.571-3.873,10.087-7.5,2.723-3.928,4.194-8.2,3.484-13.056-2.163-.267-2.647-.822-2.648-3.052,0-4.355.006-8.711,0-13.067,0-1.726-.871-3.23-2.325-3.312-2.772-.156-5.584-.767-8.177,1.24a6.431,6.431,0,0,1-7.977.141,7.928,7.928,0,0,0-5.467-1.543c-.511.045-1.028,0-1.543.007-2.525.015-3.7,1.194-3.706,3.724q-.007,6.534,0,13.067c0,1.954-.659,2.638-2.944,2.769M80.805,62.593c-1.692-2.024-1.631-4.38-1.583-6.848a18.325,18.325,0,0,1-8.6,2.142,18.865,18.865,0,0,1-8.51-2.108c.066,2.51.066,4.846-1.572,6.823,3.3,2.467,6.5,4.872,9.724,7.248a.858.858,0,0,0,.8.007c3.225-2.376,6.428-4.782,9.747-7.265M93.1,87.52a4.872,4.872,0,1,0-4.844-4.941A4.9,4.9,0,0,0,93.1,87.52M70.548,95.028l.242-.006q1.217-3.209,2.43-6.418a1.012,1.012,0,0,0,.095-.494c-.458-2.556-.931-5.11-1.413-7.734a9.329,9.329,0,0,1-1.4-.012c-.9-.144-1.183.268-1.3,1.1-.184,1.355-.494,2.693-.726,4.043-.167.974-.622,2.048-.374,2.914.646,2.252,1.607,4.413,2.443,6.61M91.277,62.361c-.6-4.266-4.765-8.179-8.925-8.466,0,1.57-.039,3.137.022,4.7a5.124,5.124,0,0,0,.461,1.554c.212.553.6.672,1.221.608a6.828,6.828,0,0,1,2.313.167c1.618.406,3.207.93,4.907,1.436M58.9,53.882c-4.824.42-8.771,5.4-8.722,8.445,1.611-.481,3.206-.985,4.819-1.425a5.35,5.35,0,0,1,1.809-.221c1.36.113,1.912-.1,2.052-1.508.174-1.748.042-3.526.042-5.291M62.436,73.92l5.147-2.192-8.324-6.216-.162.133,3.339,8.275m19.793-8.259-.174-.14-8.313,6.213L78.9,73.911l3.333-8.249m-8.177,9.724a4.989,4.989,0,0,0-6.773-.008c1.125,2.738,5.609,2.771,6.773.008M47.843,31.621c0,.959-.024,1.769.005,2.577q.076,2.095,2.3,1.623V31.96l-2.307-.339m43.3,4.224c1.361.207,2.118-.108,2.247-1.082a24.758,24.758,0,0,0,.029-3.132l-2.276.345ZM65.73,82.4l.187-.057c.151-.838.326-1.673.437-2.516a1.239,1.239,0,0,0-.169-.839c-.56-.73-1.174-1.42-1.793-2.1-.112-.123-.338-.144-.511-.211-.049.2-.194.443-.134.6.642,1.714,1.317,3.416,1.982,5.122m9.773.245c.768-1.969,1.451-3.7,2.107-5.446.051-.135-.093-.344-.146-.518-.174.061-.395.074-.516.19-1.423,1.357-2.623,2.8-1.628,4.955a5.26,5.26,0,0,1,.184.819" transform="translate(-23.952 -0.621)" fill="#fff"/>
        <circle id="Elipse_5743" data-name="Elipse 5743" cx="9" cy="9" r="9" transform="translate(60.229 73.068)" fill="#8bdae6"/>
        <circle id="Elipse_5744" data-name="Elipse 5744" cx="5" cy="5" r="5" transform="translate(64.229 77.068)" fill="#008bfd"/>
      </g>
    </g>
  </g>
</svg>
