<svg xmlns="http://www.w3.org/2000/svg" width="287" height="148" viewBox="0 0 287 148">
  <g id="Grupo_159306" data-name="Grupo 159306" transform="translate(-335 -7678)">
    <rect id="Rectángulo_47414" data-name="Rectángulo 47414" width="287" height="148" rx="27" transform="translate(335 7678)" fill="#008bfd"/>
    <rect id="Rectángulo_48079" data-name="Rectángulo 48079" width="33" height="47" transform="translate(335 7779)" fill="#008bfd"/>
    <rect id="Rectángulo_48080" data-name="Rectángulo 48080" width="26" height="40" transform="translate(596 7786)" fill="#008bfd"/>
    <g id="Grupo_158605" data-name="Grupo 158605" transform="translate(-779.944 -356.284)">
      <path id="Trazado_230838" data-name="Trazado 230838" d="M142.747,186.589a4.816,4.816,0,0,1-.344.906q-7.621,13.142-15.268,26.27a1.727,1.727,0,0,1-2.431.823,1.761,1.761,0,0,1-.553-2.512c.12-.236.264-.459.4-.688l9.786-16.822c1.648-2.832,3.281-5.673,4.957-8.489a3.139,3.139,0,0,1,1.13-1.188,1.679,1.679,0,0,1,2.326,1.7" transform="translate(1118.009 7932.265)" fill="#8bdae6"/>
      <path id="Trazado_230839" data-name="Trazado 230839" d="M280.333,214.822a1.694,1.694,0,0,1-1.466-2.111,4.8,4.8,0,0,1,.5-1.073q7.406-12.748,14.825-25.489a5.231,5.231,0,0,1,.553-.821,1.648,1.648,0,0,1,2.153-.344,1.624,1.624,0,0,1,.707,1.986,4.26,4.26,0,0,1-.443.885q-7.432,12.791-14.866,25.58a2.219,2.219,0,0,1-1.968,1.387" transform="translate(1001.679 7932.263)" fill="#8bdae6"/>
      <path id="Trazado_230840" data-name="Trazado 230840" d="M62.353,241.582c-1.592,0-3.184.006-4.775,0a5.128,5.128,0,0,1-1.082-.111,1.661,1.661,0,0,1-.03-3.23,3.311,3.311,0,0,1,.784-.111q5.174-.011,10.347,0a3.682,3.682,0,0,1,.688.086,1.564,1.564,0,0,1,1.385,1.676,1.479,1.479,0,0,1-1.359,1.584c-1.084.108-2.181.091-3.272.109-.9.015-1.791,0-2.686,0" transform="translate(1169.554 7892.176)" fill="#8bdae6"/>
      <path id="Trazado_230841" data-name="Trazado 230841" d="M217.319,241.564c-1.757,0-3.515.037-5.271-.011-1.522-.042-2.445-1.3-1.741-2.425a2.261,2.261,0,0,1,1.572-.968c3.645-.084,7.293-.069,10.939-.023a1.675,1.675,0,0,1,1.758,1.663,1.709,1.709,0,0,1-1.786,1.741c-1.822.057-3.646.015-5.469.015v.009" transform="translate(1053.289 7892.191)" fill="#8bdae6"/>
      <path id="Trazado_231307" data-name="Trazado 231307" d="M101.886,80.967a12.647,12.647,0,0,1-2.477,5.217,10.435,10.435,0,0,1-7.434,3.7c-.4.026-.8.021-1.194.021q-33.38,0-66.76,0a5.352,5.352,0,0,1-1.375-.129,1.665,1.665,0,0,1,.222-3.246,9.957,9.957,0,0,1,1.389-.056q33.231,0,66.462,0c3.063,0,5.558-1.034,6.937-3.881a8.216,8.216,0,0,0,.774-3.441c.052-13.531.034-27.062.032-40.593,0-.225-.022-.45-.041-.8H97.308c-2.985,0-5.97.006-8.954-.007a4.014,4.014,0,0,1-1.269-.168,1.659,1.659,0,0,1,.269-3.192,7.387,7.387,0,0,1,1.189-.068q4.378-.008,8.755,0h1.1c.027-.389.061-.647.062-.9,0-4.975.015-9.949,0-14.924-.01-2.878-1.672-5.088-4.153-5.564a9.017,9.017,0,0,0-1.583-.136c-1.485-.018-2.971-.006-4.574-.006,0,1.453.039,2.8-.009,4.151a5.705,5.705,0,0,1-10.224,3.3,6.054,6.054,0,0,1-1.2-3.909V12.881H67.174c0,1.108-.005,2.219,0,3.33a5.93,5.93,0,0,1-1.794,4.677,5.7,5.7,0,0,1-9.629-3.819c-.093-1.38-.017-2.771-.017-4.217H46.162c0,1.36.044,2.7-.008,4.045a5.7,5.7,0,0,1-6.313,5.548,5.576,5.576,0,0,1-5.016-4.973c-.112-1.51-.02-3.034-.02-4.615h-9.7c0,1.5.087,2.957-.018,4.4a5.6,5.6,0,0,1-5.717,5.219,5.684,5.684,0,0,1-5.613-5.365c-.075-1.386-.013-2.78-.013-4.415a53.662,53.662,0,0,0-6.475.383,4.733,4.733,0,0,0-3.8,4.857c-.1,5.4-.03,10.806-.03,16.392h1.38q37.409,0,74.819,0a12.118,12.118,0,0,1,1.389.055A1.528,1.528,0,0,1,82.471,35.9a1.513,1.513,0,0,1-1.182,1.72,5.887,5.887,0,0,1-1.473.141q-37.509.01-75.018.006H3.473c-.02.431-.047.754-.048,1.077q0,20.048,0,40.1c0,3.741,1.99,6.539,5.36,7.282a23.568,23.568,0,0,0,4.254.246c1.06.035,2.124-.019,3.182.032a1.685,1.685,0,0,1,.076,3.369,52.516,52.516,0,0,1-8.034-.244C3.7,88.915.183,84.575.015,79.944c-.011-.3-.013-.6-.013-.9q0-30.2,0-60.392c0-3.778,1.493-6.733,4.965-8.364a13.16,13.16,0,0,1,4.22-.907c1.468-.149,2.962-.033,4.557-.033,0-1.353-.047-2.606.009-3.855A5.7,5.7,0,0,1,24.975,4.35a10.628,10.628,0,0,1,.192,2.17c.031.893.007,1.787.007,2.756h9.538c0-1.022-.015-2.065,0-3.107.048-2.839,1.41-4.944,3.723-5.784A5.711,5.711,0,0,1,46.151,5.55c.058,1.219.009,2.443.009,3.733h9.576c0-1.316-.063-2.6.013-3.884A5.694,5.694,0,0,1,66.964,4.35a11.506,11.506,0,0,1,.2,2.269c.032.859.007,1.721.007,2.657h9.6c0-1.362-.079-2.686.016-4A5.669,5.669,0,0,1,82.475,0a5.746,5.746,0,0,1,5.657,5.45c.063,1.252.01,2.509.01,3.9,1.592,0,3.1-.015,4.615,0A9.05,9.05,0,0,1,98.735,11.4a8.746,8.746,0,0,1,2.975,5.027c.047.223.117.441.176.661ZM21.712,11.221h0c0-1.823.049-3.647-.014-5.468a2.242,2.242,0,0,0-3.22-2.061,2.545,2.545,0,0,0-1.338,2.569c0,3.314-.012,6.628.012,9.942a4.285,4.285,0,0,0,.28,1.543,2.242,2.242,0,0,0,4.264-.959c.047-1.854.012-3.711.012-5.567m58.451,0c0,1.723-.013,3.447,0,5.17.015,1.6.876,2.611,2.222,2.653A2.37,2.37,0,0,0,84.732,16.5q.053-5.269,0-10.539a2.294,2.294,0,1,0-4.561.1c-.02,1.723,0,3.447,0,5.17M38.17,11.219c0,1.723-.013,3.447,0,5.17.016,1.607.867,2.61,2.215,2.659A2.364,2.364,0,0,0,42.738,16.5q.057-5.269,0-10.538a2.293,2.293,0,1,0-4.56.085c-.022,1.723,0,3.447-.005,5.17m25.546.09c0-1.756.017-3.513-.005-5.269a2.293,2.293,0,1,0-4.56-.066q-.063,5.269,0,10.538a2.367,2.367,0,0,0,2.357,2.535,2.325,2.325,0,0,0,2.2-2.569c.023-1.723.005-3.447.005-5.17" transform="translate(1211.001 8070.951)" fill="#fff"/>
    </g>
  </g>
</svg>
