<svg xmlns="http://www.w3.org/2000/svg" width="287" height="148" viewBox="0 0 287 148">
  <g id="Grupo_159308" data-name="Grupo 159308" transform="translate(-335 -7678)">
    <rect id="Rectángulo_47414" data-name="Rectángulo 47414" width="287" height="148" rx="27" transform="translate(335 7678)" fill="#008bfd"/>
    <rect id="Rectángulo_48079" data-name="Rectángulo 48079" width="33" height="47" transform="translate(335 7779)" fill="#008bfd"/>
    <rect id="Rectángulo_48080" data-name="Rectángulo 48080" width="26" height="40" transform="translate(596 7786)" fill="#008bfd"/>
    <g id="Grupo_158595" data-name="Grupo 158595" transform="translate(422.325 7711.526)">
      <g id="Grupo_158247" data-name="Grupo 158247" transform="translate(0 0)">
        <path id="Trazado_230805" data-name="Trazado 230805" d="M0,83.785c.047-.059.119-.11.138-.177C.968,80.637,2.461,79.5,5.56,79.49q15.446-.033,30.892-.06h1.286c0-1.806,0-3.527,0-5.249,0-.887-.011-1.774,0-2.661a4.806,4.806,0,0,1,5.027-5.027c4.936-.039,9.873-.03,14.81-.036q8.793-.011,17.587-.011c3.461,0,5.376,1.911,5.386,5.353q.01,3.587.016,7.174a3.785,3.785,0,0,0,.077.422H81.81c4.088,0,8.177-.049,12.264.037a2.634,2.634,0,0,1,1.878.983c.741,1.119-.234,2.424-1.733,2.436-3.278.026-6.556.013-9.835.016H80.632V90c.351.018.717.053,1.083.052q15.562-.009,31.124-.025c1.532,0,1.927-.392,1.936-1.9.007-1.157.009-2.314,0-3.471-.014-1.383-.421-1.8-1.786-1.8-3.124-.007-6.248,0-9.372,0-.385,0-.772.016-1.157,0a1.722,1.722,0,0,1-1.837-1.79,1.69,1.69,0,0,1,1.826-1.673c1.233-.032,2.468-.01,3.7-.01,2.43,0,4.86-.022,7.289.007a4.75,4.75,0,0,1,4.8,4.761c.039,1.542.043,3.087,0,4.628a4.778,4.778,0,0,1-4.738,4.718c-1.108.035-2.218.006-3.451.006,0,.615,0,1.106,0,1.6q.03,19.208.056,38.416a5.76,5.76,0,0,1-.1,1.376,1.7,1.7,0,0,1-3.349-.266c-.036-.422-.023-.848-.024-1.272q-.033-19.092-.063-38.185c0-.5,0-1,0-1.578H80.664v7.11h1.251q7.983,0,15.967-.008c2.859,0,4.147,1.3,4.151,4.187q.013,8.389.012,16.778c0,2.742-1.294,4.041-4.03,4.047q-7.983.017-15.967.015H80.7v22.2h25.952c0-1.873-.03-3.675.01-5.474a1.682,1.682,0,0,1,2.27-1.694,1.813,1.813,0,0,1,1.187,1.921c0,1.694,0,3.389,0,5.269h3.7c.81,0,1.622.037,2.429-.009a2.489,2.489,0,0,1,2.244,1.124v1.157a2.367,2.367,0,0,1-2.4,1.216q-21.559.007-43.119.07-35.258.051-70.517.1A2.612,2.612,0,0,1,0,150.44v-1.157a2.365,2.365,0,0,1,2.418-1.193c1.949.064,3.9.018,5.914.018v-1.561q0-19.441,0-38.881a6.075,6.075,0,0,1,.045-1.268A1.613,1.613,0,0,1,10.1,105a1.619,1.619,0,0,1,1.673,1.458,6.335,6.335,0,0,1,.032,1.154q0,19.556,0,39.112v1.259H37.752v-22.2c-.645,0-1.215,0-1.784,0-5.13.017-10.259.043-15.389.049-2.908,0-4.17-1.26-4.175-4.147q-.014-8.274-.017-16.548c0-3.161,1.167-4.343,4.306-4.35q7.81-.016,15.62-.025h1.34v-7.1H11.8c0,1.622.006,3.157,0,4.692-.007,1.39-.6,2.149-1.679,2.181-1.134.033-1.781-.75-1.789-2.188-.008-1.533,0-3.066,0-4.708-1.178,0-2.248.017-3.317,0A4.662,4.662,0,0,1,.676,91.051,13.4,13.4,0,0,1,0,89.108V83.785m77.166,64.14c0-.5,0-.841,0-1.186q-.045-37.432-.091-74.864c0-1.575-.389-1.958-1.993-1.957q-15.909.015-31.817.04c-1.67,0-2.056.382-2.054,2.03q.046,37.373.1,74.747c0,.41.037.819.058,1.269h4.262c0-.51,0-.961,0-1.412q-.012-14.406-.021-28.812a5.476,5.476,0,0,1,5.839-5.885c5.206-.028,10.413-.019,15.619-.03a5.581,5.581,0,0,1,3.838,1.345,5.932,5.932,0,0,1,1.909,4.772q0,14.29.036,28.58c0,.447,0,.895,0,1.362Zm-28.062.03H69.3a6.2,6.2,0,0,0,.073-.643q-.017-14.8-.049-29.594c-.005-1.67-.753-2.373-2.44-2.375q-7.514-.009-15.027.02c-2.177,0-2.78.625-2.778,2.852q.011,14.219.026,28.438c0,.413,0,.827,0,1.3m49.4-43.711H80.681v17.9H98.5Zm-60.775.077H19.962v17.916H37.728Zm-.041-21.273a1.556,1.556,0,0,0-.33-.108q-16.123.009-32.247.027a1.4,1.4,0,0,0-1.546,1.6q-.006,1.676,0,3.352c.008,1.956.262,2.218,2.19,2.216q12.6-.009,25.2-.023c2.224,0,4.447,0,6.733,0Z" transform="translate(0 -66.446)" fill="#fff"/>
        <path id="Trazado_230806" data-name="Trazado 230806" d="M0,400.5" transform="translate(0 -316.503)" fill="#fff"/>
        <path id="Trazado_230811" data-name="Trazado 230811" d="M187.055,114.208c0-1.87-.009-3.6,0-5.322.016-2.421,1.3-3.7,3.718-3.719,1.233-.011,2.467-.034,3.7-.006a3.252,3.252,0,0,1,3.458,3.49c.021,1.8,0,3.6,0,5.53,1.8,0,3.487-.005,5.17,0,2.669.01,3.86,1.209,3.872,3.892.006,1.233.026,2.467-.007,3.7a3.151,3.151,0,0,1-3.276,3.283c-1.847.036-3.695.008-5.74.008,0,.778,0,1.491,0,2.2,0,1.272.035,2.545-.025,3.815a3.044,3.044,0,0,1-2.944,2.991c-1.616.068-3.238.071-4.854.007a3.186,3.186,0,0,1-3.049-3.409c-.038-1.807-.008-3.615-.008-5.575-1.611,0-3.138-.008-4.666,0-3.3.019-4.374-1.041-4.377-4.321,0-1.041-.023-2.082,0-3.122a3.275,3.275,0,0,1,3.414-3.439c1.808-.048,3.618-.01,5.6-.01m-5.488,7.4c2.384,0,4.655-.019,6.925.007,1.425.016,2.02.64,2.044,2.064.016.963.006,1.927.006,2.89q0,2,0,3.993h3.938c0-1.564,0-3.058,0-4.552,0-4.416,0-4.416,4.36-4.416h4.568v-3.934c-2.214,0-4.329,0-6.444,0-2,0-2.489-.5-2.494-2.547q0-1.676,0-3.353c0-1.02,0-2.041,0-3.05h-3.934c0,2.224,0,4.374,0,6.524,0,1.95-.49,2.434-2.465,2.438-2.146,0-4.293,0-6.5,0Z" transform="translate(-133.348 -95.436)" fill="#8bdae6"/>
      </g>
    </g>
  </g>
</svg>
