<svg xmlns="http://www.w3.org/2000/svg" width="287" height="148" viewBox="0 0 287 148">
  <g id="Grupo_159308" data-name="Grupo 159308" transform="translate(-335 -7678)">
    <rect id="Rectángulo_47414" data-name="Rectángulo 47414" width="287" height="148" rx="27" transform="translate(335 7678)" fill="#008bfd"/>
    <rect id="Rectángulo_48079" data-name="Rectángulo 48079" width="33" height="47" transform="translate(335 7779)" fill="#008bfd"/>
    <rect id="Rectángulo_48080" data-name="Rectángulo 48080" width="26" height="40" transform="translate(596 7786)" fill="#008bfd"/>
    <g id="Grupo_158602" data-name="Grupo 158602" transform="translate(440 7700.853)">
      <g id="Grupo_158588" data-name="Grupo 158588" transform="translate(0)">
        <path id="Trazado_230832" data-name="Trazado 230832" d="M42.368,0c2.014.833,2.647,2.37,2.644,4.495q-.057,47.366,0,94.732c0,2.125-.637,3.657-2.644,4.494H2.662C.64,102.9,0,101.385,0,99.246Q.062,51.81,0,4.374C0,2.259.7.805,2.662,0ZM3.559,3.49V100.2H41.446V95.061H40.156q-10.989,0-21.978,0a7.638,7.638,0,0,1-1.112-.036,1.69,1.69,0,0,1-.311-3.27,4.2,4.2,0,0,1,1.295-.144Q29.14,91.6,40.23,91.6h1.229V88.148H40.288c-3.545,0-7.09.011-10.634-.006-1.475-.007-2.354-1.193-1.8-2.408a1.864,1.864,0,0,1,1.916-1.044c3.545.011,7.09,0,10.634,0h1.075V81.242H18.152a8.586,8.586,0,0,1-1.012-.02,1.715,1.715,0,0,1,.019-3.413,7.748,7.748,0,0,1,.911-.017H41.462V74.34H40.288q-5.216,0-10.432,0c-1.371,0-2.143-.641-2.141-1.738s.764-1.708,2.152-1.71q5.267-.007,10.533,0h1.075V67.434H40.227q-11.09,0-22.181-.007a4.03,4.03,0,0,1-1.387-.181,1.546,1.546,0,0,1-1.03-1.774,1.568,1.568,0,0,1,1.439-1.461,7.673,7.673,0,0,1,1.112-.03q11.04,0,22.079,0H41.48V60.521h-1.13q-5.267,0-10.533,0c-.956,0-1.755-.27-2.038-1.292-.337-1.215.492-2.155,1.931-2.162,3.545-.018,7.09-.006,10.634-.007h1.1V53.6H40.153q-10.989,0-21.978,0c-1.771,0-2.557-.532-2.562-1.727s.768-1.742,2.545-1.742H41.476V46.661H40.362c-3.545,0-7.09.011-10.634-.006-1.448-.007-2.275-.928-1.952-2.148A1.8,1.8,0,0,1,29.8,43.2q5.267,0,10.533,0h1.121V39.743H18.2a8.138,8.138,0,0,1-1.112-.03,1.692,1.692,0,0,1-.351-3.269,4.061,4.061,0,0,1,1.292-.15q11.141-.012,22.282-.006h1.159V32.834H40.314c-3.545,0-7.09.008-10.634,0-1.382-.005-2.171-.89-1.921-2.1.18-.87.852-1.345,1.981-1.348,3.545-.009,7.09,0,10.634,0h1.079V25.93H18.083a6.639,6.639,0,0,1-1.011-.029,1.691,1.691,0,0,1-1.459-1.779A1.672,1.672,0,0,1,17.129,22.5a8.591,8.591,0,0,1,1.012-.02H41.468V19.027H40.309q-5.216,0-10.432,0c-1.378,0-2.153-.631-2.162-1.722s.751-1.725,2.133-1.727q5.267-.009,10.533,0h1.1V12.118H40.235q-11.09,0-22.181-.006a4.236,4.236,0,0,1-1.3-.145,1.56,1.56,0,0,1-1.131-1.8A1.556,1.556,0,0,1,17.061,8.7a7.7,7.7,0,0,1,1.112-.036q11.04,0,22.079,0h1.211V3.49Z" transform="translate(0)" fill="#8bdae6"/>
        <path id="Trazado_230833" data-name="Trazado 230833" d="M301.218,294.216c-.4-.161-.815-.294-1.2-.487A5.322,5.322,0,0,1,297,288.537q.017-11.343,0-22.687v-1.136a15.774,15.774,0,0,1-2.714-.025,5.013,5.013,0,0,1-4.174-4.909c-.053-4.186-.093-8.374.013-12.558a8.545,8.545,0,0,1,8.528-8.307c4.591-.042,9.183-.028,13.774-.007a8.559,8.559,0,0,1,8.776,8.479c.113,4.082.084,8.17.011,12.254a5.128,5.128,0,0,1-6.342,5.028c-.131-.024-.267-.02-.555-.041v1.2c0,7.292-.068,14.585.031,21.876.044,3.217-1.034,5.491-4.218,6.512h-2.026c-.706-.364-1.4-.745-2.124-1.081a.821.821,0,0,0-.62-.006c-.718.337-1.414.721-2.119,1.087Zm9.636-25.967v-1.326q0-7.444,0-14.888c0-.3-.009-.608.008-.911a1.726,1.726,0,1,1,3.442.024c.034,2.734,0,5.469.021,8.2.008,1.233.652,1.986,1.66,2.019a1.79,1.79,0,0,0,1.787-2.018c.018-3.916.053-7.833-.01-11.748a5.148,5.148,0,0,0-5.386-5.244q-6.684-.02-13.369,0a5.189,5.189,0,0,0-5.454,5.386c-.025,3.815-.011,7.63,0,11.445,0,1.348.671,2.174,1.728,2.182s1.718-.8,1.723-2.162c.008-2.532,0-5.064.009-7.6a3.886,3.886,0,0,1,.147-1.194,1.557,1.557,0,0,1,1.717-1.129,1.588,1.588,0,0,1,1.552,1.468,8.4,8.4,0,0,1,.034,1.112q0,7.6,0,15.192v1.186Zm-3.4,3.516c-.028.286-.064.483-.064.68q0,8.1,0,16.194a3.443,3.443,0,0,0,.083.8,1.689,1.689,0,0,0,3.287,0,4.793,4.793,0,0,0,.09-1.1q.008-7.743,0-15.485c0-.356-.035-.711-.054-1.087Zm-3.533.045h-3.41c-.02.232-.047.4-.047.559q0,8.147,0,16.293a3.065,3.065,0,0,0,.1.8,1.63,1.63,0,0,0,1.713,1.286,1.651,1.651,0,0,0,1.612-1.522,8.22,8.22,0,0,0,.034-1.01q0-7.641,0-15.281Z" transform="translate(-231.299 -190.494)" fill="#fff"/>
        <path id="Trazado_230834" data-name="Trazado 230834" d="M355.141,507.493c.7-.366,1.4-.75,2.119-1.087a.822.822,0,0,1,.62.005c.719.336,1.418.717,2.124,1.082Z" transform="translate(-283.196 -403.772)" fill="#fff"/>
        <path id="Trazado_230835" data-name="Trazado 230835" d="M333.027,162.32a8.633,8.633,0,1,1,8.633-8.609,8.659,8.659,0,0,1-8.633,8.609M333,158.862a5.146,5.146,0,0,0,5.189-5.1,5.186,5.186,0,1,0-5.189,5.1" transform="translate(-258.653 -115.669)" fill="#fff"/>
        <path id="Trazado_230836" data-name="Trazado 230836" d="M245.154,124.712c2.955,0,5.82,0,8.685,0a6.658,6.658,0,0,1,.909.022,1.7,1.7,0,0,1,1.516,1.825,1.64,1.64,0,0,1-1.745,1.591c-2.731.026-5.462.011-8.193.012h-1.41c.758.762,1.335,1.334,1.9,1.916.944.969,1.047,1.995.287,2.749s-1.757.664-2.743-.313q-2.3-2.278-4.577-4.577c-1.052-1.065-1.056-1.908-.012-2.965q2.311-2.338,4.649-4.648c.959-.947,2-1.027,2.744-.246.722.764.619,1.734-.291,2.676-.538.557-1.086,1.106-1.626,1.663-.037.038-.039.112-.1.294" transform="translate(-190.578 -95.331)" fill="#fff"/>
      </g>
    </g>
  </g>
</svg>
