<svg xmlns="http://www.w3.org/2000/svg" width="287" height="148" viewBox="0 0 287 148">
  <g id="Grupo_159308" data-name="Grupo 159308" transform="translate(-335 -7678)">
    <rect id="Rectángulo_47414" data-name="Rectángulo 47414" width="287" height="148" rx="27" transform="translate(335 7678)" fill="#008bfd"/>
    <rect id="Rectángulo_48079" data-name="Rectángulo 48079" width="33" height="47" transform="translate(335 7779)" fill="#008bfd"/>
    <rect id="Rectángulo_48080" data-name="Rectángulo 48080" width="26" height="40" transform="translate(596 7786)" fill="#008bfd"/>
    <g id="Grupo_158600" data-name="Grupo 158600" transform="translate(412.49 7703.006)">
      <g id="Grupo_158253" data-name="Grupo 158253" transform="translate(0 0)">
        <path id="Trazado_230816" data-name="Trazado 230816" d="M49.384,97.981c-11.625,0-23.25.024-34.875-.009C7.278,97.951,1.63,93.386.268,86.5a17.876,17.876,0,0,1-.256-3.44Q-.008,49.019.006,14.981C.01,7.549,4.238,1.982,11.077.4A14.791,14.791,0,0,1,14.366.028Q49.518,0,84.669.035A14.032,14.032,0,0,1,98.813,12.15a15.2,15.2,0,0,1,.142,2.481q.011,34.384,0,68.767c-.006,7.472-4.749,13.179-11.939,14.408a19.048,19.048,0,0,1-3.172.168q-17.23.016-34.46.006m.048-4.151q17.295,0,34.59,0c6.67,0,10.784-4.109,10.785-10.764q.008-34.03,0-68.06c0-6.71-4.149-10.839-10.89-10.84q-34.452-.006-68.9,0C8.3,4.165,4.159,8.3,4.157,15.04Q4.146,49,4.157,82.962c0,6.775,4.08,10.863,10.823,10.866q17.226.009,34.452,0" transform="translate(0 -0.001)" fill="#fff"/>
        <path id="Trazado_230817" data-name="Trazado 230817" d="M306.372,73.518a21.221,21.221,0,0,1,3.715-.908,6.328,6.328,0,0,1,5.053,10.518q-5.292,5.558-10.853,10.858a6.04,6.04,0,0,1-8.422-.085q-5.638-5.41-11.053-11.052a6.175,6.175,0,0,1-.35-8.122,6.351,6.351,0,0,1,7.936-1.847c.323.156.642.32,1.11.553.027-.6.067-1.081.068-1.564,0-8.484-.01-16.968.011-25.452a6.393,6.393,0,1,1,12.776-.039c.03,8.576.009,17.153.009,25.729v1.41m-4.152-11.042q0-3.734,0-7.468c0-2.9.024-5.809-.014-8.713a2.24,2.24,0,1,0-4.468.008c-.017.368-.007.737-.007,1.106V64.421c0,4.379-.007,8.759,0,13.138,0,1.19-.025,2.345-1.349,2.9-1.294.545-2.075-.28-2.867-1.084-.744-.756-1.477-1.524-2.257-2.242a2.248,2.248,0,0,0-3.325-.047,2.163,2.163,0,0,0,.155,3.209q5.152,5.214,10.37,10.364a2.118,2.118,0,0,0,3.3.03q5.081-4.992,10.078-10.069a2.238,2.238,0,1,0-3.133-3.193c-.85.777-1.656,1.6-2.452,2.437-.777.813-1.607,1.433-2.791.909-1.1-.488-1.262-1.447-1.257-2.533.022-5.255.01-10.511.01-15.766" transform="translate(-178.661 -25.084)" fill="#fff"/>
        <path id="Trazado_230820" data-name="Trazado 230820" d="M64.128,58.389q-15.769,0-31.538.005a9.175,9.175,0,0,1-5.868-1.652,7.913,7.913,0,0,1-3.31-6.525c-.015-6.73-.041-13.461,0-20.191a8.16,8.16,0,0,1,7.957-8.272c.23-.013.461-.016.691-.016q32.16,0,64.32.006c4.515,0,7.812,2.663,8.592,6.867a11.482,11.482,0,0,1,.128,2.063q.014,9.335,0,18.67c0,5.653-3.333,9.022-9.028,9.037-10.651.028-21.3.008-31.952.008m-9.754-4.232c-1.426-1.585-2.713-2.94-3.915-4.367a5.774,5.774,0,0,1,.73-8.37,5.84,5.84,0,0,1,8.089.777c3.411,3.693,6.752,7.452,10.172,11.136a2.707,2.707,0,0,0,1.717.867q12.594.083,25.189.026c3.03-.011,4.6-1.642,4.6-4.644q.011-9.479,0-18.958c0-3.083-1.6-4.73-4.662-4.732q-32.04-.013-64.08,0c-3.088,0-4.654,1.6-4.658,4.715q-.012,9.271,0,18.542c0,3.655,1.43,5.082,5.123,5.086q10.034.011,20.068,0c.446,0,.892-.042,1.63-.078m10.187.014c-2.844-3.132-5.5-6.044-8.142-8.973-.771-.856-1.621-1.254-2.641-.5-.888.658-.826,1.658.146,2.746a54.347,54.347,0,0,1,4.494,5.036c1.611,2.338,3.739,1.708,6.143,1.69" transform="translate(-14.761 -13.716)" fill="#fff"/>
        <path id="Trazado_230821" data-name="Trazado 230821" d="M45.812,143.54a13.988,13.988,0,0,1,6.526-11.248,36.875,36.875,0,0,1,3.937-2.3,5.225,5.225,0,0,1,7.649,3.58c.678,3.1,1.063,6.27,1.8,9.356a32.038,32.038,0,0,0,8.566,15.077,7.535,7.535,0,0,1,2.432,4.677,6.639,6.639,0,0,1-5.241,7.118,13.28,13.28,0,0,1-15.17-7.586,21.756,21.756,0,0,0-3.094-4.346c-.942-1.126-2.117-2.053-3.155-3.1-2.783-2.8-4.256-6.415-4.248-11.231m4.129,1.471a28.94,28.94,0,0,0,.714,3.152c.719,2.231,2.364,3.816,4.055,5.329a22.973,22.973,0,0,1,5.779,7.65c1.5,3.275,4.358,4.807,7.932,4.778,1.463-.012,3.19.163,3.964-1.6.781-1.779-.51-2.838-1.554-3.935a35.677,35.677,0,0,1-9.012-15.948c-.792-3.117-1.217-6.328-1.814-9.494-.258-1.368-.949-1.737-2.15-1.09a36.763,36.763,0,0,0-3.211,1.9c-3.039,2.06-4.576,4.961-4.7,9.261" transform="translate(-28.91 -81.637)" fill="#8bdae6"/>
        <path id="Trazado_230822" data-name="Trazado 230822" d="M169.528,143.979a14.839,14.839,0,0,1-4.259,10.818c-1.062,1.089-2.281,2.038-3.255,3.2a20.893,20.893,0,0,0-3,4.247,13.283,13.283,0,0,1-15.165,7.6,6.631,6.631,0,0,1-4-10.416,8.987,8.987,0,0,1,.9-1.051,34.565,34.565,0,0,0,9.909-20.67c.158-1.233.379-2.459.609-3.68a5.355,5.355,0,0,1,8.139-3.82c1.131.62,2.263,1.247,3.338,1.956a14.3,14.3,0,0,1,6.789,11.816m-4.165.374c-.027-.392-.027-.9-.1-1.4-.733-4.877-4.195-7.362-8.251-9.26-.883-.413-1.488.152-1.651,1.107-.273,1.589-.587,3.172-.818,4.767a37.343,37.343,0,0,1-10.016,20.831,13.062,13.062,0,0,0-1.364,1.559,2.443,2.443,0,0,0,1.479,3.8c4.452,1.043,8.435-1.03,10.554-5.107a36.876,36.876,0,0,1,4.114-5.811c.943-1.18,2.184-2.117,3.229-3.221a10.266,10.266,0,0,0,2.828-7.264" transform="translate(-87.439 -81.676)" fill="#8bdae6"/>
        <path id="Trazado_230827" data-name="Trazado 230827" d="M162.825,51.609a2.074,2.074,0,0,1,2.041,2.142,3.075,3.075,0,0,1-2.577,2.8,2.147,2.147,0,0,1-2.046-2.169,3.04,3.04,0,0,1,2.582-2.777" transform="translate(-101.123 -32.569)" fill="#fff"/>
        <path id="Trazado_230828" data-name="Trazado 230828" d="M99.434,54.331a2.127,2.127,0,0,1-2.075,2.142,3.091,3.091,0,0,1-2.537-2.842,2.021,2.021,0,0,1,1.919-2.1,2.974,2.974,0,0,1,2.693,2.8" transform="translate(-59.838 -32.515)" fill="#fff"/>
        <path id="Trazado_230829" data-name="Trazado 230829" d="M73.151,80.413a3.169,3.169,0,0,1-2.873-2.506,2.147,2.147,0,0,1,2.094-2.122,3,3,0,0,1,2.84,2.65,2.069,2.069,0,0,1-2.061,1.979" transform="translate(-44.35 -47.826)" fill="#fff"/>
        <path id="Trazado_230830" data-name="Trazado 230830" d="M132.277,45.109c0,1.624-.719,2.522-2.041,2.532s-2.1-.91-2.107-2.491.764-2.524,2.065-2.536c1.324-.012,2.078.89,2.083,2.495" transform="translate(-80.859 -26.892)" fill="#fff"/>
        <path id="Trazado_230831" data-name="Trazado 230831" d="M185.836,80.662a2.03,2.03,0,0,1-2.084-2.075,3.053,3.053,0,0,1,2.851-2.48,1.985,1.985,0,0,1,2.061,2.08,2.922,2.922,0,0,1-2.828,2.475" transform="translate(-115.96 -48.029)" fill="#fff"/>
      </g>
    </g>
  </g>
</svg>
