<svg xmlns="http://www.w3.org/2000/svg" width="90.795" height="98.066" viewBox="0 0 90.795 98.066">
  <g id="Grupo_159289" data-name="Grupo 159289" transform="translate(-436.603 -487.933)">
    <g id="Grupo_159088" data-name="Grupo 159088" transform="translate(431.805 487.945)">
      <g id="Grupo_159089" data-name="Grupo 159089" transform="translate(4.798 -0.012)">
        <path id="Trazado_232193" data-name="Trazado 232193" d="M76.263,0a9.432,9.432,0,0,1,3.863,2.68q6.263,6.329,12.6,12.586a6.163,6.163,0,0,1,2.015,4.863c-.06,1.529-.006,3.063-.014,4.6-.007,1.32-.482,1.941-1.452,1.926s-1.409-.637-1.419-1.974c-.012-1.691-.019-3.382-.033-5.072,0-.055-.049-.109-.12-.259h-.986q-5.793,0-11.586,0a3.392,3.392,0,0,1-3.74-3.74c-.016-3.829,0-7.659,0-11.489V2.873H20.175c-2.253,0-3.081.843-3.081,3.14q0,18.238,0,36.477c0,.319.013.639-.009.957a1.377,1.377,0,0,1-1.391,1.4,1.411,1.411,0,0,1-1.456-1.35,8.524,8.524,0,0,1-.016-.956c0-11.936.059-23.872-.039-35.807C14.155,3.443,15.191,1.109,18.413,0Zm2.065,5.258a.349.349,0,0,0-.056.167c-.006,3.411,0,6.821-.013,10.232,0,.708.382.825.982.822,3.315-.016,6.631-.007,9.947-.011a1.172,1.172,0,0,0,.284-.042L78.328,5.258" transform="translate(-14.181)" fill="#12263f"/>
        <path id="Trazado_232194" data-name="Trazado 232194" d="M18.718,242.711a17.9,17.9,0,0,1-2.79-1.574,4.656,4.656,0,0,1-1.589-3.761q-.012-20.685,0-41.369c0-1.11.566-1.761,1.459-1.753s1.408.644,1.408,1.784q0,20.4,0,40.795c0,1.078.155,2.1,1.2,2.619a4.243,4.243,0,0,0,1.834.371q26.1.028,52.2.015,8.284,0,16.569,0c2.121,0,2.968-.833,2.969-2.951q.008-13.694.005-27.388a5.753,5.753,0,0,1,.067-1.143,1.289,1.289,0,0,1,1.443-1.114,1.269,1.269,0,0,1,1.31,1.155,7.284,7.284,0,0,1,.049,1.146q0,13.311,0,26.622c0,3.881-.793,5.09-4.291,6.547Z" transform="translate(-14.294 -144.645)" fill="#12263f"/>
        <path id="Trazado_232195" data-name="Trazado 232195" d="M216.111,156.071c.939.7,1.829,1.366,2.713,2.036a4.7,4.7,0,0,1,1.03,7.042c-.716.979-1.449,1.945-2.179,2.913-1.184,1.57-2.41,1.743-4.015.574-.2-.147-.407-.29-.68-.483-.611.816-1.192,1.609-1.791,2.389a2.4,2.4,0,0,1-3.668.554q-6.5-4.821-12.962-9.681a2.4,2.4,0,0,1-.529-3.671c.559-.776,1.141-1.536,1.793-2.409-.328-.258-.644-.5-.952-.75a2.354,2.354,0,0,1-.513-3.461c.87-1.221,1.762-2.429,2.7-3.6a4.616,4.616,0,0,1,6.348-.923c1.047.718,2.047,1.5,3.146,2.318,1.585-2.16,3.191-4.223,4.65-6.384a4.873,4.873,0,0,0,.349-4.155,13.408,13.408,0,0,1,2.774-12.73,13.733,13.733,0,0,1,20.027-.8c.81.824.883,1.709.194,2.328-.645.579-1.4.5-2.194-.274a10.821,10.821,0,0,0-18.1,10.379,8.756,8.756,0,0,1-1.65,8.338c-1.293,1.611-2.486,3.3-3.764,5.01l4.975,3.717c1.37-1.832,2.722-3.6,4.025-5.394a8.168,8.168,0,0,1,6.946-3.562,10.163,10.163,0,0,0,1.806-.159,10.8,10.8,0,0,0,8.744-12.824c-.225-1.165.152-1.9,1.07-2.081.853-.168,1.469.364,1.723,1.49,1.807,8.018-4.423,16.2-12.635,16.4a6.565,6.565,0,0,0-5.85,3.1c-1.063,1.62-2.3,3.123-3.522,4.753m-.792,10.218a2.011,2.011,0,0,0,.236-.2c.634-.84,1.271-1.679,1.9-2.525,1.014-1.371.893-2.221-.463-3.238q-3.178-2.383-6.361-4.758-4.254-3.181-8.511-6.358c-1.027-.764-1.983-.83-2.659-.046-.909,1.053-1.7,2.2-2.573,3.345l18.433,13.781m-6.3,2.351,1.662-2.227-12.536-9.37-1.673,2.218,12.547,9.379" transform="translate(-147.637 -90.024)" fill="#0158a0"/>
        <path id="Trazado_232196" data-name="Trazado 232196" d="M82.079,91.979q-14.266,0-28.532,0a4.976,4.976,0,0,1-1.23-.108,1.289,1.289,0,0,1-1.026-1.425,1.317,1.317,0,0,1,1.271-1.32,8.413,8.413,0,0,1,.861-.016h57.351c.287,0,.576-.014.861.015a1.407,1.407,0,0,1,.211,2.77,4.763,4.763,0,0,1-1.139.085q-14.313.006-28.627,0" transform="translate(-41.81 -66.348)" fill="#12263f"/>
        <path id="Trazado_232197" data-name="Trazado 232197" d="M78.081,120.493H102.31c.287,0,.575-.007.862,0,1.033.038,1.682.6,1.666,1.445s-.66,1.383-1.707,1.423c-.159.006-.319,0-.479,0q-24.612,0-49.224,0a4.794,4.794,0,0,1-1.045-.079,1.4,1.4,0,0,1,.13-2.751,8.8,8.8,0,0,1,1.147-.038q12.21,0,24.421,0" transform="translate(-41.819 -89.72)" fill="#12263f"/>
        <path id="Trazado_232198" data-name="Trazado 232198" d="M76.28,151.923H98.962c1.5,0,2.172.428,2.2,1.391.029,1-.69,1.481-2.215,1.481H53.486c-1.536,0-2.259-.467-2.253-1.45s.714-1.422,2.269-1.422H76.28" transform="translate(-41.771 -113.124)" fill="#12263f"/>
        <path id="Trazado_232199" data-name="Trazado 232199" d="M76.159,186.2H53.476c-1.54,0-2.257-.467-2.243-1.452s.72-1.42,2.278-1.42h45.46c1.486,0,2.167.441,2.189,1.407.022.992-.691,1.465-2.225,1.465H76.159" transform="translate(-41.771 -136.509)" fill="#12263f"/>
        <path id="Trazado_232200" data-name="Trazado 232200" d="M138.767,271.781V278.1h1.154q7.371,0,14.742,0a6.024,6.024,0,0,1,1.144.062,1.4,1.4,0,0,1,.037,2.73,4.176,4.176,0,0,1-.95.076q-7.994.006-15.987,0c-2.215,0-3.049-.852-3.051-3.084,0-2.042-.007-4.084,0-6.126.008-1.932.887-2.839,2.786-2.851,2.457-.015,4.914-.01,7.371,0,1.143,0,1.8.512,1.831,1.376.032.892-.662,1.478-1.834,1.488-2.042.017-4.084.005-6.127.006h-1.118" transform="translate(-104.781 -200.23)" fill="#12263f"/>
        <path id="Trazado_232201" data-name="Trazado 232201" d="M68.4,217.555c-5.1,0-10.207.01-15.31-.017a2.437,2.437,0,0,1-1.409-.395,1.348,1.348,0,0,1,.456-2.312,3.8,3.8,0,0,1,1.223-.143q15.119-.011,30.238-.006c.191,0,.384-.007.574.006a1.518,1.518,0,0,1,1.6,1.441c.007.846-.642,1.419-1.679,1.421q-7.847.012-15.693,0" transform="translate(-41.747 -159.855)" fill="#12263f"/>
      </g>
    </g>
  </g>
</svg>
