<svg xmlns="http://www.w3.org/2000/svg" xmlns:xlink="http://www.w3.org/1999/xlink" width="89.645" height="100.19" viewBox="0 0 89.645 100.19">
  <defs>
    <clipPath id="clip-path">
      <rect id="Rectángulo_47965" data-name="Rectángulo 47965" width="89.645" height="100.19" fill="#12263f"/>
    </clipPath>
  </defs>
  <g id="Grupo_159290" data-name="Grupo 159290" transform="translate(-329.467 -952.81)">
    <g id="Grupo_159091" data-name="Grupo 159091" transform="translate(329.467 952.81)">
      <g id="Grupo_159090" data-name="Grupo 159090" clip-path="url(#clip-path)">
        <path id="Trazado_232202" data-name="Trazado 232202" d="M84.745,100.19H4.893C.876,98.544,0,97.22,0,92.8Q0,49.649,0,6.5C0,2.411,2.413,0,6.51,0Q44.819,0,83.129,0c4.1,0,6.506,2.409,6.509,6.5q.006,8.756,0,17.513,0,34.781.007,69.562a6.941,6.941,0,0,1-1.19,4.246,7.052,7.052,0,0,1-3.711,2.367M3.915,50q0,21.72,0,43.44c0,2.256.584,2.84,2.838,2.84h76.13c2.256,0,2.84-.584,2.84-2.838q0-43.342,0-86.684c0-2.256-.584-2.84-2.838-2.84H6.755c-2.256,0-2.84.584-2.84,2.838q0,21.622,0,43.244" transform="translate(0)" fill="#12263f"/>
        <path id="Trazado_232203" data-name="Trazado 232203" d="M109.188,79.036q0,15.067,0,30.134c0,2.006-.484,2.553-2.445,2.776a5.86,5.86,0,0,0-5.348,5.347c-.223,1.962-.77,2.445-2.776,2.445H48.908c-2.006,0-2.553-.483-2.776-2.445a5.86,5.86,0,0,0-5.348-5.347c-1.962-.223-2.445-.77-2.445-2.776q0-30.135,0-60.269c0-2.006.483-2.553,2.445-2.776a5.86,5.86,0,0,0,5.347-5.347c.224-1.961.77-2.445,2.777-2.445h49.71c2.006,0,2.553.483,2.776,2.445a5.86,5.86,0,0,0,5.348,5.347c1.961.223,2.445.77,2.445,2.776q0,15.067,0,30.134M97.57,115.8a1.927,1.927,0,0,0,.138-.263,9.656,9.656,0,0,1,7.029-7.172c.573-.161.54-.53.54-.963q-.005-28.365.008-56.73c0-.576-.141-.849-.735-1.014a9.285,9.285,0,0,1-5.771-4.513,29.521,29.521,0,0,1-1.253-2.861H49.9A9.994,9.994,0,0,1,42.28,49.9v58.291a9.986,9.986,0,0,1,7.636,7.613Z" transform="translate(-28.944 -28.94)" fill="#12263f"/>
        <path id="Trazado_232204" data-name="Trazado 232204" d="M129.887,106.381a17.215,17.215,0,1,1,17.184-17.194,17.255,17.255,0,0,1-17.184,17.194m-.027-3.914a13.3,13.3,0,1,0-13.314-13.309,13.327,13.327,0,0,0,13.314,13.309" transform="translate(-85.033 -54.319)" fill="#0158a0"/>
        <path id="Trazado_232205" data-name="Trazado 232205" d="M140.873,228.392q8.07,0,16.139,0a6.893,6.893,0,0,1,.976.032,1.93,1.93,0,0,1,.019,3.844,6.594,6.594,0,0,1-.976.036q-16.09,0-32.181,0a6.073,6.073,0,0,1-.975-.042,1.926,1.926,0,0,1-.019-3.823,6.6,6.6,0,0,1,1.073-.046q7.972,0,15.944,0" transform="translate(-92.24 -172.426)" fill="#12263f"/>
        <path id="Trazado_232206" data-name="Trazado 232206" d="M137.166,260.335q6.11,0,12.22.006a4.086,4.086,0,0,1,1.25.151,1.9,1.9,0,0,1-.017,3.6,4.5,4.5,0,0,1-1.348.148q-12.22.012-24.441,0a5.143,5.143,0,0,1-1.163-.092,1.908,1.908,0,0,1,.017-3.726,5.263,5.263,0,0,1,1.163-.088q6.159-.009,12.318,0" transform="translate(-92.24 -196.541)" fill="#12263f"/>
        <path id="Trazado_232207" data-name="Trazado 232207" d="M209.119,293.563a21.094,21.094,0,0,1-1.534,1.758,1.913,1.913,0,0,1-2.727.029,1.982,1.982,0,0,1-.039-2.74c.1-.127.228-.232.334-.356,2.709-3.154,5.256-3.16,7.9-.074.358.417.758.8,1.257,1.322,1.106-1.135,2.142-2.205,3.188-3.265a7.163,7.163,0,0,1,.942-.845,1.863,1.863,0,0,1,2.488.211,1.742,1.742,0,0,1,.188,2.4,54.348,54.348,0,0,1-4.8,4.713,3.566,3.566,0,0,1-4.59-.376c-.859-.79-1.608-1.7-2.612-2.775" transform="translate(-154.231 -218.194)" fill="#12263f"/>
        <path id="Trazado_232208" data-name="Trazado 232208" d="M94.2,230.367a1.941,1.941,0,1,1-1.975-1.907,2.016,2.016,0,0,1,1.975,1.907" transform="translate(-68.188 -172.478)" fill="#12263f"/>
        <path id="Trazado_232209" data-name="Trazado 232209" d="M153.023,112.218c0-1.783-.01-3.41,0-5.037a1.934,1.934,0,0,1,1.227-1.939,1.678,1.678,0,0,1,2.055.433,3.461,3.461,0,0,1,.6,1.783c.082,1.55.027,3.108.027,4.76,1.682,0,3.269-.017,4.855.005,1.4.02,2.229.739,2.26,1.907a1.91,1.91,0,0,1-2.059,1.991c-1.652.032-3.3.008-5.057.008,0,1.623.015,3.145-.009,4.666a4.015,4.015,0,0,1-.208,1.336,1.832,1.832,0,0,1-2.067,1.088,1.878,1.878,0,0,1-1.613-1.918c-.047-1.334-.015-2.671-.017-4.006,0-.351,0-.7,0-1.164-1.7,0-3.323.014-4.941,0a1.959,1.959,0,1,1-.03-3.9c1.3-.039,2.606-.009,3.909-.01h1.064" transform="translate(-110.159 -79.329)" fill="#0158a0"/>
      </g>
    </g>
  </g>
</svg>
