<svg xmlns="http://www.w3.org/2000/svg" xmlns:xlink="http://www.w3.org/1999/xlink" width="103.808" height="104" viewBox="0 0 103.808 104">
  <defs>
    <clipPath id="clip-path">
      <rect id="Rectángulo_47966" data-name="Rectángulo 47966" width="103.808" height="104" fill="#12263f"/>
    </clipPath>
  </defs>
  <g id="Grupo_159291" data-name="Grupo 159291" transform="translate(-738.563 -949)">
    <g id="Grupo_159093" data-name="Grupo 159093" transform="translate(738.563 949)">
      <g id="Grupo_159092" data-name="Grupo 159092" clip-path="url(#clip-path)">
        <path id="Trazado_232210" data-name="Trazado 232210" d="M0,4.263A14.941,14.941,0,0,1,1.144,2.036,5.33,5.33,0,0,1,5.779,0Q21.367.023,36.955.007q18.533,0,37.066,0c2.827,0,4.875,1.436,5.495,3.885a8.312,8.312,0,0,1,.193,2.011q.017,15.537,0,31.074a5.126,5.126,0,0,1-.1,1.21,1.679,1.679,0,0,1-3.22.1,5.393,5.393,0,0,1-.147-1.506Q76.237,21.5,76.242,6.22c0-2.3-.444-2.75-2.706-2.751H6.209c-2.279,0-2.749.466-2.749,2.723q0,45.85,0,91.7c0,2.146.495,2.647,2.617,2.647H73.609c2.147,0,2.632-.481,2.633-2.615q0-7.769.006-15.537a5.436,5.436,0,0,1,.134-1.406,1.678,1.678,0,0,1,3.243.114,6.464,6.464,0,0,1,.088,1.313c.005,4.942-.1,9.887.04,14.825.094,3.286-.921,5.668-4.189,6.767H4.266A5.913,5.913,0,0,1,0,99.734V4.263" transform="translate(0 0)" fill="#12263f"/>
        <path id="Trazado_232211" data-name="Trazado 232211" d="M0,459.345a5.913,5.913,0,0,0,4.266,4.266H0Z" transform="translate(0 -359.611)" fill="#12263f"/>
        <path id="Trazado_232212" data-name="Trazado 232212" d="M247.284,118.13c-.216.362-.408.675-.592.992-4.54,7.882-9,15.811-13.666,23.618-1.445,2.417-3.473,4.481-5.183,6.745-1.22,1.615-2.419,3.252-3.51,4.955a5.57,5.57,0,0,1-5.592,2.9,1.346,1.346,0,0,0-.984.451c-1.149,1.376-2.229,2.81-3.359,4.2-2.044,2.519-5.081,2.079-6.322-.9-.293-.705-.576-1.414-.918-2.254-.38.519-.658.926-.965,1.31a3.243,3.243,0,0,1-3.44,1.207,3.057,3.057,0,0,1-2.545-2.585c-.279-1.938-.412-3.9-.608-5.847a2.228,2.228,0,0,0-.315-1.08c-.3.875-.6,1.748-.894,2.625-1.014,3.045-2.02,6.092-3.039,9.135-.441,1.319-1.213,1.833-2.205,1.5-1.121-.371-1.507-1.286-1.061-2.633q1.991-6.013,4.01-12.016a3.48,3.48,0,0,1,6.867.741c.226,2.1.363,4.21.556,6.526.4-.548.652-.933.943-1.286a3.376,3.376,0,0,1,5.635.461c.521.938.875,1.968,1.363,3.092,1.243-1.522,2.445-2.96,3.591-4.44.135-.175.047-.625-.077-.88a4.832,4.832,0,0,1-.062-4.684c2.242-3.9,3.5-8.193,5.156-12.328a15.024,15.024,0,0,1,.9-1.922q6.805-11.825,13.635-23.637c.168-.291.327-.588.511-.92-1.082-.843-3.1-1.322-2.039-3.2,1.068-1.9,2.508-.46,3.833.134,1.336-2.279,2.649-4.521,3.964-6.762.864-1.473,1.11-1.6,2.837-1.443.922-1.773,2.029-3.434,4.214-3.868a5.175,5.175,0,0,1,3.726.593c2.8,1.637,3.131,4.255,1.086,8.647,1.052.946.824,1.955.16,3.061-1.323,2.2-2.576,4.445-3.921,6.779.405.247.793.489,1.187.722a5.215,5.215,0,0,1,2.033,7.562c-2.154,3.793-4.347,7.563-6.534,11.337-.687,1.186-1.673,1.552-2.587,1s-1.07-1.529-.364-2.758q3-5.235,6.033-10.456c1.44-2.5,1.269-3.049-1.457-4.4m-16.921,22.232,13.858-24.016-6-3.465L224.365,136.9l6,3.462m19.058-33.01-6-3.464-3.465,6,6,3.456,3.463-5.989m-26.5,32.7-2.454,6.579,3.421,1.994,4.484-5.416-5.45-3.157m23.725-38.3,3.011,1.717c.561-1.08,1.562-1.958.829-3.141a2.17,2.17,0,0,0-1.551-.858c-1.4-.041-1.618,1.292-2.288,2.282m-24.6,49.831-3-1.7c-.576,1.052-1.536,1.939-.825,3.114a2.133,2.133,0,0,0,1.541.863c1.379.027,1.632-1.268,2.28-2.279" transform="translate(-150.239 -75.1)" fill="#0158a0"/>
        <path id="Trazado_232213" data-name="Trazado 232213" d="M75.409,51.34v3.469h1.317q20.463,0,40.926,0a7.233,7.233,0,0,1,1.41.11,1.676,1.676,0,0,1-.1,3.288,8.169,8.169,0,0,1-1.214.069q-21.58,0-43.16,0c-2.252,0-2.691-.434-2.692-2.645,0-1.828-.007-3.656,0-5.484.008-1.666.6-2.272,2.262-2.277,3.757-.012,7.515,0,11.272,0q16.147,0,32.294.006a5.4,5.4,0,0,1,1.5.158,1.532,1.532,0,0,1,1.133,1.71,1.557,1.557,0,0,1-1.375,1.531,8.05,8.05,0,0,1-1.316.059q-20.463,0-40.926,0Z" transform="translate(-56.285 -37.476)" fill="#12263f"/>
        <path id="Trazado_232214" data-name="Trazado 232214" d="M46.37,311.406a15.021,15.021,0,0,1,8.147,2.351c1.53.989,1.938,1.913,1.287,2.914-.635.977-1.636.978-3.2-.027a10.975,10.975,0,0,0-5.542-1.747,11.25,11.25,0,1,0,10.6,13.119c.1-.6.12-1.209.185-1.813a1.762,1.762,0,0,1,1.827-1.775A1.737,1.737,0,0,1,61.3,326.38c.093,8.363-7.851,15.435-16.173,14.4a14.7,14.7,0,0,1-.688-29.177c.77-.1,1.545-.157,1.935-.2" transform="translate(-24.926 -243.793)" fill="#12263f"/>
        <path id="Trazado_232215" data-name="Trazado 232215" d="M148.611,171.074q-9.082,0-18.165,0a5.586,5.586,0,0,1-1.212-.066,1.557,1.557,0,0,1-1.293-1.491,1.533,1.533,0,0,1,1-1.7,3.934,3.934,0,0,1,1.39-.2q18.368-.015,36.735,0a3.779,3.779,0,0,1,1.293.18,1.683,1.683,0,0,1-.272,3.216,6.335,6.335,0,0,1-1.213.061q-9.133,0-18.266,0" transform="translate(-100.155 -131.217)" fill="#12263f"/>
        <path id="Trazado_232216" data-name="Trazado 232216" d="M74.954,219H58.825c-.338,0-.678.012-1.014-.019a1.7,1.7,0,0,1-1.758-1.712,1.717,1.717,0,0,1,1.755-1.725,8.62,8.62,0,0,1,.912-.02q16.383,0,32.765,0a5.49,5.49,0,0,1,1.406.13A1.678,1.678,0,0,1,92.8,218.9a6.335,6.335,0,0,1-1.31.1q-8.267.009-16.535,0" transform="translate(-43.883 -168.724)" fill="#12263f"/>
        <path id="Trazado_232217" data-name="Trazado 232217" d="M114.948,111.839q8.268,0,16.537,0c1.749,0,2.576.568,2.563,1.744s-.845,1.729-2.6,1.729q-16.435,0-32.87,0a5.487,5.487,0,0,1-1.405-.135,1.678,1.678,0,0,1,.126-3.244,6.99,6.99,0,0,1,1.312-.086q8.167-.008,16.333,0" transform="translate(-75.145 -87.556)" fill="#12263f"/>
        <path id="Trazado_232218" data-name="Trazado 232218" d="M66.322,258.893c-2.707,0-5.415.006-8.122,0-1.4,0-2.162-.624-2.161-1.72s.786-1.734,2.169-1.736q8.224-.012,16.447,0c1.265,0,2.025.6,2.113,1.591a1.733,1.733,0,0,1-1.918,1.859c-2.843.02-5.685.006-8.528.007" transform="translate(-43.872 -199.97)" fill="#12263f"/>
        <path id="Trazado_232219" data-name="Trazado 232219" d="M73.813,362.827c2.045-2.063,3.9-3.986,5.823-5.83a2.381,2.381,0,0,1,1.663-.692,1.87,1.87,0,0,1,1.341,1.1,2.429,2.429,0,0,1-.509,1.882c-1.492,1.654-3.116,3.189-4.693,4.765-.43.43-.847.876-1.311,1.267a3.34,3.34,0,0,1-4.532,0c-1.33-1.2-2.583-2.481-3.818-3.777a1.719,1.719,0,1,1,2.479-2.374c1.183,1.153,2.307,2.365,3.556,3.656" transform="translate(-52.629 -278.937)" fill="#12263f"/>
        <path id="Trazado_232220" data-name="Trazado 232220" d="M255.342,219c-1.757,0-3.514.006-5.271,0a4.564,4.564,0,0,1-1.205-.114,1.69,1.69,0,0,1-.1-3.2,3.644,3.644,0,0,1,1.2-.151q5.474-.016,10.948,0a4.441,4.441,0,0,1,.9.095,1.573,1.573,0,0,1,1.353,1.645,1.556,1.556,0,0,1-1.45,1.653c-.937.1-1.887.069-2.832.078-1.183.011-2.365,0-3.548,0" transform="translate(-193.892 -168.727)" fill="#12263f"/>
        <path id="Trazado_232221" data-name="Trazado 232221" d="M175.382,258.879c-1.893,0-3.787.011-5.68,0-1.264-.01-2.079-.721-2.055-1.748a1.8,1.8,0,0,1,2.019-1.7q5.781-.028,11.563,0a1.8,1.8,0,0,1,2,1.717c.013,1.031-.792,1.723-2.067,1.732-1.927.014-3.854,0-5.781,0" transform="translate(-131.247 -199.955)" fill="#12263f"/>
      </g>
    </g>
  </g>
</svg>
