<svg xmlns="http://www.w3.org/2000/svg" xmlns:xlink="http://www.w3.org/1999/xlink" width="84.418" height="105.509" viewBox="0 0 84.418 105.509">
  <defs>
    <clipPath id="clip-path">
      <rect id="Rectángulo_47968" data-name="Rectángulo 47968" width="84.418" height="105.509" fill="#12263f"/>
    </clipPath>
  </defs>
  <g id="Grupo_159293" data-name="Grupo 159293" transform="translate(-331.459 -1357.491)">
    <g id="Grupo_159097" data-name="Grupo 159097" transform="translate(331.459 1357.491)">
      <g id="Grupo_159096" data-name="Grupo 159096" clip-path="url(#clip-path)">
        <path id="Trazado_232236" data-name="Trazado 232236" d="M0,52.677Q0,31.087,0,9.5C0,3.7,3.668.02,9.454.019Q35.111.016,60.768,0a3.394,3.394,0,0,1,2.61,1.1Q73.333,11.11,83.347,21.063a3.394,3.394,0,0,1,1.071,2.621q-.034,36.2-.018,72.4c0,5.721-3.694,9.419-9.406,9.419q-32.8,0-65.6,0C3.689,105.506,0,101.8,0,96.075q0-21.7,0-43.4M59.784,3.535H58.621q-24.664,0-49.328,0c-3.635,0-5.775,2.161-5.775,5.826q0,43.391,0,86.782c0,3.721,2.132,5.846,5.867,5.846q32.794,0,65.587,0c3.808,0,5.91-2.1,5.911-5.914q0-35.1,0-70.194c0-.389,0-.779,0-1.25H79.567c-3.7,0-7.4.033-11.1-.012a8.692,8.692,0,0,1-8.506-7.174,12.981,12.981,0,0,1-.173-2.291c-.017-3.835-.008-7.67-.008-11.62m3.583,2.749c-.021.283-.063.586-.063.889,0,2.819-.015,5.639,0,8.458a5.262,5.262,0,0,0,5.458,5.481c2.856.019,5.713.006,8.569,0,.27,0,.539-.044.807-.067L63.367,6.284" transform="translate(0 0)" fill="#12263f"/>
        <path id="Trazado_232237" data-name="Trazado 232237" d="M41.26,51.876c-1.237,0-2.3.022-3.357-.006a1.751,1.751,0,0,1-1.909-1.92q-.038-3.348,0-6.7A1.755,1.755,0,0,1,37.9,41.333c.548-.02,1.1,0,1.647,0H41.26c0-1.039-.006-2.046,0-3.053.011-1.594.607-2.211,2.169-2.219q3.13-.016,6.259,0c1.491.009,2.1.643,2.119,2.16.01.915.006,1.83.012,2.744a2.658,2.658,0,0,0,.08.367c1.008,0,2.053-.011,3.1,0,1.433.019,2.072.65,2.083,2.085q.023,3.184,0,6.368c-.01,1.436-.65,2.07-2.08,2.09-1.018.015-2.037,0-3.191,0,0,1.085.008,2.1,0,3.108-.015,1.515-.631,2.154-2.118,2.163q-3.184.02-6.369,0c-1.42-.011-2.041-.66-2.059-2.109-.012-1.016,0-2.032,0-3.163m12.308-3.515V44.845H51.553c-3.013,0-3.26-.244-3.26-3.214v-2H44.776c0,1,0,1.943,0,2.886-.008,1.73-.584,2.317-2.283,2.326-.973.005-1.947,0-2.91,0v3.516c.992,0,1.9,0,2.814,0,1.8.006,2.372.564,2.38,2.338,0,.969,0,1.938,0,2.874h3.517c0-1.039-.006-2.018,0-3,.012-1.589.609-2.2,2.17-2.214.983-.009,1.966,0,3.1,0" transform="translate(-25.434 -25.486)" fill="#0158a0"/>
        <path id="Trazado_232238" data-name="Trazado 232238" d="M58.89,204.069H79.22a5.477,5.477,0,0,1,.987.027,1.744,1.744,0,0,1,0,3.459,6.155,6.155,0,0,1-1.1.029H38.339c-1.483-.01-2.3-.635-2.3-1.76s.813-1.754,2.3-1.755q10.275,0,20.549,0" transform="translate(-25.481 -144.273)" fill="#12263f"/>
        <path id="Trazado_232239" data-name="Trazado 232239" d="M55.409,156.063H72.222a5.345,5.345,0,0,1,.987.028,1.745,1.745,0,0,1-.02,3.461,5.531,5.531,0,0,1-.987.026q-16.813,0-33.626,0a4.666,4.666,0,0,1-1.094-.048,1.743,1.743,0,0,1,.02-3.422,4.983,4.983,0,0,1,1.095-.043q8.406,0,16.813,0" transform="translate(-25.508 -110.333)" fill="#12263f"/>
        <path id="Trazado_232240" data-name="Trazado 232240" d="M144.489,135.58q-7.912,0-15.824,0a5.342,5.342,0,0,1-1.1-.037,1.743,1.743,0,0,1,0-3.441,4.93,4.93,0,0,1,.986-.035h31.977a5.8,5.8,0,0,1,.878.019,1.7,1.7,0,0,1,1.582,1.681,1.728,1.728,0,0,1-1.578,1.8,7.874,7.874,0,0,1-.988.02H144.489" transform="translate(-89.155 -93.366)" fill="#12263f"/>
        <path id="Trazado_232241" data-name="Trazado 232241" d="M149.542,183.581H134.6a8.6,8.6,0,0,1-.878-.014,1.746,1.746,0,0,1-.034-3.486,7.832,7.832,0,0,1,.878-.016h30.109a5.767,5.767,0,0,1,.987.024,1.745,1.745,0,0,1,.033,3.461,5.19,5.19,0,0,1-.987.03H149.542" transform="translate(-93.369 -127.302)" fill="#12263f"/>
        <path id="Trazado_232242" data-name="Trazado 232242" d="M53.648,255.587H38.594a5.4,5.4,0,0,1-.987-.028,1.744,1.744,0,0,1,0-3.459,6.212,6.212,0,0,1,1.1-.028H68.591a6.236,6.236,0,0,1,1.1.028,1.744,1.744,0,0,1,0,3.459,5.369,5.369,0,0,1-.987.028H53.648" transform="translate(-25.515 -178.21)" fill="#12263f"/>
        <path id="Trazado_232243" data-name="Trazado 232243" d="M172.7,276.538c-.575.653-1.045,1.269-1.6,1.8a1.752,1.752,0,1,1-2.454-2.492c1.088-1.137,2.195-2.26,3.34-3.339,1.063-1,2.474-.837,2.933.549.719,2.17,2.129,2.7,4.141,2.35a6.2,6.2,0,0,0,1.663-.409c3.09-1.506,6.15-3.071,9.234-4.591a1.73,1.73,0,0,1,2.512.751,1.751,1.751,0,0,1-.923,2.376c-.032.018-.063.038-.1.055-3.368,1.683-6.731,3.377-10.111,5.036a3.4,3.4,0,0,1-1.372.291c-1.39.037-2.785-.04-4.173.029a2.29,2.29,0,0,1-2.582-1.556,6.279,6.279,0,0,0-.512-.845" transform="translate(-118.805 -190.997)" fill="#0158a0"/>
        <path id="Trazado_232244" data-name="Trazado 232244" d="M48.229,183.6q-5,0-10,0c-1.386,0-2.189-.66-2.19-1.756s.8-1.754,2.189-1.755q10.109-.007,20.218,0c1.387,0,2.191.658,2.191,1.754s-.807,1.754-2.19,1.757q-5.11.011-10.219,0" transform="translate(-25.481 -127.318)" fill="#12263f"/>
        <path id="Trazado_232245" data-name="Trazado 232245" d="M190.541,159.595c-2.747,0-5.494,0-8.241,0-1.4,0-2.2-.628-2.23-1.717-.027-1.129.8-1.795,2.258-1.8q8.3-.006,16.592,0c1.405,0,2.2.626,2.231,1.715.028,1.125-.8,1.8-2.26,1.8q-4.176.008-8.351,0" transform="translate(-127.311 -110.348)" fill="#12263f"/>
        <path id="Trazado_232246" data-name="Trazado 232246" d="M118.591,231.6c-2.784,0-5.567.006-8.351,0-1.383,0-2.187-.666-2.183-1.763s.8-1.747,2.2-1.748q8.351-.008,16.7,0c1.383,0,2.189.664,2.184,1.761s-.811,1.747-2.2,1.751c-2.783.007-5.567,0-8.351,0" transform="translate(-76.397 -161.258)" fill="#12263f"/>
        <path id="Trazado_232247" data-name="Trazado 232247" d="M62.828,135.59c-2.2,0-4.4.006-6.593,0-1.386-.005-2.19-.659-2.19-1.756s.8-1.754,2.187-1.756q6.592-.009,13.185,0c1.387,0,2.191.657,2.192,1.753s-.807,1.753-2.189,1.759c-2.2.008-4.4,0-6.593,0" transform="translate(-38.21 -93.376)" fill="#12263f"/>
        <path id="Trazado_232248" data-name="Trazado 232248" d="M44.846,228.085c2.2,0,4.4-.006,6.593,0,1.374.006,2.183.681,2.167,1.778s-.82,1.732-2.214,1.733q-6.593.008-13.185,0c-1.377,0-2.181-.679-2.165-1.78s.814-1.727,2.213-1.732c2.2-.007,4.4,0,6.593,0" transform="translate(-25.481 -161.257)" fill="#12263f"/>
        <path id="Trazado_232249" data-name="Trazado 232249" d="M200.76,231.6c-2.2,0-4.4.009-6.593,0-1.3-.007-2.083-.677-2.091-1.743s.773-1.762,2.067-1.765q6.7-.015,13.405,0c1.3,0,2.084.678,2.093,1.741s-.784,1.759-2.068,1.767c-2.271.014-4.542,0-6.812,0" transform="translate(-135.799 -161.255)" fill="#12263f"/>
        <path id="Trazado_232250" data-name="Trazado 232250" d="M211.09,207.594c-1.648,0-3.3.011-4.944,0-1.291-.012-2.075-.7-2.068-1.767s.785-1.738,2.09-1.742q4.945-.016,9.889,0c1.288,0,2.077.7,2.069,1.764s-.8,1.734-2.092,1.744c-1.648.013-3.3,0-4.944,0" transform="translate(-144.285 -144.282)" fill="#12263f"/>
        <path id="Trazado_232251" data-name="Trazado 232251" d="M173.337,312.087c1.135,0,2.271-.024,3.406.007a1.752,1.752,0,1,1,0,3.5q-3.406.043-6.812,0a1.751,1.751,0,1,1,0-3.5c1.134-.031,2.27-.007,3.406-.007" transform="translate(-118.827 -220.642)" fill="#0158a0"/>
        <path id="Trazado_232252" data-name="Trazado 232252" d="M221.358,312.087c1.135,0,2.271-.025,3.405.007a1.752,1.752,0,1,1-.025,3.5q-3.406.041-6.812,0a1.751,1.751,0,1,1,.025-3.5c1.134-.03,2.271-.006,3.406-.006" transform="translate(-152.771 -220.642)" fill="#0158a0"/>
      </g>
    </g>
  </g>
</svg>
