<svg xmlns="http://www.w3.org/2000/svg" xmlns:xlink="http://www.w3.org/1999/xlink" width="115" height="115" viewBox="0 0 115 115">
  <defs>
    <clipPath id="clip-path">
      <rect id="Rectángulo_47967" data-name="Rectángulo 47967" width="115" height="115" transform="translate(0 -0.387)" fill="#12263f"/>
    </clipPath>
  </defs>
  <g id="Grupo_159292" data-name="Grupo 159292" transform="translate(-1151 -950)">
    <g id="Grupo_159095" data-name="Grupo 159095" transform="translate(1151 950.286)">
      <g id="Grupo_159094" data-name="Grupo 159094" transform="translate(0 0.101)" clip-path="url(#clip-path)">
        <path id="Trazado_232222" data-name="Trazado 232222" d="M0,89.265a3,3,0,0,1,3.042-1.591q5.31.109,10.623-.007a4.945,4.945,0,0,0,2.356-.7c1.972-1.2,3.862-2.532,5.785-3.811,4.619-3.071,8.941-3.078,13.537-.028.088.058.189.1.454.23V82q0-39.478-.023-78.956A3.045,3.045,0,0,1,37.362,0H61.3a2.689,2.689,0,0,1,1.559,2.147A2.291,2.291,0,0,1,60.3,4.47q-9.284.014-18.567,0H40.341V82.458a34.925,34.925,0,0,1,4.323-1.634A10.6,10.6,0,0,1,53.2,82.45c2.275,1.49,4.5,3.057,6.81,4.493a4.868,4.868,0,0,0,2.351.723c3.615.075,7.232.03,10.848.034,2.082,0,2.848.762,2.858,2.814,0,.513,0,1.026,0,1.6h24.97V4.474H99.88q-9.339,0-18.678,0c-1.637,0-2.648-.859-2.668-2.214A2.624,2.624,0,0,1,80.093,0h23.938a2.949,2.949,0,0,1,1.588,3.027c-.088,1.948-.022,3.9-.022,5.922,2.073,0,4,.067,5.922-.023a2.949,2.949,0,0,1,3.027,1.589v93.516a3.052,3.052,0,0,1-3.036,1.59c-11.352-.042-22.7-.024-34.057-.024H76.066c0,2.057-.066,3.988.022,5.911a2.959,2.959,0,0,1-1.588,3.038H59.734c-1.613-.774-1.677-2.257-1.561-3.844-2.72.685-5.291,1.271-7.826,1.984-4.082,1.148-8.06,1.255-11.912-.822a.991.991,0,0,0-.8.01c-3.818,2.029-7.755,1.978-11.806.828-2.587-.735-5.216-1.324-7.945-2.008.14,1.653.033,3.079-1.548,3.852H0Zm76.121,11.779h33.865V13.483H105.6v1.485q0,39.365,0,78.729c0,2.211-.739,2.95-2.947,2.95q-12.637,0-25.274,0H76.121ZM33.338,87.392a6.545,6.545,0,0,0-8.347-.974c-2.2,1.4-4.355,2.87-6.5,4.357a1.5,1.5,0,0,0-.572,1.05c-.038,4.473-.014,8.947-.038,13.42,0,.629.169.9.816,1.052,3.184.759,6.352,1.588,9.528,2.381a9.113,9.113,0,0,0,7.729-1.071c3.238-2.258,6.376-4.662,9.509-7.065a2.153,2.153,0,0,0,.09-3.487c-.348-.326-.741-.605-1.118-.91-1.186.775-2.289,1.539-3.432,2.235a12.663,12.663,0,0,1-15.291-1.662c-1.806-1.728-1.688-3.119.384-4.5q3.61-2.41,7.236-4.824m9.058,21.1.1.371a23.063,23.063,0,0,0,4.522-.049c3.5-.712,6.938-1.694,10.412-2.527.6-.145.75-.422.748-1-.02-4.474,0-8.949-.038-13.423a1.626,1.626,0,0,0-.623-1.134c-2.14-1.491-4.326-2.914-6.493-4.366a6.741,6.741,0,0,0-8.136.029q-5.663,3.8-11.341,7.573c-.327.218-.637.462-1.056.767a8.119,8.119,0,0,0,8.35-.278c1.456-.9,2.865-1.882,4.288-2.837a2.178,2.178,0,0,1,2.7-.064,33.562,33.562,0,0,1,3.11,2.55,6.065,6.065,0,0,1,1.869,4.072,6.579,6.579,0,0,1-2.734,6.031c-1.887,1.437-3.788,2.856-5.682,4.283M13.346,92.262H4.532V110.02h8.815Zm58.167,0H62.7V110.02h8.813Z" transform="translate(0 0.067)" fill="#12263f"/>
        <path id="Trazado_232225" data-name="Trazado 232225" d="M232.409,0c.178.124.359.244.534.372a2.116,2.116,0,0,1,.91,2.516,2.212,2.212,0,0,1-4.232,0,2.122,2.122,0,0,1,.912-2.516c.175-.128.356-.248.534-.372Z" transform="translate(-161.042 0.067)" fill="#0158a0"/>
        <path id="Trazado_232226" data-name="Trazado 232226" d="M179.23,169.488q10.728,0,21.456,0a7.851,7.851,0,0,1,1.116.031,2.224,2.224,0,0,1,.018,4.406,7.384,7.384,0,0,1-1.115.035q-21.568,0-43.136,0a9.024,9.024,0,0,1-1-.018,2.226,2.226,0,0,1-.018-4.434,9.947,9.947,0,0,1,1.117-.02H179.23" transform="translate(-108.432 -118.86)" fill="#0158a0"/>
        <path id="Trazado_232227" data-name="Trazado 232227" d="M179.132,203.965H157.676a10.086,10.086,0,0,1-1.117-.019,2.226,2.226,0,0,1-.01-4.435,8.884,8.884,0,0,1,1-.019q21.568,0,43.136,0a7.762,7.762,0,0,1,1.116.032,2.224,2.224,0,0,1,.01,4.406,7.47,7.47,0,0,1-1.116.034q-10.784,0-21.568,0" transform="translate(-108.431 -139.913)" fill="#0158a0"/>
        <path id="Trazado_232228" data-name="Trazado 232228" d="M189.635,94.467q-8.771,0-17.541,0a2.29,2.29,0,0,1-2.565-2.082,2.236,2.236,0,0,1,1.928-2.357,7.892,7.892,0,0,1,1.115-.031H206.76c.3,0,.6-.014.893.012a2.243,2.243,0,0,1,2.124,2.183,2.2,2.2,0,0,1-2.155,2.257c-1.637.057-3.277.021-4.915.021q-6.536,0-13.072,0" transform="translate(-118.954 -63.078)" fill="#0158a0"/>
        <path id="Trazado_232229" data-name="Trazado 232229" d="M204.649,139.477q8.771,0,17.541-.006A2.316,2.316,0,0,1,224.648,141a2.207,2.207,0,0,1-1.782,2.914,7.227,7.227,0,0,1-1.115.034H187.562c-.261,0-.522.01-.782-.006a2.253,2.253,0,0,1-2.253-2.285,2.219,2.219,0,0,1,2.246-2.171c1.339-.041,2.681-.012,4.022-.013h13.854" transform="translate(-129.482 -97.798)" fill="#0158a0"/>
        <path id="Trazado_232230" data-name="Trazado 232230" d="M240.109,235.55a3.933,3.933,0,0,0-.6.553c-2.068,3.155-5.257,2.33-8.192,2.244a2.083,2.083,0,0,1-1.789-2.229,2.239,2.239,0,0,1,1.932-2.132,3.721,3.721,0,0,1,1.114-.022A4.533,4.533,0,0,0,237.276,232a13.59,13.59,0,0,1,1.647-1.667c1.436-1.355,3-1.1,3.917.66.986,1.9,1.925,3.83,2.995,5.966a18.274,18.274,0,0,1,2.033-2.1,4.376,4.376,0,0,1,2.068-.867,33.462,33.462,0,0,1,4.017-.033,2.253,2.253,0,0,1,2.4,2.244,2.128,2.128,0,0,1-2.425,2.181,5.843,5.843,0,0,0-5.909,2.595,8.612,8.612,0,0,1-1.183,1.184,2.218,2.218,0,0,1-3.711-.631c-1.019-1.94-1.976-3.912-3.017-5.984" transform="translate(-161.058 -160.954)" fill="#0158a0"/>
        <path id="Trazado_232231" data-name="Trazado 232231" d="M210.625,64.469c-2.791,0-5.582,0-8.372,0-1.7,0-2.74-.871-2.725-2.26.014-1.352,1.029-2.208,2.661-2.21q8.54-.009,17.08,0c1.6,0,2.63.9,2.614,2.257s-1.032,2.207-2.662,2.212c-2.865.008-5.731,0-8.6,0" transform="translate(-140.009 -42.03)" fill="#0158a0"/>
        <path id="Trazado_232232" data-name="Trazado 232232" d="M188.984,32.288a2.229,2.229,0,1,1-2.136-2.266,2.257,2.257,0,0,1,2.136,2.266" transform="translate(-129.483 -20.998)" fill="#0158a0"/>
        <path id="Trazado_232233" data-name="Trazado 232233" d="M216.745,34.485a2.229,2.229,0,1,1,2.237-2.166,2.253,2.253,0,0,1-2.237,2.166" transform="translate(-150.532 -21.003)" fill="#0158a0"/>
        <path id="Trazado_232234" data-name="Trazado 232234" d="M246.8,34.484a2.229,2.229,0,1,1,2.186-2.217,2.251,2.251,0,0,1-2.186,2.217" transform="translate(-171.586 -21.002)" fill="#0158a0"/>
        <path id="Trazado_232235" data-name="Trazado 232235" d="M276.771,30.027a2.229,2.229,0,1,1-2.246,2.155,2.253,2.253,0,0,1,2.246-2.155" transform="translate(-192.634 -21.003)" fill="#0158a0"/>
      </g>
    </g>
  </g>
</svg>
