<svg xmlns="http://www.w3.org/2000/svg" width="287" height="148" viewBox="0 0 287 148">
  <g id="Grupo_159306" data-name="Grupo 159306" transform="translate(-335 -7678)">
    <rect id="Rectángulo_47414" data-name="Rectángulo 47414" width="287" height="148" rx="27" transform="translate(335 7678)" fill="#008bfd"/>
    <g id="Grupo_158241" data-name="Grupo 158241" transform="translate(432.468 7710.685)">
      <g id="Grupo_158587" data-name="Grupo 158587" transform="translate(0 0)">
        <path id="Trazado_230776" data-name="Trazado 230776" d="M73.689,22.425c0-4.662,0-9.2,0-13.73C73.686,3.338,70.365,0,65.031,0Q41.651,0,18.271,0C12.921,0,9.6,3.325,9.6,8.68q0,18.069.014,36.137a2.074,2.074,0,0,1-.681,1.657C7.561,47.791,6.2,49.122,4.9,50.512A17.124,17.124,0,0,0,.157,64.922c.38,3.007.963,5.988,1.438,8.983.863,5.432,1.649,10.885,4.086,15.91a7.8,7.8,0,0,1,.73,3.771c-.063,1.887-.016,3.777-.016,5.653H28.826c0-.742.029-1.409,0-2.072a18.762,18.762,0,0,1,1.541-9.634c.4-.794.7-1.054,1.554-1.052q16.571.044,33.142.019c5.275,0,8.629-3.351,8.63-8.624q0-14.115.018-28.229a7.472,7.472,0,0,1,.426-1.681c.542.314.833.473,1.115.647A16.6,16.6,0,0,0,89.733,50.3c3.1-.993,6.061-2.685,9.526-2.216V32.115c-1.157-.292-2.376.3-3.392-.64-.841-.78-1.826-1.4-2.844-2.169,1.443-1.413,2.835-2.71,4.15-4.082a6.988,6.988,0,0,0,1.806-7.285,7.234,7.234,0,0,0-12.036-3.006c-2.357,2.266-4.629,4.621-6.959,6.916A1.721,1.721,0,0,1,79,22.4c-1.728.055-3.459.026-5.314.026" transform="translate(0 0.001)" fill="#fff"/>
        <path id="Trazado_230777" data-name="Trazado 230777" d="M73.688,22.425c1.855,0,3.586.03,5.315-.026a1.721,1.721,0,0,0,.98-.551c2.33-2.295,4.6-4.649,6.959-6.916a7.234,7.234,0,0,1,12.036,3.006,6.988,6.988,0,0,1-1.805,7.285c-1.314,1.372-2.707,2.668-4.15,4.082,1.017.765,2,1.389,2.844,2.169,1.017.944,2.236.348,3.392.64V48.083c-3.465-.469-6.421,1.224-9.526,2.216a16.6,16.6,0,0,1-14.486-1.686c-.282-.175-.574-.333-1.115-.647a7.484,7.484,0,0,0-.425,1.681q-.036,14.115-.018,28.229c0,5.273-3.355,8.623-8.63,8.624q-16.571,0-33.142-.019c-.855,0-1.158.258-1.553,1.052a18.759,18.759,0,0,0-1.541,9.634c.034.664.005,1.33.005,2.072H6.394c0-1.876-.047-3.766.016-5.653a7.8,7.8,0,0,0-.73-3.771C3.243,84.79,2.457,79.338,1.594,73.906c-.476-3-1.059-5.976-1.439-8.983A17.124,17.124,0,0,1,4.9,50.512c1.3-1.39,2.659-2.721,4.032-4.037a2.075,2.075,0,0,0,.681-1.657Q9.582,26.749,9.6,8.68C9.6,3.325,12.92,0,18.27,0Q41.65,0,65.03,0c5.334,0,8.656,3.338,8.658,8.695,0,4.534,0,9.068,0,13.73M64.043,57.84c-.363.133-.669.238-.968.357-1.888.751-3.778,1.5-5.66,2.261A4.326,4.326,0,0,1,51.673,54.7c.918-2.251,1.8-4.519,2.735-6.761a4.428,4.428,0,0,1,.92-1.387c1-1,2.066-1.947,3.105-2.915-3.453-3.371-2.775-7.411.073-9.936,1.719-1.525,3.257-3.253,4.914-4.851a2.038,2.038,0,0,0,.67-1.662c-.043-2.1-.015-4.2-.015-6.3v-4.8h-44.8v45.47c.369-1.013.617-2.043.9-3.061a5.333,5.333,0,0,1,10.486.874c.159,1.547.273,3.1.406,4.64H64.043Zm3.236-32.935a23.919,23.919,0,0,1,2.459-1.4,1.069,1.069,0,0,0,.76-1.181c-.026-4.537-.013-9.075-.014-13.612,0-3.63-1.864-5.508-5.465-5.508H18.266c-3.589,0-5.462,1.89-5.462,5.51q0,31.378,0,62.756c0,.267,0,.534,0,.8.025.725.407,1.321,1.091,1.331a1.861,1.861,0,0,0,1.456-.722c.943-1.9,1.733-3.869,2.588-5.84a3.757,3.757,0,0,1-1.951-3.707q.04-23.371.017-46.742c0-2.567,1.221-3.777,3.809-3.777q21.874,0,43.749,0c2.466,0,3.709,1.231,3.713,3.673,0,2.768,0,5.535,0,8.417M9.6,50.55a37.932,37.932,0,0,0-2.935,2.807A13.74,13.74,0,0,0,3.35,64.605c.567,3.925,1.317,7.823,1.88,11.748A44.743,44.743,0,0,0,8.816,89c.136.292.507.677.771.678q8.01.06,16.021.009a.969.969,0,0,0,.712-.479,27.212,27.212,0,0,0,2.435-13.335c-.251-3.226-.492-6.452-.748-9.678-.176-2.227-.337-4.457-.567-6.68A2.062,2.062,0,0,0,25.5,57.677a2.121,2.121,0,0,0-2.165,1.444,10.216,10.216,0,0,0-.313,1.156,58.931,58.931,0,0,1-4.6,13.7,6.048,6.048,0,0,1-1.429,1.887,4.221,4.221,0,0,1-4.783.56A4.434,4.434,0,0,1,9.6,72.154q0-10.261,0-20.522V50.55M31.516,83.3h1.123q16.266,0,32.532,0c3.339,0,5.309-1.951,5.311-5.262q.006-12.509,0-25.019c0-.282-.026-.564-.056-1.162-1.013,1.063-1.866,1.9-2.639,2.8a2.072,2.072,0,0,0-.486,1.208c-.044,2.534-.021,5.07-.022,7.605,0,2.6-1.2,3.809-3.779,3.809H31.345c.166,5.375,1.3,10.631.171,16.019M90.952,31.778l-6.7,6.681h3.78v3.19c-2.577,0-5.076.033-7.574-.025a2.973,2.973,0,0,1-1.608-.558c-1.656-1.235-3.238-2.568-4.869-3.837a9.278,9.278,0,0,0-5.454-1.973,2.507,2.507,0,0,0-1.395,4.755c3.452,2.081,6.894,4.18,10.374,6.212a12.717,12.717,0,0,0,10.6,1.206c2.666-.833,5.3-1.754,7.984-2.645V35.59l-5.134-3.813m-10.9,6.07,9.184-9.2c1.909-1.913,3.837-3.806,5.721-5.744a3.817,3.817,0,0,0,.955-4.064,3.882,3.882,0,0,0-3.053-2.731,4.065,4.065,0,0,0-3.889,1.315q-7.488,7.516-15,15.009c-.206.206-.392.433-.478.528l6.559,4.889M64.6,42.21,58.69,48.132,64.047,53.5l7.239-7.254L64.6,42.21M25.574,92.976H9.678v3.085h15.9ZM76.136,25.7A8.818,8.818,0,0,0,68.2,28.557c-1.5,1.608-3.1,3.118-4.654,4.674-1.154,1.155-2.339,2.28-3.448,3.476a2.714,2.714,0,0,0,.758,4.433c.477-.524,1.009-1.075,1.494-1.664a1.058,1.058,0,0,0,.223-.694c-.373-4.222,2.161-6.9,6.379-6.735a1.529,1.529,0,0,0,1.01-.2c2.045-1.989,4.049-4.02,6.171-6.147M60.97,55.579l-4.415-4.425c-.659,1.647-1.394,3.354-2.021,5.1a1.059,1.059,0,0,0,1.486,1.285c1.681-.626,3.337-1.317,4.949-1.959" transform="translate(0.001 0.001)" fill="#fff"/>
        <path id="Trazado_230778" data-name="Trazado 230778" d="M116.978,102v6.161H84c-.133-1.541-.247-3.092-.406-4.64a5.333,5.333,0,0,0-10.486-.874c-.287,1.019-.534,2.048-.9,3.061V60.24h44.8v4.8c0,2.1-.027,4.2.016,6.3a2.04,2.04,0,0,1-.67,1.662c-1.657,1.6-3.194,3.326-4.914,4.85-2.848,2.525-3.525,6.564-.073,9.936-1.04.968-2.1,1.91-3.106,2.915a4.427,4.427,0,0,0-.92,1.387c-.938,2.243-1.816,4.51-2.735,6.761a4.326,4.326,0,0,0,5.741,5.763c1.882-.764,3.772-1.51,5.66-2.261.3-.119.605-.224.969-.357M113.76,63.455H75.434v9.486H113.76Zm-8.014,12.812h-20.7v3.084h20.7Zm0,12.815h-20.7v3.084h20.7ZM85.008,98.554h17.533V95.475H85.008Zm17.537,3.346H85.012v3.079h17.533ZM99.338,82.675H85.044v3.084H99.338Zm6.41,0h-3.08v3.083h3.08Z" transform="translate(-52.934 -44.161)" fill="#008bfd"/>
        <path id="Trazado_230779" data-name="Trazado 230779" d="M102.442,33.706c0-2.882,0-5.649,0-8.417,0-2.443-1.247-3.673-3.713-3.673q-21.874,0-43.749,0c-2.587,0-3.808,1.21-3.808,3.776q0,23.371-.017,46.742A3.756,3.756,0,0,0,53.1,75.84c-.855,1.971-1.646,3.943-2.588,5.84a1.864,1.864,0,0,1-1.457.722c-.684-.01-1.066-.606-1.091-1.331-.009-.267,0-.534,0-.8q0-31.378,0-62.756c0-3.62,1.873-5.51,5.462-5.51H100.18c3.6,0,5.464,1.878,5.465,5.508,0,4.537-.012,9.075.014,13.612a1.068,1.068,0,0,1-.76,1.181,23.948,23.948,0,0,0-2.459,1.4m-32-15.363H83.135V15.259H70.444Zm25.58-1.549a1.594,1.594,0,1,0-1.58,1.61,1.608,1.608,0,0,0,1.58-1.61m6.409.043A1.594,1.594,0,1,0,100.81,18.4a1.61,1.61,0,0,0,1.622-1.567" transform="translate(-35.162 -8.8)" fill="#008bfd"/>
        <path id="Trazado_230780" data-name="Trazado 230780" d="M18.367,189.39v1.082q0,10.261,0,20.522a4.433,4.433,0,0,0,2.609,4.273,4.22,4.22,0,0,0,4.783-.56,6.043,6.043,0,0,0,1.429-1.887,58.941,58.941,0,0,0,4.6-13.7,10.289,10.289,0,0,1,.313-1.156,2.122,2.122,0,0,1,2.165-1.444,2.062,2.062,0,0,1,1.944,1.835c.23,2.222.391,4.452.567,6.68.255,3.225.5,6.452.748,9.678a27.216,27.216,0,0,1-2.435,13.335.969.969,0,0,1-.713.479q-8.01.041-16.02-.009c-.264,0-.635-.386-.771-.679A44.737,44.737,0,0,1,14,215.193c-.562-3.925-1.312-7.824-1.879-11.748A13.739,13.739,0,0,1,15.432,192.2a37.892,37.892,0,0,1,2.935-2.807" transform="translate(-8.768 -138.839)" fill="#008bfd"/>
        <path id="Trazado_230781" data-name="Trazado 230781" d="M117.608,225.715c1.13-5.388-.005-10.644-.171-16.019h1.225q15.465,0,30.93,0c2.581,0,3.777-1.208,3.778-3.809,0-2.535-.021-5.071.022-7.605a2.075,2.075,0,0,1,.486-1.208c.773-.9,1.626-1.738,2.639-2.8.03.6.056.88.056,1.162q0,12.509,0,25.019c0,3.311-1.971,5.261-5.311,5.262q-16.266,0-32.532,0h-1.123M127.742,212.9c-2.1,0-4.2-.016-6.3,0a3.208,3.208,0,0,0-3.312,3.457,6.39,6.39,0,0,0,6.1,6.127q3.5.1,7,0a6.4,6.4,0,0,0,6.107-5.912,3.234,3.234,0,0,0-3.389-3.675c-2.067-.015-4.135,0-6.2,0" transform="translate(-86.091 -142.418)" fill="#008bfd"/>
        <path id="Trazado_230782" data-name="Trazado 230782" d="M271.328,119.057l5.134,3.813v9.192c-2.68.891-5.318,1.812-7.984,2.645a12.717,12.717,0,0,1-10.6-1.206c-3.481-2.033-6.923-4.131-10.375-6.212a2.507,2.507,0,0,1,1.395-4.755,9.276,9.276,0,0,1,5.454,1.974c1.631,1.269,3.214,2.6,4.869,3.837a2.975,2.975,0,0,0,1.608.558c2.5.058,5,.026,7.574.026v-3.19h-3.779l6.7-6.681" transform="translate(-180.376 -87.279)" fill="#008bfd"/>
        <path id="Trazado_230783" data-name="Trazado 230783" d="M281.888,81.837l-6.559-4.889c.085-.094.271-.321.477-.528q7.5-7.5,15-15.009a4.065,4.065,0,0,1,3.889-1.315,3.883,3.883,0,0,1,3.053,2.731,3.817,3.817,0,0,1-.955,4.064c-1.883,1.938-3.812,3.832-5.721,5.744l-9.184,9.2" transform="translate(-201.839 -43.988)" fill="#008bfd"/>
        <path id="Trazado_230784" data-name="Trazado 230784" d="M225.8,158.141l6.684,4.034-7.239,7.254-5.357-5.365,5.912-5.923" transform="translate(-161.194 -115.93)" fill="#008bfd"/>
        <rect id="Rectángulo_47564" data-name="Rectángulo 47564" width="15.895" height="3.085" transform="translate(9.679 92.977)" fill="#008bfd"/>
        <path id="Trazado_230785" data-name="Trazado 230785" d="M238.924,96.093c-2.123,2.127-4.126,4.159-6.171,6.147a1.529,1.529,0,0,1-1.01.2c-4.218-.164-6.752,2.513-6.379,6.735a1.059,1.059,0,0,1-.223.694c-.485.589-1.017,1.139-1.494,1.663a2.714,2.714,0,0,1-.758-4.433c1.109-1.2,2.295-2.322,3.448-3.476,1.554-1.555,3.157-3.065,4.654-4.674a8.819,8.819,0,0,1,7.932-2.855" transform="translate(-162.788 -70.39)" fill="#008bfd"/>
        <path id="Trazado_230786" data-name="Trazado 230786" d="M210.561,196.075c-1.612.642-3.268,1.334-4.949,1.959a1.059,1.059,0,0,1-1.486-1.285c.627-1.746,1.362-3.453,2.021-5.1l4.414,4.425" transform="translate(-149.591 -140.495)" fill="#008bfd"/>
        <path id="Trazado_230787" data-name="Trazado 230787" d="M122.622,81.771H84.3V72.285h38.327ZM87.464,78.553h31.917V75.468H87.464Z" transform="translate(-61.795 -52.991)" fill="#8bdae6"/>
        <rect id="Rectángulo_47565" data-name="Rectángulo 47565" width="20.702" height="3.084" transform="translate(32.111 32.106)" fill="#8bdae6"/>
        <rect id="Rectángulo_47566" data-name="Rectángulo 47566" width="20.702" height="3.084" transform="translate(32.111 44.922)" fill="#8bdae6"/>
        <rect id="Rectángulo_47567" data-name="Rectángulo 47567" width="17.533" height="3.079" transform="translate(32.074 51.314)" fill="#8bdae6"/>
        <rect id="Rectángulo_47568" data-name="Rectángulo 47568" width="17.533" height="3.079" transform="translate(32.078 57.739)" fill="#8bdae6"/>
        <rect id="Rectángulo_47569" data-name="Rectángulo 47569" width="14.293" height="3.084" transform="translate(32.111 38.514)" fill="#8bdae6"/>
        <rect id="Rectángulo_47570" data-name="Rectángulo 47570" width="3.08" height="3.083" transform="translate(49.734 38.515)" fill="#8bdae6"/>
        <rect id="Rectángulo_47571" data-name="Rectángulo 47571" width="12.691" height="3.085" transform="translate(35.282 6.459)" fill="#fff"/>
        <path id="Trazado_230788" data-name="Trazado 230788" d="M219.264,25.614a1.594,1.594,0,1,1-1.609-1.578,1.613,1.613,0,0,1,1.609,1.578" transform="translate(-158.402 -17.62)" fill="#fff"/>
        <path id="Trazado_230789" data-name="Trazado 230789" d="M243.275,25.657a1.594,1.594,0,1,1-1.567-1.621,1.614,1.614,0,0,1,1.567,1.621" transform="translate(-176.004 -17.62)" fill="#fff"/>
        <path id="Trazado_230790" data-name="Trazado 230790" d="M129.638,264.048c2.068,0,4.135-.012,6.2,0a3.234,3.234,0,0,1,3.389,3.675,6.4,6.4,0,0,1-6.107,5.912q-3.5.1-7,0a6.391,6.391,0,0,1-6.1-6.127,3.207,3.207,0,0,1,3.312-3.457c2.1-.021,4.2,0,6.3,0m-6.362,3.242a3.09,3.09,0,0,0,3.009,3.147q3.352.08,6.707,0a3.056,3.056,0,0,0,2.974-3.146Z" transform="translate(-87.987 -193.565)" fill="#fff"/>
        <rect id="Rectángulo_47572" data-name="Rectángulo 47572" width="31.917" height="3.084" transform="translate(25.668 22.478)" fill="#8bdae6"/>
        <path id="Trazado_230791" data-name="Trazado 230791" d="M132.211,276.209H144.9a3.056,3.056,0,0,1-2.974,3.145q-3.352.085-6.707,0a3.09,3.09,0,0,1-3.009-3.147" transform="translate(-96.922 -202.484)" fill="#008bfd"/>
      </g>
    </g>
    <rect id="Rectángulo_48079" data-name="Rectángulo 48079" width="33" height="47" transform="translate(335 7779)" fill="#008bfd"/>
    <rect id="Rectángulo_48080" data-name="Rectángulo 48080" width="26" height="40" transform="translate(596 7786)" fill="#008bfd"/>
  </g>
</svg>
