<svg xmlns="http://www.w3.org/2000/svg" width="287" height="148" viewBox="0 0 287 148">
  <g id="Grupo_159308" data-name="Grupo 159308" transform="translate(-335 -7678)">
    <rect id="Rectángulo_47414" data-name="Rectángulo 47414" width="287" height="148" rx="27" transform="translate(335 7678)" fill="#008bfd"/>
    <rect id="Rectángulo_48079" data-name="Rectángulo 48079" width="33" height="47" transform="translate(335 7779)" fill="#008bfd"/>
    <rect id="Rectángulo_48080" data-name="Rectángulo 48080" width="26" height="40" transform="translate(596 7786)" fill="#008bfd"/>
    <g id="Grupo_159306" data-name="Grupo 159306" transform="translate(437.226 7701.899)">
      <path id="Trazado_230792" data-name="Trazado 230792" d="M148.5,111.9h0Zm-40.421-6.5H51.654V27.992H64.525c0,1.029-.009,2,0,2.968a3.235,3.235,0,0,0,3.413,3.426q15.946.015,31.891,0a3.238,3.238,0,0,0,3.449-3.492c.009-.964,0-1.928,0-2.89h12.944V48.861h3.2v-.852q0-9.84,0-19.68A3.278,3.278,0,0,0,115.81,24.7c-3.97-.005-7.94-.043-11.908.023a4.609,4.609,0,0,1-3.241-1.017c-1.97-1.646-4.15-2.7-6.817-2.262-.051.008-.112-.055-.253-.128,0-.69,0-1.422,0-2.155a3.229,3.229,0,0,0-1.314-2.709c-1.766-1.344-3.53-2.692-5.331-3.989a6.407,6.407,0,0,0-6.139.039c-1.767,1.287-3.507,2.61-5.25,3.928a3.262,3.262,0,0,0-1.346,2.793c.01.727,0,1.456,0,2.47-3.377-1.155-5.5,1.022-7.889,2.535a2.949,2.949,0,0,1-1.475.451c-4.2.035-8.41.019-12.615.02-2.658,0-3.859,1.212-3.859,3.892q0,38.1,0,76.2c0,2.677,1.2,3.884,3.869,3.884h55.831Zm17.347-28.616c-1.164-1.144-2.242-2.3-3.425-3.337a2.5,2.5,0,0,1-.87-2.748.517.517,0,0,1,.2,0q6.1,2.887,12.188,5.8a.944.944,0,0,1,.429.673,8.606,8.606,0,0,1-1.282,5.494,12,12,0,0,0-1.941,6.872c.035,5.987.011,11.975.011,17.962v1.094h3.23v-1.164c0-6.088-.041-12.177.035-18.264a8.164,8.164,0,0,1,.789-3.587c1.206-2.294,2.453-4.529,2.4-7.339.856.4,1.546.74,2.244,1.056a1.675,1.675,0,0,0,2.572-.871q1.486-2.919,2.925-5.861c.637-1.3.376-2.023-.959-2.673a36.335,36.335,0,0,0-4.378-2.044,3.122,3.122,0,0,1-2.444-3.824,4.6,4.6,0,0,0-2.6-4.644q-3.983-2.275-7.963-4.553a4.957,4.957,0,0,0-4.552-.295c-1.492.61-3,1.17-4.483,1.811a2.254,2.254,0,0,1-2.162-.048c-1.509-.806-3.066-1.531-4.638-2.205a2.667,2.667,0,0,0-1.624-.173c-1.552.423-3.075.963-4.6,1.495a1.6,1.6,0,0,0-1.1,2.227c.421,1.346.911,2.671,1.305,4.024a2.862,2.862,0,0,0,1.716,1.952c1.8.8,3.57,1.68,5.174,2.442-.1,1.3-.22,2.426-.256,3.555-.043,1.344.106,2.7-.031,4.034a18.011,18.011,0,0,0,2.819,11.984,3.322,3.322,0,0,1,.414,1.712c.027,6.727.018,13.454.018,20.182V108.6h3.23c0-5.489-.192-10.911.06-16.312.209-4.473-.442-8.6-2.923-12.371a2.019,2.019,0,0,1-.349-1.025q-.036-5.3,0-10.6a1.562,1.562,0,0,1,1.6-1.6,1.6,1.6,0,0,1,1.6,1.614,9.353,9.353,0,0,1-.006,2.015,5.787,5.787,0,0,0,2.469,5.99,27.08,27.08,0,0,1,2.714,2.669l2.442-2.191M75.878,42.537H108.15v6.324h3.117a1.122,1.122,0,0,0,.075-.246c.007-1.917.017-3.834.013-5.751a3.278,3.278,0,0,0-3.616-3.628q-23.815,0-47.63,0c-2.383,0-3.656,1.286-3.657,3.689q0,9.132,0,18.265c0,2.676,1.2,3.882,3.87,3.882H98.376V61.809h-22.5V52.143h24.1V48.9h-24.1ZM71.562,68.689c-.606.5-1.117.89-1.585,1.324-1.173,1.089-2.262,1.952-4.158,1.6a31.716,31.716,0,0,0-5.94-.076,3.24,3.24,0,0,0-3.425,3.412q-.023,3.028,0,6.055a3.246,3.246,0,0,0,3.5,3.445q2.977.017,5.955,0a3.24,3.24,0,0,0,3.463-3.477c.013-1.783.036-3.567-.014-5.348a1.683,1.683,0,0,1,.731-1.52c1.2-.945,2.355-1.951,3.552-2.952l-2.073-2.461m0,17.76c-.7.579-1.288,1.076-1.883,1.569-1.051.87-1.983,2.076-3.625,1.284a.506.506,0,0,0-.2,0c-1.985,0-3.97-.01-5.955,0a3.251,3.251,0,0,0-3.448,3.492q-.016,2.977,0,5.955a3.248,3.248,0,0,0,3.474,3.466q2.977.019,5.954,0a3.24,3.24,0,0,0,3.484-3.456c.014-1.85-.029-3.7.028-5.55a1.818,1.818,0,0,1,.545-1.165c1.185-1.073,2.434-2.073,3.692-3.127l-2.068-2.465m14,7.623h22.48v-3.11H85.565Zm20.886-20.858H85.6v3.116h20.855ZM90.407,100.528h17.671v-3.1H90.407Zm0-17.761H106.43V79.658H90.409Zm-3.351-3.08H75.885v3.107H87.059Zm.008,17.755H75.876v3.107h11.19ZM79.106,76.32h3.116v-3.1H79.106Zm3.141,14.665h-3.14v3.1h3.14Z" transform="translate(-45.146 -11.702)" fill="#6e6e6e"/>
      <path id="Trazado_230793" data-name="Trazado 230793" d="M116.847,105.409v3.266H61.016c-2.667,0-3.869-1.207-3.869-3.884q0-38.1,0-76.2c0-2.681,1.2-3.892,3.859-3.892,4.205,0,8.41.015,12.615-.02a2.949,2.949,0,0,0,1.475-.45c2.385-1.513,4.512-3.689,7.889-2.535,0-1.014.008-1.742,0-2.47a3.262,3.262,0,0,1,1.346-2.793c1.744-1.318,3.484-2.642,5.25-3.928a6.407,6.407,0,0,1,6.139-.039c1.8,1.3,3.564,2.645,5.331,3.989a3.228,3.228,0,0,1,1.314,2.708c0,.733,0,1.466,0,2.155.141.074.2.137.253.128,2.667-.434,4.847.616,6.817,2.262a4.61,4.61,0,0,0,3.241,1.017c3.968-.067,7.939-.029,11.908-.023A3.278,3.278,0,0,1,128.2,28.33q.007,9.84,0,19.68v.852H125V28H112.052c0,.962.007,1.927,0,2.89a3.238,3.238,0,0,1-3.449,3.492q-15.946.013-31.891,0A3.235,3.235,0,0,1,73.3,30.96c-.011-.969,0-1.939,0-2.968H60.425v77.417ZM76.525,31.089h32.3c0-1.178.036-2.286-.024-3.389a1.433,1.433,0,0,0-.51-.86,7.768,7.768,0,0,0-6.623-2.144,3.586,3.586,0,0,1-.705,0,1.644,1.644,0,0,1-1.822-1.8c-.021-1.042.048-2.089-.032-3.125a1.8,1.8,0,0,0-.575-1.141c-1.167-.96-2.473-1.759-3.59-2.77a3.4,3.4,0,0,0-4.533.008c-1.111,1.016-2.424,1.808-3.593,2.766a1.807,1.807,0,0,0-.574,1.142c-.081,1-.015,2.016-.03,3.024-.019,1.309-.6,1.884-1.931,1.9-1.143.012-2.287-.019-3.429.016A2.158,2.158,0,0,0,79.818,25c-.97.6-1.921,1.239-2.841,1.914a1.183,1.183,0,0,0-.431.794c-.049,1.1-.02,2.21-.02,3.384" transform="translate(-53.917 -11.702)" fill="#fff"/>
      <path id="Trazado_230794" data-name="Trazado 230794" d="M283.351,191.291l-2.441,2.191a27.08,27.08,0,0,0-2.714-2.669,5.786,5.786,0,0,1-2.469-5.99,9.332,9.332,0,0,0,.005-2.015,1.6,1.6,0,0,0-1.6-1.614,1.562,1.562,0,0,0-1.6,1.6q-.044,5.3,0,10.6a2.016,2.016,0,0,0,.349,1.025c2.482,3.773,3.132,7.9,2.923,12.371-.252,5.4-.06,10.823-.06,16.312h-3.23v-1.064c0-6.727.01-13.454-.018-20.182a3.321,3.321,0,0,0-.414-1.712,18.013,18.013,0,0,1-2.819-11.984c.137-1.331-.011-2.69.031-4.034.036-1.129.159-2.256.257-3.555-1.6-.762-3.371-1.644-5.174-2.442a2.864,2.864,0,0,1-1.716-1.952c-.395-1.353-.885-2.678-1.305-4.024a1.6,1.6,0,0,1,1.1-2.227c1.521-.532,3.043-1.071,4.6-1.495a2.664,2.664,0,0,1,1.624.173c1.573.674,3.129,1.4,4.639,2.205a2.255,2.255,0,0,0,2.162.048c1.478-.642,2.99-1.2,4.482-1.811a4.957,4.957,0,0,1,4.552.295q3.984,2.273,7.963,4.553a4.594,4.594,0,0,1,2.6,4.644,3.121,3.121,0,0,0,2.444,3.824A36.394,36.394,0,0,1,301.9,184.4c1.335.651,1.6,1.375.959,2.674q-1.443,2.94-2.925,5.861a1.675,1.675,0,0,1-2.572.871c-.7-.317-1.388-.653-2.244-1.057.052,2.81-1.2,5.045-2.4,7.339a8.164,8.164,0,0,0-.789,3.587c-.076,6.087-.035,12.176-.035,18.264V223.1h-3.23v-1.094c0-5.987.024-11.975-.011-17.961a12,12,0,0,1,1.941-6.872,8.6,8.6,0,0,0,1.281-5.494.943.943,0,0,0-.429-.673q-6.081-2.927-12.189-5.8a.516.516,0,0,0-.2,0,2.5,2.5,0,0,0,.87,2.748c1.183,1.036,2.262,2.192,3.425,3.337m-18.438-18.682a8.946,8.946,0,0,1,.335,1.088,2.683,2.683,0,0,0,1.84,2.14c1.55.634,3.027,1.449,4.562,2.125a2.3,2.3,0,0,0,1.323.137,4.876,4.876,0,0,1,5.5,2.566,2.612,2.612,0,0,0,1.081,1.067c2.892,1.419,5.814,2.778,8.724,4.162,3.086,1.468,6.17,2.941,9.339,4.453l1.772-3.551c-.43-.215-.756-.385-1.087-.543-9.606-4.575-19.235-9.1-28.8-13.766a4.494,4.494,0,0,0-4.589.123m26.881,6.967a2.593,2.593,0,0,0-1.544-3.268c-2.407-1.258-4.723-2.689-7.1-4a2.339,2.339,0,0,0-1.5-.367,31.723,31.723,0,0,0-3.308,1.234l13.453,6.4" transform="translate(-203.073 -126.2)" fill="#fff"/>
      <path id="Trazado_230795" data-name="Trazado 230795" d="M106.572,117.3v6.363h24.1v3.243h-24.1v9.666h22.5v3.264H91.015c-2.668,0-3.87-1.207-3.87-3.882q0-9.132,0-18.265c0-2.4,1.274-3.689,3.657-3.689q23.815,0,47.63,0a3.278,3.278,0,0,1,3.616,3.628c0,1.917-.006,3.834-.013,5.751a1.121,1.121,0,0,1-.075.246h-3.117V117.3ZM90.42,136.536h12.793V126.97H90.42Zm.031-12.9h12.782v-6.371H90.451Z" transform="translate(-75.84 -86.466)" fill="#8bdae6"/>
      <path id="Trazado_230796" data-name="Trazado 230796" d="M102.237,223.434l2.074,2.461c-1.2,1-2.35,2.007-3.552,2.953a1.683,1.683,0,0,0-.731,1.52c.05,1.781.027,3.565.014,5.348a3.24,3.24,0,0,1-3.463,3.477q-2.977.021-5.955,0a3.246,3.246,0,0,1-3.5-3.445q-.02-3.028,0-6.055a3.24,3.24,0,0,1,3.425-3.412,31.713,31.713,0,0,1,5.94.076c1.9.353,2.985-.51,4.158-1.6.467-.434.979-.82,1.584-1.324m-7.407,6.145h-4.4v6.306h6.3v-3.641l-2.107,1.716-2.064-2.452,2.273-1.929" transform="translate(-75.822 -166.448)" fill="#8bdae6"/>
      <path id="Trazado_230797" data-name="Trazado 230797" d="M102.244,289.42l2.069,2.465c-1.258,1.054-2.508,2.055-3.693,3.127a1.817,1.817,0,0,0-.545,1.165c-.057,1.848-.014,3.7-.029,5.55a3.24,3.24,0,0,1-3.484,3.456q-2.977.019-5.955,0a3.248,3.248,0,0,1-3.474-3.467q-.018-2.977,0-5.954a3.251,3.251,0,0,1,3.448-3.492c1.985-.013,3.97,0,5.955,0a.507.507,0,0,1,.2,0c1.642.792,2.574-.414,3.625-1.284.6-.493,1.188-.989,1.883-1.569m-7.62,10.534L92.571,297.5l2.269-1.943H90.424v6.333h6.327v-3.662l-2.127,1.728" transform="translate(-75.827 -214.674)" fill="#8bdae6"/>
      <rect id="Rectángulo_47574" data-name="Rectángulo 47574" width="22.48" height="3.11" transform="translate(40.419 79.26)" fill="#8bdae6"/>
      <rect id="Rectángulo_47575" data-name="Rectángulo 47575" width="20.855" height="3.116" transform="translate(40.45 61.511)" fill="#8bdae6"/>
      <rect id="Rectángulo_47576" data-name="Rectángulo 47576" width="17.671" height="3.105" transform="translate(45.261 85.722)" fill="#8bdae6"/>
      <rect id="Rectángulo_47577" data-name="Rectángulo 47577" width="16.021" height="3.109" transform="translate(45.263 67.956)" fill="#8bdae6"/>
      <rect id="Rectángulo_47578" data-name="Rectángulo 47578" width="11.174" height="3.107" transform="translate(30.739 67.985)" fill="#8bdae6"/>
      <rect id="Rectángulo_47579" data-name="Rectángulo 47579" width="11.19" height="3.107" transform="translate(30.73 85.74)" fill="#8bdae6"/>
      <rect id="Rectángulo_47580" data-name="Rectángulo 47580" width="3.116" height="3.099" transform="translate(33.96 61.52)" fill="#8bdae6"/>
      <rect id="Rectángulo_47581" data-name="Rectángulo 47581" width="3.14" height="3.097" transform="translate(33.961 79.284)" fill="#8bdae6"/>
      <path id="Trazado_230798" data-name="Trazado 230798" d="M129.125,40.037c0-1.173-.029-2.28.02-3.384a1.181,1.181,0,0,1,.431-.794c.92-.675,1.871-1.312,2.841-1.914a2.158,2.158,0,0,1,1.031-.283c1.143-.035,2.286,0,3.43-.016,1.327-.015,1.912-.589,1.931-1.9.015-1.009-.051-2.022.03-3.024a1.807,1.807,0,0,1,.574-1.142c1.169-.958,2.482-1.75,3.593-2.766a3.4,3.4,0,0,1,4.533-.009c1.117,1.011,2.423,1.81,3.59,2.77a1.8,1.8,0,0,1,.575,1.141c.08,1.036.01,2.083.032,3.125a1.643,1.643,0,0,0,1.822,1.8,3.566,3.566,0,0,0,.705,0,7.768,7.768,0,0,1,6.623,2.144,1.433,1.433,0,0,1,.509.86c.061,1.1.024,2.211.024,3.389ZM145.32,27.2a1.608,1.608,0,1,0,1.56,1.653,1.619,1.619,0,0,0-1.56-1.653" transform="translate(-106.517 -20.65)" fill="#008bfd"/>
      <path id="Trazado_230799" data-name="Trazado 230799" d="M274.908,182.248a4.494,4.494,0,0,1,4.589-.123c9.562,4.664,19.191,9.191,28.8,13.766.331.158.657.328,1.087.543l-1.772,3.551c-3.169-1.511-6.253-2.985-9.339-4.453-2.91-1.384-5.832-2.743-8.724-4.162a2.608,2.608,0,0,1-1.081-1.067,4.877,4.877,0,0,0-5.5-2.566,2.3,2.3,0,0,1-1.323-.136c-1.535-.676-3.011-1.491-4.562-2.125a2.683,2.683,0,0,1-1.84-2.14,9.032,9.032,0,0,0-.335-1.088" transform="translate(-213.069 -135.84)" fill="#008bfd"/>
      <path id="Trazado_230800" data-name="Trazado 230800" d="M338.253,189.2l-13.453-6.4a31.735,31.735,0,0,1,3.307-1.234,2.339,2.339,0,0,1,1.5.367c2.379,1.314,4.695,2.745,7.1,4a2.593,2.593,0,0,1,1.544,3.268" transform="translate(-249.533 -135.82)" fill="#008bfd"/>
      <rect id="Rectángulo_47582" data-name="Rectángulo 47582" width="12.793" height="9.566" transform="translate(14.58 40.505)" fill="#008bfd"/>
      <rect id="Rectángulo_47583" data-name="Rectángulo 47583" width="12.782" height="6.371" transform="translate(14.611 30.802)" fill="#008bfd"/>
      <path id="Trazado_230801" data-name="Trazado 230801" d="M103.829,246.265l-2.273,1.93,2.064,2.452,2.107-1.716v3.641h-6.3v-6.306Z" transform="translate(-84.82 -183.134)" fill="#008bfd"/>
      <path id="Trazado_230802" data-name="Trazado 230802" d="M103.583,316.613l2.127-1.728v3.662H99.383v-6.333H103.8l-2.269,1.943,2.053,2.455" transform="translate(-84.785 -231.334)" fill="#008bfd"/>
      <path id="Trazado_230803" data-name="Trazado 230803" d="M184.828,36.027a1.608,1.608,0,1,1-1.653,1.559,1.624,1.624,0,0,1,1.653-1.559" transform="translate(-146.025 -29.48)" fill="#fff"/>
    </g>
  </g>
</svg>
