<svg xmlns="http://www.w3.org/2000/svg" xmlns:xlink="http://www.w3.org/1999/xlink" width="1045.588" height="673.065" viewBox="0 0 1045.588 673.065">
  <defs>
    <clipPath id="clip-path">
      <rect id="Rectángulo_47874" data-name="Rectángulo 47874" width="1045" height="672.566" fill="none" stroke="#9abbc0" stroke-width="1"/>
    </clipPath>
    <clipPath id="clip-path-5">
      <rect id="Rectángulo_47880" data-name="Rectángulo 47880" width="1045" height="672.566" fill="none" stroke="#f9ba3a" stroke-width="1"/>
    </clipPath>
    <clipPath id="clip-path-7">
      <rect id="Rectángulo_47883" data-name="Rectángulo 47883" width="1045" height="672.566" fill="none" stroke="#5bbcb2" stroke-width="1"/>
    </clipPath>
    <clipPath id="clip-path-9">
      <rect id="Rectángulo_47886" data-name="Rectángulo 47886" width="1045" height="672.566" fill="none"/>
    </clipPath>
  </defs>
  <g id="Grupo_159294" data-name="Grupo 159294" transform="translate(-276.912 -14964.5)">
    <g id="Grupo_158896" data-name="Grupo 158896" transform="translate(277.5 14965)">
      <path id="Trazado_231551" data-name="Trazado 231551" d="M0,0,110.727,137.855" transform="translate(521.519 130.369)" fill="none" stroke="#9abbc0" stroke-width="4"/>
      <line id="Línea_559" data-name="Línea 559" x2="105.744" y2="134.132" transform="translate(153.256 130.368)" fill="none" stroke="#9abbc0" stroke-miterlimit="10" stroke-width="4"/>
      <line id="Línea_560" data-name="Línea 560" x1="105.35" y2="124.518" transform="translate(705.65 234.5)" fill="none" stroke="#9abbc0" stroke-miterlimit="10" stroke-width="4"/>
      <path id="Trazado_231550" data-name="Trazado 231550" d="M100.612,102.982,0,228.65" transform="translate(337.388 130.369)" fill="none" stroke="#9abbc0" stroke-width="4"/>
      <path id="Trazado_231515" data-name="Trazado 231515" d="M439.136,0,380.6,180.166,533.855,291.513,687.11,180.166,628.571,0Z" transform="translate(355.928 0)" fill="#0158a0"/>
      <path id="Trazado_231516" data-name="Trazado 231516" d="M387.75,169.975,441,6.086H613.325l53.25,163.889L527.163,271.264Z" transform="translate(362.618 5.692)" fill="#fff"/>
      <path id="Trazado_231517" data-name="Trazado 231517" d="M392.042,163.861,442.121,9.737H604.177l50.079,154.124L523.149,259.117Z" transform="translate(366.632 9.106)" fill="none" stroke="#9abbc0" stroke-miterlimit="10" stroke-width="1"/>
      <path id="Trazado_231518" data-name="Trazado 231518" d="M248.836,0,190.3,180.166,343.556,291.513,496.811,180.166,438.271,0Z" transform="translate(177.965 0)" fill="#7e5ee3"/>
      <path id="Trazado_231519" data-name="Trazado 231519" d="M197.452,169.975,250.7,6.086H423.027l53.25,163.889L336.865,271.264Z" transform="translate(184.654 5.692)" fill="#fff"/>
      <path id="Trazado_231520" data-name="Trazado 231520" d="M201.744,163.861,251.823,9.737H413.879l50.079,154.124L332.851,259.117Z" transform="translate(188.668 9.106)" fill="none" stroke="#7e5ee3" stroke-miterlimit="10" stroke-width="1"/>
      <path id="Trazado_231521" data-name="Trazado 231521" d="M438.7,109.054,285.447,220.4l58.539,180.164H533.422L591.961,220.4Z" transform="translate(266.946 101.986)" fill="#5bbcb2"/>
      <path id="Trazado_231522" data-name="Trazado 231522" d="M345.853,381.754,292.6,217.866,432.015,116.576,571.425,217.866l-53.25,163.889Z" transform="translate(273.637 109.02)" fill="#fff"/>
      <path id="Trazado_231523" data-name="Trazado 231523" d="M346.973,370.468,296.894,216.344,428,121.089l131.105,95.256L509.027,370.468Z" transform="translate(277.651 113.24)" fill="none" stroke="#9abbc0" stroke-miterlimit="10" stroke-width="1"/>
      <path id="Trazado_231524" data-name="Trazado 231524" d="M58.539,0,0,180.166,153.257,291.513,306.512,180.166,247.973,0Z" transform="translate(0 0)" fill="#f9ba3a" stroke="#f9ba3a" stroke-width="1"/>
      <path id="Trazado_231525" data-name="Trazado 231525" d="M7.154,169.975,60.4,6.086H232.729l53.25,163.889L146.567,271.264Z" transform="translate(6.69 5.692)" fill="#fff" stroke="#f9ba3a" stroke-width="1"/>
      <path id="Trazado_231526" data-name="Trazado 231526" d="M11.446,163.861,61.524,9.737H223.581l50.079,154.124L142.553,259.117Z" transform="translate(10.704 9.106)" fill="none" stroke="#f9ba3a" stroke-miterlimit="10" stroke-width="1"/>
      <path id="Trazado_231527" data-name="Trazado 231527" d="M248.406,109.054,95.149,220.4l58.539,180.164H343.123L401.663,220.4Z" transform="translate(88.982 101.986)" fill="#008bfd"/>
      <path id="Trazado_231528" data-name="Trazado 231528" d="M155.555,381.754,102.3,217.866,241.715,116.576,381.128,217.866l-53.25,163.889Z" transform="translate(95.672 109.02)" fill="#fff" stroke="#9abbc0" stroke-width="1"/>
      <path id="Trazado_231529" data-name="Trazado 231529" d="M156.675,370.468,106.594,216.344,237.7,121.089l131.107,95.256L318.729,370.468Z" transform="translate(99.686 113.24)" fill="none" stroke="#008bfd" stroke-miterlimit="10" stroke-width="1"/>
      <rect id="Rectángulo_47873" data-name="Rectángulo 47873" width="47.027" height="5.935" transform="translate(498.006 200.441)" fill="#7e5ee3"/>
      <g id="Grupo_158873" data-name="Grupo 158873" transform="translate(0)">
        <g id="Grupo_158872" data-name="Grupo 158872" clip-path="url(#clip-path)">
          <path id="Trazado_231530" data-name="Trazado 231530" d="M280.1,65.525a21.939,21.939,0,1,1,21.937-21.939A21.965,21.965,0,0,1,280.1,65.525Z" transform="translate(241.424 20.244)" fill="none" stroke="#7e5ee3" stroke-miterlimit="10" stroke-width="0.5"/>
          <path id="Trazado_231531" data-name="Trazado 231531" d="M297.386,42.071a18.805,18.805,0,1,1-18.8-18.8,18.8,18.8,0,0,1,18.8,18.8" transform="translate(242.939 21.759)" fill="#7e5ee3" stroke="#7e5ee3" stroke-width="1"/>
        </g>
      </g>
      <text id="_3" data-name="3" transform="translate(514.204 72.399)" fill="#fff" font-size="24" font-family="Montserrat-ExtraBold, Montserrat" font-weight="800"><tspan x="0" y="0">3</tspan></text>
      <g id="Grupo_158875" data-name="Grupo 158875" transform="translate(0)">
        <g id="Grupo_158874" data-name="Grupo 158874" clip-path="url(#clip-path)">
          <rect id="Rectángulo_47875" data-name="Rectángulo 47875" width="47.027" height="5.935" transform="translate(866.268 200.441)" fill="#0158a0" stroke="#9abbc0" stroke-width="1"/>
        </g>
      </g>
      <g id="Grupo_158877" data-name="Grupo 158877" transform="translate(0)">
        <g id="Grupo_158876" data-name="Grupo 158876" clip-path="url(#clip-path)">
          <path id="Trazado_231532" data-name="Trazado 231532" d="M470.394,65.525a21.939,21.939,0,1,1,21.937-21.939A21.965,21.965,0,0,1,470.394,65.525Z" transform="translate(419.388 20.244)" fill="none" stroke="#0158a0" stroke-miterlimit="10" stroke-width="0.5"/>
          <path id="Trazado_231533" data-name="Trazado 231533" d="M487.684,42.071a18.805,18.805,0,1,1-18.8-18.8,18.8,18.8,0,0,1,18.8,18.8" transform="translate(420.902 21.759)" fill="#0158a0"/>
        </g>
      </g>
      <text id="_5" data-name="5" transform="translate(882.416 72.399)" fill="#fff" font-size="24" font-family="Montserrat-ExtraBold, Montserrat" font-weight="800"><tspan x="0" y="0">5</tspan></text>
      <g id="Grupo_158879" data-name="Grupo 158879" transform="translate(0)">
        <g id="Grupo_158878" data-name="Grupo 158878" clip-path="url(#clip-path)">
          <rect id="Rectángulo_47878" data-name="Rectángulo 47878" width="47.027" height="5.935" transform="translate(129.744 200.441)" fill="#f9ba3a"/>
        </g>
      </g>
      <g id="Grupo_158881" data-name="Grupo 158881" transform="translate(0)">
        <g id="Grupo_158880" data-name="Grupo 158880" clip-path="url(#clip-path-5)">
          <path id="Trazado_231534" data-name="Trazado 231534" d="M89.8,65.525a21.939,21.939,0,1,1,21.937-21.939A21.965,21.965,0,0,1,89.8,65.525Z" transform="translate(63.46 20.244)" fill="none" stroke="#f9ba3a" stroke-miterlimit="10" stroke-width="0.5"/>
          <path id="Trazado_231535" data-name="Trazado 231535" d="M107.087,42.071a18.805,18.805,0,1,1-18.8-18.8,18.8,18.8,0,0,1,18.8,18.8" transform="translate(64.974 21.759)" fill="#f9ba3a" stroke="#f9ba3a" stroke-width="1"/>
        </g>
      </g>
      <text id="_1" data-name="1" transform="translate(148.342 71.399)" fill="#fff" stroke="#f9ba3a" stroke-width="1" font-size="23" font-family="Montserrat-ExtraBold, Montserrat" font-weight="800"><tspan x="0" y="0">1</tspan></text>
      <g id="Grupo_158883" data-name="Grupo 158883" transform="translate(0)">
        <g id="Grupo_158882" data-name="Grupo 158882" clip-path="url(#clip-path)">
          <rect id="Rectángulo_47881" data-name="Rectángulo 47881" width="47.027" height="5.935" transform="translate(682.137 446.29)" fill="#5bbcb2"/>
        </g>
      </g>
      <g id="Grupo_158885" data-name="Grupo 158885" transform="translate(0)">
        <g id="Grupo_158884" data-name="Grupo 158884" clip-path="url(#clip-path-7)">
          <path id="Trazado_231536" data-name="Trazado 231536" d="M375.245,192.567a21.939,21.939,0,1,1,21.937-21.939A21.965,21.965,0,0,1,375.245,192.567Z" transform="translate(330.406 139.052)" fill="none" stroke="#5bbcb2" stroke-miterlimit="10" stroke-width="0.5"/>
          <path id="Trazado_231537" data-name="Trazado 231537" d="M392.535,169.113a18.805,18.805,0,1,1-18.8-18.8,18.8,18.8,0,0,1,18.8,18.8" transform="translate(331.92 140.567)" fill="#5bbcb2" stroke="#5bbcb2" stroke-width="1"/>
        </g>
      </g>
      <text id="_4" data-name="4" transform="translate(697.16 318.254)" fill="#fff" font-size="24" font-family="Montserrat-ExtraBold, Montserrat" font-weight="800"><tspan x="0" y="0">4</tspan></text>
      <g id="Grupo_158887" data-name="Grupo 158887" transform="translate(0)">
        <g id="Grupo_158886" data-name="Grupo 158886" clip-path="url(#clip-path)">
          <rect id="Rectángulo_47884" data-name="Rectángulo 47884" width="47.027" height="5.935" transform="translate(313.875 446.29)" fill="#008bfd" stroke="#9abbc0" stroke-width="1"/>
        </g>
      </g>
      <g id="Grupo_158889" data-name="Grupo 158889" transform="translate(0)">
        <g id="Grupo_158888" data-name="Grupo 158888" clip-path="url(#clip-path-9)">
          <path id="Trazado_231538" data-name="Trazado 231538" d="M184.946,192.567a21.939,21.939,0,1,1,21.937-21.939A21.965,21.965,0,0,1,184.946,192.567Z" transform="translate(152.442 139.052)" fill="none" stroke="#008bfd" stroke-miterlimit="10" stroke-width="0.5"/>
          <path id="Trazado_231539" data-name="Trazado 231539" d="M202.236,169.113a18.805,18.805,0,1,1-18.8-18.8,18.8,18.8,0,0,1,18.8,18.8" transform="translate(153.956 140.567)" fill="#008bfd"/>
        </g>
      </g>
      <text id="_2" data-name="2" transform="translate(330.121 318.254)" fill="#fff" font-size="24" font-family="Montserrat-ExtraBold, Montserrat" font-weight="800"><tspan x="0" y="0">2</tspan></text>
      <g id="Grupo_158891" data-name="Grupo 158891" transform="translate(0)">
        <g id="Grupo_158890" data-name="Grupo 158890" clip-path="url(#clip-path)">
          <line id="Línea_562" data-name="Línea 562" x2="1045" transform="translate(0 571.621)" fill="none" stroke="#9abbc0" stroke-miterlimit="10" stroke-width="4"/>
          <path id="Trazado_231540" data-name="Trazado 231540" d="M501.973,309.126a28.439,28.439,0,1,1-28.44-28.439,28.439,28.439,0,0,1,28.44,28.439" transform="translate(416.247 262.494)" fill="#0158a0" stroke="#9abbc0" stroke-width="1"/>
          <path id="Trazado_231542" data-name="Trazado 231542" d="M311.674,309.126a28.438,28.438,0,1,1-28.439-28.439,28.439,28.439,0,0,1,28.439,28.439" transform="translate(238.282 262.494)" fill="#7e5ee3" stroke="#9abbc0" stroke-width="1"/>
          <path id="Trazado_231544" data-name="Trazado 231544" d="M121.377,309.126a28.439,28.439,0,1,1-28.439-28.439,28.439,28.439,0,0,1,28.439,28.439" transform="translate(60.319 262.494)" fill="#f9ba3a" stroke="#9abbc0" stroke-width="1"/>
        </g>
      </g>
      <text id="internacional_de" data-name="internacional de" transform="translate(824.27 649.599)" fill="#383838" stroke="#707070" stroke-width="1" font-size="15" font-family="Montserrat-Bold, Montserrat" font-weight="700"><tspan x="0" y="0">in</tspan><tspan y="0" letter-spacing="-0.017em">t</tspan><tspan y="0">e</tspan><tspan y="0" letter-spacing="-0.003em">r</tspan><tspan y="0">n</tspan><tspan y="0" letter-spacing="0.006em">a</tspan><tspan y="0">cional de</tspan></text>
      <g id="Grupo_159293" data-name="Grupo 159293">
        <path id="Trazado_232861" data-name="Trazado 232861" d="M10.545,0,8.19-3.375A3.414,3.414,0,0,0,10.35-6.69c0-2.355-1.755-3.81-4.56-3.81H1.245V0h2.43V-2.925H5.91L7.935,0ZM7.89-6.69c0,1.14-.75,1.83-2.235,1.83H3.675V-8.52h1.98C7.14-8.52,7.89-7.845,7.89-6.69ZM20.01-4.005a4,4,0,0,0-4.2-4.185A4.108,4.108,0,0,0,11.5-4.035C11.5-1.635,13.32.12,16.11.12a4.227,4.227,0,0,0,3.33-1.305l-1.245-1.35a2.736,2.736,0,0,1-2.025.78,2.152,2.152,0,0,1-2.31-1.62h6.105C19.98-3.57,20.01-3.825,20.01-4.005ZM15.825-6.42a1.918,1.918,0,0,1,1.98,1.68H13.83A1.91,1.91,0,0,1,15.825-6.42Zm8.55-1.77a6.2,6.2,0,0,0-3.48.975l.84,1.635a3.88,3.88,0,0,1,2.325-.75c1.26,0,1.86.585,1.86,1.59H24.06c-2.46,0-3.465.99-3.465,2.415C20.595-.93,21.72.12,23.61.12A2.648,2.648,0,0,0,26.07-1V0h2.19V-4.605C28.26-7.05,26.835-8.19,24.375-8.19Zm-.18,6.735c-.825,0-1.32-.39-1.32-.975,0-.54.345-.945,1.44-.945h1.6v.825A1.724,1.724,0,0,1,24.195-1.455ZM30.375,0h2.34V-11.13h-2.34ZM36.06-9.2a1.346,1.346,0,0,0,1.455-1.35,1.314,1.314,0,0,0-1.455-1.26A1.338,1.338,0,0,0,34.6-10.5,1.338,1.338,0,0,0,36.06-9.2ZM34.89,0h2.34V-8.07H34.89ZM41.8-1.8l4.11-4.86V-8.07h-6.96v1.8H42.96L38.85-1.41V0h7.2V-1.8Zm9-6.39a6.2,6.2,0,0,0-3.48.975l.84,1.635a3.88,3.88,0,0,1,2.325-.75c1.26,0,1.86.585,1.86,1.59H50.49c-2.46,0-3.465.99-3.465,2.415C47.025-.93,48.15.12,50.04.12A2.648,2.648,0,0,0,52.5-1V0h2.19V-4.605C54.69-7.05,53.265-8.19,50.8-8.19Zm-.18,6.735c-.825,0-1.32-.39-1.32-.975,0-.54.345-.945,1.44-.945h1.6v.825A1.724,1.724,0,0,1,50.625-1.455Zm8.415-5.55V-8.07H56.805V0h2.34V-3.81A1.983,1.983,0,0,1,61.29-6.06c.18,0,.33.015.525.03V-8.19A3.257,3.257,0,0,0,59.04-7.005Z" transform="translate(489.607 131.764)" fill="#383838"/>
        <path id="Trazado_232862" data-name="Trazado 232862" d="M6.27.18A5.4,5.4,0,0,0,10.605-1.7l-1.56-1.44A3.346,3.346,0,0,1,6.405-1.89a3.221,3.221,0,0,1-3.36-3.36,3.221,3.221,0,0,1,3.36-3.36,3.378,3.378,0,0,1,2.64,1.23l1.56-1.44a5.421,5.421,0,0,0-4.32-1.86,5.4,5.4,0,0,0-5.7,5.43A5.391,5.391,0,0,0,6.27.18ZM15.36.12a4.142,4.142,0,0,0,4.425-4.155A4.142,4.142,0,0,0,15.36-8.19a4.154,4.154,0,0,0-4.44,4.155A4.154,4.154,0,0,0,15.36.12Zm0-1.92a2.048,2.048,0,0,1-2.07-2.235A2.048,2.048,0,0,1,15.36-6.27a2.037,2.037,0,0,1,2.055,2.235A2.037,2.037,0,0,1,15.36-1.8ZM26.25-8.19a3.533,3.533,0,0,0-2.67,1.065V-8.07H21.345V0h2.34V-3.99c0-1.485.81-2.175,1.935-2.175,1.035,0,1.635.6,1.635,1.9V0H29.6V-4.62C29.6-7.08,28.155-8.19,26.25-8.19ZM36.285-2.04a1.577,1.577,0,0,1-.945.3.941.941,0,0,1-1.005-1.065V-6.09h2.01v-1.8h-2.01V-9.855h-2.34V-7.89H30.75v1.8h1.245v3.315c0,1.92,1.11,2.9,3.015,2.9a3.344,3.344,0,0,0,1.905-.51ZM40.47-7.005V-8.07H38.235V0h2.34V-3.81A1.983,1.983,0,0,1,42.72-6.06c.18,0,.33.015.525.03V-8.19A3.257,3.257,0,0,0,40.47-7.005ZM48.27.12a4.142,4.142,0,0,0,4.425-4.155A4.142,4.142,0,0,0,48.27-8.19a4.154,4.154,0,0,0-4.44,4.155A4.154,4.154,0,0,0,48.27.12Zm0-1.92A2.048,2.048,0,0,1,46.2-4.035,2.048,2.048,0,0,1,48.27-6.27a2.037,2.037,0,0,1,2.055,2.235A2.037,2.037,0,0,1,48.27-1.8ZM54.255,0H56.6V-11.13h-2.34Zm14.64-11.13v3.915A3.1,3.1,0,0,0,66.48-8.19a3.923,3.923,0,0,0-4.035,4.155A3.923,3.923,0,0,0,66.48.12,3.1,3.1,0,0,0,69-.93V0h2.235V-11.13ZM66.885-1.8a2.048,2.048,0,0,1-2.07-2.235,2.048,2.048,0,0,1,2.07-2.235A2.045,2.045,0,0,1,68.94-4.035,2.045,2.045,0,0,1,66.885-1.8ZM81.3-4.005A4,4,0,0,0,77.1-8.19a4.108,4.108,0,0,0-4.3,4.155c0,2.4,1.815,4.155,4.6,4.155a4.227,4.227,0,0,0,3.33-1.305l-1.245-1.35a2.736,2.736,0,0,1-2.025.78,2.152,2.152,0,0,1-2.31-1.62h6.105C81.27-3.57,81.3-3.825,81.3-4.005ZM77.115-6.42a1.918,1.918,0,0,1,1.98,1.68H75.12A1.91,1.91,0,0,1,77.115-6.42ZM91.005.12A3.744,3.744,0,0,0,94.62-1.92l-1.815-.99A1.985,1.985,0,0,1,90.99-1.8a2.065,2.065,0,0,1-2.115-2.235A2.065,2.065,0,0,1,90.99-6.27a2.012,2.012,0,0,1,1.815,1.11l1.815-.975A3.707,3.707,0,0,0,91.005-8.19a4.172,4.172,0,0,0-4.5,4.155A4.172,4.172,0,0,0,91.005.12Zm8.22-8.31a6.2,6.2,0,0,0-3.48.975l.84,1.635a3.88,3.88,0,0,1,2.325-.75c1.26,0,1.86.585,1.86,1.59H98.91c-2.46,0-3.465.99-3.465,2.415C95.445-.93,96.57.12,98.46.12A2.648,2.648,0,0,0,100.92-1V0h2.19V-4.605C103.11-7.05,101.685-8.19,99.225-8.19Zm-.18,6.735c-.825,0-1.32-.39-1.32-.975,0-.54.345-.945,1.44-.945h1.6v.825A1.724,1.724,0,0,1,99.045-1.455ZM105.225,0h2.34V-11.13h-2.34Zm5.685-9.2a1.346,1.346,0,0,0,1.455-1.35,1.314,1.314,0,0,0-1.455-1.26,1.338,1.338,0,0,0-1.455,1.305A1.338,1.338,0,0,0,110.91-9.2ZM109.74,0h2.34V-8.07h-2.34Zm10.395-11.13v3.915a3.1,3.1,0,0,0-2.415-.975,3.923,3.923,0,0,0-4.035,4.155A3.923,3.923,0,0,0,117.72.12a3.1,3.1,0,0,0,2.52-1.05V0h2.235V-11.13Zm-2.01,9.33a2.048,2.048,0,0,1-2.07-2.235,2.048,2.048,0,0,1,2.07-2.235,2.045,2.045,0,0,1,2.055,2.235A2.045,2.045,0,0,1,118.125-1.8Zm9.765-6.39a6.2,6.2,0,0,0-3.48.975l.84,1.635a3.88,3.88,0,0,1,2.325-.75c1.26,0,1.86.585,1.86,1.59h-1.86c-2.46,0-3.465.99-3.465,2.415,0,1.395,1.125,2.445,3.015,2.445A2.649,2.649,0,0,0,129.585-1V0h2.19V-4.605C131.775-7.05,130.35-8.19,127.89-8.19Zm-.18,6.735c-.825,0-1.32-.39-1.32-.975,0-.54.345-.945,1.44-.945h1.6v.825A1.724,1.724,0,0,1,127.71-1.455Zm12.24-9.675v3.915a3.1,3.1,0,0,0-2.415-.975A3.923,3.923,0,0,0,133.5-4.035,3.923,3.923,0,0,0,137.535.12a3.1,3.1,0,0,0,2.52-1.05V0h2.235V-11.13ZM137.94-1.8a2.048,2.048,0,0,1-2.07-2.235,2.048,2.048,0,0,1,2.07-2.235A2.045,2.045,0,0,1,140-4.035,2.045,2.045,0,0,1,137.94-1.8Z" transform="translate(448.058 150.168)" fill="#383838"/>
        <path id="Trazado_232863" data-name="Trazado 232863" d="M10.545,0,8.19-3.375A3.414,3.414,0,0,0,10.35-6.69c0-2.355-1.755-3.81-4.56-3.81H1.245V0h2.43V-2.925H5.91L7.935,0ZM7.89-6.69c0,1.14-.75,1.83-2.235,1.83H3.675V-8.52h1.98C7.14-8.52,7.89-7.845,7.89-6.69ZM20.01-4.005a4,4,0,0,0-4.2-4.185A4.108,4.108,0,0,0,11.5-4.035C11.5-1.635,13.32.12,16.11.12a4.227,4.227,0,0,0,3.33-1.305l-1.245-1.35a2.736,2.736,0,0,1-2.025.78,2.152,2.152,0,0,1-2.31-1.62h6.105C19.98-3.57,20.01-3.825,20.01-4.005ZM15.825-6.42a1.918,1.918,0,0,1,1.98,1.68H13.83A1.91,1.91,0,0,1,15.825-6.42Zm8.55-1.77a6.2,6.2,0,0,0-3.48.975l.84,1.635a3.88,3.88,0,0,1,2.325-.75c1.26,0,1.86.585,1.86,1.59H24.06c-2.46,0-3.465.99-3.465,2.415C20.595-.93,21.72.12,23.61.12A2.648,2.648,0,0,0,26.07-1V0h2.19V-4.605C28.26-7.05,26.835-8.19,24.375-8.19Zm-.18,6.735c-.825,0-1.32-.39-1.32-.975,0-.54.345-.945,1.44-.945h1.6v.825A1.724,1.724,0,0,1,24.195-1.455ZM30.375,0h2.34V-11.13h-2.34ZM36.06-9.2a1.346,1.346,0,0,0,1.455-1.35,1.314,1.314,0,0,0-1.455-1.26A1.338,1.338,0,0,0,34.6-10.5,1.338,1.338,0,0,0,36.06-9.2ZM34.89,0h2.34V-8.07H34.89ZM41.8-1.8l4.11-4.86V-8.07h-6.96v1.8H42.96L38.85-1.41V0h7.2V-1.8Zm9-6.39a6.2,6.2,0,0,0-3.48.975l.84,1.635a3.88,3.88,0,0,1,2.325-.75c1.26,0,1.86.585,1.86,1.59H50.49c-2.46,0-3.465.99-3.465,2.415C47.025-.93,48.15.12,50.04.12A2.648,2.648,0,0,0,52.5-1V0h2.19V-4.605C54.69-7.05,53.265-8.19,50.8-8.19Zm-.18,6.735c-.825,0-1.32-.39-1.32-.975,0-.54.345-.945,1.44-.945h1.6v.825A1.724,1.724,0,0,1,50.625-1.455Zm8.415-5.55V-8.07H56.805V0h2.34V-3.81A1.983,1.983,0,0,1,61.29-6.06c.18,0,.33.015.525.03V-8.19A3.257,3.257,0,0,0,59.04-7.005ZM71.415.12A3.744,3.744,0,0,0,75.03-1.92l-1.815-.99A1.985,1.985,0,0,1,71.4-1.8a2.065,2.065,0,0,1-2.115-2.235A2.065,2.065,0,0,1,71.4-6.27a2.012,2.012,0,0,1,1.815,1.11l1.815-.975A3.707,3.707,0,0,0,71.415-8.19a4.172,4.172,0,0,0-4.5,4.155A4.172,4.172,0,0,0,71.415.12Zm8.61,0A4.142,4.142,0,0,0,84.45-4.035,4.142,4.142,0,0,0,80.025-8.19a4.154,4.154,0,0,0-4.44,4.155A4.154,4.154,0,0,0,80.025.12Zm0-1.92a2.048,2.048,0,0,1-2.07-2.235,2.048,2.048,0,0,1,2.07-2.235A2.037,2.037,0,0,1,82.08-4.035,2.037,2.037,0,0,1,80.025-1.8ZM91.89-11.13v3.915a3.1,3.1,0,0,0-2.415-.975A3.923,3.923,0,0,0,85.44-4.035,3.923,3.923,0,0,0,89.475.12a3.1,3.1,0,0,0,2.52-1.05V0H94.23V-11.13ZM89.88-1.8a2.048,2.048,0,0,1-2.07-2.235A2.048,2.048,0,0,1,89.88-6.27a2.045,2.045,0,0,1,2.055,2.235A2.045,2.045,0,0,1,89.88-1.8Zm7.68-7.4a1.346,1.346,0,0,0,1.455-1.35,1.314,1.314,0,0,0-1.455-1.26A1.338,1.338,0,0,0,96.1-10.5,1.338,1.338,0,0,0,97.56-9.2ZM96.39,0h2.34V-8.07H96.39Zm12.69-9.2a1.346,1.346,0,0,0,1.455-1.35,1.314,1.314,0,0,0-1.455-1.26,1.338,1.338,0,0,0-1.455,1.305A1.338,1.338,0,0,0,109.08-9.2Zm-4.545-.21a1.638,1.638,0,0,1,.945.285l.615-1.695a3.317,3.317,0,0,0-1.785-.435,2.817,2.817,0,0,0-3.12,3v.36H99.945v1.8h1.245V0h2.34V-6.09h2.01v-1.8h-2.07v-.345C103.47-9.03,103.845-9.405,104.535-9.405ZM107.91,0h2.34V-8.07h-2.34Zm8.415.12a3.744,3.744,0,0,0,3.615-2.04l-1.815-.99A1.985,1.985,0,0,1,116.31-1.8a2.065,2.065,0,0,1-2.115-2.235A2.065,2.065,0,0,1,116.31-6.27a2.012,2.012,0,0,1,1.815,1.11l1.815-.975a3.707,3.707,0,0,0-3.615-2.055,4.172,4.172,0,0,0-4.5,4.155A4.172,4.172,0,0,0,116.325.12Zm8.22-8.31a6.2,6.2,0,0,0-3.48.975l.84,1.635a3.88,3.88,0,0,1,2.325-.75c1.26,0,1.86.585,1.86,1.59h-1.86c-2.46,0-3.465.99-3.465,2.415C120.765-.93,121.89.12,123.78.12A2.648,2.648,0,0,0,126.24-1V0h2.19V-4.605C128.43-7.05,127-8.19,124.545-8.19Zm-.18,6.735c-.825,0-1.32-.39-1.32-.975,0-.54.345-.945,1.44-.945h1.6v.825A1.724,1.724,0,0,1,124.365-1.455ZM134.625.12a3.744,3.744,0,0,0,3.615-2.04l-1.815-.99A1.985,1.985,0,0,1,134.61-1.8a2.065,2.065,0,0,1-2.115-2.235A2.065,2.065,0,0,1,134.61-6.27a2.012,2.012,0,0,1,1.815,1.11l1.815-.975a3.707,3.707,0,0,0-3.615-2.055,4.172,4.172,0,0,0-4.5,4.155A4.172,4.172,0,0,0,134.625.12ZM140.76-9.2a1.346,1.346,0,0,0,1.455-1.35,1.314,1.314,0,0,0-1.455-1.26A1.338,1.338,0,0,0,139.3-10.5,1.338,1.338,0,0,0,140.76-9.2ZM139.59,0h2.34V-8.07h-2.34Zm6.96-9.105h1.83l2.715-2.16h-2.52Zm1.4,9.225a4.142,4.142,0,0,0,4.425-4.155,4.142,4.142,0,0,0-4.425-4.155,4.154,4.154,0,0,0-4.44,4.155A4.154,4.154,0,0,0,147.945.12Zm0-1.92a2.048,2.048,0,0,1-2.07-2.235,2.048,2.048,0,0,1,2.07-2.235A2.037,2.037,0,0,1,150-4.035,2.037,2.037,0,0,1,147.945-1.8Zm10.89-6.39a3.533,3.533,0,0,0-2.67,1.065V-8.07H153.93V0h2.34V-3.99c0-1.485.81-2.175,1.935-2.175,1.035,0,1.635.6,1.635,1.9V0h2.34V-4.62C162.18-7.08,160.74-8.19,158.835-8.19Z" transform="translate(806.222 131.764)" fill="#383838"/>
        <path id="Trazado_232864" data-name="Trazado 232864" d="M6.96-11.13v3.915A3.1,3.1,0,0,0,4.545-8.19,3.923,3.923,0,0,0,.51-4.035,3.923,3.923,0,0,0,4.545.12,3.1,3.1,0,0,0,7.065-.93V0H9.3V-11.13ZM4.95-1.8A2.048,2.048,0,0,1,2.88-4.035,2.048,2.048,0,0,1,4.95-6.27,2.045,2.045,0,0,1,7.005-4.035,2.045,2.045,0,0,1,4.95-1.8ZM19.365-4.005a4,4,0,0,0-4.2-4.185,4.108,4.108,0,0,0-4.3,4.155c0,2.4,1.815,4.155,4.6,4.155A4.227,4.227,0,0,0,18.8-1.185L17.55-2.535a2.736,2.736,0,0,1-2.025.78,2.152,2.152,0,0,1-2.31-1.62h6.1C19.335-3.57,19.365-3.825,19.365-4.005ZM15.18-6.42a1.918,1.918,0,0,1,1.98,1.68H13.185A1.91,1.91,0,0,1,15.18-6.42ZM25.17,0h2.34V-11.13H25.17Zm7.77-8.19a6.2,6.2,0,0,0-3.48.975L30.3-5.58a3.88,3.88,0,0,1,2.325-.75c1.26,0,1.86.585,1.86,1.59h-1.86c-2.46,0-3.465.99-3.465,2.415C29.16-.93,30.285.12,32.175.12A2.648,2.648,0,0,0,34.635-1V0h2.19V-4.605C36.825-7.05,35.4-8.19,32.94-8.19Zm-.18,6.735c-.825,0-1.32-.39-1.32-.975,0-.54.345-.945,1.44-.945h1.6v.825A1.724,1.724,0,0,1,32.76-1.455ZM47.085.12A3.744,3.744,0,0,0,50.7-1.92l-1.815-.99A1.985,1.985,0,0,1,47.07-1.8a2.065,2.065,0,0,1-2.115-2.235A2.065,2.065,0,0,1,47.07-6.27a2.012,2.012,0,0,1,1.815,1.11L50.7-6.135A3.707,3.707,0,0,0,47.085-8.19a4.172,4.172,0,0,0-4.5,4.155A4.172,4.172,0,0,0,47.085.12Zm8.22-8.31a6.2,6.2,0,0,0-3.48.975l.84,1.635a3.88,3.88,0,0,1,2.325-.75c1.26,0,1.86.585,1.86,1.59H54.99c-2.46,0-3.465.99-3.465,2.415C51.525-.93,52.65.12,54.54.12A2.648,2.648,0,0,0,57-1V0h2.19V-4.605C59.19-7.05,57.765-8.19,55.305-8.19Zm-.18,6.735c-.825,0-1.32-.39-1.32-.975,0-.54.345-.945,1.44-.945h1.6v.825A1.724,1.724,0,0,1,55.125-1.455ZM67.1-8.07v3.99c0,1.485-.78,2.175-1.86,2.175-1.035,0-1.635-.6-1.635-1.95V-8.07H61.26v4.56c0,2.49,1.425,3.63,3.45,3.63a3.265,3.265,0,0,0,2.5-1.08V0h2.22V-8.07ZM74.325.12c2.415,0,3.81-1.065,3.81-2.565,0-3.18-4.875-1.845-4.875-3.225,0-.42.45-.75,1.5-.75a4.634,4.634,0,0,1,2.325.6l.78-1.665a6.636,6.636,0,0,0-3.1-.705c-2.355,0-3.735,1.08-3.735,2.61,0,3.225,4.875,1.875,4.875,3.195,0,.45-.4.735-1.485.735a5.521,5.521,0,0,1-2.805-.78L70.83-.75A6.928,6.928,0,0,0,74.325.12Zm8.5-8.31a6.2,6.2,0,0,0-3.48.975l.84,1.635a3.88,3.88,0,0,1,2.325-.75c1.26,0,1.86.585,1.86,1.59h-1.86c-2.46,0-3.465.99-3.465,2.415C79.05-.93,80.175.12,82.065.12A2.648,2.648,0,0,0,84.525-1V0h2.19V-4.605C86.715-7.05,85.29-8.19,82.83-8.19Zm-.18,6.735c-.825,0-1.32-.39-1.32-.975,0-.54.345-.945,1.44-.945h1.6v.825A1.724,1.724,0,0,1,82.65-1.455ZM97.845-8.19a3.133,3.133,0,0,0-2.43.975V-11.13h-2.34V0H95.31V-.93A3.135,3.135,0,0,0,97.845.12a3.92,3.92,0,0,0,4.02-4.155A3.92,3.92,0,0,0,97.845-8.19Zm-.4,6.39a2.037,2.037,0,0,1-2.055-2.235A2.037,2.037,0,0,1,97.44-6.27a2.037,2.037,0,0,1,2.055,2.235A2.037,2.037,0,0,1,97.44-1.8Zm12.39-9.465h-2.52l-2.025,2.16h1.83ZM106.41-8.19a6.2,6.2,0,0,0-3.48.975l.84,1.635a3.88,3.88,0,0,1,2.325-.75c1.26,0,1.86.585,1.86,1.59h-1.86c-2.46,0-3.465.99-3.465,2.415,0,1.395,1.125,2.445,3.015,2.445A2.648,2.648,0,0,0,108.1-1V0h2.19V-4.605C110.295-7.05,108.87-8.19,106.41-8.19Zm-.18,6.735c-.825,0-1.32-.39-1.32-.975,0-.54.345-.945,1.44-.945h1.6v.825A1.724,1.724,0,0,1,106.23-1.455ZM115.125.12c2.415,0,3.81-1.065,3.81-2.565,0-3.18-4.875-1.845-4.875-3.225,0-.42.45-.75,1.5-.75a4.634,4.634,0,0,1,2.325.6l.78-1.665a6.636,6.636,0,0,0-3.1-.705c-2.355,0-3.735,1.08-3.735,2.61,0,3.225,4.875,1.875,4.875,3.195,0,.45-.4.735-1.485.735a5.521,5.521,0,0,1-2.805-.78l-.78,1.68A6.928,6.928,0,0,0,115.125.12Zm6.42-9.315A1.346,1.346,0,0,0,123-10.545a1.314,1.314,0,0,0-1.455-1.26A1.338,1.338,0,0,0,120.09-10.5,1.338,1.338,0,0,0,121.545-9.2ZM120.375,0h2.34V-8.07h-2.34Zm8.415.12A3.744,3.744,0,0,0,132.4-1.92l-1.815-.99a1.985,1.985,0,0,1-1.815,1.11,2.065,2.065,0,0,1-2.115-2.235,2.065,2.065,0,0,1,2.115-2.235,2.012,2.012,0,0,1,1.815,1.11l1.815-.975A3.707,3.707,0,0,0,128.79-8.19a4.172,4.172,0,0,0-4.5,4.155A4.172,4.172,0,0,0,128.79.12Zm8.22-8.31a6.2,6.2,0,0,0-3.48.975l.84,1.635a3.88,3.88,0,0,1,2.325-.75c1.26,0,1.86.585,1.86,1.59h-1.86c-2.46,0-3.465.99-3.465,2.415,0,1.395,1.125,2.445,3.015,2.445A2.648,2.648,0,0,0,138.7-1V0h2.19V-4.605C140.895-7.05,139.47-8.19,137.01-8.19Zm-.18,6.735c-.825,0-1.32-.39-1.32-.975,0-.54.345-.945,1.44-.945h1.605v.825A1.724,1.724,0,0,1,136.83-1.455Z" transform="translate(817.158 150.168)" fill="#383838"/>
        <path id="Trazado_232865" data-name="Trazado 232865" d="M6.96-11.13v3.915A3.1,3.1,0,0,0,4.545-8.19,3.923,3.923,0,0,0,.51-4.035,3.923,3.923,0,0,0,4.545.12,3.1,3.1,0,0,0,7.065-.93V0H9.3V-11.13ZM4.95-1.8A2.048,2.048,0,0,1,2.88-4.035,2.048,2.048,0,0,1,4.95-6.27,2.045,2.045,0,0,1,7.005-4.035,2.045,2.045,0,0,1,4.95-1.8ZM19.365-4.005a4,4,0,0,0-4.2-4.185,4.108,4.108,0,0,0-4.3,4.155c0,2.4,1.815,4.155,4.6,4.155A4.227,4.227,0,0,0,18.8-1.185L17.55-2.535a2.736,2.736,0,0,1-2.025.78,2.152,2.152,0,0,1-2.31-1.62h6.1C19.335-3.57,19.365-3.825,19.365-4.005ZM15.18-6.42a1.918,1.918,0,0,1,1.98,1.68H13.185A1.91,1.91,0,0,1,15.18-6.42ZM25.17,0h2.34V-11.13H25.17Zm7.77-8.19a6.2,6.2,0,0,0-3.48.975L30.3-5.58a3.88,3.88,0,0,1,2.325-.75c1.26,0,1.86.585,1.86,1.59h-1.86c-2.46,0-3.465.99-3.465,2.415C29.16-.93,30.285.12,32.175.12A2.648,2.648,0,0,0,34.635-1V0h2.19V-4.605C36.825-7.05,35.4-8.19,32.94-8.19Zm-.18,6.735c-.825,0-1.32-.39-1.32-.975,0-.54.345-.945,1.44-.945h1.6v.825A1.724,1.724,0,0,1,32.76-1.455ZM53.52-8.19a3.629,3.629,0,0,0-2.91,1.32,3.012,3.012,0,0,0-2.655-1.32A3.268,3.268,0,0,0,45.42-7.14v-.93H43.185V0h2.34V-4.05c0-1.44.735-2.115,1.77-2.115.975,0,1.53.6,1.53,1.9V0h2.34V-4.05c0-1.44.735-2.115,1.785-2.115.945,0,1.53.6,1.53,1.9V0h2.34V-4.62C56.82-7.08,55.44-8.19,53.52-8.19Zm11.19.12v3.99c0,1.485-.78,2.175-1.86,2.175-1.035,0-1.635-.6-1.635-1.95V-8.07h-2.34v4.56c0,2.49,1.425,3.63,3.45,3.63A3.265,3.265,0,0,0,64.83-.96V0h2.22V-8.07ZM77.13-4.005a4,4,0,0,0-4.2-4.185,4.108,4.108,0,0,0-4.3,4.155c0,2.4,1.815,4.155,4.6,4.155a4.227,4.227,0,0,0,3.33-1.305l-1.245-1.35a2.736,2.736,0,0,1-2.025.78,2.152,2.152,0,0,1-2.31-1.62h6.105C77.1-3.57,77.13-3.825,77.13-4.005ZM72.945-6.42a1.918,1.918,0,0,1,1.98,1.68H70.95A1.91,1.91,0,0,1,72.945-6.42Zm7.98-.585V-8.07H78.69V0h2.34V-3.81a1.983,1.983,0,0,1,2.145-2.25c.18,0,.33.015.525.03V-8.19A3.257,3.257,0,0,0,80.925-7.005ZM90.18-2.04a1.577,1.577,0,0,1-.945.3.941.941,0,0,1-1-1.065V-6.09h2.01v-1.8H88.23V-9.855H85.89V-7.89H84.645v1.8H85.89v3.315C85.89-.855,87,.12,88.9.12A3.344,3.344,0,0,0,90.81-.39Zm9.345-1.965a4,4,0,0,0-4.2-4.185,4.108,4.108,0,0,0-4.3,4.155c0,2.4,1.815,4.155,4.6,4.155a4.227,4.227,0,0,0,3.33-1.305L97.71-2.535a2.736,2.736,0,0,1-2.025.78,2.152,2.152,0,0,1-2.31-1.62H99.48C99.5-3.57,99.525-3.825,99.525-4.005ZM95.34-6.42a1.918,1.918,0,0,1,1.98,1.68H93.345A1.91,1.91,0,0,1,95.34-6.42Z" transform="translate(838.646 168.573)" fill="#383838"/>
        <path id="Trazado_232859" data-name="Trazado 232859" d="M10.545,0,8.19-3.375A3.414,3.414,0,0,0,10.35-6.69c0-2.355-1.755-3.81-4.56-3.81H1.245V0h2.43V-2.925H5.91L7.935,0ZM7.89-6.69c0,1.14-.75,1.83-2.235,1.83H3.675V-8.52h1.98C7.14-8.52,7.89-7.845,7.89-6.69ZM20.01-4.005a4,4,0,0,0-4.2-4.185A4.108,4.108,0,0,0,11.5-4.035C11.5-1.635,13.32.12,16.11.12a4.227,4.227,0,0,0,3.33-1.305l-1.245-1.35a2.736,2.736,0,0,1-2.025.78,2.152,2.152,0,0,1-2.31-1.62h6.105C19.98-3.57,20.01-3.825,20.01-4.005ZM15.825-6.42a1.918,1.918,0,0,1,1.98,1.68H13.83A1.91,1.91,0,0,1,15.825-6.42ZM25.47.12a3.744,3.744,0,0,0,3.615-2.04L27.27-2.91A1.985,1.985,0,0,1,25.455-1.8,2.065,2.065,0,0,1,23.34-4.035,2.065,2.065,0,0,1,25.455-6.27,2.012,2.012,0,0,1,27.27-5.16l1.815-.975A3.707,3.707,0,0,0,25.47-8.19a4.172,4.172,0,0,0-4.5,4.155A4.172,4.172,0,0,0,25.47.12Zm8.61,0a4.142,4.142,0,0,0,4.425-4.155A4.142,4.142,0,0,0,34.08-8.19a4.154,4.154,0,0,0-4.44,4.155A4.154,4.154,0,0,0,34.08.12Zm0-1.92a2.048,2.048,0,0,1-2.07-2.235A2.048,2.048,0,0,1,34.08-6.27a2.037,2.037,0,0,1,2.055,2.235A2.037,2.037,0,0,1,34.08-1.8ZM40.065,0h2.34V-11.13h-2.34Zm12.42-4.005a4,4,0,0,0-4.2-4.185A4.108,4.108,0,0,0,43.98-4.035c0,2.4,1.815,4.155,4.6,4.155a4.227,4.227,0,0,0,3.33-1.305L50.67-2.535a2.736,2.736,0,0,1-2.025.78,2.152,2.152,0,0,1-2.31-1.62H52.44C52.455-3.57,52.485-3.825,52.485-4.005ZM48.3-6.42a1.918,1.918,0,0,1,1.98,1.68H46.305A1.91,1.91,0,0,1,48.3-6.42ZM57.945.12A3.744,3.744,0,0,0,61.56-1.92l-1.815-.99A1.985,1.985,0,0,1,57.93-1.8a2.065,2.065,0,0,1-2.115-2.235A2.065,2.065,0,0,1,57.93-6.27a2.012,2.012,0,0,1,1.815,1.11l1.815-.975A3.707,3.707,0,0,0,57.945-8.19a4.172,4.172,0,0,0-4.5,4.155A4.172,4.172,0,0,0,57.945.12Zm9.78-2.16a1.577,1.577,0,0,1-.945.3.941.941,0,0,1-1-1.065V-6.09h2.01v-1.8h-2.01V-9.855h-2.34V-7.89H62.19v1.8h1.245v3.315c0,1.92,1.11,2.9,3.015,2.9a3.344,3.344,0,0,0,1.905-.51ZM72.93-8.19a6.2,6.2,0,0,0-3.48.975l.84,1.635a3.88,3.88,0,0,1,2.325-.75c1.26,0,1.86.585,1.86,1.59h-1.86c-2.46,0-3.465.99-3.465,2.415C69.15-.93,70.275.12,72.165.12A2.648,2.648,0,0,0,74.625-1V0h2.19V-4.605C76.815-7.05,75.39-8.19,72.93-8.19Zm-.18,6.735c-.825,0-1.32-.39-1.32-.975,0-.54.345-.945,1.44-.945h1.6v.825A1.724,1.724,0,0,1,72.75-1.455Zm8.415-5.55V-8.07H78.93V0h2.34V-3.81a1.983,1.983,0,0,1,2.145-2.25c.18,0,.33.015.525.03V-8.19A3.257,3.257,0,0,0,81.165-7.005ZM89.64,0h2.34V-11.13H89.64Zm7.77-8.19a6.2,6.2,0,0,0-3.48.975l.84,1.635a3.88,3.88,0,0,1,2.325-.75c1.26,0,1.86.585,1.86,1.59h-1.86c-2.46,0-3.465.99-3.465,2.415C93.63-.93,94.755.12,96.645.12A2.648,2.648,0,0,0,99.1-1V0h2.19V-4.605C101.295-7.05,99.87-8.19,97.41-8.19Zm-.18,6.735c-.825,0-1.32-.39-1.32-.975,0-.54.345-.945,1.44-.945h1.6v.825A1.724,1.724,0,0,1,97.23-1.455Z" transform="translate(98.785 131.764)" fill="#383838"/>
        <path id="Trazado_232860" data-name="Trazado 232860" d="M2.25-9.2a1.346,1.346,0,0,0,1.455-1.35,1.314,1.314,0,0,0-1.455-1.26A1.338,1.338,0,0,0,.8-10.5,1.338,1.338,0,0,0,2.25-9.2ZM1.08,0H3.42V-8.07H1.08ZM10.5-8.19A3.533,3.533,0,0,0,7.83-7.125V-8.07H5.595V0h2.34V-3.99c0-1.485.81-2.175,1.935-2.175,1.035,0,1.635.6,1.635,1.9V0h2.34V-4.62C13.845-7.08,12.405-8.19,10.5-8.19Zm8.025-.045c0-.8.375-1.17,1.065-1.17a1.638,1.638,0,0,1,.945.285l.615-1.695a3.317,3.317,0,0,0-1.785-.435,2.817,2.817,0,0,0-3.12,3v.36H15v1.8h1.245V0h2.34V-6.09h2.01v-1.8h-2.07ZM25.41.12a4.142,4.142,0,0,0,4.425-4.155A4.142,4.142,0,0,0,25.41-8.19a4.154,4.154,0,0,0-4.44,4.155A4.154,4.154,0,0,0,25.41.12Zm0-1.92a2.048,2.048,0,0,1-2.07-2.235A2.048,2.048,0,0,1,25.41-6.27a2.037,2.037,0,0,1,2.055,2.235A2.037,2.037,0,0,1,25.41-1.8Zm8.22-5.205V-8.07H31.395V0h2.34V-3.81A1.983,1.983,0,0,1,35.88-6.06c.18,0,.33.015.525.03V-8.19A3.257,3.257,0,0,0,33.63-7.005ZM48.075-8.19a3.629,3.629,0,0,0-2.91,1.32A3.012,3.012,0,0,0,42.51-8.19a3.268,3.268,0,0,0-2.535,1.05v-.93H37.74V0h2.34V-4.05c0-1.44.735-2.115,1.77-2.115.975,0,1.53.6,1.53,1.9V0h2.34V-4.05c0-1.44.735-2.115,1.785-2.115.945,0,1.53.6,1.53,1.9V0h2.34V-4.62C51.375-7.08,50-8.19,48.075-8.19Zm8.655,0a6.2,6.2,0,0,0-3.48.975l.84,1.635a3.88,3.88,0,0,1,2.325-.75c1.26,0,1.86.585,1.86,1.59h-1.86c-2.46,0-3.465.99-3.465,2.415C52.95-.93,54.075.12,55.965.12A2.648,2.648,0,0,0,58.425-1V0h2.19V-4.605C60.615-7.05,59.19-8.19,56.73-8.19Zm-.18,6.735c-.825,0-1.32-.39-1.32-.975,0-.54.345-.945,1.44-.945h1.6v.825A1.724,1.724,0,0,1,56.55-1.455ZM66.81.12a3.744,3.744,0,0,0,3.615-2.04L68.61-2.91A1.985,1.985,0,0,1,66.8-1.8,2.065,2.065,0,0,1,64.68-4.035,2.065,2.065,0,0,1,66.8-6.27,2.012,2.012,0,0,1,68.61-5.16l1.815-.975A3.707,3.707,0,0,0,66.81-8.19a4.172,4.172,0,0,0-4.5,4.155A4.172,4.172,0,0,0,66.81.12ZM72.945-9.2a1.346,1.346,0,0,0,1.455-1.35,1.314,1.314,0,0,0-1.455-1.26A1.338,1.338,0,0,0,71.49-10.5,1.338,1.338,0,0,0,72.945-9.2ZM71.775,0h2.34V-8.07h-2.34Zm6.96-9.105h1.83l2.715-2.16H80.76ZM80.13.12a4.142,4.142,0,0,0,4.425-4.155A4.142,4.142,0,0,0,80.13-8.19a4.154,4.154,0,0,0-4.44,4.155A4.154,4.154,0,0,0,80.13.12Zm0-1.92a2.048,2.048,0,0,1-2.07-2.235A2.048,2.048,0,0,1,80.13-6.27a2.037,2.037,0,0,1,2.055,2.235A2.037,2.037,0,0,1,80.13-1.8ZM91.02-8.19a3.533,3.533,0,0,0-2.67,1.065V-8.07H86.115V0h2.34V-3.99c0-1.485.81-2.175,1.935-2.175,1.035,0,1.635.6,1.635,1.9V0h2.34V-4.62C94.365-7.08,92.925-8.19,91.02-8.19Zm17.61,4.185a4,4,0,0,0-4.2-4.185,4.108,4.108,0,0,0-4.305,4.155c0,2.4,1.815,4.155,4.6,4.155a4.227,4.227,0,0,0,3.33-1.305l-1.245-1.35a2.736,2.736,0,0,1-2.025.78,2.152,2.152,0,0,1-2.31-1.62h6.105C108.6-3.57,108.63-3.825,108.63-4.005ZM104.445-6.42a1.918,1.918,0,0,1,1.98,1.68H102.45A1.91,1.91,0,0,1,104.445-6.42ZM117.525,0l-3.12-4.125,3-3.945h-2.49L113.16-5.715,111.45-8.07h-2.625l3,4.005L108.72,0h2.55l1.83-2.475L114.87,0Zm2.31-9.2a1.346,1.346,0,0,0,1.455-1.35,1.314,1.314,0,0,0-1.455-1.26A1.338,1.338,0,0,0,118.38-10.5,1.338,1.338,0,0,0,119.835-9.2ZM118.665,0h2.34V-8.07h-2.34Zm7.23.12c2.415,0,3.81-1.065,3.81-2.565,0-3.18-4.875-1.845-4.875-3.225,0-.42.45-.75,1.5-.75a4.634,4.634,0,0,1,2.325.6l.78-1.665a6.636,6.636,0,0,0-3.105-.705c-2.355,0-3.735,1.08-3.735,2.61,0,3.225,4.875,1.875,4.875,3.195,0,.45-.4.735-1.485.735a5.521,5.521,0,0,1-2.805-.78L122.4-.75A6.928,6.928,0,0,0,125.9.12Zm9.825-2.16a1.577,1.577,0,0,1-.945.3.941.941,0,0,1-1.005-1.065V-6.09h2.01v-1.8h-2.01V-9.855h-2.34V-7.89h-1.245v1.8h1.245v3.315c0,1.92,1.11,2.9,3.015,2.9a3.344,3.344,0,0,0,1.9-.51Zm9.345-1.965a4,4,0,0,0-4.2-4.185,4.108,4.108,0,0,0-4.305,4.155c0,2.4,1.815,4.155,4.605,4.155a4.227,4.227,0,0,0,3.33-1.305l-1.245-1.35a2.736,2.736,0,0,1-2.025.78,2.152,2.152,0,0,1-2.31-1.62h6.1C145.035-3.57,145.065-3.825,145.065-4.005ZM140.88-6.42a1.918,1.918,0,0,1,1.98,1.68h-3.975A1.911,1.911,0,0,1,140.88-6.42Zm10.65-1.77a3.533,3.533,0,0,0-2.67,1.065V-8.07h-2.235V0h2.34V-3.99c0-1.485.81-2.175,1.935-2.175,1.035,0,1.635.6,1.635,1.9V0h2.34V-4.62C154.875-7.08,153.435-8.19,151.53-8.19Zm10.035,6.15a1.577,1.577,0,0,1-.945.3.941.941,0,0,1-1.005-1.065V-6.09h2.01v-1.8h-2.01V-9.855h-2.34V-7.89H156.03v1.8h1.245v3.315c0,1.92,1.11,2.9,3.015,2.9a3.344,3.344,0,0,0,1.9-.51Zm9.36-1.965a4,4,0,0,0-4.2-4.185,4.108,4.108,0,0,0-4.305,4.155c0,2.4,1.815,4.155,4.605,4.155a4.227,4.227,0,0,0,3.33-1.305l-1.245-1.35a2.736,2.736,0,0,1-2.025.78,2.152,2.152,0,0,1-2.31-1.62h6.1C170.9-3.57,170.925-3.825,170.925-4.005ZM166.74-6.42a1.918,1.918,0,0,1,1.98,1.68h-3.975A1.911,1.911,0,0,1,166.74-6.42Z" transform="translate(65.227 150.168)" fill="#383838"/>
        <path id="Trazado_232866" data-name="Trazado 232866" d="M8.925-10.5,5.685-3,2.49-10.5H-.135L4.395,0H6.8L11.34-10.5Zm9.615,6.5a4,4,0,0,0-4.2-4.185,4.108,4.108,0,0,0-4.3,4.155c0,2.4,1.815,4.155,4.6,4.155a4.227,4.227,0,0,0,3.33-1.305l-1.245-1.35a2.736,2.736,0,0,1-2.025.78,2.152,2.152,0,0,1-2.31-1.62h6.1C18.51-3.57,18.54-3.825,18.54-4.005ZM14.355-6.42a1.918,1.918,0,0,1,1.98,1.68H12.36A1.91,1.91,0,0,1,14.355-6.42Zm7.98-.585V-8.07H20.1V0h2.34V-3.81a1.983,1.983,0,0,1,2.145-2.25c.18,0,.33.015.525.03V-8.19A3.257,3.257,0,0,0,22.335-7.005Zm5.3-2.19a1.346,1.346,0,0,0,1.455-1.35,1.314,1.314,0,0,0-1.455-1.26A1.338,1.338,0,0,0,26.175-10.5,1.338,1.338,0,0,0,27.63-9.2ZM26.46,0H28.8V-8.07H26.46ZM39.15-9.2a1.346,1.346,0,0,0,1.455-1.35,1.314,1.314,0,0,0-1.455-1.26A1.338,1.338,0,0,0,37.695-10.5,1.338,1.338,0,0,0,39.15-9.2ZM34.6-9.405a1.638,1.638,0,0,1,.945.285l.615-1.695a3.317,3.317,0,0,0-1.785-.435,2.817,2.817,0,0,0-3.12,3v.36H30.015v1.8H31.26V0H33.6V-6.09h2.01v-1.8H33.54v-.345C33.54-9.03,33.915-9.405,34.6-9.405ZM37.98,0h2.34V-8.07H37.98ZM46.4.12A3.744,3.744,0,0,0,50.01-1.92l-1.815-.99A1.985,1.985,0,0,1,46.38-1.8a2.065,2.065,0,0,1-2.115-2.235A2.065,2.065,0,0,1,46.38-6.27a2.012,2.012,0,0,1,1.815,1.11l1.815-.975A3.707,3.707,0,0,0,46.4-8.19a4.172,4.172,0,0,0-4.5,4.155A4.172,4.172,0,0,0,46.4.12Zm8.22-8.31a6.2,6.2,0,0,0-3.48.975l.84,1.635A3.88,3.88,0,0,1,54.3-6.33c1.26,0,1.86.585,1.86,1.59H54.3c-2.46,0-3.465.99-3.465,2.415C50.835-.93,51.96.12,53.85.12A2.648,2.648,0,0,0,56.31-1V0H58.5V-4.605C58.5-7.05,57.075-8.19,54.615-8.19Zm-.18,6.735c-.825,0-1.32-.39-1.32-.975,0-.54.345-.945,1.44-.945h1.6v.825A1.724,1.724,0,0,1,54.435-1.455Zm8.415-5.55V-8.07H60.615V0h2.34V-3.81A1.983,1.983,0,0,1,65.1-6.06c.18,0,.33.015.525.03V-8.19A3.257,3.257,0,0,0,62.85-7.005ZM77.28-8.07v.93a3.1,3.1,0,0,0-2.52-1.05,3.923,3.923,0,0,0-4.035,4.155A3.923,3.923,0,0,0,74.76.12a3.1,3.1,0,0,0,2.415-.975V2.91h2.34V-8.07ZM75.165-1.8A2.048,2.048,0,0,1,73.1-4.035a2.048,2.048,0,0,1,2.07-2.235A2.045,2.045,0,0,1,77.22-4.035,2.045,2.045,0,0,1,75.165-1.8Zm12.3-6.27v3.99c0,1.485-.78,2.175-1.86,2.175-1.035,0-1.635-.6-1.635-1.95V-8.07H81.63v4.56c0,2.49,1.425,3.63,3.45,3.63a3.265,3.265,0,0,0,2.5-1.08V0h2.22V-8.07Zm12.42,4.065a4,4,0,0,0-4.2-4.185,4.108,4.108,0,0,0-4.3,4.155c0,2.4,1.815,4.155,4.6,4.155a4.227,4.227,0,0,0,3.33-1.305L98.07-2.535a2.736,2.736,0,0,1-2.025.78,2.152,2.152,0,0,1-2.31-1.62H99.84C99.855-3.57,99.885-3.825,99.885-4.005ZM95.7-6.42a1.918,1.918,0,0,1,1.98,1.68H93.705A1.91,1.91,0,0,1,95.7-6.42ZM105.69,0h2.34V-11.13h-2.34Zm8.355.12a4.142,4.142,0,0,0,4.425-4.155,4.142,4.142,0,0,0-4.425-4.155,4.154,4.154,0,0,0-4.44,4.155A4.154,4.154,0,0,0,114.045.12Zm0-1.92a2.048,2.048,0,0,1-2.07-2.235,2.048,2.048,0,0,1,2.07-2.235A2.037,2.037,0,0,1,116.1-4.035,2.037,2.037,0,0,1,114.045-1.8Zm8.7,1.92c2.415,0,3.81-1.065,3.81-2.565,0-3.18-4.875-1.845-4.875-3.225,0-.42.45-.75,1.5-.75a4.634,4.634,0,0,1,2.325.6l.78-1.665a6.636,6.636,0,0,0-3.1-.705c-2.355,0-3.735,1.08-3.735,2.61,0,3.225,4.875,1.875,4.875,3.195,0,.45-.4.735-1.485.735a5.521,5.521,0,0,1-2.805-.78l-.78,1.68A6.928,6.928,0,0,0,122.745.12ZM138.12-11.13v3.915a3.1,3.1,0,0,0-2.415-.975,3.923,3.923,0,0,0-4.035,4.155A3.923,3.923,0,0,0,135.705.12a3.1,3.1,0,0,0,2.52-1.05V0h2.235V-11.13ZM136.11-1.8a2.048,2.048,0,0,1-2.07-2.235,2.048,2.048,0,0,1,2.07-2.235,2.045,2.045,0,0,1,2.055,2.235A2.045,2.045,0,0,1,136.11-1.8Zm9.765-6.39a6.2,6.2,0,0,0-3.48.975l.84,1.635a3.88,3.88,0,0,1,2.325-.75c1.26,0,1.86.585,1.86,1.59h-1.86c-2.46,0-3.465.99-3.465,2.415C142.1-.93,143.22.12,145.11.12A2.648,2.648,0,0,0,147.57-1V0h2.19V-4.605C149.76-7.05,148.335-8.19,145.875-8.19Zm-.18,6.735c-.825,0-1.32-.39-1.32-.975,0-.54.345-.945,1.44-.945h1.605v.825A1.724,1.724,0,0,1,145.7-1.455ZM156.45-2.04a1.577,1.577,0,0,1-.945.3A.941.941,0,0,1,154.5-2.805V-6.09h2.01v-1.8H154.5V-9.855h-2.34V-7.89h-1.245v1.8h1.245v3.315c0,1.92,1.11,2.9,3.015,2.9a3.344,3.344,0,0,0,1.9-.51ZM161.745.12a4.142,4.142,0,0,0,4.425-4.155,4.142,4.142,0,0,0-4.425-4.155,4.154,4.154,0,0,0-4.44,4.155A4.154,4.154,0,0,0,161.745.12Zm0-1.92a2.048,2.048,0,0,1-2.07-2.235,2.048,2.048,0,0,1,2.07-2.235A2.037,2.037,0,0,1,163.8-4.035,2.037,2.037,0,0,1,161.745-1.8Zm8.7,1.92c2.415,0,3.81-1.065,3.81-2.565,0-3.18-4.875-1.845-4.875-3.225,0-.42.45-.75,1.5-.75a4.634,4.634,0,0,1,2.325.6l.78-1.665a6.636,6.636,0,0,0-3.105-.705c-2.355,0-3.735,1.08-3.735,2.61,0,3.225,4.875,1.875,4.875,3.195,0,.45-.4.735-1.485.735a5.521,5.521,0,0,1-2.8-.78l-.78,1.68A6.928,6.928,0,0,0,170.445.12Z" transform="translate(615.82 358.263)" fill="#383838"/>
        <path id="Trazado_232867" data-name="Trazado 232867" d="M5.985-8.19a3.533,3.533,0,0,0-2.67,1.065V-8.07H1.08V0H3.42V-3.99c0-1.485.81-2.175,1.935-2.175,1.035,0,1.635.6,1.635,1.9V0H9.33V-4.62C9.33-7.08,7.89-8.19,5.985-8.19ZM15.465.12A4.142,4.142,0,0,0,19.89-4.035,4.142,4.142,0,0,0,15.465-8.19a4.154,4.154,0,0,0-4.44,4.155A4.154,4.154,0,0,0,15.465.12Zm0-1.92A2.048,2.048,0,0,1,13.4-4.035a2.048,2.048,0,0,1,2.07-2.235A2.037,2.037,0,0,1,17.52-4.035,2.037,2.037,0,0,1,15.465-1.8ZM33.6-4.005A4,4,0,0,0,29.4-8.19a4.108,4.108,0,0,0-4.305,4.155c0,2.4,1.815,4.155,4.6,4.155a4.227,4.227,0,0,0,3.33-1.305l-1.245-1.35a2.736,2.736,0,0,1-2.025.78,2.152,2.152,0,0,1-2.31-1.62h6.105C33.57-3.57,33.6-3.825,33.6-4.005ZM29.415-6.42a1.918,1.918,0,0,1,1.98,1.68H27.42A1.91,1.91,0,0,1,29.415-6.42ZM37.875.12c2.415,0,3.81-1.065,3.81-2.565,0-3.18-4.875-1.845-4.875-3.225,0-.42.45-.75,1.5-.75a4.634,4.634,0,0,1,2.325.6l.78-1.665a6.636,6.636,0,0,0-3.1-.705c-2.355,0-3.735,1.08-3.735,2.61,0,3.225,4.875,1.875,4.875,3.195,0,.45-.4.735-1.485.735a5.521,5.521,0,0,1-2.8-.78L34.38-.75A6.928,6.928,0,0,0,37.875.12ZM47.7-2.04a1.577,1.577,0,0,1-.945.3.941.941,0,0,1-1-1.065V-6.09h2.01v-1.8H45.75V-9.855H43.41V-7.89H42.165v1.8H43.41v3.315c0,1.92,1.11,2.9,3.015,2.9a3.344,3.344,0,0,0,1.9-.51Zm8.28-9.225H53.46l-2.025,2.16h1.83Zm1.065,7.26a4,4,0,0,0-4.2-4.185A4.108,4.108,0,0,0,48.54-4.035c0,2.4,1.815,4.155,4.6,4.155a4.227,4.227,0,0,0,3.33-1.305L55.23-2.535a2.736,2.736,0,0,1-2.025.78,2.152,2.152,0,0,1-2.31-1.62H57C57.015-3.57,57.045-3.825,57.045-4.005ZM52.86-6.42a1.918,1.918,0,0,1,1.98,1.68H50.865A1.91,1.91,0,0,1,52.86-6.42ZM63.51-8.19a3.533,3.533,0,0,0-2.67,1.065V-8.07H58.6V0h2.34V-3.99c0-1.485.81-2.175,1.935-2.175,1.035,0,1.635.6,1.635,1.9V0h2.34V-4.62C66.855-7.08,65.415-8.19,63.51-8.19ZM74.385-9.2a1.346,1.346,0,0,0,1.455-1.35,1.314,1.314,0,0,0-1.455-1.26A1.338,1.338,0,0,0,72.93-10.5,1.338,1.338,0,0,0,74.385-9.2ZM73.215,0h2.34V-8.07h-2.34Zm9.42-8.19a3.533,3.533,0,0,0-2.67,1.065V-8.07H77.73V0h2.34V-3.99c0-1.485.81-2.175,1.935-2.175,1.035,0,1.635.6,1.635,1.9V0h2.34V-4.62C85.98-7.08,84.54-8.19,82.635-8.19ZM92.16.12a3.744,3.744,0,0,0,3.615-2.04L93.96-2.91A1.985,1.985,0,0,1,92.145-1.8,2.065,2.065,0,0,1,90.03-4.035,2.065,2.065,0,0,1,92.145-6.27,2.012,2.012,0,0,1,93.96-5.16l1.815-.975A3.707,3.707,0,0,0,92.16-8.19a4.172,4.172,0,0,0-4.5,4.155A4.172,4.172,0,0,0,92.16.12ZM97.02,0h2.34V-11.13H97.02Zm10.305-8.07v3.99c0,1.485-.78,2.175-1.86,2.175-1.035,0-1.635-.6-1.635-1.95V-8.07h-2.34v4.56c0,2.49,1.425,3.63,3.45,3.63a3.265,3.265,0,0,0,2.5-1.08V0h2.22V-8.07ZM113.01-9.2a1.346,1.346,0,0,0,1.455-1.35,1.314,1.314,0,0,0-1.455-1.26,1.338,1.338,0,0,0-1.455,1.305A1.338,1.338,0,0,0,113.01-9.2ZM111.84,0h2.34V-8.07h-2.34Zm10.395-11.13v3.915a3.1,3.1,0,0,0-2.415-.975,3.923,3.923,0,0,0-4.035,4.155A3.923,3.923,0,0,0,119.82.12a3.1,3.1,0,0,0,2.52-1.05V0h2.235V-11.13Zm-2.01,9.33a2.048,2.048,0,0,1-2.07-2.235,2.048,2.048,0,0,1,2.07-2.235,2.045,2.045,0,0,1,2.055,2.235A2.045,2.045,0,0,1,120.225-1.8ZM130.575.12A4.142,4.142,0,0,0,135-4.035a4.142,4.142,0,0,0-4.425-4.155,4.154,4.154,0,0,0-4.44,4.155A4.154,4.154,0,0,0,130.575.12Zm0-1.92a2.048,2.048,0,0,1-2.07-2.235,2.048,2.048,0,0,1,2.07-2.235,2.037,2.037,0,0,1,2.055,2.235A2.037,2.037,0,0,1,130.575-1.8Zm8.7,1.92c2.415,0,3.81-1.065,3.81-2.565,0-3.18-4.875-1.845-4.875-3.225,0-.42.45-.75,1.5-.75a4.634,4.634,0,0,1,2.325.6l.78-1.665a6.636,6.636,0,0,0-3.105-.705c-2.355,0-3.735,1.08-3.735,2.61,0,3.225,4.875,1.875,4.875,3.195,0,.45-.4.735-1.485.735a5.521,5.521,0,0,1-2.8-.78l-.78,1.68A6.928,6.928,0,0,0,139.275.12Z" transform="translate(632.246 376.668)" fill="#383838"/>
        <path id="Trazado_232868" data-name="Trazado 232868" d="M8.985-4.005a4,4,0,0,0-4.2-4.185A4.108,4.108,0,0,0,.48-4.035C.48-1.635,2.3.12,5.085.12a4.227,4.227,0,0,0,3.33-1.305L7.17-2.535a2.736,2.736,0,0,1-2.025.78,2.152,2.152,0,0,1-2.31-1.62H8.94C8.955-3.57,8.985-3.825,8.985-4.005ZM4.8-6.42A1.918,1.918,0,0,1,6.78-4.74H2.805A1.91,1.91,0,0,1,4.8-6.42ZM15.45-8.19a3.533,3.533,0,0,0-2.67,1.065V-8.07H10.545V0h2.34V-3.99c0-1.485.81-2.175,1.935-2.175,1.035,0,1.635.6,1.635,1.9V0H18.8V-4.62C18.8-7.08,17.355-8.19,15.45-8.19Zm14.475,0a3.133,3.133,0,0,0-2.43.975V-11.13h-2.34V0H27.39V-.93A3.135,3.135,0,0,0,29.925.12a3.92,3.92,0,0,0,4.02-4.155A3.92,3.92,0,0,0,29.925-8.19ZM29.52-1.8a2.037,2.037,0,0,1-2.055-2.235A2.037,2.037,0,0,1,29.52-6.27a2.037,2.037,0,0,1,2.055,2.235A2.037,2.037,0,0,1,29.52-1.8Zm8.985-6.39a6.2,6.2,0,0,0-3.48.975l.84,1.635a3.88,3.88,0,0,1,2.325-.75c1.26,0,1.86.585,1.86,1.59H38.19c-2.46,0-3.465.99-3.465,2.415C34.725-.93,35.85.12,37.74.12A2.648,2.648,0,0,0,40.2-1V0h2.19V-4.605C42.39-7.05,40.965-8.19,38.505-8.19Zm-.18,6.735c-.825,0-1.32-.39-1.32-.975,0-.54.345-.945,1.44-.945h1.6v.825A1.724,1.724,0,0,1,38.325-1.455ZM47.22.12c2.415,0,3.81-1.065,3.81-2.565,0-3.18-4.875-1.845-4.875-3.225,0-.42.45-.75,1.5-.75a4.634,4.634,0,0,1,2.325.6l.78-1.665a6.636,6.636,0,0,0-3.1-.705c-2.355,0-3.735,1.08-3.735,2.61,0,3.225,4.875,1.875,4.875,3.195,0,.45-.4.735-1.485.735a5.521,5.521,0,0,1-2.8-.78l-.78,1.68A6.928,6.928,0,0,0,47.22.12ZM60.375-4.005a4,4,0,0,0-4.2-4.185A4.108,4.108,0,0,0,51.87-4.035c0,2.4,1.815,4.155,4.6,4.155a4.227,4.227,0,0,0,3.33-1.305L58.56-2.535a2.736,2.736,0,0,1-2.025.78,2.152,2.152,0,0,1-2.31-1.62h6.1C60.345-3.57,60.375-3.825,60.375-4.005ZM56.19-6.42a1.918,1.918,0,0,1,1.98,1.68H54.2A1.91,1.91,0,0,1,56.19-6.42ZM64.65.12c2.415,0,3.81-1.065,3.81-2.565,0-3.18-4.875-1.845-4.875-3.225,0-.42.45-.75,1.5-.75a4.634,4.634,0,0,1,2.325.6l.78-1.665a6.636,6.636,0,0,0-3.1-.705c-2.355,0-3.735,1.08-3.735,2.61,0,3.225,4.875,1.875,4.875,3.195,0,.45-.4.735-1.485.735a5.521,5.521,0,0,1-2.805-.78l-.78,1.68A6.928,6.928,0,0,0,64.65.12ZM80.025-11.13v3.915A3.1,3.1,0,0,0,77.61-8.19a3.923,3.923,0,0,0-4.035,4.155A3.923,3.923,0,0,0,77.61.12,3.1,3.1,0,0,0,80.13-.93V0h2.235V-11.13ZM78.015-1.8a2.048,2.048,0,0,1-2.07-2.235,2.048,2.048,0,0,1,2.07-2.235A2.045,2.045,0,0,1,80.07-4.035,2.045,2.045,0,0,1,78.015-1.8ZM92.43-4.005a4,4,0,0,0-4.2-4.185,4.108,4.108,0,0,0-4.3,4.155c0,2.4,1.815,4.155,4.6,4.155a4.227,4.227,0,0,0,3.33-1.305l-1.245-1.35a2.736,2.736,0,0,1-2.025.78,2.152,2.152,0,0,1-2.31-1.62h6.105C92.4-3.57,92.43-3.825,92.43-4.005ZM88.245-6.42a1.918,1.918,0,0,1,1.98,1.68H86.25A1.91,1.91,0,0,1,88.245-6.42Zm15.87-4.71v3.915A3.1,3.1,0,0,0,101.7-8.19a3.923,3.923,0,0,0-4.035,4.155A3.923,3.923,0,0,0,101.7.12a3.1,3.1,0,0,0,2.52-1.05V0h2.235V-11.13Zm-2.01,9.33a2.048,2.048,0,0,1-2.07-2.235,2.048,2.048,0,0,1,2.07-2.235,2.045,2.045,0,0,1,2.055,2.235A2.045,2.045,0,0,1,102.105-1.8Zm9.765-6.39a6.2,6.2,0,0,0-3.48.975l.84,1.635a3.88,3.88,0,0,1,2.325-.75c1.26,0,1.86.585,1.86,1.59h-1.86c-2.46,0-3.465.99-3.465,2.415,0,1.395,1.125,2.445,3.015,2.445A2.648,2.648,0,0,0,113.565-1V0h2.19V-4.605C115.755-7.05,114.33-8.19,111.87-8.19Zm-.18,6.735c-.825,0-1.32-.39-1.32-.975,0-.54.345-.945,1.44-.945h1.6v.825A1.724,1.724,0,0,1,111.69-1.455Zm10.755-.585a1.577,1.577,0,0,1-.945.3.941.941,0,0,1-1-1.065V-6.09h2.01v-1.8h-2.01V-9.855h-2.34V-7.89H116.91v1.8h1.245v3.315c0,1.92,1.11,2.9,3.015,2.9a3.344,3.344,0,0,0,1.905-.51Zm5.28,2.16a4.142,4.142,0,0,0,4.425-4.155,4.142,4.142,0,0,0-4.425-4.155,4.154,4.154,0,0,0-4.44,4.155A4.154,4.154,0,0,0,127.725.12Zm0-1.92a2.048,2.048,0,0,1-2.07-2.235,2.048,2.048,0,0,1,2.07-2.235,2.037,2.037,0,0,1,2.055,2.235A2.037,2.037,0,0,1,127.725-1.8Zm8.7,1.92c2.415,0,3.81-1.065,3.81-2.565,0-3.18-4.875-1.845-4.875-3.225,0-.42.45-.75,1.5-.75a4.634,4.634,0,0,1,2.325.6l.78-1.665a6.636,6.636,0,0,0-3.105-.705c-2.355,0-3.735,1.08-3.735,2.61,0,3.225,4.875,1.875,4.875,3.195,0,.45-.4.735-1.485.735a5.521,5.521,0,0,1-2.8-.78l-.78,1.68A6.928,6.928,0,0,0,136.425.12Z" transform="translate(633.581 395.073)" fill="#383838"/>
        <path id="Trazado_232869" data-name="Trazado 232869" d="M6.84-8.07,4.56-2.6,2.3-8.07H-.12L3.375.06l-.03.075C3.03.855,2.67,1.14,2.025,1.14A2.075,2.075,0,0,1,.705.63L-.15,2.3A3.583,3.583,0,0,0,2.1,3.03C3.555,3.03,4.665,2.445,5.445.5L9.09-8.07Zm5.94-.12a6.2,6.2,0,0,0-3.48.975l.84,1.635a3.88,3.88,0,0,1,2.325-.75c1.26,0,1.86.585,1.86,1.59h-1.86C10.005-4.74,9-3.75,9-2.325,9-.93,10.125.12,12.015.12A2.648,2.648,0,0,0,14.475-1V0h2.19V-4.605C16.665-7.05,15.24-8.19,12.78-8.19ZM12.6-1.455c-.825,0-1.32-.39-1.32-.975,0-.54.345-.945,1.44-.945h1.6v.825A1.724,1.724,0,0,1,12.6-1.455ZM27.8-8.19A3.135,3.135,0,0,0,25.26-7.14v-.93H23.025V2.91h2.34V-.855A3.133,3.133,0,0,0,27.8.12a3.92,3.92,0,0,0,4.02-4.155A3.92,3.92,0,0,0,27.8-8.19ZM27.39-1.8a2.037,2.037,0,0,1-2.055-2.235A2.037,2.037,0,0,1,27.39-6.27a2.037,2.037,0,0,1,2.055,2.235A2.037,2.037,0,0,1,27.39-1.8ZM39.165-8.07v3.99c0,1.485-.78,2.175-1.86,2.175-1.035,0-1.635-.6-1.635-1.95V-8.07H33.33v4.56c0,2.49,1.425,3.63,3.45,3.63A3.265,3.265,0,0,0,39.285-.96V0H41.5V-8.07Zm9.285-.12a3.133,3.133,0,0,0-2.43.975V-11.13H43.68V0h2.235V-.93A3.135,3.135,0,0,0,48.45.12a3.92,3.92,0,0,0,4.02-4.155A3.92,3.92,0,0,0,48.45-8.19Zm-.4,6.39A2.037,2.037,0,0,1,45.99-4.035,2.037,2.037,0,0,1,48.045-6.27,2.037,2.037,0,0,1,50.1-4.035,2.037,2.037,0,0,1,48.045-1.8ZM54.03,0h2.34V-11.13H54.03Zm5.685-9.2a1.346,1.346,0,0,0,1.455-1.35,1.314,1.314,0,0,0-1.455-1.26A1.338,1.338,0,0,0,58.26-10.5,1.338,1.338,0,0,0,59.715-9.2ZM58.545,0h2.34V-8.07h-2.34ZM66.96.12a3.744,3.744,0,0,0,3.615-2.04L68.76-2.91A1.985,1.985,0,0,1,66.945-1.8,2.065,2.065,0,0,1,64.83-4.035,2.065,2.065,0,0,1,66.945-6.27,2.012,2.012,0,0,1,68.76-5.16l1.815-.975A3.707,3.707,0,0,0,66.96-8.19a4.172,4.172,0,0,0-4.5,4.155A4.172,4.172,0,0,0,66.96.12Zm8.22-8.31a6.2,6.2,0,0,0-3.48.975l.84,1.635a3.88,3.88,0,0,1,2.325-.75c1.26,0,1.86.585,1.86,1.59h-1.86c-2.46,0-3.465.99-3.465,2.415C71.4-.93,72.525.12,74.415.12A2.648,2.648,0,0,0,76.875-1V0h2.19V-4.605C79.065-7.05,77.64-8.19,75.18-8.19ZM75-1.455c-.825,0-1.32-.39-1.32-.975,0-.54.345-.945,1.44-.945h1.6v.825A1.724,1.724,0,0,1,75-1.455ZM87.225-11.13v3.915A3.1,3.1,0,0,0,84.81-8.19a3.923,3.923,0,0,0-4.035,4.155A3.923,3.923,0,0,0,84.81.12,3.1,3.1,0,0,0,87.33-.93V0h2.235V-11.13ZM85.215-1.8a2.048,2.048,0,0,1-2.07-2.235,2.048,2.048,0,0,1,2.07-2.235A2.045,2.045,0,0,1,87.27-4.035,2.045,2.045,0,0,1,85.215-1.8ZM94.98-8.19a6.2,6.2,0,0,0-3.48.975l.84,1.635a3.88,3.88,0,0,1,2.325-.75c1.26,0,1.86.585,1.86,1.59h-1.86c-2.46,0-3.465.99-3.465,2.415C91.2-.93,92.325.12,94.215.12A2.648,2.648,0,0,0,96.675-1V0h2.19V-4.605C98.865-7.05,97.44-8.19,94.98-8.19ZM94.8-1.455c-.825,0-1.32-.39-1.32-.975,0-.54.345-.945,1.44-.945h1.6v.825A1.724,1.724,0,0,1,94.8-1.455ZM103.695.12c2.415,0,3.81-1.065,3.81-2.565,0-3.18-4.875-1.845-4.875-3.225,0-.42.45-.75,1.5-.75a4.634,4.634,0,0,1,2.325.6l.78-1.665a6.636,6.636,0,0,0-3.1-.705c-2.355,0-3.735,1.08-3.735,2.61,0,3.225,4.875,1.875,4.875,3.195,0,.45-.4.735-1.485.735a5.521,5.521,0,0,1-2.805-.78L100.2-.75A6.928,6.928,0,0,0,103.695.12Zm6.135,0a1.432,1.432,0,0,0,1.455-1.47,1.4,1.4,0,0,0-1.455-1.44,1.4,1.4,0,0,0-1.455,1.44A1.432,1.432,0,0,0,109.83.12Z" transform="translate(648.396 413.479)" fill="#383838"/>
        <path id="Trazado_232870" data-name="Trazado 232870" d="M6.27.18A5.4,5.4,0,0,0,10.605-1.7l-1.56-1.44A3.346,3.346,0,0,1,6.405-1.89a3.221,3.221,0,0,1-3.36-3.36,3.221,3.221,0,0,1,3.36-3.36,3.378,3.378,0,0,1,2.64,1.23l1.56-1.44a5.421,5.421,0,0,0-4.32-1.86,5.4,5.4,0,0,0-5.7,5.43A5.391,5.391,0,0,0,6.27.18ZM15.36.12a4.142,4.142,0,0,0,4.425-4.155A4.142,4.142,0,0,0,15.36-8.19a4.154,4.154,0,0,0-4.44,4.155A4.154,4.154,0,0,0,15.36.12Zm0-1.92a2.048,2.048,0,0,1-2.07-2.235A2.048,2.048,0,0,1,15.36-6.27a2.037,2.037,0,0,1,2.055,2.235A2.037,2.037,0,0,1,15.36-1.8ZM26.25-8.19a3.533,3.533,0,0,0-2.67,1.065V-8.07H21.345V0h2.34V-3.99c0-1.485.81-2.175,1.935-2.175,1.035,0,1.635.6,1.635,1.9V0H29.6V-4.62C29.6-7.08,28.155-8.19,26.25-8.19ZM34.425.12c2.415,0,3.81-1.065,3.81-2.565,0-3.18-4.875-1.845-4.875-3.225,0-.42.45-.75,1.5-.75a4.634,4.634,0,0,1,2.325.6l.78-1.665a6.636,6.636,0,0,0-3.1-.705c-2.355,0-3.735,1.08-3.735,2.61C31.125-2.355,36-3.705,36-2.385c0,.45-.4.735-1.485.735a5.521,5.521,0,0,1-2.805-.78L30.93-.75A6.928,6.928,0,0,0,34.425.12Zm9.09,0A4.142,4.142,0,0,0,47.94-4.035,4.142,4.142,0,0,0,43.515-8.19a4.154,4.154,0,0,0-4.44,4.155A4.154,4.154,0,0,0,43.515.12Zm0-1.92a2.048,2.048,0,0,1-2.07-2.235,2.048,2.048,0,0,1,2.07-2.235A2.037,2.037,0,0,1,45.57-4.035,2.037,2.037,0,0,1,43.515-1.8ZM49.5,0h2.34V-11.13H49.5Zm5.685-9.2a1.346,1.346,0,0,0,1.455-1.35,1.314,1.314,0,0,0-1.455-1.26A1.338,1.338,0,0,0,53.73-10.5,1.338,1.338,0,0,0,55.185-9.2ZM54.015,0h2.34V-8.07h-2.34ZM64.41-11.13v3.915a3.1,3.1,0,0,0-2.415-.975A3.923,3.923,0,0,0,57.96-4.035,3.923,3.923,0,0,0,61.995.12a3.1,3.1,0,0,0,2.52-1.05V0H66.75V-11.13ZM62.4-1.8a2.048,2.048,0,0,1-2.07-2.235A2.048,2.048,0,0,1,62.4-6.27a2.045,2.045,0,0,1,2.055,2.235A2.045,2.045,0,0,1,62.4-1.8Zm9.765-6.39a6.2,6.2,0,0,0-3.48.975l.84,1.635a3.88,3.88,0,0,1,2.325-.75c1.26,0,1.86.585,1.86,1.59H71.85c-2.46,0-3.465.99-3.465,2.415C68.385-.93,69.51.12,71.4.12A2.648,2.648,0,0,0,73.86-1V0h2.19V-4.605C76.05-7.05,74.625-8.19,72.165-8.19Zm-.18,6.735c-.825,0-1.32-.39-1.32-.975,0-.54.345-.945,1.44-.945h1.6v.825A1.724,1.724,0,0,1,71.985-1.455ZM80.4-7.005V-8.07H78.165V0H80.5V-3.81A1.983,1.983,0,0,1,82.65-6.06c.18,0,.33.015.525.03V-8.19A3.257,3.257,0,0,0,80.4-7.005Z" transform="translate(294.538 377.615)" fill="#383838"/>
        <path id="Trazado_232871" data-name="Trazado 232871" d="M1.08,0H3.42V-11.13H1.08ZM9.435.12A4.142,4.142,0,0,0,13.86-4.035,4.142,4.142,0,0,0,9.435-8.19a4.154,4.154,0,0,0-4.44,4.155A4.154,4.154,0,0,0,9.435.12Zm0-1.92a2.048,2.048,0,0,1-2.07-2.235A2.048,2.048,0,0,1,9.435-6.27,2.037,2.037,0,0,1,11.49-4.035,2.037,2.037,0,0,1,9.435-1.8Zm8.7,1.92c2.415,0,3.81-1.065,3.81-2.565,0-3.18-4.875-1.845-4.875-3.225,0-.42.45-.75,1.5-.75a4.634,4.634,0,0,1,2.325.6l.78-1.665A6.636,6.636,0,0,0,18.57-8.19c-2.355,0-3.735,1.08-3.735,2.61,0,3.225,4.875,1.875,4.875,3.195,0,.45-.405.735-1.485.735a5.521,5.521,0,0,1-2.805-.78L14.64-.75A6.928,6.928,0,0,0,18.135.12Zm11.73-7.125V-8.07H27.63V0h2.34V-3.81a1.983,1.983,0,0,1,2.145-2.25c.18,0,.33.015.525.03V-8.19A3.257,3.257,0,0,0,29.865-7.005Zm11.88,3a4,4,0,0,0-4.2-4.185A4.108,4.108,0,0,0,33.24-4.035c0,2.4,1.815,4.155,4.6,4.155a4.227,4.227,0,0,0,3.33-1.305L39.93-2.535a2.736,2.736,0,0,1-2.025.78,2.152,2.152,0,0,1-2.31-1.62h6.1C41.715-3.57,41.745-3.825,41.745-4.005ZM37.56-6.42a1.918,1.918,0,0,1,1.98,1.68H35.565A1.91,1.91,0,0,1,37.56-6.42ZM49.41-8.07v1.035A3.239,3.239,0,0,0,46.74-8.19,3.842,3.842,0,0,0,42.7-4.29,3.842,3.842,0,0,0,46.74-.39a3.322,3.322,0,0,0,2.55-1v.345c0,1.455-.72,2.205-2.37,2.205A4.823,4.823,0,0,1,44.07.24l-.93,1.68A6.648,6.648,0,0,0,47.1,3.03c2.91,0,4.53-1.38,4.53-4.38V-8.07ZM47.2-2.31a1.972,1.972,0,0,1-2.13-1.98A1.972,1.972,0,0,1,47.2-6.27,1.96,1.96,0,0,1,49.32-4.29,1.96,1.96,0,0,1,47.2-2.31ZM54.975-9.2a1.346,1.346,0,0,0,1.455-1.35,1.314,1.314,0,0,0-1.455-1.26A1.338,1.338,0,0,0,53.52-10.5,1.338,1.338,0,0,0,54.975-9.2ZM53.805,0h2.34V-8.07h-2.34Zm7.23.12c2.415,0,3.81-1.065,3.81-2.565,0-3.18-4.875-1.845-4.875-3.225,0-.42.45-.75,1.5-.75a4.634,4.634,0,0,1,2.325.6l.78-1.665a6.636,6.636,0,0,0-3.1-.705c-2.355,0-3.735,1.08-3.735,2.61,0,3.225,4.875,1.875,4.875,3.195,0,.45-.4.735-1.485.735a5.521,5.521,0,0,1-2.8-.78L57.54-.75A6.928,6.928,0,0,0,61.035.12ZM70.86-2.04a1.577,1.577,0,0,1-.945.3.941.941,0,0,1-1-1.065V-6.09h2.01v-1.8H68.91V-9.855H66.57V-7.89H65.325v1.8H66.57v3.315c0,1.92,1.11,2.9,3.015,2.9A3.344,3.344,0,0,0,71.49-.39Zm4.185-4.965V-8.07H72.81V0h2.34V-3.81a1.983,1.983,0,0,1,2.145-2.25c.18,0,.33.015.525.03V-8.19A3.257,3.257,0,0,0,75.045-7.005ZM82.86.12a4.142,4.142,0,0,0,4.425-4.155A4.142,4.142,0,0,0,82.86-8.19a4.154,4.154,0,0,0-4.44,4.155A4.154,4.154,0,0,0,82.86.12Zm0-1.92a2.048,2.048,0,0,1-2.07-2.235A2.048,2.048,0,0,1,82.86-6.27a2.037,2.037,0,0,1,2.055,2.235A2.037,2.037,0,0,1,82.86-1.8ZM91.56.12c2.415,0,3.81-1.065,3.81-2.565,0-3.18-4.875-1.845-4.875-3.225,0-.42.45-.75,1.5-.75a4.634,4.634,0,0,1,2.325.6l.78-1.665a6.636,6.636,0,0,0-3.1-.705c-2.355,0-3.735,1.08-3.735,2.61,0,3.225,4.875,1.875,4.875,3.195,0,.45-.4.735-1.485.735a5.521,5.521,0,0,1-2.805-.78l-.78,1.68A6.928,6.928,0,0,0,91.56.12Z" transform="translate(288.326 396.02)" fill="#383838"/>
        <path id="Trazado_232872" data-name="Trazado 232872" d="M1.245,0h4.77c3.435,0,5.79-2.07,5.79-5.25S9.45-10.5,6.015-10.5H1.245Zm2.43-2v-6.51h2.22A3.134,3.134,0,0,1,9.345-5.25,3.134,3.134,0,0,1,5.895-2ZM14.64-9.2a1.346,1.346,0,0,0,1.455-1.35,1.314,1.314,0,0,0-1.455-1.26A1.338,1.338,0,0,0,13.185-10.5,1.338,1.338,0,0,0,14.64-9.2ZM13.47,0h2.34V-8.07H13.47Zm6.75-7.005V-8.07H17.985V0h2.34V-3.81A1.983,1.983,0,0,1,22.47-6.06c.18,0,.33.015.525.03V-8.19A3.257,3.257,0,0,0,20.22-7.005Zm11.88,3A4,4,0,0,0,27.9-8.19a4.108,4.108,0,0,0-4.305,4.155c0,2.4,1.815,4.155,4.6,4.155a4.227,4.227,0,0,0,3.33-1.305l-1.245-1.35a2.736,2.736,0,0,1-2.025.78,2.152,2.152,0,0,1-2.31-1.62h6.105C32.07-3.57,32.1-3.825,32.1-4.005ZM27.915-6.42a1.918,1.918,0,0,1,1.98,1.68H25.92A1.91,1.91,0,0,1,27.915-6.42ZM37.56.12a3.744,3.744,0,0,0,3.615-2.04L39.36-2.91A1.985,1.985,0,0,1,37.545-1.8,2.065,2.065,0,0,1,35.43-4.035,2.065,2.065,0,0,1,37.545-6.27,2.012,2.012,0,0,1,39.36-5.16l1.815-.975A3.707,3.707,0,0,0,37.56-8.19a4.172,4.172,0,0,0-4.5,4.155A4.172,4.172,0,0,0,37.56.12Zm8.67,0a3.744,3.744,0,0,0,3.615-2.04L48.03-2.91A1.985,1.985,0,0,1,46.215-1.8,2.065,2.065,0,0,1,44.1-4.035,2.065,2.065,0,0,1,46.215-6.27,2.012,2.012,0,0,1,48.03-5.16l1.815-.975A3.707,3.707,0,0,0,46.23-8.19a4.172,4.172,0,0,0-4.5,4.155A4.172,4.172,0,0,0,46.23.12ZM52.365-9.2a1.346,1.346,0,0,0,1.455-1.35,1.314,1.314,0,0,0-1.455-1.26A1.338,1.338,0,0,0,50.91-10.5,1.338,1.338,0,0,0,52.365-9.2ZM51.195,0h2.34V-8.07h-2.34ZM59.55.12a4.142,4.142,0,0,0,4.425-4.155A4.142,4.142,0,0,0,59.55-8.19a4.154,4.154,0,0,0-4.44,4.155A4.154,4.154,0,0,0,59.55.12Zm0-1.92a2.048,2.048,0,0,1-2.07-2.235A2.048,2.048,0,0,1,59.55-6.27,2.037,2.037,0,0,1,61.6-4.035,2.037,2.037,0,0,1,59.55-1.8ZM70.44-8.19a3.533,3.533,0,0,0-2.67,1.065V-8.07H65.535V0h2.34V-3.99c0-1.485.81-2.175,1.935-2.175,1.035,0,1.635.6,1.635,1.9V0h2.34V-4.62C73.785-7.08,72.345-8.19,70.44-8.19ZM83.985-4.005a4,4,0,0,0-4.2-4.185A4.108,4.108,0,0,0,75.48-4.035c0,2.4,1.815,4.155,4.6,4.155a4.227,4.227,0,0,0,3.33-1.305L82.17-2.535a2.736,2.736,0,0,1-2.025.78,2.152,2.152,0,0,1-2.31-1.62H83.94C83.955-3.57,83.985-3.825,83.985-4.005ZM79.8-6.42a1.918,1.918,0,0,1,1.98,1.68H77.805A1.91,1.91,0,0,1,79.8-6.42ZM88.26.12c2.415,0,3.81-1.065,3.81-2.565,0-3.18-4.875-1.845-4.875-3.225,0-.42.45-.75,1.5-.75a4.634,4.634,0,0,1,2.325.6l.78-1.665a6.636,6.636,0,0,0-3.1-.705c-2.355,0-3.735,1.08-3.735,2.61,0,3.225,4.875,1.875,4.875,3.195,0,.45-.4.735-1.485.735a5.521,5.521,0,0,1-2.805-.78l-.78,1.68A6.928,6.928,0,0,0,88.26.12Z" transform="translate(104.074 631.194)" fill="#383838" stroke="#707070" stroke-width="1"/>
        <path id="Trazado_232873" data-name="Trazado 232873" d="M5.655-2.04a1.577,1.577,0,0,1-.945.3.941.941,0,0,1-1-1.065V-6.09h2.01v-1.8H3.705V-9.855H1.365V-7.89H.12v1.8H1.365v3.315c0,1.92,1.11,2.9,3.015,2.9a3.344,3.344,0,0,0,1.9-.51ZM15-4.005A4,4,0,0,0,10.8-8.19a4.108,4.108,0,0,0-4.3,4.155C6.495-1.635,8.31.12,11.1.12a4.227,4.227,0,0,0,3.33-1.305l-1.245-1.35a2.736,2.736,0,0,1-2.025.78,2.152,2.152,0,0,1-2.31-1.62h6.1C14.97-3.57,15-3.825,15-4.005ZM10.815-6.42A1.918,1.918,0,0,1,12.8-4.74H8.82A1.91,1.91,0,0,1,10.815-6.42Zm7.98-.585V-8.07H16.56V0H18.9V-3.81a1.983,1.983,0,0,1,2.145-2.25c.18,0,.33.015.525.03V-8.19A3.257,3.257,0,0,0,18.8-7.005Zm6.345,0V-8.07H22.9V0h2.34V-3.81A1.983,1.983,0,0,1,27.39-6.06c.18,0,.33.015.525.03V-8.19A3.257,3.257,0,0,0,25.14-7.005ZM30.42-9.2a1.346,1.346,0,0,0,1.455-1.35,1.314,1.314,0,0,0-1.455-1.26A1.338,1.338,0,0,0,28.965-10.5,1.338,1.338,0,0,0,30.42-9.2ZM29.25,0h2.34V-8.07H29.25Zm9.09-2.04a1.577,1.577,0,0,1-.945.3.941.941,0,0,1-1-1.065V-6.09H38.4v-1.8H36.39V-9.855H34.05V-7.89H32.8v1.8H34.05v3.315c0,1.92,1.11,2.9,3.015,2.9a3.344,3.344,0,0,0,1.9-.51ZM43.635.12A4.142,4.142,0,0,0,48.06-4.035,4.142,4.142,0,0,0,43.635-8.19a4.154,4.154,0,0,0-4.44,4.155A4.154,4.154,0,0,0,43.635.12Zm0-1.92a2.048,2.048,0,0,1-2.07-2.235,2.048,2.048,0,0,1,2.07-2.235A2.037,2.037,0,0,1,45.69-4.035,2.037,2.037,0,0,1,43.635-1.8Zm8.22-5.205V-8.07H49.62V0h2.34V-3.81A1.983,1.983,0,0,1,54.1-6.06c.18,0,.33.015.525.03V-8.19A3.257,3.257,0,0,0,51.855-7.005Zm5.3-2.19a1.346,1.346,0,0,0,1.455-1.35,1.314,1.314,0,0,0-1.455-1.26A1.338,1.338,0,0,0,55.695-10.5,1.338,1.338,0,0,0,57.15-9.2ZM55.98,0h2.34V-8.07H55.98Zm7.77-8.19a6.2,6.2,0,0,0-3.48.975l.84,1.635a3.88,3.88,0,0,1,2.325-.75c1.26,0,1.86.585,1.86,1.59h-1.86c-2.46,0-3.465.99-3.465,2.415C59.97-.93,61.095.12,62.985.12A2.648,2.648,0,0,0,65.445-1V0h2.19V-4.605C67.635-7.05,66.21-8.19,63.75-8.19Zm-.18,6.735c-.825,0-1.32-.39-1.32-.975,0-.54.345-.945,1.44-.945h1.6v.825A1.724,1.724,0,0,1,63.57-1.455ZM69.75,0h2.34V-11.13H69.75ZM82.17-4.005a4,4,0,0,0-4.2-4.185,4.108,4.108,0,0,0-4.305,4.155c0,2.4,1.815,4.155,4.6,4.155A4.227,4.227,0,0,0,81.6-1.185l-1.245-1.35a2.736,2.736,0,0,1-2.025.78,2.152,2.152,0,0,1-2.31-1.62h6.105C82.14-3.57,82.17-3.825,82.17-4.005ZM77.985-6.42a1.918,1.918,0,0,1,1.98,1.68H75.99A1.91,1.91,0,0,1,77.985-6.42ZM86.445.12c2.415,0,3.81-1.065,3.81-2.565,0-3.18-4.875-1.845-4.875-3.225,0-.42.45-.75,1.5-.75a4.634,4.634,0,0,1,2.325.6l.78-1.665a6.636,6.636,0,0,0-3.1-.705c-2.355,0-3.735,1.08-3.735,2.61,0,3.225,4.875,1.875,4.875,3.195,0,.45-.4.735-1.485.735a5.521,5.521,0,0,1-2.805-.78L82.95-.75A6.928,6.928,0,0,0,86.445.12ZM101.7-8.07,99.42-2.6,97.155-8.07H94.74l3.5,8.13L98.2.135c-.315.72-.675,1.005-1.32,1.005a2.075,2.075,0,0,1-1.32-.51L94.71,2.3a3.583,3.583,0,0,0,2.25.735c1.455,0,2.565-.585,3.345-2.535L103.95-8.07Zm15.36,4.065a4,4,0,0,0-4.2-4.185,4.108,4.108,0,0,0-4.305,4.155c0,2.4,1.815,4.155,4.6,4.155a4.227,4.227,0,0,0,3.33-1.305l-1.245-1.35a2.736,2.736,0,0,1-2.025.78,2.152,2.152,0,0,1-2.31-1.62h6.105C117.03-3.57,117.06-3.825,117.06-4.005ZM112.875-6.42a1.918,1.918,0,0,1,1.98,1.68H110.88A1.91,1.91,0,0,1,112.875-6.42Zm10.65-1.77a3.533,3.533,0,0,0-2.67,1.065V-8.07H118.62V0h2.34V-3.99c0-1.485.81-2.175,1.935-2.175,1.035,0,1.635.6,1.635,1.9V0h2.34V-4.62C126.87-7.08,125.43-8.19,123.525-8.19Zm17.61,4.185a4,4,0,0,0-4.2-4.185,4.108,4.108,0,0,0-4.305,4.155c0,2.4,1.815,4.155,4.605,4.155a4.227,4.227,0,0,0,3.33-1.305l-1.245-1.35a2.736,2.736,0,0,1-2.025.78,2.152,2.152,0,0,1-2.31-1.62h6.1C141.1-3.57,141.135-3.825,141.135-4.005ZM136.95-6.42a1.918,1.918,0,0,1,1.98,1.68h-3.975A1.911,1.911,0,0,1,136.95-6.42ZM142.695,0h2.34V-11.13h-2.34Zm8.925,0h4.77c3.435,0,5.79-2.07,5.79-5.25s-2.355-5.25-5.79-5.25h-4.77Zm2.43-2v-6.51h2.22a3.134,3.134,0,0,1,3.45,3.255A3.134,3.134,0,0,1,156.27-2Zm17.52,2h2.55l-4.695-10.5h-2.4L162.345,0h2.49l.93-2.25h4.875Zm-5.025-4.1,1.665-4.02,1.665,4.02Zm15.9-6.405v6.375l-5.22-6.375h-2.01V0h2.4V-6.375L182.85,0h1.995V-10.5Zm7.3,8.55V-4.38h4.875V-6.27H189.75V-8.55h5.52V-10.5h-7.935V0h8.13V-1.95Z" transform="translate(50.698 649.599)" fill="#383838" stroke="#707070" stroke-width="1"/>
        <path id="Trazado_232875" data-name="Trazado 232875" d="M9.09,0h2.55L6.945-10.5h-2.4L-.135,0h2.49l.93-2.25H8.16ZM4.065-4.1,5.73-8.115,7.4-4.1ZM16.335.12A3.744,3.744,0,0,0,19.95-1.92l-1.815-.99A1.985,1.985,0,0,1,16.32-1.8,2.065,2.065,0,0,1,14.2-4.035,2.065,2.065,0,0,1,16.32-6.27a2.012,2.012,0,0,1,1.815,1.11l1.815-.975A3.707,3.707,0,0,0,16.335-8.19a4.172,4.172,0,0,0-4.5,4.155A4.172,4.172,0,0,0,16.335.12Zm8.61,0A4.142,4.142,0,0,0,29.37-4.035,4.142,4.142,0,0,0,24.945-8.19,4.154,4.154,0,0,0,20.5-4.035,4.154,4.154,0,0,0,24.945.12Zm0-1.92a2.048,2.048,0,0,1-2.07-2.235,2.048,2.048,0,0,1,2.07-2.235A2.037,2.037,0,0,1,27-4.035,2.037,2.037,0,0,1,24.945-1.8Zm8.22-5.205V-8.07H30.93V0h2.34V-3.81a1.983,1.983,0,0,1,2.145-2.25c.18,0,.33.015.525.03V-8.19A3.257,3.257,0,0,0,33.165-7.005ZM43-11.13v3.915A3.1,3.1,0,0,0,40.59-8.19a3.923,3.923,0,0,0-4.035,4.155A3.923,3.923,0,0,0,40.59.12,3.1,3.1,0,0,0,43.11-.93V0h2.235V-11.13ZM40.995-1.8a2.048,2.048,0,0,1-2.07-2.235,2.048,2.048,0,0,1,2.07-2.235A2.045,2.045,0,0,1,43.05-4.035,2.045,2.045,0,0,1,40.995-1.8ZM55.41-4.005a4,4,0,0,0-4.2-4.185A4.108,4.108,0,0,0,46.9-4.035c0,2.4,1.815,4.155,4.6,4.155a4.227,4.227,0,0,0,3.33-1.305L53.6-2.535a2.736,2.736,0,0,1-2.025.78,2.152,2.152,0,0,1-2.31-1.62h6.1C55.38-3.57,55.41-3.825,55.41-4.005ZM51.225-6.42A1.918,1.918,0,0,1,53.2-4.74H49.23A1.91,1.91,0,0,1,51.225-6.42ZM64.47-8.19a6.2,6.2,0,0,0-3.48.975l.84,1.635a3.88,3.88,0,0,1,2.325-.75c1.26,0,1.86.585,1.86,1.59h-1.86c-2.46,0-3.465.99-3.465,2.415C60.69-.93,61.815.12,63.7.12A2.648,2.648,0,0,0,66.165-1V0h2.19V-4.605C68.355-7.05,66.93-8.19,64.47-8.19Zm-.18,6.735c-.825,0-1.32-.39-1.32-.975,0-.54.345-.945,1.44-.945h1.605v.825A1.724,1.724,0,0,1,64.29-1.455ZM74.715,0h2.34V-11.13h-2.34Zm7.77-8.19a6.2,6.2,0,0,0-3.48.975l.84,1.635a3.88,3.88,0,0,1,2.325-.75c1.26,0,1.86.585,1.86,1.59H82.17c-2.46,0-3.465.99-3.465,2.415C78.705-.93,79.83.12,81.72.12A2.648,2.648,0,0,0,84.18-1V0h2.19V-4.605C86.37-7.05,84.945-8.19,82.485-8.19Zm-.18,6.735c-.825,0-1.32-.39-1.32-.975,0-.54.345-.945,1.44-.945h1.6v.825A1.724,1.724,0,0,1,82.305-1.455ZM96.63.12a3.744,3.744,0,0,0,3.615-2.04L98.43-2.91A1.985,1.985,0,0,1,96.615-1.8,2.065,2.065,0,0,1,94.5-4.035,2.065,2.065,0,0,1,96.615-6.27,2.012,2.012,0,0,1,98.43-5.16l1.815-.975A3.707,3.707,0,0,0,96.63-8.19a4.172,4.172,0,0,0-4.5,4.155A4.172,4.172,0,0,0,96.63.12ZM101.475,0h2.34V-11.13h-2.34Zm7.77-8.19a6.2,6.2,0,0,0-3.48.975l.84,1.635a3.88,3.88,0,0,1,2.325-.75c1.26,0,1.86.585,1.86,1.59h-1.86c-2.46,0-3.465.99-3.465,2.415C105.465-.93,106.59.12,108.48.12A2.648,2.648,0,0,0,110.94-1V0h2.19V-4.605C113.13-7.05,111.7-8.19,109.245-8.19Zm-.18,6.735c-.825,0-1.32-.39-1.32-.975,0-.54.345-.945,1.44-.945h1.6v.825A1.724,1.724,0,0,1,109.065-1.455ZM117.96.12c2.415,0,3.81-1.065,3.81-2.565,0-3.18-4.875-1.845-4.875-3.225,0-.42.45-.75,1.5-.75a4.634,4.634,0,0,1,2.325.6l.78-1.665a6.636,6.636,0,0,0-3.1-.705c-2.355,0-3.735,1.08-3.735,2.61,0,3.225,4.875,1.875,4.875,3.195,0,.45-.4.735-1.485.735a5.521,5.521,0,0,1-2.805-.78l-.78,1.68A6.928,6.928,0,0,0,117.96.12ZM124.38-9.2a1.346,1.346,0,0,0,1.455-1.35,1.314,1.314,0,0,0-1.455-1.26,1.338,1.338,0,0,0-1.455,1.305A1.338,1.338,0,0,0,124.38-9.2ZM123.21,0h2.34V-8.07h-2.34ZM135.9-9.2a1.346,1.346,0,0,0,1.455-1.35,1.314,1.314,0,0,0-1.455-1.26,1.338,1.338,0,0,0-1.455,1.305A1.338,1.338,0,0,0,135.9-9.2Zm-4.545-.21a1.638,1.638,0,0,1,.945.285l.615-1.695a3.317,3.317,0,0,0-1.785-.435,2.817,2.817,0,0,0-3.12,3v.36h-1.245v1.8h1.245V0h2.34V-6.09h2.01v-1.8h-2.07v-.345C130.29-9.03,130.665-9.405,131.355-9.405ZM134.73,0h2.34V-8.07h-2.34Zm8.415.12a3.744,3.744,0,0,0,3.615-2.04l-1.815-.99A1.985,1.985,0,0,1,143.13-1.8a2.065,2.065,0,0,1-2.115-2.235A2.065,2.065,0,0,1,143.13-6.27a2.012,2.012,0,0,1,1.815,1.11l1.815-.975a3.707,3.707,0,0,0-3.615-2.055,4.172,4.172,0,0,0-4.5,4.155A4.172,4.172,0,0,0,143.145.12Zm8.22-8.31a6.2,6.2,0,0,0-3.48.975l.84,1.635a3.88,3.88,0,0,1,2.325-.75c1.26,0,1.86.585,1.86,1.59h-1.86c-2.46,0-3.465.99-3.465,2.415C147.585-.93,148.71.12,150.6.12A2.648,2.648,0,0,0,153.06-1V0h2.19V-4.605C155.25-7.05,153.825-8.19,151.365-8.19Zm-.18,6.735c-.825,0-1.32-.39-1.32-.975,0-.54.345-.945,1.44-.945h1.605v.825A1.724,1.724,0,0,1,151.185-1.455ZM161.445.12a3.744,3.744,0,0,0,3.615-2.04l-1.815-.99A1.985,1.985,0,0,1,161.43-1.8a2.065,2.065,0,0,1-2.115-2.235A2.065,2.065,0,0,1,161.43-6.27a2.012,2.012,0,0,1,1.815,1.11l1.815-.975a3.707,3.707,0,0,0-3.615-2.055,4.172,4.172,0,0,0-4.5,4.155A4.172,4.172,0,0,0,161.445.12ZM167.58-9.2a1.346,1.346,0,0,0,1.455-1.35,1.314,1.314,0,0,0-1.455-1.26,1.338,1.338,0,0,0-1.455,1.305A1.338,1.338,0,0,0,167.58-9.2ZM166.41,0h2.34V-8.07h-2.34Zm6.96-9.105h1.83l2.715-2.16H175.4Zm1.4,9.225a4.142,4.142,0,0,0,4.425-4.155,4.142,4.142,0,0,0-4.425-4.155,4.154,4.154,0,0,0-4.44,4.155A4.154,4.154,0,0,0,174.765.12Zm0-1.92a2.048,2.048,0,0,1-2.07-2.235,2.048,2.048,0,0,1,2.07-2.235,2.037,2.037,0,0,1,2.055,2.235A2.037,2.037,0,0,1,174.765-1.8Zm10.89-6.39a3.533,3.533,0,0,0-2.67,1.065V-8.07H180.75V0h2.34V-3.99c0-1.485.81-2.175,1.935-2.175,1.035,0,1.635.6,1.635,1.9V0H189V-4.62C189-7.08,187.56-8.19,185.655-8.19Z" transform="translate(792.506 631.194)" fill="#383838" stroke="#707070" stroke-width="1"/>
        <g id="Grupo_158892" data-name="Grupo 158892" clip-path="url(#clip-path)">
          <text id="enfermedad_CIE_vigente" data-name="enfermedad (CIE) vigente" transform="translate(786.743 668.004)" fill="#383838" stroke="#707070" stroke-width="1" font-size="15" font-family="Montserrat-Bold, Montserrat" font-weight="700"><tspan x="0" y="0">en</tspan><tspan y="0" letter-spacing="-0.006em">f</tspan><tspan y="0">e</tspan><tspan y="0" letter-spacing="-0.003em">r</tspan><tspan y="0" letter-spacing="0.005em">m</tspan><tspan y="0">ed</tspan><tspan y="0" letter-spacing="0.005em">a</tspan><tspan y="0">d (CIE) vigen</tspan><tspan y="0" letter-spacing="-0.017em">t</tspan><tspan y="0">e</tspan></text>
        </g>
        <path id="Trazado_232874" data-name="Trazado 232874" d="M6.27.18A5.4,5.4,0,0,0,10.605-1.7l-1.56-1.44A3.346,3.346,0,0,1,6.405-1.89a3.221,3.221,0,0,1-3.36-3.36,3.221,3.221,0,0,1,3.36-3.36,3.378,3.378,0,0,1,2.64,1.23l1.56-1.44a5.421,5.421,0,0,0-4.32-1.86,5.4,5.4,0,0,0-5.7,5.43A5.391,5.391,0,0,0,6.27.18Zm8.94-8.37a6.2,6.2,0,0,0-3.48.975l.84,1.635a3.88,3.88,0,0,1,2.325-.75c1.26,0,1.86.585,1.86,1.59h-1.86c-2.46,0-3.465.99-3.465,2.415C11.43-.93,12.555.12,14.445.12A2.648,2.648,0,0,0,16.9-1V0h2.19V-4.605C19.095-7.05,17.67-8.19,15.21-8.19Zm-.18,6.735c-.825,0-1.32-.39-1.32-.975,0-.54.345-.945,1.44-.945h1.6v.825A1.724,1.724,0,0,1,15.03-1.455ZM21.21,0h2.34V-11.13H21.21Zm5.685-9.2a1.346,1.346,0,0,0,1.455-1.35,1.314,1.314,0,0,0-1.455-1.26A1.338,1.338,0,0,0,25.44-10.5,1.338,1.338,0,0,0,26.895-9.2ZM25.725,0h2.34V-8.07h-2.34Zm10.4-11.13v3.915A3.1,3.1,0,0,0,33.7-8.19,3.923,3.923,0,0,0,29.67-4.035,3.923,3.923,0,0,0,33.7.12a3.1,3.1,0,0,0,2.52-1.05V0H38.46V-11.13ZM34.11-1.8a2.048,2.048,0,0,1-2.07-2.235A2.048,2.048,0,0,1,34.11-6.27a2.045,2.045,0,0,1,2.055,2.235A2.045,2.045,0,0,1,34.11-1.8Zm9.765-6.39a6.2,6.2,0,0,0-3.48.975l.84,1.635a3.88,3.88,0,0,1,2.325-.75c1.26,0,1.86.585,1.86,1.59H43.56c-2.46,0-3.465.99-3.465,2.415C40.1-.93,41.22.12,43.11.12A2.648,2.648,0,0,0,45.57-1V0h2.19V-4.605C47.76-7.05,46.335-8.19,43.875-8.19Zm-.18,6.735c-.825,0-1.32-.39-1.32-.975,0-.54.345-.945,1.44-.945h1.6v.825A1.724,1.724,0,0,1,43.695-1.455Zm12.24-9.675v3.915A3.1,3.1,0,0,0,53.52-8.19a3.923,3.923,0,0,0-4.035,4.155A3.923,3.923,0,0,0,53.52.12,3.1,3.1,0,0,0,56.04-.93V0h2.235V-11.13ZM53.925-1.8a2.048,2.048,0,0,1-2.07-2.235,2.048,2.048,0,0,1,2.07-2.235A2.045,2.045,0,0,1,55.98-4.035,2.045,2.045,0,0,1,53.925-1.8ZM70.56-11.13v3.915a3.1,3.1,0,0,0-2.415-.975A3.923,3.923,0,0,0,64.11-4.035,3.923,3.923,0,0,0,68.145.12a3.1,3.1,0,0,0,2.52-1.05V0H72.9V-11.13ZM68.55-1.8a2.048,2.048,0,0,1-2.07-2.235A2.048,2.048,0,0,1,68.55-6.27a2.045,2.045,0,0,1,2.055,2.235A2.045,2.045,0,0,1,68.55-1.8ZM82.965-4.005a4,4,0,0,0-4.2-4.185,4.108,4.108,0,0,0-4.3,4.155c0,2.4,1.815,4.155,4.6,4.155A4.227,4.227,0,0,0,82.4-1.185L81.15-2.535a2.736,2.736,0,0,1-2.025.78,2.152,2.152,0,0,1-2.31-1.62H82.92C82.935-3.57,82.965-3.825,82.965-4.005ZM78.78-6.42a1.918,1.918,0,0,1,1.98,1.68H76.785A1.91,1.91,0,0,1,78.78-6.42ZM84.525,0h2.34V-11.13h-2.34Zm14.64-11.13v3.915A3.1,3.1,0,0,0,96.75-8.19a3.923,3.923,0,0,0-4.035,4.155A3.923,3.923,0,0,0,96.75.12,3.1,3.1,0,0,0,99.27-.93V0h2.235V-11.13ZM97.155-1.8a2.048,2.048,0,0,1-2.07-2.235,2.048,2.048,0,0,1,2.07-2.235A2.045,2.045,0,0,1,99.21-4.035,2.045,2.045,0,0,1,97.155-1.8Zm9.765-6.39a6.2,6.2,0,0,0-3.48.975l.84,1.635a3.88,3.88,0,0,1,2.325-.75c1.26,0,1.86.585,1.86,1.59h-1.86c-2.46,0-3.465.99-3.465,2.415,0,1.395,1.125,2.445,3.015,2.445A2.648,2.648,0,0,0,108.615-1V0h2.19V-4.605C110.805-7.05,109.38-8.19,106.92-8.19Zm-.18,6.735c-.825,0-1.32-.39-1.32-.975,0-.54.345-.945,1.44-.945h1.6v.825A1.724,1.724,0,0,1,106.74-1.455ZM117.5-2.04a1.577,1.577,0,0,1-.945.3.941.941,0,0,1-1-1.065V-6.09h2.01v-1.8h-2.01V-9.855h-2.34V-7.89H111.96v1.8h1.245v3.315c0,1.92,1.11,2.9,3.015,2.9a3.344,3.344,0,0,0,1.905-.51ZM122.79.12a4.142,4.142,0,0,0,4.425-4.155A4.142,4.142,0,0,0,122.79-8.19a4.154,4.154,0,0,0-4.44,4.155A4.154,4.154,0,0,0,122.79.12Zm0-1.92a2.048,2.048,0,0,1-2.07-2.235,2.048,2.048,0,0,1,2.07-2.235,2.037,2.037,0,0,1,2.055,2.235A2.037,2.037,0,0,1,122.79-1.8Z" transform="translate(451.265 631.194)" fill="#383838" stroke="#707070" stroke-width="1"/>
      </g>
      <g id="Grupo_158895" data-name="Grupo 158895" transform="translate(0)">
        <g id="Grupo_158894" data-name="Grupo 158894" clip-path="url(#clip-path)">
          <path id="Trazado_231545" data-name="Trazado 231545" d="M100.286,302.255a14.22,14.22,0,1,1-14.22-14.22,14.22,14.22,0,0,1,14.22,14.22" transform="translate(67.19 269.366)" fill="#fff" stroke="#9abbc0" stroke-width="1"/>
          <path id="Trazado_231546" data-name="Trazado 231546" d="M290.586,302.255a14.22,14.22,0,1,1-14.22-14.22,14.22,14.22,0,0,1,14.22,14.22" transform="translate(245.155 269.366)" fill="#fff" stroke="#9abbc0" stroke-width="1"/>
          <path id="Trazado_231547" data-name="Trazado 231547" d="M480.883,302.255a14.22,14.22,0,1,1-14.22-14.22,14.22,14.22,0,0,1,14.22,14.22" transform="translate(423.118 269.366)" fill="#fff" stroke="#9abbc0" stroke-width="1"/>
        </g>
      </g>
      <path id="Path" d="M0,1.5,1.63,0,8,6,1.63,12,0,10.5,4.8,6Z" transform="translate(260.16 256.983) rotate(47)" fill="#9abbc0" stroke="#9abbc0" stroke-width="1"/>
      <path id="Path-2" data-name="Path" d="M0,1.5,1.63,0,8,6,1.63,12,0,10.5,4.8,6Z" transform="translate(429.333 234.207) rotate(-50)" fill="#9abbc0" stroke="#9abbc0" stroke-width="1"/>
      <path id="Path-3" data-name="Path" d="M0,1.5,1.63,0,8,6,1.63,12,0,10.5,4.8,6Z" transform="translate(630.044 256.188) rotate(47)" fill="#9abbc0" stroke="#9abbc0" stroke-width="1"/>
      <path id="Path-4" data-name="Path" d="M0,1.5,1.63,0,8,6,1.63,12,0,10.5,4.8,6Z" transform="translate(801.216 236.413) rotate(-50)" fill="#9abbc0" stroke="#9abbc0" stroke-width="1"/>
    </g>
    <line id="Línea_577" data-name="Línea 577" x1="2" y2="242" transform="translate(428.5 15254.5)" fill="none" stroke="#eec055" stroke-width="3"/>
    <line id="Línea_578" data-name="Línea 578" x1="2" y2="242" transform="translate(798.5 15254.5)" fill="none" stroke="#7e5ee3" stroke-width="3"/>
    <line id="Línea_579" data-name="Línea 579" x1="2" y2="242" transform="translate(1164.5 15254.5)" fill="none" stroke="#0158a0" stroke-width="3"/>
  </g>
</svg>
