<svg xmlns="http://www.w3.org/2000/svg" width="287" height="148" viewBox="0 0 287 148">
  <g id="Grupo_159308" data-name="Grupo 159308" transform="translate(-335 -7678)">
    <rect id="Rectángulo_47414" data-name="Rectángulo 47414" width="287" height="148" rx="27" transform="translate(335 7678)" fill="#008bfd"/>
    <rect id="Rectángulo_48079" data-name="Rectángulo 48079" width="33" height="47" transform="translate(335 7779)" fill="#008bfd"/>
    <rect id="Rectángulo_48080" data-name="Rectángulo 48080" width="26" height="40" transform="translate(596 7786)" fill="#008bfd"/>
    <g id="Grupo_158597" data-name="Grupo 158597" transform="translate(431.268 7704)">
      <g id="Grupo_158250" data-name="Grupo 158250" transform="translate(0 0)">
        <path id="Trazado_230813" data-name="Trazado 230813" d="M27.118,0A44.968,44.968,0,0,1,32.93,1.321c9.731,3.566,15.48,10.543,16.84,20.805A24.8,24.8,0,0,1,28.645,49.738c-.238.035-.474.08-.747.126V66.553c.3.014.591.04.886.04,2.4,0,4.8-.008,7.194.005a2.769,2.769,0,1,1-.006,5.527c-2.669.014-5.337,0-8.116,0V74.56c0,1.875.008,3.751,0,5.626a2.773,2.773,0,1,1-5.529.032c-.012-2.367,0-4.734,0-7.1v-.987c-2.63,0-5.173,0-7.716,0a5.731,5.731,0,0,1-1.1-.054,2.757,2.757,0,0,1,.478-5.468c2.367-.033,4.734-.01,7.1-.011h1.17V50.135a61.754,61.754,0,0,1-7.371-2.368C6.4,43.854,1.472,37.2.171,27.907c-.037-.266-.113-.527-.171-.79V23.059c.057-.264.13-.526.17-.793C1.685,12.06,7.278,5.092,16.9,1.448A46.5,46.5,0,0,1,23.059,0ZM25.128,5.535A19.461,19.461,0,1,0,44.457,25.15,19.585,19.585,0,0,0,25.128,5.535" transform="translate(0 0)" fill="#8bdae6"/>
        <path id="Trazado_230815" data-name="Trazado 230815" d="M261.674,93.885v-23.7c-.252.212-.455.361-.632.537-1.808,1.8-3.606,3.61-5.418,5.405-1.334,1.321-3.012,1.407-4.169.238s-1.058-2.836.27-4.168Q257,66.909,262.288,61.634a2.8,2.8,0,0,1,4.367-.028q5.329,5.3,10.629,10.627a2.784,2.784,0,1,1-3.913,3.918c-1.983-1.972-3.951-3.958-6.04-6.053V93.913a24.96,24.96,0,0,1,18.222,11.312,23.8,23.8,0,0,1,3.774,16.885,24.99,24.99,0,1,1-27.653-28.226m-16.558,24.766a19.461,19.461,0,1,0,19.393-19.326,19.5,19.5,0,0,0-19.393,19.326" transform="translate(-195.123 -49.331)" fill="#fff"/>
      </g>
    </g>
  </g>
</svg>
