<svg xmlns="http://www.w3.org/2000/svg" width="287" height="148" viewBox="0 0 287 148">
  <g id="Grupo_159308" data-name="Grupo 159308" transform="translate(-335 -7678)">
    <rect id="Rectángulo_47414" data-name="Rectángulo 47414" width="287" height="148" rx="27" transform="translate(335 7678)" fill="#008bfd"/>
    <rect id="Rectángulo_48079" data-name="Rectángulo 48079" width="33" height="47" transform="translate(335 7779)" fill="#008bfd"/>
    <rect id="Rectángulo_48080" data-name="Rectángulo 48080" width="26" height="40" transform="translate(596 7786)" fill="#008bfd"/>
    <g id="Grupo_158607" data-name="Grupo 158607" transform="translate(434.065 7760.35)">
      <g id="Grupo_158263" data-name="Grupo 158263" transform="translate(0 -55)">
        <path id="Trazado_230858" data-name="Trazado 230858" d="M100.527,47.142a9.875,9.875,0,0,1-1.189,1.971,3.593,3.593,0,0,1-4.037.9,3.753,3.753,0,0,1-2.55-3.378c-.048-.483-.023-.974-.023-1.462q0-10.19,0-20.381c0-5.188-3.273-8.456-8.46-8.463-1.426,0-2.852,0-4.417,0,0,1.373.048,2.695-.01,4.011a3.874,3.874,0,0,1-5.951,3.176,3.765,3.765,0,0,1-1.82-3.26c-.031-1.263-.007-2.528-.007-3.859H54.313c0,1,0,2,0,3,0,2.924-1.466,4.712-3.874,4.728-2.443.016-3.925-1.785-3.926-4.774,0-.969,0-1.938,0-2.963H28.96c0,1.251.023,2.535-.006,3.818a3.889,3.889,0,0,1-7.777.09c-.048-1.289-.008-2.582-.008-4.067a49.824,49.824,0,0,0-6.677.382A7.578,7.578,0,0,0,8.5,23.958c-.014.26-.012.52-.012.78q0,29.84,0,59.679c0,3.379,1.314,6.044,4.421,7.5a9.691,9.691,0,0,0,3.946.823c9.586.067,19.174.043,28.761.028A4.322,4.322,0,0,1,48.9,93.96a3.885,3.885,0,0,1-1.12,6.235c-.289.138-.587.259-.88.388H14.534a1.2,1.2,0,0,0-.339-.161A15.812,15.812,0,0,1,.657,84.385C.756,64.5.683,44.613.7,24.727a18.539,18.539,0,0,1,.326-3.676A15.542,15.542,0,0,1,16.13,8.534c1.647-.031,3.295,0,5.039,0,0-1.392-.04-2.684.008-3.973a3.889,3.889,0,0,1,7.777.092c.029,1.283.006,2.567.006,3.822H46.513c0-1.216-.009-2.379,0-3.541a3.91,3.91,0,1,1,7.8.027c.01,1.16,0,2.321,0,3.508H72.058c0-1.191-.006-2.322,0-3.454.016-2.54,1.632-4.3,3.928-4.28,2.259.017,3.85,1.758,3.869,4.242.009,1.159,0,2.318,0,3.566,1.923,0,3.74-.084,5.547.015a15.158,15.158,0,0,1,13.5,8.77,32.762,32.762,0,0,1,1.626,5.049Z" transform="translate(-0.657 -0.73)" fill="#fff"/>
        <path id="Trazado_230859" data-name="Trazado 230859" d="M238,263.335a65.379,65.379,0,0,1-6.754-1.731,23.439,23.439,0,0,1-14.568-25.481c1.668-9.352,7.008-15.82,15.995-18.748,9.2-3,17.446-.757,24.295,6.1a22.465,22.465,0,0,1,6.4,13.566,6.868,6.868,0,0,0,.174.747v3.9c-.065.314-.145.625-.194.941-1.456,9.325-6.544,15.793-15.336,19.215a46.058,46.058,0,0,1-6.115,1.493Zm1.9-7.8a15.8,15.8,0,1,0-15.745-15.866A15.843,15.843,0,0,0,239.9,255.531" transform="translate(-163.674 -163.483)" fill="#fff"/>
        <path id="Trazado_230862" data-name="Trazado 230862" d="M92.439,156.354a3.893,3.893,0,1,1-3.928-3.883,3.913,3.913,0,0,1,3.928,3.883" transform="translate(-64.14 -115.413)" fill="#8bdae6"/>
        <path id="Trazado_230863" data-name="Trazado 230863" d="M161.9,156.4a3.893,3.893,0,1,1-3.881-3.93,3.915,3.915,0,0,1,3.881,3.93" transform="translate(-116.639 -115.414)" fill="#8bdae6"/>
        <path id="Trazado_230864" data-name="Trazado 230864" d="M227.493,152.47a3.894,3.894,0,1,1-3.907,3.9,3.913,3.913,0,0,1,3.907-3.9" transform="translate(-169.143 -115.413)" fill="#8bdae6"/>
        <path id="Trazado_230865" data-name="Trazado 230865" d="M300.839,156.324a3.893,3.893,0,1,1-3.956-3.855,3.913,3.913,0,0,1,3.956,3.855" transform="translate(-221.646 -115.412)" fill="#8bdae6"/>
        <path id="Trazado_230866" data-name="Trazado 230866" d="M92.439,225.843a3.893,3.893,0,1,1-3.919-3.892,3.913,3.913,0,0,1,3.919,3.892" transform="translate(-64.14 -167.925)" fill="#8bdae6"/>
        <path id="Trazado_230867" data-name="Trazado 230867" d="M161.9,225.884a3.893,3.893,0,1,1-3.878-3.933,3.915,3.915,0,0,1,3.878,3.933" transform="translate(-116.64 -167.926)" fill="#8bdae6"/>
        <path id="Trazado_230868" data-name="Trazado 230868" d="M92.438,295.351a3.893,3.893,0,1,1-3.892-3.919,3.914,3.914,0,0,1,3.892,3.919" transform="translate(-64.139 -220.438)" fill="#8bdae6"/>
        <path id="Trazado_230869" data-name="Trazado 230869" d="M158,299.217a3.894,3.894,0,1,1,3.909-3.9,3.913,3.913,0,0,1-3.909,3.9" transform="translate(-116.641 -220.436)" fill="#8bdae6"/>
        <path id="Trazado_230871" data-name="Trazado 230871" d="M304.738,272.282c.763,0,1.379-.035,1.99.006a3.89,3.89,0,0,1,3.665,3.933,3.84,3.84,0,0,1-3.673,3.817c-2.041.076-4.09.077-6.131,0a3.741,3.741,0,0,1-3.613-3.657q-.107-4.183,0-8.372a3.834,3.834,0,0,1,3.863-3.728,3.877,3.877,0,0,1,3.894,3.805c.048,1.355.009,2.713.009,4.2" transform="translate(-224.57 -199.916)" fill="#8bdae6"/>
      </g>
    </g>
  </g>
</svg>
