<svg xmlns="http://www.w3.org/2000/svg" width="287" height="148" viewBox="0 0 287 148">
  <g id="Grupo_159307" data-name="Grupo 159307" transform="translate(-335 -7678)">
    <g id="Grupo_159306" data-name="Grupo 159306">
      <rect id="Rectángulo_47414" data-name="Rectángulo 47414" width="287" height="148" rx="27" transform="translate(335 7678)" fill="#008bfd"/>
      <rect id="Rectángulo_48079" data-name="Rectángulo 48079" width="33" height="47" transform="translate(335 7779)" fill="#008bfd"/>
      <rect id="Rectángulo_48080" data-name="Rectángulo 48080" width="26" height="40" transform="translate(596 7786)" fill="#008bfd"/>
      <g id="Grupo_158618" data-name="Grupo 158618" transform="translate(426 7689.424)">
        <g id="Grupo_158275" data-name="Grupo 158275" transform="translate(0 0)">
          <path id="Trazado_230906" data-name="Trazado 230906" d="M21.071,39.895c0-4.9,0-9.683,0-14.462,0-3.057,1.436-4.492,4.492-4.493q12.212,0,24.424,0h1.441c-.288-4.96,1.146-9.185,5.076-12.313a12.72,12.72,0,0,1,8.7-2.842,12.937,12.937,0,0,1,9.688,4.779A13.849,13.849,0,0,1,77.954,20.88h3.78V11.357c1.574,0,3.028.091,4.467-.016a32.1,32.1,0,0,0,15.3-5.231,1.826,1.826,0,0,1,2.315.012,32.682,32.682,0,0,0,18.853,5.334c.231-.006.463.019.848.036v1.291c0,4.7.017,9.407,0,14.111-.048,11.234-4.781,19.833-14.5,25.578-.729.431-.676.962-.676,1.581q0,22.175,0,44.349,0,10.317,0,20.633c0,2.9-1.473,4.362-4.388,4.362q-39.243,0-78.487,0-4.381,0-4.387-4.362,0-18.677.017-37.353a2.489,2.489,0,0,0-.815-1.959q-4.4-4.32-8.727-8.711A19.146,19.146,0,0,1,9.878,45.7a14.567,14.567,0,0,1,11.194-5.8M62.062,62.682c5.327,0,10.5.012,15.673-.03a1.383,1.383,0,0,0,.9-.683,5.666,5.666,0,1,1,.014,5.266,1.6,1.6,0,0,0-1.11-.725q-8.12-.07-16.241-.006a1.7,1.7,0,0,0-1.106.6c-1.3,1.533-2.413,3.235-3.817,4.657-7,7.087-14.066,14.1-21.092,21.161a4.506,4.506,0,0,0-.612,1.174l-2.158-2.041v19.884H96.854V82.983c-1.112,1.241-2.134,2.292-3.038,3.435a2.948,2.948,0,0,0-.629,1.666c-.048,5.019-.028,10.038-.028,15.058v1.216H70.475v-22.7h1.369q8.061,0,16.122,0c1.656,0,3.512.411,4.91-.2,1.354-.593,2.3-2.214,3.3-3.479A3.48,3.48,0,0,0,96.921,76c.052-7.312.017-14.624.053-21.935a1.726,1.726,0,0,0-1-1.754A26.951,26.951,0,0,1,84.333,39.447c-.979-2.258-1.619-4.662-2.431-7.051H32.453c0,3.541.114,7.017-.048,10.48a3.92,3.92,0,0,0,2.066,3.78c.639-.66,1.282-1.345,1.947-2.008,7.631-7.617,19.165-5.835,24.146,3.738a19.216,19.216,0,0,1,1.5,14.3M34.241,52.228c-1.918-1.992-3.64-3.959-5.547-5.726a10.7,10.7,0,0,0-15.281.861,15.365,15.365,0,0,0,.83,20.965C20.7,74.841,27.2,81.3,33.684,87.781c.213.212.462.388.735.615L56,66.79l-.248-.313c-3.865,0-7.731.024-11.6-.021a1.434,1.434,0,0,0-1.53.94c-1.993,4.077-4.043,8.127-6.076,12.186-.185.369-.389.728-.672,1.256L30.392,64.42c-.76,1.9-1.362,3.484-2.033,5.035-.142.328-.533.77-.821.779-2.119.066-4.242.036-6.389.036V66.477a17.579,17.579,0,0,1,2.427.02c1.433.207,2.159-.287,2.627-1.72.782-2.395,1.828-4.7,2.768-7.047.546-1.361,1.1-2.716,1.753-4.318L36.6,71.006c1.312-2.624,2.537-5,3.685-7.419a1.428,1.428,0,0,1,1.538-.924c5.017.038,10.036-.018,15.053.05a1.359,1.359,0,0,0,1.59-1.244A15.6,15.6,0,0,0,57.5,50.727c-3.889-8.371-13.464-9.033-18.621-3.191-1.381,1.565-2.934,2.979-4.636,4.692m66.451,2.66v60.863H28.659v-1.327q0-12.628-.009-25.257a2.027,2.027,0,0,0-.234-1.219c-1.046-1.2-2.18-2.317-3.46-3.649v35.241h79.524V54.889ZM85.613,15.5c-.005.089-.039.4-.039.709,0,3.95-.028,7.9.005,11.849a24.462,24.462,0,0,0,16.233,22.832,2.45,2.45,0,0,0,1.576.035c9.208-3.592,14.806-10.244,16.027-20.07.58-4.673.232-9.461.3-14.2.007-.463,0-.926,0-1.376-.281-.055-.434-.1-.59-.113a37.539,37.539,0,0,1-15.919-4.915,1.823,1.823,0,0,0-1.37.108,77.282,77.282,0,0,1-7.143,3.1c-2.917.908-5.975,1.365-9.083,2.042m-56.972,13H81.68V24.8H24.911V40.24l3.73,1.424Zm45.606,72.052H89.3V91.479l-5.418,6.064-7.08-7.058,2.554-2.568L83.5,92.276l6.006-6.768H74.247Zm-.116-79.627c.366-4.2-.819-7.637-4.4-9.879a8.93,8.93,0,0,0-10.169.077c-3.506,2.265-4.655,5.674-4.282,9.754h3.738c0-.657-.011-1.242,0-1.828a5.688,5.688,0,1,1,11.375.023c.013.612,0,1.224,0,1.853Zm-11.225-.073h3.653c.131-2.661-.433-3.725-1.9-3.689-1.485.036-2.053,1.219-1.752,3.689M85.561,64.532a1.888,1.888,0,1,0-1.841,1.936,1.911,1.911,0,0,0,1.841-1.936" transform="translate(-5.876 -5.701)" fill="#fff"/>
          <rect id="Rectángulo_47606" data-name="Rectángulo 47606" width="11.233" height="3.655" transform="translate(60.817 30.497)" fill="#8bdae6"/>
          <rect id="Rectángulo_47607" data-name="Rectángulo 47607" width="11.242" height="3.65" transform="translate(60.805 38.063)" fill="#8bdae6"/>
          <rect id="Rectángulo_47608" data-name="Rectángulo 47608" width="11.233" height="3.658" transform="translate(60.782 45.654)" fill="#8bdae6"/>
          <rect id="Rectángulo_47609" data-name="Rectángulo 47609" width="3.626" height="3.689" transform="translate(41.827 94.991)" fill="#8bdae6"/>
          <rect id="Rectángulo_47610" data-name="Rectángulo 47610" width="3.647" height="3.657" transform="translate(49.432 95.008)" fill="#8bdae6"/>
          <rect id="Rectángulo_47611" data-name="Rectángulo 47611" width="3.655" height="3.635" transform="translate(56.989 95.019)" fill="#8bdae6"/>
          <path id="Trazado_230916" data-name="Trazado 230916" d="M288.92,60.849c0,1.3.016,2.479,0,3.654a3.785,3.785,0,0,1-3.856,3.931q-1.835.04-3.671,0a3.774,3.774,0,0,1-3.844-3.821c-.028-1.214-.005-2.429-.005-3.762-1.28,0-2.453.014-3.626,0a3.789,3.789,0,0,1-3.959-3.948c-.018-1.224-.031-2.449,0-3.672a3.771,3.771,0,0,1,3.787-3.755c1.216-.031,2.434-.005,3.793-.005,0-1.255-.012-2.425,0-3.6a3.809,3.809,0,0,1,4.032-3.993c1.184-.012,2.369-.027,3.553,0a3.773,3.773,0,0,1,3.785,3.757c.036,1.219.007,2.44.007,3.825,1.191,0,2.318-.006,3.446,0a3.816,3.816,0,0,1,4.143,4.123c.009,1.145.024,2.291-.005,3.435a3.78,3.78,0,0,1-3.847,3.819c-1.182.026-2.365,0-3.735,0m-3.816-3.84h7.551V53.241h-7.574v-7.51h-3.767v7.575H273.8v3.768h7.574v7.51H285.1Z" transform="translate(-186.462 -30.432)" fill="#8bdae6"/>
        </g>
      </g>
    </g>
  </g>
</svg>
