<svg xmlns="http://www.w3.org/2000/svg" width="287" height="148" viewBox="0 0 287 148">
  <g id="Grupo_159306" data-name="Grupo 159306" transform="translate(-335 -7678)">
    <rect id="Rectángulo_47414" data-name="Rectángulo 47414" width="287" height="148" rx="27" transform="translate(335 7678)" fill="#008bfd"/>
    <rect id="Rectángulo_48079" data-name="Rectángulo 48079" width="33" height="47" transform="translate(335 7779)" fill="#008bfd"/>
    <rect id="Rectángulo_48080" data-name="Rectángulo 48080" width="26" height="40" transform="translate(596 7786)" fill="#008bfd"/>
    <g id="Grupo_158619" data-name="Grupo 158619" transform="translate(422.554 7688.992)">
      <g id="Grupo_158278" data-name="Grupo 158278" transform="translate(0)">
        <path id="Trazado_230917" data-name="Trazado 230917" d="M118.031,156.841c-.5-.015-1-.043-1.5-.043q-34.521,0-69.042.026c-1.148,0-1.554-.328-1.783-1.445-.908-4.417-1.931-8.809-3.122-13.236q-3.441,12.033-6.893,24.1H30.715l-5.267-33.294a7.22,7.22,0,0,0-.382.8q-2.178,7.214-4.34,14.433c-.17.57-.282,1.02-1.1,1.015-6.377-.041-12.755-.025-19.133-.029a3.449,3.449,0,0,1-.428-.066v-3.773H1.257c5.11,0,10.22-.022,15.33.022a1.152,1.152,0,0,0,1.34-1.009c.782-2.768,1.59-5.529,2.476-8.265a1.5,1.5,0,0,0-.542-1.853A58.668,58.668,0,0,1,0,89.785a1.527,1.527,0,0,1,.651-1.134q18.718-9.91,37.474-19.75a3.2,3.2,0,0,1,.406-.15c10.672,12.981,29.846,13.485,40.98-.023.394.2.8.4,1.207.608q18.028,9.492,36.057,18.981a12.647,12.647,0,0,0,1.254.5v4.842c-.071.373-.156.744-.21,1.12-.377,2.579-.6,5.191-1.146,7.732a57.562,57.562,0,0,1-19.69,32.719,57.568,57.568,0,0,1-40.07,13.84c-2.9-.091-5.785-.491-8.834-.762l1.032,4.637h1.63q31.514,0,63.027,0c1.421,0,2.842-.016,4.262-.025ZM45.3,135.891c.553,2.466,1.112,4.852,1.61,7.252a1.153,1.153,0,0,0,1.072,1.077,55.191,55.191,0,0,0,66.181-51.85,1.545,1.545,0,0,0-.985-1.669Q97.319,82.406,81.5,74.03a1.493,1.493,0,0,0-2.057.275,29.68,29.68,0,0,1-41.078-.158c-.455-.42-.791-.676-1.475-.314C26.106,79.539,15.3,85.207,4.52,90.92a1.494,1.494,0,0,0-.638,1.129,42.558,42.558,0,0,0,.295,4.71,54.87,54.87,0,0,0,13.883,30.4c1.165,1.3,2.4,2.534,3.782,3.994.481-1.6.834-2.848,1.242-4.075.093-.28.373-.7.58-.709,1.521-.061,3.045-.033,4.6-.033.507,3.217.976,6.285,1.485,9.347.09.538.193,1.326.553,1.528,2.728,1.528,5.522,2.94,8.436,4.46l1.69-5.785ZM33.463,159.269l.249.062,4.012-14.062-6.976-3.22,2.714,17.221" transform="translate(-0.001 -48.238)" fill="#fff"/>
        <rect id="Rectángulo_47612" data-name="Rectángulo 47612" width="3.689" height="3.738" transform="translate(57.157)" fill="#fff"/>
        <path id="Trazado_230918" data-name="Trazado 230918" d="M175.474,47.183l2.642,2.591c-7.107,7.673-20.85,8.717-29.364.139l2.738-2.554a17.192,17.192,0,0,0,23.984-.176" transform="translate(-104.404 -33.116)" fill="#fff"/>
        <path id="Trazado_230919" data-name="Trazado 230919" d="M171.143,27.367l2.687-2.555c3.463,2.691,7.047,2.721,10.666-.069l2.529,2.623c-3.732,4.113-11.273,4.644-15.881,0" transform="translate(-120.119 -17.366)" fill="#fff"/>
        <path id="Trazado_230922" data-name="Trazado 230922" d="M74.266,134.107c2.27-2.414,4.647-4.475,8.036-4.924a11.16,11.16,0,0,1,8.879,2.648c.666-1.087,1.224-2.178,1.949-3.144,1.762-2.349,3.987-3.786,7.1-3.35a2,2,0,0,0,1.248-.39A19.005,19.005,0,0,1,131.1,136.5c2.4,10.523-5.148,21.41-15.837,22.736-1.659.206-3.362.03-5.042.1a3.446,3.446,0,0,0-1.478.455c-4.344,2.447-8.554,5.167-13.033,7.332a38.237,38.237,0,0,1-19.473,3.662,16.255,16.255,0,0,1-7.371-2.42,96.283,96.283,0,0,1-9.3-5.952A82.5,82.5,0,0,1,51.729,155c-.812-.823-1.521-1.457-2.729-1.239a4.347,4.347,0,0,1-.806.006c-2.763-.031-4.231-1.506-4.266-4.3-.013-1.068,0-2.136,0-3.246-2.732-.309-4.638-1.572-5.419-4.194a7.165,7.165,0,0,1-.245-1.929c-.03-2.113-.035-4.226-.005-6.339a4.333,4.333,0,0,1,3.177-4.525,4.421,4.421,0,0,1,5.038,2.077c.674.976,1.322,1.969,2.032,3.029,3.841-1.442,7.637-2.869,11.434-4.291a12.227,12.227,0,0,1,6.427-.874c3.36.576,5.214,1.743,7.9,4.94m23.882,13.57c-3.774-2-6.373-4.759-7.284-9.03a7.013,7.013,0,0,0-10.728-4.681,31.147,31.147,0,0,0-3.778,3.325c2.575,3.057,5.974,3.259,9.423,3.172v3.686c-5.984.7-11.228-1.586-14.246-7.043-2.17-3.924-5.8-5.149-10.006-3.588-3.129,1.161-6.247,2.35-9.372,3.521-1.71.641-3.425,1.269-5.15,1.908-1.194-1.79-2.3-3.5-3.468-5.161a4.373,4.373,0,0,0-1.1-.813,4.513,4.513,0,0,0-.388,1.213c-.043,1.767-.02,3.535-.018,5.3,0,2.3.575,2.889,2.838,2.892,2.229,0,4.462.084,6.686-.018,3.736-.173,6.99.776,9.652,3.942l1.1-1.674,2.561,2.932c-1.579,1.97-1.9,2.849-1.857,4.9a15.2,15.2,0,0,0,14.568,14.61,38.9,38.9,0,0,0,21.161-5.74q2.9-1.732,5.795-3.481l-4.672-3.06,2.557-2.892c.254.185.41.291.558.408a15.209,15.209,0,1,0,8.532-27.036,15.736,15.736,0,0,0-9.367,3.98,1.514,1.514,0,0,1-1.258.284c-2.065-.766-3.221-.479-4.635,1.236a7.789,7.789,0,0,0-.95,9.181,10.43,10.43,0,0,0,2.123,2.664,24.157,24.157,0,0,0,2.767,1.991l-2.047,3.068M59.807,157.783c-.173-2.285-.349-4.7-.548-7.115a2.315,2.315,0,0,0-.267-.754,5.568,5.568,0,0,0-4.067-3.434,69.325,69.325,0,0,0-7.067-.444V150c1.23,0,2.377.049,3.519-.017a1.9,1.9,0,0,1,1.823.863,38.807,38.807,0,0,0,6.606,6.941" transform="translate(-26.837 -85.235)" fill="#8bdae6"/>
      </g>
    </g>
  </g>
</svg>
