<svg xmlns="http://www.w3.org/2000/svg" xmlns:xlink="http://www.w3.org/1999/xlink" width="1329.773" height="1004" viewBox="0 0 1329.773 1004">
  <defs>
    <clipPath id="clip-path">
      <rect id="Rectángulo_47707" data-name="Rectángulo 47707" width="513" height="250.717" fill="#efeeeb"/>
    </clipPath>
    <clipPath id="clip-path-2">
      <rect id="Rectángulo_47707-2" data-name="Rectángulo 47707" width="672" height="328.426" fill="#efeeeb"/>
    </clipPath>
  </defs>
  <g id="Grupo_159284" data-name="Grupo 159284" transform="translate(-129 -10898)">
    <rect id="Rectángulo_47776" data-name="Rectángulo 47776" width="1328" height="996" transform="translate(129 10899)" fill="#f6f5f4"/>
    <g id="Grupo_158464" data-name="Grupo 158464" transform="translate(1458.773 10898) rotate(90)" clip-path="url(#clip-path)">
      <path id="Trazado_231243" data-name="Trazado 231243" d="M513,0a92.685,92.685,0,0,1-29.71,18.785c-20.077,7.764-42.71,9.262-60.932,20.709-24.007,15.075-35.166,44.057-41.212,71.747s-8.781,56.809-22.427,81.655c-28.281,51.546-98.6,69.273-154.349,50.584-37.117-12.45-68.119-37.543-93.115-68.119a331.96,331.96,0,0,1-33.063-49.21C56.7,87.33,40.937,44.579,11.461,11.42A134.171,134.171,0,0,0,0,0Z" fill="#efeeeb"/>
    </g>
    <g id="Grupo_158464-2" data-name="Grupo 158464" transform="translate(458.426 11230) rotate(90)" clip-path="url(#clip-path-2)">
      <path id="Trazado_231243-2" data-name="Trazado 231243" d="M672,328.426a121.413,121.413,0,0,0-38.918-24.608c-26.3-10.171-55.948-12.133-79.817-27.128-31.448-19.747-46.065-57.712-53.985-93.984-7.9-36.29-11.5-74.417-29.378-106.963C432.855,8.221,340.743-15,267.713,9.481,219.092,25.79,178.481,58.66,145.737,98.713a434.85,434.85,0,0,0-43.311,64.462c-28.154,50.853-48.8,106.855-87.413,150.292A175.748,175.748,0,0,1,0,328.426Z" transform="translate(0 0)" fill="#efeeeb"/>
    </g>
  </g>
</svg>
